<svg class="sm:w-full md:max-w-max-content mx-auto" src="/img/Group.svg" width="940" height="527" viewBox="0 0 940 527" fill="none" xmlns="http://www.w3.org/2000/svg">
  <path d="M939.998 0H1.90735e-06V526.998H939.998V0Z" fill="white"/>
  <path fill-rule="evenodd" clip-rule="evenodd" d="M939.999 2.96615C939.999 1.32792 938.664 0 937.018 0H2.98103C1.33464 0 0 1.32792 0 2.96615V524.034C0 525.672 1.33464 527 2.98103 527H937.018C938.664 527 939.999 525.672 939.999 524.034V2.96615ZM5.96206 5.93231V521.067H934.035V5.93231H5.96206Z" fill="#009AD6"/>
  <path fill-rule="evenodd" clip-rule="evenodd" d="M500.501 382.625C500.465 383.688 501.599 384.903 502.66 384.975C508.452 385.366 529.428 385.366 535.25 384.975C535.863 384.933 536.553 384.554 537.027 384.036C537.408 383.62 537.648 383.115 537.597 382.625C537.016 377.084 535.584 359.452 532.519 352.484C532.111 351.556 528.6 342.381 517.673 343.045C510.322 343.491 506.193 348.675 504.571 352.117C500.485 360.784 500.694 377.023 500.501 382.625Z" fill="#00325B"/>
  <path fill-rule="evenodd" clip-rule="evenodd" d="M551.121 413.772H542.4L542.457 438.423H551.121V413.772Z" fill="#EECAC5"/>
  <path fill-rule="evenodd" clip-rule="evenodd" d="M494.575 413.772H485.854L485.911 438.423H494.575V413.772Z" fill="#EECAC5"/>
  <path fill-rule="evenodd" clip-rule="evenodd" d="M518.404 365.64C521.41 365.64 523.87 371.208 523.87 378.013V385.52L527.59 386.972L528.093 387.17C528.093 393.975 521.41 400.435 518.404 400.435C515.399 400.435 507.163 394.602 507.163 387.797L512.939 385.52V378.013C512.939 371.208 515.399 365.64 518.404 365.64Z" fill="#EECAC5"/>
  <path fill-rule="evenodd" clip-rule="evenodd" d="M531.993 364.263C532.075 364.275 532.155 364.288 532.234 364.306L532.237 364.306L532.236 364.306C533.704 364.624 534.81 365.92 534.829 367.485C534.851 369.303 533.394 370.795 531.575 370.816C529.757 370.838 528.264 369.382 528.243 367.564C528.229 366.507 528.716 365.561 529.483 364.949C529.393 365.921 529.539 367.125 530.779 367.254L530.756 365.355C530.747 364.586 531.466 364.238 531.993 364.263Z" fill="#F1D2CE"/>
  <path fill-rule="evenodd" clip-rule="evenodd" d="M518.427 383.323C512.855 383.323 504.923 375.136 504.923 367.965V357.544C504.923 350.119 511.001 344.044 518.426 344.044H518.427C525.852 344.044 531.93 350.119 531.93 357.544V367.763C531.93 375.622 523.797 383.323 518.427 383.323Z" fill="#F1D2CE"/>
  <path fill-rule="evenodd" clip-rule="evenodd" d="M531.774 365.718C531.774 365.718 527.677 358.246 527.33 355.189C527.241 354.404 527.311 353.55 527.626 352.644C529.169 348.212 529.471 348.651 529.471 348.651C529.471 348.651 535.257 351.257 532.682 363.005L531.774 365.718Z" fill="#00325B"/>
  <path fill-rule="evenodd" clip-rule="evenodd" d="M502.884 366.56C502.884 366.56 517.323 363.212 529.04 357.202C529.04 357.202 530.563 353.345 532.522 352.481C532.522 352.481 528.603 342.378 517.676 343.042C510.325 343.488 505.606 348.452 504.573 352.114C503.999 354.151 502.884 366.56 502.884 366.56Z" fill="#00325B"/>
  <path fill-rule="evenodd" clip-rule="evenodd" d="M531.486 344.59C531.486 344.59 522.639 341.517 518.394 341.517C514.267 341.517 506.014 344.59 506.014 344.59V351.965C506.014 351.965 514.269 349.983 518.396 349.983C522.641 349.983 531.486 351.965 531.486 351.965V344.59Z" fill="#CEF2FF"/>
  <path d="M519.424 343.355H518.047V348.052H519.424V343.355Z" fill="#009AD6"/>
  <path fill-rule="evenodd" clip-rule="evenodd" d="M521.109 346.455V345.078H516.41V346.455H521.109Z" fill="#009AD6"/>
  <path fill-rule="evenodd" clip-rule="evenodd" d="M496.664 438.465V416.929L495.974 420.981L484.217 420.937C484.217 420.937 485.108 414.554 486.812 407.825C487.762 404.072 489.107 400.311 490.165 398.118C491.591 395.163 492.781 394.134 494.148 393.352C495.193 392.755 497.154 391.937 497.154 391.937L502.901 389.519L509.564 386.9L509.572 386.906L509.564 386.892L518.333 394.919L528.125 387.176L528.119 387.191L528.125 387.184L533.764 389.519L539.511 391.937C539.511 391.937 541.472 392.755 542.517 393.352C543.884 394.134 545.073 395.163 546.5 398.118C547.558 400.311 548.903 404.072 549.853 407.825C551.557 414.554 552.448 420.937 552.448 420.937L540.69 420.981L540.001 416.929V438.465H496.664Z" fill="#E2F7FF"/>
  <path d="M535.326 409.751H524.222V412.047H535.326V409.751Z" fill="#009AD6"/>
  <path fill-rule="evenodd" clip-rule="evenodd" d="M537.588 70.8237C537.583 70.6137 537.58 70.4025 537.58 70.1906C537.58 56.4309 548.753 45.2599 562.516 45.2599C573.494 45.2599 582.825 52.3684 586.15 62.2271C587.814 61.877 589.538 61.6929 591.306 61.6929C603.89 61.6929 614.31 71.0332 616.001 83.1508C616.081 83.1498 616.161 83.1493 616.242 83.1493C626.427 83.1493 634.697 91.4171 634.697 101.6C634.697 111.784 626.427 120.052 616.242 120.052H531.984C518.222 120.052 507.048 108.881 507.048 95.121C507.048 81.3616 518.222 70.1906 531.984 70.1906C533.911 70.1906 535.787 70.4094 537.588 70.8237Z" fill="#CEF2FF"/>
  <path d="M544.468 96.7229H546.551L550.653 103.331H550.678V96.7229H552.25V105.55H550.254L546.064 98.7305H546.039V105.55H544.468V96.7229Z" fill="#004E8E"/>
  <path d="M554.128 99.5384H555.625V105.523H554.128V99.5384ZM553.916 97.5059C553.916 97.2652 554.006 97.0551 554.185 96.8763C554.363 96.6975 554.59 96.608 554.864 96.608C555.139 96.608 555.369 96.6932 555.556 96.8639C555.743 97.0343 555.837 97.2479 555.837 97.5059C555.837 97.7636 555.743 97.9777 555.556 98.1479C555.369 98.3183 555.139 98.4035 554.864 98.4035C554.59 98.4035 554.363 98.3142 554.185 98.1354C554.006 97.9571 553.916 97.7471 553.916 97.5059Z" fill="#004E8E"/>
  <path d="M560.346 100.587C560.072 100.587 559.829 100.637 559.617 100.736C559.404 100.835 559.226 100.97 559.08 101.14C558.935 101.31 558.822 101.511 558.744 101.743C558.665 101.975 558.625 102.223 558.625 102.489C558.625 102.729 558.665 102.961 558.744 103.185C558.822 103.408 558.935 103.609 559.08 103.787C559.226 103.966 559.404 104.108 559.617 104.216C559.829 104.324 560.068 104.378 560.334 104.378C560.608 104.378 560.855 104.326 561.075 104.222C561.296 104.118 561.483 103.979 561.636 103.806C561.79 103.632 561.909 103.431 561.992 103.203C562.075 102.975 562.117 102.737 562.117 102.489C562.117 102.232 562.075 101.987 561.992 101.755C561.909 101.523 561.79 101.321 561.636 101.147C561.483 100.972 561.298 100.835 561.082 100.736C560.866 100.637 560.621 100.587 560.346 100.587ZM563.539 99.5397V104.988C563.539 105.529 563.472 106.017 563.339 106.453C563.206 106.89 563 107.26 562.721 107.563C562.443 107.866 562.092 108.101 561.668 108.268C561.244 108.433 560.741 108.517 560.159 108.517C559.918 108.517 559.662 108.496 559.392 108.455C559.122 108.412 558.856 108.351 558.594 108.268C558.332 108.184 558.081 108.08 557.84 107.956C557.599 107.831 557.382 107.69 557.191 107.532L558.051 106.372C558.342 106.647 558.671 106.857 559.037 107.002C559.403 107.147 559.772 107.22 560.146 107.22C560.504 107.22 560.806 107.168 561.05 107.064C561.296 106.959 561.491 106.815 561.636 106.632C561.783 106.448 561.887 106.231 561.948 105.981C562.011 105.731 562.043 105.456 562.043 105.155V104.717H562.018C561.801 105.011 561.525 105.236 561.188 105.391C560.851 105.547 560.475 105.624 560.059 105.624C559.61 105.624 559.203 105.541 558.838 105.375C558.472 105.209 558.162 104.984 557.909 104.702C557.654 104.419 557.457 104.089 557.316 103.71C557.174 103.332 557.104 102.931 557.104 102.507C557.104 102.075 557.172 101.668 557.309 101.285C557.447 100.903 557.642 100.571 557.895 100.288C558.149 100.005 558.456 99.7809 558.819 99.6144C559.18 99.4488 559.585 99.365 560.034 99.365C560.458 99.365 560.853 99.4524 561.219 99.6268C561.585 99.8016 561.875 100.072 562.092 100.437H562.117V99.5397H563.539Z" fill="#004E8E"/>
  <path d="M571.75 100.686V99.4898H572.798V97.7567H574.269V99.4898H575.766V100.686H574.269V103.467C574.269 103.733 574.317 103.953 574.412 104.128C574.508 104.302 574.722 104.39 575.055 104.39C575.155 104.39 575.262 104.379 575.379 104.358C575.496 104.338 575.599 104.307 575.691 104.265L575.741 105.437C575.608 105.486 575.45 105.526 575.267 105.555C575.084 105.584 574.909 105.599 574.743 105.599C574.344 105.599 574.02 105.543 573.771 105.43C573.521 105.319 573.323 105.165 573.178 104.969C573.032 104.774 572.933 104.55 572.879 104.296C572.825 104.042 572.798 103.771 572.798 103.48V100.686H571.75Z" fill="#004E8E"/>
  <path d="M576.873 99.5384H578.37V105.523H576.873V99.5384ZM576.661 97.5059C576.661 97.2652 576.751 97.0551 576.929 96.8763C577.108 96.6975 577.335 96.608 577.609 96.608C577.884 96.608 578.114 96.6932 578.301 96.8639C578.488 97.0343 578.581 97.2479 578.581 97.5059C578.581 97.7636 578.488 97.9777 578.301 98.1479C578.114 98.3183 577.884 98.4035 577.609 98.4035C577.335 98.4035 577.108 98.3142 576.929 98.1354C576.751 97.9571 576.661 97.7471 576.661 97.5059Z" fill="#004E8E"/>
  <path d="M580.193 99.5395H581.615V100.5H581.64C581.773 100.2 582.003 99.9367 582.333 99.7079C582.661 99.4792 583.049 99.365 583.498 99.365C583.889 99.365 584.224 99.4336 584.502 99.5707C584.78 99.7079 585.01 99.8884 585.188 100.113C585.367 100.337 585.498 100.595 585.581 100.886C585.664 101.177 585.706 101.477 585.706 101.784V105.524H584.209V102.208C584.209 102.033 584.196 101.85 584.171 101.659C584.147 101.468 584.093 101.296 584.01 101.142C583.927 100.988 583.812 100.861 583.667 100.762C583.521 100.662 583.328 100.612 583.086 100.612C582.846 100.612 582.638 100.66 582.463 100.755C582.289 100.851 582.145 100.973 582.033 101.123C581.921 101.273 581.835 101.445 581.778 101.641C581.719 101.836 581.69 102.033 581.69 102.233V105.524H580.193V99.5395Z" fill="#004E8E"/>
  <path d="M590.356 100.587C590.082 100.587 589.839 100.637 589.627 100.736C589.415 100.835 589.236 100.97 589.091 101.14C588.945 101.31 588.833 101.511 588.754 101.743C588.675 101.975 588.635 102.223 588.635 102.489C588.635 102.729 588.675 102.961 588.754 103.185C588.833 103.408 588.945 103.609 589.091 103.787C589.236 103.966 589.415 104.108 589.627 104.216C589.839 104.324 590.078 104.378 590.344 104.378C590.618 104.378 590.865 104.326 591.086 104.222C591.306 104.118 591.493 103.979 591.647 103.806C591.801 103.632 591.92 103.431 592.002 103.203C592.086 102.975 592.127 102.737 592.127 102.489C592.127 102.232 592.086 101.987 592.002 101.755C591.92 101.523 591.801 101.321 591.647 101.147C591.493 100.972 591.308 100.835 591.093 100.736C590.876 100.637 590.631 100.587 590.356 100.587ZM593.549 99.5397V104.988C593.549 105.529 593.483 106.017 593.35 106.453C593.217 106.89 593.011 107.26 592.732 107.563C592.453 107.866 592.102 108.101 591.678 108.268C591.255 108.433 590.752 108.517 590.17 108.517C589.928 108.517 589.673 108.496 589.403 108.455C589.132 108.412 588.866 108.351 588.604 108.268C588.343 108.184 588.091 108.08 587.85 107.956C587.609 107.831 587.393 107.69 587.202 107.532L588.062 106.372C588.352 106.647 588.681 106.857 589.047 107.002C589.413 107.147 589.783 107.22 590.157 107.22C590.514 107.22 590.816 107.168 591.061 107.064C591.306 106.959 591.502 106.815 591.647 106.632C591.793 106.448 591.897 106.231 591.959 105.981C592.021 105.731 592.053 105.456 592.053 105.155V104.717H592.028C591.812 105.011 591.535 105.236 591.198 105.391C590.862 105.547 590.485 105.624 590.07 105.624C589.621 105.624 589.213 105.541 588.848 105.375C588.482 105.209 588.172 104.984 587.919 104.702C587.665 104.419 587.467 104.089 587.326 103.71C587.185 103.332 587.115 102.931 587.115 102.507C587.115 102.075 587.182 101.668 587.32 101.285C587.457 100.903 587.653 100.571 587.906 100.288C588.16 100.005 588.467 99.7809 588.829 99.6144C589.191 99.4488 589.596 99.365 590.044 99.365C590.469 99.365 590.864 99.4524 591.23 99.6268C591.595 99.8016 591.886 100.072 592.102 100.437H592.127V99.5397H593.549Z" fill="#004E8E"/>
  <path d="M599.041 102.794H598.705C598.464 102.794 598.21 102.805 597.944 102.825C597.678 102.846 597.432 102.892 597.208 102.962C596.984 103.033 596.797 103.133 596.647 103.261C596.497 103.391 596.423 103.567 596.423 103.791C596.423 103.933 596.453 104.051 596.516 104.147C596.579 104.242 596.659 104.32 596.759 104.377C596.859 104.435 596.971 104.477 597.096 104.502C597.22 104.527 597.345 104.539 597.47 104.539C597.986 104.539 598.376 104.402 598.642 104.128C598.908 103.854 599.041 103.48 599.041 103.006V102.794ZM599.066 104.764H599.029C598.879 105.03 598.638 105.248 598.306 105.418C597.973 105.588 597.595 105.674 597.17 105.674C596.929 105.674 596.678 105.643 596.416 105.58C596.154 105.518 595.913 105.414 595.693 105.269C595.473 105.123 595.289 104.932 595.144 104.695C594.999 104.458 594.926 104.166 594.926 103.816C594.926 103.368 595.053 103.01 595.306 102.744C595.56 102.478 595.886 102.275 596.285 102.133C596.684 101.992 597.127 101.898 597.613 101.852C598.1 101.807 598.575 101.784 599.041 101.784V101.635C599.041 101.26 598.906 100.984 598.636 100.805C598.366 100.627 598.044 100.537 597.67 100.537C597.354 100.537 597.05 100.604 596.759 100.736C596.468 100.87 596.227 101.032 596.036 101.223L595.262 100.313C595.604 99.9972 595.996 99.76 596.441 99.6021C596.885 99.4444 597.337 99.365 597.794 99.365C598.326 99.365 598.765 99.4399 599.11 99.5896C599.455 99.7394 599.727 99.9348 599.927 100.175C600.126 100.417 600.265 100.687 600.345 100.986C600.423 101.285 600.463 101.585 600.463 101.884V105.525H599.066V104.764Z" fill="#004E8E"/>
  <path d="M603.717 96.0337H602.22V105.46H603.717V96.0337Z" fill="#004E8E"/>
  <path d="M609.742 101.933C609.742 101.742 609.715 101.559 609.661 101.385C609.607 101.211 609.522 101.057 609.406 100.924C609.289 100.791 609.142 100.685 608.963 100.606C608.784 100.527 608.574 100.487 608.333 100.487C607.884 100.487 607.503 100.623 607.192 100.892C606.88 101.163 606.708 101.51 606.675 101.933H609.742ZM611.239 102.607V102.806C611.239 102.873 611.235 102.94 611.226 103.006H606.675C606.691 103.222 606.747 103.419 606.843 103.598C606.938 103.777 607.065 103.931 607.223 104.059C607.381 104.188 607.56 104.29 607.76 104.365C607.959 104.44 608.167 104.477 608.383 104.477C608.757 104.477 609.073 104.409 609.331 104.271C609.589 104.134 609.8 103.945 609.967 103.704L610.965 104.502C610.374 105.3 609.518 105.699 608.395 105.699C607.93 105.699 607.502 105.626 607.111 105.481C606.721 105.335 606.381 105.13 606.094 104.864C605.808 104.598 605.583 104.271 605.421 103.885C605.259 103.498 605.178 103.06 605.178 102.569C605.178 102.088 605.259 101.649 605.421 101.254C605.583 100.86 605.806 100.523 606.089 100.244C606.371 99.9655 606.705 99.7497 607.092 99.5959C607.478 99.442 607.897 99.365 608.345 99.365C608.761 99.365 609.146 99.4336 609.499 99.5709C609.853 99.7082 610.158 99.912 610.416 100.182C610.673 100.452 610.875 100.788 611.02 101.192C611.166 101.595 611.239 102.067 611.239 102.607Z" fill="#004E8E"/>
  <path d="M617.11 102.408H621L619.055 97.7206L617.11 102.408ZM615.813 105.55H614.828L618.643 96.7229H619.516L623.308 105.55H622.31L621.337 103.231H616.773L615.813 105.55Z" fill="#009AD6"/>
  <path d="M625.49 96.7229H624.592V105.55H625.49V96.7229Z" fill="#009AD6"/>
  <path d="M628.954 104.863C628.954 105.037 628.891 105.193 628.767 105.33C628.642 105.468 628.48 105.536 628.281 105.536C628.081 105.536 627.919 105.468 627.794 105.33C627.669 105.193 627.607 105.037 627.607 104.863C627.607 104.688 627.669 104.532 627.794 104.395C627.919 104.258 628.081 104.19 628.281 104.19C628.48 104.19 628.642 104.258 628.767 104.395C628.891 104.532 628.954 104.688 628.954 104.863Z" fill="#009AD6"/>
  <path d="M519.222 101.323C519.199 106.555 523.414 110.804 528.572 110.939C533.952 111.081 538.43 106.766 538.445 101.367C538.459 96.0353 534.186 91.8694 529.113 91.7269C523.647 91.5735 519.203 95.989 519.222 101.323ZM540.107 101.333C540.105 107.546 535.044 112.609 528.837 112.606C522.606 112.603 517.553 107.547 517.559 101.322C517.565 95.1053 522.621 90.0572 528.837 90.0603C535.05 90.0641 540.11 95.1245 540.107 101.333Z" fill="#004E8E"/>
  <path d="M540.215 105.222C540.926 104.837 540.94 104.744 540.432 104.201C539.445 103.148 538.471 102.082 537.486 101.027C536.36 99.8191 535.16 98.7009 533.704 97.8895C533.44 97.7419 533.17 97.6353 532.89 97.5681C532.897 97.56 532.905 97.5516 532.914 97.5437C533.436 97.08 533.86 96.5618 534 95.8459C534.053 95.5711 534.252 95.399 534.552 95.3527C534.777 95.3174 534.996 95.2425 535.217 95.1847L535.21 95.021C534.959 94.9877 534.705 94.9666 534.458 94.9166C534.076 94.8391 533.664 94.8096 533.327 94.638C532.695 94.3166 532.136 94.3541 531.6 94.7882C531.242 95.0782 530.909 95.399 530.556 95.6964C530.038 96.133 529.543 96.3283 529.068 96.2916C529.061 96.2952 529.055 96.2993 529.048 96.3029C528.662 95.8958 528.209 95.6225 527.669 95.4598C526.074 94.979 524.434 94.8953 522.784 94.927C521.34 94.9541 519.897 94.9961 518.453 95.0206C517.71 95.0335 517.653 95.1084 517.872 95.8865C519.436 95.767 520.999 95.647 522.562 95.527C522.568 95.5637 522.574 95.6011 522.581 95.6386C521.03 95.8476 519.479 96.0566 517.934 96.2645C517.977 96.973 517.996 97.0032 518.612 96.8894C519.847 96.6612 521.078 96.4102 522.311 96.1735C522.454 96.1464 522.603 96.149 522.749 96.1377L522.776 96.2623C521.3 96.6038 519.823 96.9449 518.327 97.2907C518.544 97.7781 518.803 97.9694 519.312 97.7981C520.338 97.4522 521.383 97.1601 522.422 96.8493C522.578 96.8021 522.74 96.7728 522.899 96.7349C522.914 96.7797 522.929 96.8249 522.943 96.8695C521.763 97.2885 520.581 97.7081 519.388 98.1317C519.845 98.6649 520.053 98.73 520.613 98.4737C521.259 98.1775 521.894 97.8547 522.535 97.5463C522.665 97.4839 522.8 97.4335 522.934 97.3773C522.955 97.4169 522.976 97.4565 522.998 97.4964C522.288 97.9202 521.578 98.3438 520.823 98.795C521.408 99.0331 521.871 99.0513 522.314 98.609C522.671 98.2538 523.095 97.9663 523.488 97.6493L523.599 97.7601C523.166 98.1638 522.733 98.5677 522.271 98.9988C523.366 99.2837 523.634 98.2082 524.422 97.9805C524.124 98.3001 523.85 98.6474 523.522 98.9311C523.177 99.2301 523.211 99.4785 523.531 99.7905C524.03 99.2685 524.523 98.7513 525.017 98.2346C525.059 98.2699 525.1 98.3059 525.141 98.3417C524.733 98.8152 524.338 99.3014 523.912 99.7589C523.654 100.036 523.63 100.244 524.082 100.487C524.589 99.8565 525.116 99.203 525.643 98.5502C525.691 98.5886 525.74 98.6265 525.789 98.6649C525.298 99.3305 524.808 99.9953 524.262 100.735C524.447 100.85 524.755 101.035 525.061 101.219C525.005 101.419 524.959 101.62 524.926 101.825C525.31 101.98 525.535 102.273 525.66 102.758C525.807 103.323 525.826 103.906 525.593 104.429C525.199 105.315 524.764 106.188 524.274 107.024C523.753 107.913 523.19 108.773 522.959 109.795C522.842 110.314 522.996 110.579 523.522 110.583C523.698 110.584 525.887 110.989 526.026 111.048C526.086 111.073 526.154 111.081 526.218 111.094C526.462 111.143 526.599 111.061 526.606 110.795C526.613 110.531 526.627 110.268 526.646 110.005C526.711 109.088 526.709 108.159 526.864 107.257C527.065 106.093 527.899 105.232 528.513 104.27C528.584 104.16 528.785 104.132 528.924 104.063C529.275 103.891 529.674 103.776 529.966 103.533C530.406 103.165 530.89 102.921 531.409 102.752C531.765 103.255 532.102 103.778 532.286 104.007C532.437 103.1 532.573 102.285 532.71 101.47C532.771 101.478 532.833 101.487 532.895 101.495C532.792 102.328 532.689 103.161 532.59 103.964C533.078 104.118 533.21 103.957 533.23 103.578C533.262 102.955 533.337 102.333 533.393 101.71C533.447 101.715 533.502 101.72 533.556 101.724C533.528 102.438 533.501 103.153 533.472 103.875C533.919 103.887 534.121 103.739 534.096 103.283C534.072 102.85 534.131 102.412 534.153 101.975C534.538 102.699 533.952 103.64 534.917 104.228C534.906 103.597 534.896 103.005 534.884 102.413L535.041 102.416C535.087 102.919 535.175 103.423 535.168 103.925C535.159 104.552 535.494 104.872 536.072 105.126C535.871 104.27 535.681 103.466 535.492 102.661C535.535 102.649 535.578 102.636 535.622 102.624C535.674 102.759 535.733 102.891 535.778 103.028C536.002 103.703 536.213 104.383 536.449 105.054C536.654 105.635 536.846 105.738 537.547 105.695C537.02 104.543 536.5 103.403 535.98 102.264L536.108 102.202C536.191 102.342 536.282 102.479 536.357 102.623C536.856 103.586 537.374 104.54 537.84 105.518C538.071 106.002 538.388 106.055 538.889 105.871C538.097 104.557 537.315 103.259 536.532 101.962L536.641 101.894C536.735 102.006 536.84 102.112 536.92 102.234C537.607 103.284 538.284 104.342 538.98 105.388C539.327 105.909 539.361 105.902 539.9 105.439C538.975 104.186 538.045 102.927 537.117 101.668C537.148 101.647 537.179 101.625 537.21 101.604C538.211 102.809 539.212 104.015 540.215 105.222Z" fill="#009AD6"/>
  <path d="M568.679 99.3003C569.07 99.3003 569.405 99.369 569.684 99.506C569.962 99.6433 570.19 99.8238 570.369 100.048C570.548 100.273 570.679 100.531 570.762 100.821C570.845 101.112 570.887 101.412 570.887 101.719V105.46H569.39V102.168C569.39 101.994 569.378 101.813 569.353 101.625C569.328 101.438 569.276 101.268 569.197 101.114C569.118 100.961 569.006 100.834 568.86 100.734C568.715 100.634 568.522 100.585 568.28 100.585C568.04 100.585 567.832 100.63 567.657 100.721C567.482 100.814 567.337 100.936 567.22 101.09C567.104 101.243 567.017 101.416 566.959 101.607C566.9 101.798 566.871 101.994 566.871 102.193V105.46H565.375V96.0337H566.871V100.31H566.896C566.954 100.185 567.04 100.063 567.152 99.9423C567.264 99.8221 567.395 99.7141 567.544 99.6183C567.694 99.5228 567.865 99.4458 568.056 99.3877C568.247 99.3294 568.455 99.3003 568.679 99.3003Z" fill="#004E8E"/>
  <path fill-rule="evenodd" clip-rule="evenodd" d="M404.424 49.625L382.297 62.6978V88.8452L404.424 75.7725V49.625Z" fill="#AAEAFF"/>
  <path fill-rule="evenodd" clip-rule="evenodd" d="M382.311 62.6978L360.183 49.625V75.7725L382.311 88.8452V62.6978Z" fill="#CEF2FF"/>
  <path fill-rule="evenodd" clip-rule="evenodd" d="M382.311 36.5295L360.183 49.6023L382.311 62.6751L404.439 49.6023L382.311 36.5295Z" fill="#CEF2FF"/>
  <path fill-rule="evenodd" clip-rule="evenodd" d="M361.677 53.5308L372.881 60.1502V62.0798L361.677 55.4604V53.5308Z" fill="#009AD6"/>
  <path fill-rule="evenodd" clip-rule="evenodd" d="M361.677 56.6323L368.557 60.6972V62.627L361.677 58.5622V56.6323Z" fill="#009AD6"/>
  <path fill-rule="evenodd" clip-rule="evenodd" d="M361.677 59.7339L370.325 64.8428V66.7726L361.677 61.6635V59.7339Z" fill="#009AD6"/>
  <path fill-rule="evenodd" clip-rule="evenodd" d="M361.677 62.7206L367.768 66.3194V68.249L361.677 64.6504V62.7206Z" fill="#009AD6"/>
  <path fill-rule="evenodd" clip-rule="evenodd" d="M430.529 91.4387L408.401 104.511V130.659L430.529 117.586V91.4387Z" fill="#AAEAFF"/>
  <path fill-rule="evenodd" clip-rule="evenodd" d="M408.387 104.511L386.26 91.4387V117.586L408.387 130.659V104.511Z" fill="#CEF2FF"/>
  <path fill-rule="evenodd" clip-rule="evenodd" d="M408.387 78.3433L386.26 91.416L408.389 104.49L430.516 91.417L408.387 78.3433Z" fill="#CEF2FF"/>
  <path fill-rule="evenodd" clip-rule="evenodd" d="M387.753 95.3445L398.957 101.964V103.894L387.753 97.2743V95.3445Z" fill="#009AD6"/>
  <path fill-rule="evenodd" clip-rule="evenodd" d="M387.753 98.446L394.633 102.511V104.441L387.753 100.376V98.446Z" fill="#009AD6"/>
  <path fill-rule="evenodd" clip-rule="evenodd" d="M387.753 101.548L396.401 106.657V108.586L387.753 103.477V101.548Z" fill="#009AD6"/>
  <path fill-rule="evenodd" clip-rule="evenodd" d="M387.753 104.534L393.844 108.133V110.063L387.753 106.464V104.534Z" fill="#009AD6"/>
  <path fill-rule="evenodd" clip-rule="evenodd" d="M379.64 91.4387L357.513 104.511V130.659L379.64 117.586V91.4387Z" fill="#AAEAFF"/>
  <path fill-rule="evenodd" clip-rule="evenodd" d="M357.498 104.511L335.371 91.4387V117.586L357.498 130.659V104.511Z" fill="#CEF2FF"/>
  <path fill-rule="evenodd" clip-rule="evenodd" d="M357.499 78.3433L335.371 91.416L357.5 104.49L379.628 91.417L357.499 78.3433Z" fill="#CEF2FF"/>
  <path fill-rule="evenodd" clip-rule="evenodd" d="M336.864 95.3445L348.069 101.964V103.894L336.864 97.2743V95.3445Z" fill="#009AD6"/>
  <path fill-rule="evenodd" clip-rule="evenodd" d="M336.864 98.446L343.745 102.511V104.441L336.864 100.376V98.446Z" fill="#009AD6"/>
  <path fill-rule="evenodd" clip-rule="evenodd" d="M336.864 101.548L345.512 106.657V108.586L336.864 103.477V101.548Z" fill="#009AD6"/>
  <path fill-rule="evenodd" clip-rule="evenodd" d="M336.864 104.534L342.956 108.133V110.063L336.864 106.464V104.534Z" fill="#009AD6"/>
  <text x="502" y="138" stroke="1" fill="#333" style="font-weight: 700; font-size:17px; letter-spacing: 2px">{{ $t('s-solution-feature-1-title') }}}</text>
  <text x="502" y="160" stroke="1" fill="#333" style="font-size:15px; letter-spacing: 1.2px">{{ $t('s-solution-feature-1-desc') }}</text>
  <text x="285" y="158" stroke="1" fill="#333" style="font-weight: 700; font-size:17px; letter-spacing: 2px">{{ $t('s-solution-feature-2-title') }}</text>
  <text x="285" y="181" stroke="1" fill="#333" style="font-size:15px; letter-spacing: 1.2px">{{ $t('s-solution-feature-2-desc') }}</text>
  <text x="100" y="332" stroke="1" fill="#333" style="font-weight: 700; font-size:17px; letter-spacing: 1.5px">{{ $t('s-solution-feature-3-title') }}</text>
  <text x="100" y="355" stroke="1" fill="#333" style="font-size:15px; letter-spacing: 1.2px">{{ $t('s-solution-feature-3-desc') }}</text>
  <text x="700" y="332" stroke="1" fill="#333" style="font-weight: 700; font-size:17px; letter-spacing: 1.5px">{{ $t('s-solution-feature-4-title') }}</text>
  <text x="700" y="354" stroke="1" fill="#333" style="font-size:15px; letter-spacing: 1.2px">{{ $t('s-solution-feature-4-desc') }}</text>
  <text x="400" y="468" stroke="1" fill="#333" style="font-weight: 700; font-size:17px; letter-spacing: 1.5px">{{ $t('s-solution-feature-5-title') }}</text>
  <text x="400" y="489" stroke="1" fill="#333" style="font-size:15px; letter-spacing: 1.2px">{{ $t('s-solution-feature-5-desc') }}</text>
  <!--          <text x="502" y="158" stroke="1" fill="#333" style="font-weight: 700; font-size:17px; letter-spacing: 2px">{{ $t('s-solution-feature-1-title') }}}</text>-->
  <!--          <text x="473" y="180" stroke="1" fill="#333" style="font-size:15px; letter-spacing: 1.2px">{{ $t('s-solution-feature-1-desc') }}</text>-->
  <!--          <text x="335" y="158" stroke="1" fill="#333" style="font-weight: 700; font-size:17px; letter-spacing: 2px">{{ $t('s-solution-feature-2-title') }}</text>-->
  <!--          <text x="317" y="181" stroke="1" fill="#333" style="font-size:15px; letter-spacing: 1.2px">{{ $t('s-solution-feature-2-desc') }}</text>-->
  <!--          <text x="126" y="332" stroke="1" fill="#333" style="font-weight: 700; font-size:17px; letter-spacing: 1.5px">{{ $t('s-solution-feature-3-title') }}</text>-->
  <!--          <text x="115" y="355" stroke="1" fill="#333" style="font-size:15px; letter-spacing: 1.2px">{{ $t('s-solution-feature-3-desc') }}</text>-->
  <!--          <text x="740" y="332" stroke="1" fill="#333" style="font-weight: 700; font-size:17px; letter-spacing: 1.5px">{{ $t('s-solution-feature-4-title') }}</text>-->
  <!--          <text x="762" y="354" stroke="1" fill="#333" style="font-size:15px; letter-spacing: 1.2px">{{ $t('s-solution-feature-4-desc') }}</text>-->
  <!--          <text x="419" y="468" stroke="1" fill="#333" style="font-weight: 700; font-size:17px; letter-spacing: 1.5px">{{ $t('s-solution-feature-5-title') }}</text>-->
  <!--          <text x="411" y="489" stroke="1" fill="#333" style="font-size:15px; letter-spacing: 1.2px">{{ $t('s-solution-feature-5-desc') }}</text>-->
  <path fill-rule="evenodd" clip-rule="evenodd" d="M264.241 206.801C264.241 205.77 263.404 204.933 262.373 204.933H229.46C228.428 204.933 227.592 205.77 227.592 206.801V281.464C227.592 282.494 228.428 283.331 229.46 283.331H262.373C263.404 283.331 264.241 282.494 264.241 281.464V206.801Z" fill="#CEF2FF"/>
  <path fill-rule="evenodd" clip-rule="evenodd" d="M262.563 208.353C262.563 207.416 261.802 206.656 260.865 206.656H230.955C230.018 206.656 229.257 207.416 229.257 208.353V280.001C229.257 280.938 230.018 281.698 230.955 281.698H260.865C261.802 281.698 262.563 280.938 262.563 280.001V208.353Z" fill="#464646"/>
  <path fill-rule="evenodd" clip-rule="evenodd" d="M242.106 256.307H232.477C231.651 256.307 230.98 255.636 230.98 254.81V224.005C230.98 223.179 231.651 222.509 232.477 222.509H258.855C259.681 222.509 260.352 223.179 260.352 224.005V254.81C260.352 255.636 259.681 256.307 258.855 256.307H249.724C249.012 254.931 247.572 254.001 245.915 254.001C244.259 254.001 242.819 254.931 242.106 256.307Z" fill="#2A85BE"/>
  <path fill-rule="evenodd" clip-rule="evenodd" d="M251.985 246.872C252.151 247.038 252.151 247.309 251.985 247.475C251.818 247.642 251.547 247.642 251.381 247.475C251.214 247.309 251.214 247.038 251.381 246.872C251.547 246.705 251.818 246.705 251.985 246.872Z" fill="white"/>
  <path d="M253.236 245.024L252.844 245.415C253.817 246.389 253.817 247.968 252.844 248.942L253.236 249.334C254.426 248.144 254.426 246.213 253.236 245.024ZM252.451 245.807L252.06 246.2C252.6 246.74 252.6 247.618 252.06 248.158L252.451 248.55C253.209 247.792 253.209 246.565 252.451 245.807Z" fill="white"/>
  <path d="M239.079 249.295V245.368H239.662L241.918 248.451V245.368H242.463V249.295H241.88L239.624 246.209V249.295H239.079Z" fill="white"/>
  <path d="M243.444 249.295V245.368H246.342V245.831H244.012V247.047H246.028V247.511H244.012V249.295H243.444Z" fill="white"/>
  <path d="M250.148 247.87L250.716 248.001C250.597 248.428 250.383 248.753 250.073 248.977C249.763 249.202 249.385 249.314 248.938 249.314C248.475 249.314 248.098 249.227 247.808 249.055C247.518 248.883 247.297 248.633 247.146 248.307C246.995 247.98 246.919 247.629 246.919 247.254C246.919 246.845 247.004 246.488 247.175 246.184C247.346 245.879 247.59 245.648 247.905 245.49C248.22 245.332 248.568 245.253 248.946 245.253C249.376 245.253 249.738 245.353 250.031 245.553C250.324 245.753 250.528 246.035 250.643 246.397L250.083 246.517C249.984 246.232 249.839 246.024 249.65 245.893C249.46 245.763 249.222 245.698 248.935 245.698C248.605 245.698 248.329 245.77 248.107 245.915C247.885 246.059 247.73 246.254 247.64 246.497C247.55 246.741 247.505 246.992 247.505 247.251C247.505 247.585 247.558 247.877 247.665 248.126C247.771 248.375 247.937 248.561 248.161 248.684C248.386 248.807 248.629 248.869 248.891 248.869C249.209 248.869 249.479 248.785 249.7 248.617C249.92 248.449 250.07 248.2 250.148 247.87Z" fill="white"/>
  <path d="M245.926 261.702C247.74 261.702 249.211 260.232 249.211 258.417C249.211 256.603 247.74 255.132 245.926 255.132C244.111 255.132 242.64 256.603 242.64 258.417C242.64 260.232 244.111 261.702 245.926 261.702Z" stroke="white" stroke-width="0.0010635" stroke-miterlimit="1.5" stroke-linecap="round" stroke-linejoin="round"/>
  <path d="M257.06 226.299H234.8V238.187H257.06V226.299Z" fill="#464646"/>
  <path d="M238.63 243.415H236.609V245.174" stroke="white" stroke-width="0.000637592" stroke-miterlimit="1.5" stroke-linecap="round" stroke-linejoin="round"/>
  <path d="M253.352 243.415H255.373V245.174" stroke="white" stroke-width="0.000637592" stroke-miterlimit="1.5" stroke-linecap="round" stroke-linejoin="round"/>
  <path d="M238.63 250.917H236.609V249.159" stroke="white" stroke-width="0.000637592" stroke-miterlimit="1.5" stroke-linecap="round" stroke-linejoin="round"/>
  <path d="M253.352 250.917H255.373V249.159" stroke="white" stroke-width="0.000637592" stroke-miterlimit="1.5" stroke-linecap="round" stroke-linejoin="round"/>
  <path fill-rule="evenodd" clip-rule="evenodd" d="M259.972 185.749H231.656L227.592 202.701H264.241L259.972 185.749Z" fill="#CEF2FF"/>
  <path fill-rule="evenodd" clip-rule="evenodd" d="M231.86 302.64H260.177L264.241 285.689H227.592L231.86 302.64Z" fill="#CEF2FF"/>
  <path d="M159.716 265.471H149.794V296.219H159.716V265.471Z" fill="#EECAC5"/>
  <path d="M105.152 265.471H95.2295V296.219H105.152V265.471Z" fill="#EECAC5"/>
  <path fill-rule="evenodd" clip-rule="evenodd" d="M127.534 220.785C131.15 220.785 134.108 225.95 134.108 232.263V241.585C134.108 247.898 131.15 253.063 127.534 253.063C123.919 253.063 120.961 247.898 120.961 241.585V232.263C120.961 225.95 123.919 220.785 127.534 220.785Z" fill="#EECAC5"/>
  <path fill-rule="evenodd" clip-rule="evenodd" d="M140.121 219.523C140.196 219.534 140.271 219.547 140.344 219.562L140.347 219.563L140.346 219.563C141.707 219.858 142.734 221.06 142.752 222.511C142.771 224.198 141.42 225.582 139.733 225.602C138.046 225.623 136.662 224.272 136.641 222.585C136.629 221.605 137.081 220.727 137.792 220.159C137.708 221.061 137.844 222.178 138.994 222.298L138.973 220.536C138.964 219.823 139.632 219.5 140.121 219.523Z" fill="#F1D2CE"/>
  <path fill-rule="evenodd" clip-rule="evenodd" d="M115.622 219.522C115.546 219.532 115.472 219.544 115.398 219.559L115.396 219.56V219.559C114.031 219.835 112.988 221.023 112.95 222.474C112.906 224.16 114.239 225.563 115.925 225.607C117.612 225.651 119.015 224.319 119.058 222.633C119.084 221.652 118.645 220.768 117.941 220.191C118.013 221.093 117.862 222.208 116.71 222.312L116.756 220.552C116.774 219.838 116.111 219.506 115.622 219.522Z" fill="#F1D2CE"/>
  <path fill-rule="evenodd" clip-rule="evenodd" d="M127.544 237.236C122.375 237.236 115.016 229.641 115.016 222.989V213.321C115.016 206.433 120.654 200.798 127.543 200.798H127.544C134.432 200.798 140.07 206.433 140.07 213.321V222.801C140.07 230.092 132.525 237.236 127.544 237.236Z" fill="#F1D2CE"/>
  <path fill-rule="evenodd" clip-rule="evenodd" d="M115.064 220.892L116.315 215.83C116.315 215.83 120.343 212.876 118.912 208.764C117.481 204.652 117.201 205.059 117.201 205.059C117.201 205.059 111.833 207.476 114.222 218.375L115.064 220.892Z" fill="#00325B"/>
  <path fill-rule="evenodd" clip-rule="evenodd" d="M139.906 220.892C139.906 220.892 136.106 213.96 135.784 211.124C135.701 210.396 135.766 209.604 136.058 208.764C137.489 204.652 137.77 205.059 137.77 205.059C137.77 205.059 143.138 207.476 140.749 218.375L139.906 220.892Z" fill="#00325B"/>
  <path fill-rule="evenodd" clip-rule="evenodd" d="M115.038 215.904C115.038 215.904 126.205 216.456 137.074 210.882C137.074 210.882 138.811 209.351 140.628 208.55C140.628 208.55 136.993 199.177 126.856 199.793C120.037 200.207 115.659 204.812 114.701 208.209C114.168 210.099 115.038 215.904 115.038 215.904Z" fill="#00325B"/>
  <path fill-rule="evenodd" clip-rule="evenodd" d="M135.342 238.783C134.651 242.462 131.415 245.245 127.534 245.245C123.745 245.245 120.571 242.593 119.784 239.043L120.698 238.756C120.698 238.756 122.818 243.104 127.314 243.193C131.936 243.285 134.126 238.361 134.126 238.361L135.342 238.783Z" fill="#004E8E"/>
  <path fill-rule="evenodd" clip-rule="evenodd" d="M106.142 296.195V272.092L93.8223 272.055C93.8223 272.055 93.9632 265.557 95.5438 259.315C96.4256 255.833 97.6729 251.34 98.6547 249.305C99.9778 246.564 102.086 245.61 103.353 244.885C104.323 244.331 106.142 243.572 106.142 243.572L110.576 242.033L120.975 238.361C120.975 238.361 123.096 243.129 127.567 243.183L127.672 243.181C132.072 243.055 134.16 238.361 134.16 238.361L144.558 242.033L148.993 243.572C148.993 243.572 150.812 244.331 151.781 244.885C153.049 245.61 155.156 246.564 156.479 249.305C157.462 251.34 158.709 255.833 159.59 259.315C161.171 265.557 161.312 272.055 161.312 272.055L148.993 272.092V296.195H106.142Z" fill="#CEF2FF"/>
  <path fill-rule="evenodd" clip-rule="evenodd" d="M136.598 239.218C135.081 242.312 131.77 245.45 127.595 245.45C124.222 245.45 120.635 243.055 118.664 239.181L120.987 238.361C120.987 238.361 123.107 243.129 127.579 243.183L127.683 243.181C132.084 243.055 134.172 238.361 134.172 238.361L136.598 239.218Z" fill="#92E4FF"/>
  <path d="M204.057 265.471H194.135V296.219H204.057V265.471Z" fill="#EECAC5"/>
  <path d="M149.493 265.471H139.57V296.219H149.493V265.471Z" fill="#EECAC5"/>
  <path fill-rule="evenodd" clip-rule="evenodd" d="M171.875 220.785C175.49 220.785 178.449 225.95 178.449 232.263V241.585C178.449 247.898 175.49 253.063 171.875 253.063C168.26 253.063 165.302 247.898 165.302 241.585V232.263C165.302 225.95 168.26 220.785 171.875 220.785Z" fill="#EECAC5"/>
  <path fill-rule="evenodd" clip-rule="evenodd" d="M184.462 219.523C184.537 219.534 184.612 219.547 184.685 219.562L184.688 219.563L184.687 219.563C186.048 219.858 187.075 221.06 187.093 222.511C187.112 224.198 185.761 225.582 184.074 225.602C182.387 225.623 181.002 224.272 180.982 222.585C180.97 221.605 181.421 220.727 182.133 220.159C182.049 221.061 182.185 222.178 183.335 222.298L183.314 220.536C183.305 219.823 183.973 219.5 184.462 219.523Z" fill="#F1D2CE"/>
  <path fill-rule="evenodd" clip-rule="evenodd" d="M159.963 219.522C159.887 219.532 159.813 219.544 159.739 219.559L159.736 219.56V219.559C158.372 219.835 157.329 221.023 157.291 222.474C157.247 224.16 158.579 225.563 160.266 225.607C161.953 225.651 163.356 224.319 163.399 222.633C163.425 221.652 162.986 220.768 162.282 220.191C162.354 221.093 162.203 222.208 161.051 222.312L161.096 220.552C161.115 219.838 160.452 219.506 159.963 219.522Z" fill="#F1D2CE"/>
  <path fill-rule="evenodd" clip-rule="evenodd" d="M171.885 237.236C166.716 237.236 159.357 229.641 159.357 222.989V213.321C159.357 206.433 164.995 200.798 171.883 200.798H171.885C178.773 200.798 184.411 206.433 184.411 213.321V222.801C184.411 230.092 176.866 237.236 171.885 237.236Z" fill="#F1D2CE"/>
  <path fill-rule="evenodd" clip-rule="evenodd" d="M159.405 220.892L160.656 215.83C160.656 215.83 164.684 212.876 163.253 208.764C161.822 204.652 161.541 205.059 161.541 205.059C161.541 205.059 156.174 207.476 158.563 218.375L159.405 220.892Z" fill="#00325B"/>
  <path fill-rule="evenodd" clip-rule="evenodd" d="M184.247 220.892C184.247 220.892 180.446 213.96 180.125 211.124C180.042 210.396 180.107 209.604 180.399 208.764C181.83 204.652 182.111 205.059 182.111 205.059C182.111 205.059 187.478 207.476 185.09 218.375L184.247 220.892Z" fill="#00325B"/>
  <path fill-rule="evenodd" clip-rule="evenodd" d="M159.379 215.904C159.379 215.904 170.546 216.456 181.415 210.882C181.415 210.882 183.152 209.351 184.969 208.55C184.969 208.55 181.333 199.177 171.197 199.793C164.378 200.207 160 204.812 159.042 208.209C158.509 210.099 159.379 215.904 159.379 215.904Z" fill="#00325B"/>
  <path fill-rule="evenodd" clip-rule="evenodd" d="M179.683 238.783C178.991 242.462 175.756 245.245 171.874 245.245C168.086 245.245 164.912 242.593 164.124 239.043L165.039 238.756C165.039 238.756 167.159 243.104 171.655 243.193C176.277 243.285 178.467 238.361 178.467 238.361L179.683 238.783Z" fill="#004E8E"/>
  <path fill-rule="evenodd" clip-rule="evenodd" d="M150.482 296.195V272.092L138.163 272.055C138.163 272.055 138.304 265.557 139.885 259.315C140.766 255.833 142.013 251.34 142.996 249.305C144.319 246.564 146.426 245.61 147.694 244.885C148.663 244.331 150.482 243.572 150.482 243.572L154.917 242.033L165.316 238.361C165.316 238.361 167.436 243.129 171.908 243.183L172.012 243.181C176.413 243.055 178.5 238.361 178.5 238.361L188.899 242.033L193.333 243.572C193.333 243.572 195.152 244.331 196.122 244.885C197.389 245.61 199.497 246.564 200.82 249.305C201.802 251.34 203.049 255.833 203.931 259.315C205.512 265.557 205.653 272.055 205.653 272.055L193.333 272.092V296.195H150.482Z" fill="#CEF2FF"/>
  <path fill-rule="evenodd" clip-rule="evenodd" d="M180.939 239.218C179.422 242.312 176.111 245.45 171.936 245.45C168.563 245.45 164.975 243.055 163.004 239.181L165.327 238.361C165.327 238.361 167.448 243.129 171.92 243.183L172.024 243.181C176.424 243.055 178.512 238.361 178.512 238.361L180.939 239.218Z" fill="#92E4FF"/>
  <path d="6Z" fill="black"/>
  <path fill-rule="evenodd" clip-rule="evenodd" d="M844.696 217.323C844.696 215.937 843.571 214.812 842.185 214.812H748.206C746.821 214.812 745.696 215.937 745.696 217.323V280.075C745.696 281.461 746.821 282.586 748.206 282.586H842.185C843.571 282.586 844.696 281.461 844.696 280.075V217.323Z" fill="#CEF2FF"/>
  <path d="M841.372 218.258H749.545V278.094H841.372V218.258Z" fill="#464646"/>
  <path d="M805.226 282.587H785.442V291.578H805.226V282.587Z" fill="#AAEAFF"/>
  <path d="M810.563 291.547H780.015V293.593H810.563V291.547Z" fill="#CEF2FF"/>
  <path d="M781.401 248.689C781.369 255.943 787.212 261.833 794.362 262.021C801.822 262.218 808.028 256.236 808.049 248.751C808.069 241.36 802.145 235.585 795.113 235.388C787.534 235.175 781.374 241.296 781.401 248.689ZM810.354 248.704C810.351 257.317 803.334 264.336 794.73 264.331C786.092 264.328 779.088 257.318 779.096 248.688C779.104 240.071 786.113 233.073 794.73 233.077C803.343 233.082 810.357 240.098 810.354 248.704Z" fill="#939598"/>
  <path d="M810.511 254.131C811.497 253.599 811.517 253.47 810.812 252.717C809.445 251.256 808.094 249.779 806.729 248.316C805.168 246.643 803.504 245.092 801.485 243.967C801.119 243.763 800.745 243.615 800.356 243.522C800.367 243.511 800.378 243.498 800.39 243.488C801.113 242.845 801.703 242.126 801.895 241.134C801.969 240.753 802.245 240.515 802.661 240.45C802.973 240.402 803.276 240.297 803.584 240.218C803.58 240.143 803.576 240.067 803.573 239.991C803.225 239.944 802.873 239.915 802.53 239.846C802.001 239.739 801.43 239.697 800.962 239.46C800.086 239.015 799.312 239.066 798.569 239.668C798.072 240.07 797.61 240.515 797.121 240.926C796.403 241.532 795.717 241.803 795.058 241.752C795.049 241.757 795.041 241.763 795.031 241.768C794.496 241.203 793.868 240.824 793.12 240.599C790.907 239.932 788.636 239.817 786.347 239.86C784.346 239.898 782.346 239.956 780.345 239.99C779.314 240.008 779.235 240.112 779.538 241.191C781.706 241.024 783.873 240.858 786.039 240.691C786.048 240.743 786.056 240.795 786.065 240.847C783.916 241.137 781.766 241.426 779.625 241.714C779.684 242.697 779.709 242.739 780.564 242.58C782.276 242.265 783.982 241.916 785.692 241.589C785.89 241.551 786.097 241.555 786.299 241.539L786.336 241.712C784.289 242.184 782.242 242.658 780.169 243.137C780.469 243.813 780.828 244.078 781.533 243.84C782.957 243.361 784.406 242.956 785.846 242.525C786.062 242.46 786.287 242.419 786.507 242.366C786.527 242.429 786.548 242.491 786.568 242.553C784.931 243.134 783.294 243.716 781.64 244.303C782.274 245.042 782.561 245.133 783.337 244.777C784.234 244.366 785.113 243.919 786.002 243.491C786.182 243.405 786.37 243.335 786.555 243.257C786.584 243.312 786.614 243.367 786.643 243.422C785.66 244.01 784.676 244.597 783.628 245.223C784.44 245.553 785.082 245.578 785.697 244.964C786.19 244.473 786.778 244.074 787.323 243.634C787.375 243.685 787.426 243.737 787.477 243.787C786.877 244.347 786.277 244.907 785.636 245.506C787.154 245.9 787.525 244.409 788.617 244.094C788.205 244.536 787.825 245.017 787.37 245.412C786.892 245.826 786.94 246.17 787.382 246.603C788.074 245.879 788.759 245.163 789.444 244.445C789.501 244.495 789.557 244.545 789.614 244.594C789.049 245.25 788.502 245.924 787.912 246.558C787.553 246.944 787.52 247.23 788.146 247.567C788.85 246.695 789.58 245.789 790.31 244.883C790.378 244.936 790.445 244.989 790.513 245.043C789.833 245.964 789.152 246.886 788.396 247.912C788.653 248.072 789.08 248.327 789.504 248.583C789.426 248.859 789.362 249.139 789.317 249.422C789.85 249.637 790.16 250.043 790.335 250.717C790.538 251.499 790.564 252.308 790.241 253.034C789.695 254.261 789.092 255.471 788.413 256.63C787.691 257.862 786.911 259.054 786.59 260.472C786.427 261.191 786.641 261.559 787.372 261.564C787.614 261.566 790.649 262.126 790.842 262.209C790.925 262.244 791.019 262.254 791.108 262.271C791.446 262.34 791.637 262.226 791.646 261.857C791.655 261.492 791.675 261.127 791.701 260.763C791.792 259.491 791.789 258.203 792.005 256.953C792.282 255.34 793.438 254.145 794.289 252.813C794.388 252.659 794.666 252.621 794.859 252.526C795.346 252.287 795.899 252.128 796.303 251.79C796.914 251.28 797.585 250.943 798.304 250.708C798.798 251.406 799.265 252.13 799.519 252.448C799.729 251.191 799.918 250.061 800.107 248.93C800.192 248.942 800.278 248.954 800.364 248.966C800.221 250.12 800.078 251.275 799.941 252.387C800.618 252.602 800.801 252.379 800.828 251.853C800.873 250.989 800.976 250.127 801.055 249.263C801.13 249.271 801.205 249.277 801.28 249.283C801.242 250.273 801.204 251.264 801.165 252.264C801.784 252.281 802.064 252.075 802.029 251.444C801.995 250.843 802.077 250.235 802.108 249.631C802.642 250.636 801.829 251.939 803.168 252.754C803.152 251.879 803.136 251.058 803.121 250.237C803.194 250.238 803.266 250.24 803.339 250.241C803.402 250.939 803.524 251.638 803.514 252.334C803.502 253.203 803.967 253.647 804.768 253.999C804.489 252.812 804.226 251.697 803.963 250.582L804.144 250.531C804.216 250.718 804.297 250.901 804.36 251.09C804.672 252.026 804.963 252.969 805.291 253.899C805.576 254.704 805.841 254.847 806.813 254.788C806.083 253.191 805.362 251.611 804.64 250.031C804.699 250.002 804.758 249.973 804.817 249.946C804.933 250.14 805.06 250.329 805.163 250.53C805.856 251.864 806.572 253.186 807.219 254.542C807.539 255.214 807.979 255.287 808.674 255.032C807.575 253.211 806.491 251.411 805.406 249.612C805.456 249.581 805.506 249.55 805.556 249.519C805.686 249.674 805.833 249.82 805.943 249.989C806.897 251.445 807.835 252.912 808.799 254.362C809.28 255.086 809.327 255.075 810.075 254.434C808.792 252.695 807.504 250.95 806.216 249.205C806.259 249.176 806.302 249.145 806.346 249.116C807.734 250.787 809.122 252.458 810.511 254.131Z" fill="white"/>
  <path fill-rule="evenodd" clip-rule="evenodd" d="M840.209 254.578C840.209 252.982 838.914 251.686 837.318 251.686H820.728C819.132 251.686 817.836 252.982 817.836 254.578V294.085C817.836 295.681 819.132 296.976 820.728 296.976H837.318C838.914 296.976 840.209 295.681 840.209 294.085V254.578Z" fill="#CEF2FF"/>
  <path d="M839.053 256.626H819.071V291.612H839.053V256.626Z" fill="#464646"/>
  <path d="M829.037 295.151C829.719 295.151 830.272 294.602 830.272 293.924C830.272 293.246 829.719 292.696 829.037 292.696C828.355 292.696 827.802 293.246 827.802 293.924C827.802 294.602 828.355 295.151 829.037 295.151Z" fill="#009AD6"/>
  <path d="M825.067 254.769C825.317 254.769 825.519 254.567 825.519 254.319C825.519 254.07 825.317 253.869 825.067 253.869C824.817 253.869 824.614 254.07 824.614 254.319C824.614 254.567 824.817 254.769 825.067 254.769Z" fill="#009AD6"/>
  <path d="M831.103 254.214H826.911V254.582H831.103V254.214Z" fill="#009AD6"/>
  <path d="M828.894 253.352C829.038 253.352 829.154 253.236 829.154 253.093C829.154 252.951 829.038 252.835 828.894 252.835C828.751 252.835 828.635 252.951 828.635 253.093C828.635 253.236 828.751 253.352 828.894 253.352Z" fill="#009AD6"/>
  <path d="M824.883 274.349C824.874 276.553 826.649 278.341 828.82 278.399C831.087 278.459 832.972 276.641 832.978 274.368C832.984 272.123 831.185 270.368 829.049 270.308C826.747 270.244 824.875 272.103 824.883 274.349ZM833.678 274.353C833.678 276.97 831.546 279.102 828.932 279.101C826.309 279.099 824.181 276.97 824.183 274.349C824.186 271.731 826.315 269.605 828.933 269.606C831.549 269.608 833.679 271.739 833.678 274.353Z" fill="#939598"/>
  <path d="M833.725 275.991C834.025 275.829 834.03 275.79 833.817 275.561C833.401 275.117 832.991 274.669 832.576 274.224C832.102 273.716 831.597 273.245 830.983 272.903C830.872 272.841 830.758 272.796 830.64 272.768C830.644 272.765 830.647 272.761 830.65 272.758C830.87 272.562 831.049 272.344 831.108 272.043C831.13 271.927 831.214 271.855 831.34 271.835C831.435 271.82 831.527 271.788 831.621 271.764C831.62 271.741 831.618 271.718 831.617 271.695C831.512 271.681 831.405 271.672 831.301 271.651C831.14 271.619 830.967 271.606 830.825 271.534C830.558 271.399 830.323 271.414 830.097 271.597C829.947 271.719 829.806 271.855 829.658 271.98C829.439 272.163 829.231 272.246 829.031 272.23C829.028 272.232 829.026 272.233 829.023 272.235C828.86 272.064 828.67 271.948 828.442 271.88C827.77 271.677 827.08 271.642 826.385 271.656C825.777 271.667 825.169 271.685 824.562 271.695C824.248 271.701 824.224 271.732 824.316 272.06C824.975 272.009 825.633 271.959 826.291 271.908C826.294 271.924 826.297 271.94 826.299 271.955C825.646 272.043 824.993 272.131 824.343 272.219C824.361 272.517 824.369 272.53 824.628 272.482C825.148 272.386 825.666 272.28 826.186 272.181C826.246 272.169 826.309 272.17 826.37 272.166L826.382 272.218C825.76 272.362 825.138 272.506 824.508 272.651C824.599 272.856 824.708 272.937 824.923 272.865C825.355 272.719 825.795 272.596 826.233 272.465C826.298 272.445 826.366 272.433 826.433 272.417C826.44 272.436 826.446 272.455 826.452 272.473C825.955 272.65 825.457 272.827 824.955 273.005C825.147 273.23 825.235 273.257 825.471 273.149C825.743 273.024 826.01 272.888 826.28 272.759C826.335 272.732 826.392 272.711 826.448 272.688C826.457 272.704 826.466 272.721 826.475 272.737C826.176 272.916 825.877 273.094 825.559 273.285C825.805 273.385 826.001 273.392 826.187 273.206C826.337 273.057 826.516 272.935 826.681 272.802C826.697 272.817 826.713 272.833 826.728 272.848C826.546 273.019 826.363 273.189 826.169 273.371C826.63 273.49 826.743 273.037 827.075 272.942C826.949 273.076 826.834 273.222 826.696 273.342C826.55 273.468 826.565 273.572 826.699 273.704C826.909 273.484 827.117 273.266 827.326 273.049C827.343 273.064 827.36 273.079 827.377 273.094C827.206 273.293 827.039 273.498 826.86 273.69C826.751 273.807 826.741 273.894 826.931 273.997C827.145 273.732 827.367 273.457 827.589 273.181C827.609 273.198 827.63 273.214 827.651 273.23C827.444 273.51 827.237 273.79 827.007 274.101C827.085 274.15 827.215 274.228 827.344 274.305C827.32 274.389 827.301 274.474 827.287 274.56C827.449 274.626 827.543 274.749 827.596 274.954C827.658 275.191 827.666 275.437 827.568 275.657C827.402 276.03 827.219 276.398 827.012 276.75C826.793 277.124 826.556 277.486 826.459 277.917C826.409 278.135 826.474 278.247 826.696 278.248C826.77 278.249 827.692 278.419 827.75 278.444C827.775 278.455 827.804 278.458 827.831 278.463C827.934 278.484 827.992 278.45 827.994 278.337C827.997 278.226 828.003 278.116 828.011 278.005C828.039 277.619 828.038 277.228 828.103 276.848C828.188 276.358 828.539 275.995 828.797 275.59C828.827 275.543 828.912 275.532 828.97 275.503C829.118 275.43 829.286 275.382 829.409 275.279C829.595 275.125 829.799 275.022 830.017 274.951C830.167 275.163 830.309 275.383 830.386 275.479C830.45 275.098 830.507 274.754 830.565 274.411C830.591 274.414 830.616 274.418 830.643 274.422C830.599 274.772 830.556 275.123 830.514 275.461C830.72 275.526 830.776 275.458 830.784 275.299C830.797 275.036 830.829 274.774 830.853 274.512C830.875 274.514 830.898 274.516 830.921 274.518C830.909 274.819 830.898 275.12 830.886 275.424C831.074 275.429 831.159 275.366 831.148 275.174C831.138 274.992 831.163 274.807 831.173 274.624C831.335 274.929 831.088 275.325 831.494 275.572C831.49 275.306 831.485 275.057 831.48 274.808C831.502 274.808 831.524 274.809 831.546 274.809C831.566 275.021 831.603 275.233 831.6 275.445C831.596 275.709 831.737 275.844 831.981 275.951C831.896 275.59 831.816 275.251 831.736 274.912L831.791 274.897C831.813 274.954 831.838 275.009 831.857 275.067C831.951 275.351 832.04 275.638 832.139 275.92C832.226 276.165 832.306 276.208 832.601 276.19C832.38 275.705 832.161 275.225 831.942 274.745C831.959 274.736 831.977 274.728 831.995 274.719C832.03 274.778 832.069 274.836 832.101 274.897C832.311 275.302 832.528 275.704 832.725 276.115C832.822 276.319 832.956 276.342 833.167 276.264C832.833 275.711 832.504 275.164 832.174 274.618C832.19 274.608 832.205 274.599 832.22 274.59C832.259 274.637 832.304 274.681 832.337 274.732C832.627 275.175 832.912 275.62 833.205 276.061C833.351 276.281 833.365 276.277 833.592 276.083C833.203 275.554 832.811 275.024 832.42 274.494C832.433 274.485 832.446 274.476 832.46 274.467C832.881 274.975 833.303 275.483 833.725 275.991Z" fill="white"/>
  <path fill-rule="evenodd" clip-rule="evenodd" d="M456.113 400.332L464.436 402.561L458.108 426.176L449.784 423.946L456.113 400.332Z" fill="#AAEAFF"/>
  <path fill-rule="evenodd" clip-rule="evenodd" d="M403.355 382.871L413.288 385.532L412.504 388.456L402.572 385.795L403.355 382.871Z" fill="#009AD6"/>
  <path fill-rule="evenodd" clip-rule="evenodd" d="M409.365 370.35L416.636 377.62L414.495 379.76L407.224 372.49L409.365 370.35Z" fill="#009AD6"/>
  <path fill-rule="evenodd" clip-rule="evenodd" d="M401.431 399.943L411.363 397.282L410.58 394.358L400.647 397.019L401.431 399.943Z" fill="#009AD6"/>
  <path fill-rule="evenodd" clip-rule="evenodd" d="M426.349 368.282L415.121 410.174L468.118 413.146L473.731 392.2L426.349 368.282Z" fill="#CEF2FF"/>
  <path fill-rule="evenodd" clip-rule="evenodd" d="M171.448 168.864C171.448 171.844 173.867 174.264 176.848 174.264C179.828 174.264 182.248 171.844 182.248 168.864C182.248 165.883 179.828 163.464 176.848 163.464C173.867 163.464 171.448 165.883 171.448 168.864Z" fill="#009AD6"/>
  <path fill-rule="evenodd" clip-rule="evenodd" d="M267.309 100.973L278.109 109.073L267.309 117.173V100.973Z" fill="#009AD6"/>
  <path fill-rule="evenodd" clip-rule="evenodd" d="M178.353 165.662C178.353 163.86 178.353 161.839 178.353 159.662C178.353 158.834 177.681 158.162 176.853 158.162C176.025 158.162 175.353 158.834 175.353 159.662C175.353 161.839 175.353 163.86 175.353 165.662C175.353 166.49 176.025 167.162 176.853 167.162C177.681 167.162 178.353 166.49 178.353 165.662ZM178.353 150.662C178.353 148.699 178.353 146.688 178.353 144.663C178.353 143.835 177.681 143.163 176.853 143.163C176.025 143.163 175.353 143.835 175.353 144.663C175.353 146.688 175.353 148.699 175.353 150.662C175.353 151.49 176.025 152.162 176.853 152.162C177.681 152.162 178.353 151.49 178.353 150.662ZM178.353 135.663V129.663C178.353 128.835 177.681 128.163 176.853 128.163C176.025 128.163 175.353 128.835 175.353 129.663V135.663C175.353 136.49 176.025 137.163 176.853 137.163C177.681 137.163 178.353 136.49 178.353 135.663ZM178.353 120.663C178.353 118.394 178.353 116.363 178.353 114.663C178.353 113.835 177.681 113.163 176.853 113.163C176.025 113.163 175.353 113.835 175.353 114.663C175.353 116.363 175.353 118.394 175.353 120.663C175.353 121.49 176.025 122.163 176.853 122.163C177.681 122.163 178.353 121.49 178.353 120.663ZM195.326 110.636C197.23 110.636 199.237 110.636 201.326 110.636C202.154 110.636 202.826 109.964 202.826 109.136C202.826 108.308 202.154 107.636 201.326 107.636C199.237 107.636 197.23 107.636 195.326 107.636C194.498 107.636 193.826 108.308 193.826 109.136C193.826 109.964 194.498 110.636 195.326 110.636ZM210.326 110.636C212.292 110.636 214.297 110.636 216.326 110.636C217.154 110.636 217.826 109.964 217.826 109.136C217.826 108.308 217.154 107.636 216.326 107.636C214.297 107.636 212.292 107.636 210.326 107.636C209.498 107.636 208.826 108.308 208.826 109.136C208.826 109.964 209.498 110.636 210.326 110.636ZM180.327 110.636H186.327C187.154 110.636 187.826 109.964 187.826 109.136C187.826 108.308 187.154 107.636 186.327 107.636H180.327C179.499 107.636 178.827 108.308 178.827 109.136C178.827 109.964 179.499 110.636 180.327 110.636ZM225.326 110.636C227.326 110.636 229.33 110.636 231.326 110.636C232.154 110.636 232.826 109.964 232.826 109.136C232.826 108.308 232.154 107.636 231.326 107.636C229.33 107.636 227.326 107.636 225.326 107.636C224.499 107.636 223.826 108.308 223.826 109.136C223.826 109.964 224.499 110.636 225.326 110.636ZM240.326 110.636C242.361 110.636 244.366 110.636 246.326 110.636C247.154 110.636 247.826 109.964 247.826 109.136C247.826 108.308 247.154 107.636 246.326 107.636H240.326C239.499 107.636 238.826 108.308 238.826 109.136C238.826 109.964 239.499 110.636 240.326 110.636ZM255.326 110.636C257.427 110.636 259.435 110.636 261.326 110.636C262.154 110.636 262.826 109.964 262.826 109.136C262.826 108.308 262.154 107.636 261.326 107.636C259.435 107.636 257.427 107.636 255.326 107.636C254.499 107.636 253.826 108.308 253.826 109.136C253.826 109.964 254.499 110.636 255.326 110.636Z" fill="#009AD6"/>
  <path fill-rule="evenodd" clip-rule="evenodd" d="M785.098 163.464L793.198 174.264L801.298 163.464H785.098Z" fill="#009AD6"/>
  <path fill-rule="evenodd" clip-rule="evenodd" d="M697.336 114.53C694.355 114.53 691.936 112.11 691.936 109.13C691.936 106.15 694.355 103.73 697.336 103.73C700.316 103.73 702.736 106.15 702.736 109.13C702.736 112.11 700.316 114.53 697.336 114.53Z" fill="#009AD6"/>
  <path fill-rule="evenodd" clip-rule="evenodd" d="M794.687 165.662V159.662C794.687 158.834 794.015 158.162 793.187 158.162C792.359 158.162 791.687 158.834 791.687 159.662V165.662C791.687 166.49 792.359 167.162 793.187 167.162C794.015 167.162 794.687 166.49 794.687 165.662ZM794.687 150.662V144.663C794.687 143.835 794.015 143.163 793.187 143.163C792.359 143.163 791.687 143.835 791.687 144.663V150.662C791.687 151.49 792.359 152.162 793.187 152.162C794.015 152.162 794.687 151.49 794.687 150.662ZM794.687 135.663V129.663C794.687 128.835 794.015 128.163 793.187 128.163C792.359 128.163 791.687 128.835 791.687 129.663V135.663C791.687 136.49 792.359 137.163 793.187 137.163C794.015 137.163 794.687 136.49 794.687 135.663ZM794.687 120.663C794.687 118.394 794.687 116.363 794.687 114.663C794.687 113.835 794.015 113.163 793.187 113.163C792.359 113.163 791.687 113.835 791.687 114.663V120.663C791.687 121.49 792.359 122.163 793.187 122.163C794.015 122.163 794.687 121.49 794.687 120.663ZM774.714 107.636C772.81 107.636 770.803 107.636 768.714 107.636C767.886 107.636 767.214 108.308 767.214 109.136C767.214 109.964 767.886 110.636 768.714 110.636C770.803 110.636 772.81 110.636 774.714 110.636C775.542 110.636 776.214 109.964 776.214 109.136C776.214 108.308 775.542 107.636 774.714 107.636ZM729.714 107.636H723.714C722.886 107.636 722.214 108.308 722.214 109.136C722.214 109.964 722.886 110.636 723.714 110.636H729.714C730.542 110.636 731.214 109.964 731.214 109.136C731.214 108.308 730.542 107.636 729.714 107.636ZM789.714 107.636H783.714C782.886 107.636 782.214 108.308 782.214 109.136C782.214 109.964 782.886 110.636 783.714 110.636H789.714C790.542 110.636 791.214 109.964 791.214 109.136C791.214 108.308 790.542 107.636 789.714 107.636ZM759.714 107.636H753.714C752.886 107.636 752.214 108.308 752.214 109.136C752.214 109.964 752.886 110.636 753.714 110.636H759.714C760.542 110.636 761.214 109.964 761.214 109.136C761.214 108.308 760.542 107.636 759.714 107.636ZM744.714 107.636C742.714 107.636 740.71 107.636 738.714 107.636C737.886 107.636 737.214 108.308 737.214 109.136C737.214 109.964 737.886 110.636 738.714 110.636C740.71 110.636 742.714 110.636 744.714 110.636C745.542 110.636 746.214 109.964 746.214 109.136C746.214 108.308 745.542 107.636 744.714 107.636ZM714.714 107.636C712.613 107.636 710.606 107.636 708.714 107.636C707.886 107.636 707.214 108.308 707.214 109.136C707.214 109.964 707.886 110.636 708.714 110.636C710.606 110.636 712.613 110.636 714.714 110.636C715.542 110.636 716.214 109.964 716.214 109.136C716.214 108.308 715.542 107.636 714.714 107.636Z" fill="#009AD6"/>
  <path fill-rule="evenodd" clip-rule="evenodd" d="M184.948 392.637L176.848 381.837L168.748 392.637H184.948Z" fill="#009AD6"/>
  <path fill-rule="evenodd" clip-rule="evenodd" d="M381.694 426.867C384.675 426.867 387.094 429.287 387.094 432.267C387.094 435.248 384.675 437.667 381.694 437.667C378.714 437.667 376.294 435.248 376.294 432.267C376.294 429.287 378.714 426.867 381.694 426.867Z" fill="#009AD6"/>
  <path fill-rule="evenodd" clip-rule="evenodd" d="M195.008 433.805C196.889 433.805 198.893 433.805 201.008 433.805C201.836 433.805 202.508 433.132 202.508 432.305C202.508 431.477 201.836 430.805 201.008 430.805H195.008C194.18 430.805 193.508 431.477 193.508 432.305C193.508 433.132 194.18 433.805 195.008 433.805ZM180.008 433.805H186.008C186.836 433.805 187.508 433.132 187.508 432.305C187.508 431.477 186.836 430.805 186.008 430.805C183.538 430.805 181.517 430.805 180.008 430.805C179.18 430.805 178.508 431.477 178.508 432.305C178.508 433.132 179.18 433.805 180.008 433.805ZM210.008 433.805H216.008C216.835 433.805 217.508 433.132 217.508 432.305C217.508 431.477 216.835 430.805 216.008 430.805H210.008C209.18 430.805 208.508 431.477 208.508 432.305C208.508 433.132 209.18 433.805 210.008 433.805ZM360.008 433.805H366.008C366.835 433.805 367.508 433.132 367.508 432.305C367.508 431.477 366.835 430.805 366.008 430.805H360.008C359.18 430.805 358.508 431.477 358.508 432.305C358.508 433.132 359.18 433.805 360.008 433.805ZM375.008 433.805H378.458C379.286 433.805 379.958 433.132 379.958 432.305C379.958 431.477 379.286 430.805 378.458 430.805H375.008C374.18 430.805 373.508 431.477 373.508 432.305C373.508 433.132 374.18 433.805 375.008 433.805ZM225.008 433.805C226.971 433.805 228.972 433.805 231.008 433.805C231.835 433.805 232.508 433.132 232.508 432.305C232.508 431.477 231.835 430.805 231.008 430.805H225.008C224.18 430.805 223.508 431.477 223.508 432.305C223.508 433.132 224.18 433.805 225.008 433.805ZM255.008 433.805C256.995 433.805 258.996 433.805 261.008 433.805C261.836 433.805 262.508 433.132 262.508 432.305C262.508 431.477 261.836 430.805 261.008 430.805H255.008C254.18 430.805 253.508 431.477 253.508 432.305C253.508 433.132 254.18 433.805 255.008 433.805ZM270.008 433.805C272.003 433.805 274.004 433.805 276.008 433.805C276.836 433.805 277.508 433.132 277.508 432.305C277.508 431.477 276.836 430.805 276.008 430.805H270.008C269.18 430.805 268.508 431.477 268.508 432.305C268.508 433.132 269.18 433.805 270.008 433.805ZM285.008 433.805C287.01 433.805 289.011 433.805 291.008 433.805C291.836 433.805 292.508 433.132 292.508 432.305C292.508 431.477 291.836 430.805 291.008 430.805H285.008C284.18 430.805 283.508 431.477 283.508 432.305C283.508 433.132 284.18 433.805 285.008 433.805ZM300.008 433.805C302.018 433.805 304.019 433.805 306.008 433.805C306.835 433.805 307.508 433.132 307.508 432.305C307.508 431.477 306.835 430.805 306.008 430.805H300.008C299.18 430.805 298.508 431.477 298.508 432.305C298.508 433.132 299.18 433.805 300.008 433.805ZM345.008 433.805C347.06 433.805 349.062 433.805 351.008 433.805C351.835 433.805 352.508 433.132 352.508 432.305C352.508 431.477 351.835 430.805 351.008 430.805C349.062 430.805 347.06 430.805 345.008 430.805C344.18 430.805 343.508 431.477 343.508 432.305C343.508 433.132 344.18 433.805 345.008 433.805ZM240.008 433.805H246.008C246.835 433.805 247.508 433.132 247.508 432.305C247.508 431.477 246.835 430.805 246.008 430.805H240.008C239.18 430.805 238.508 431.477 238.508 432.305C238.508 433.132 239.18 433.805 240.008 433.805ZM315.008 433.805H321.008C321.836 433.805 322.508 433.132 322.508 432.305C322.508 431.477 321.836 430.805 321.008 430.805C319.028 430.805 317.027 430.805 315.008 430.805C314.18 430.805 313.508 431.477 313.508 432.305C313.508 433.132 314.18 433.805 315.008 433.805ZM330.008 433.805H336.008C336.835 433.805 337.508 433.132 337.508 432.305C337.508 431.477 336.835 430.805 336.008 430.805H330.008C329.18 430.805 328.508 431.477 328.508 432.305C328.508 433.132 329.18 433.805 330.008 433.805ZM175.353 420.459V426.459C175.353 427.287 176.025 427.959 176.853 427.959C177.681 427.959 178.353 427.287 178.353 426.459C178.353 424.729 178.353 422.692 178.353 420.459C178.353 419.631 177.681 418.959 176.853 418.959C176.025 418.959 175.353 419.631 175.353 420.459ZM175.353 405.459C175.353 407.463 175.353 409.48 175.353 411.459C175.353 412.287 176.025 412.959 176.853 412.959C177.681 412.959 178.353 412.287 178.353 411.459C178.353 409.48 178.353 407.463 178.353 405.459C178.353 404.631 177.681 403.959 176.853 403.959C176.025 403.959 175.353 404.631 175.353 405.459ZM175.353 390.459C175.353 392.279 175.353 394.307 175.353 396.459C175.353 397.287 176.025 397.959 176.853 397.959C177.681 397.959 178.353 397.287 178.353 396.459C178.353 394.307 178.353 392.279 178.353 390.459C178.353 389.631 177.681 388.959 176.853 388.959C176.025 388.959 175.353 389.631 175.353 390.459Z" fill="#009AD6"/>
  <path fill-rule="evenodd" clip-rule="evenodd" d="M798.597 387.237C798.597 384.257 796.178 381.837 793.197 381.837C790.217 381.837 787.797 384.257 787.797 387.237C787.797 390.217 790.217 392.637 793.197 392.637C796.178 392.637 798.597 390.217 798.597 387.237Z" fill="#009AD6"/>
  <path fill-rule="evenodd" clip-rule="evenodd" d="M580.282 440.425L569.482 432.325L580.282 424.225V440.425Z" fill="#009AD6"/>
  <path fill-rule="evenodd" clip-rule="evenodd" d="M730.032 430.805C728.056 430.805 726.055 430.805 724.032 430.805C723.204 430.805 722.532 431.477 722.532 432.305C722.532 433.132 723.204 433.805 724.032 433.805C726.055 433.805 728.056 433.805 730.032 433.805C730.86 433.805 731.532 433.132 731.532 432.305C731.532 431.477 730.86 430.805 730.032 430.805ZM715.032 430.805C713.046 430.805 711.046 430.805 709.032 430.805C708.204 430.805 707.532 431.477 707.532 432.305C707.532 433.132 708.204 433.805 709.032 433.805C711.046 433.805 713.046 433.805 715.032 433.805C715.86 433.805 716.532 433.132 716.532 432.305C716.532 431.477 715.86 430.805 715.032 430.805ZM745.032 430.805H739.032C738.204 430.805 737.532 431.477 737.532 432.305C737.532 433.132 738.204 433.805 739.032 433.805C741.068 433.805 743.07 433.805 745.032 433.805C745.86 433.805 746.532 433.132 746.532 432.305C746.532 431.477 745.86 430.805 745.032 430.805ZM700.032 430.805H694.032C693.204 430.805 692.532 431.477 692.532 432.305C692.532 433.132 693.204 433.805 694.032 433.805H700.032C700.86 433.805 701.532 433.132 701.532 432.305C701.532 431.477 700.86 430.805 700.032 430.805ZM685.032 430.805H679.032C678.204 430.805 677.532 431.477 677.532 432.305C677.532 433.132 678.204 433.805 679.032 433.805C681.032 433.805 683.033 433.805 685.032 433.805C685.86 433.805 686.532 433.132 686.532 432.305C686.532 431.477 685.86 430.805 685.032 430.805ZM790.032 430.805C788.524 430.805 786.503 430.805 784.032 430.805C783.204 430.805 782.532 431.477 782.532 432.305C782.532 433.132 783.204 433.805 784.032 433.805H790.032C790.86 433.805 791.532 433.132 791.532 432.305C791.532 431.477 790.86 430.805 790.032 430.805ZM775.032 430.805C773.151 430.805 771.148 430.805 769.032 430.805C768.204 430.805 767.532 431.477 767.532 432.305C767.532 433.132 768.204 433.805 769.032 433.805H775.032C775.86 433.805 776.532 433.132 776.532 432.305C776.532 431.477 775.86 430.805 775.032 430.805ZM760.032 430.805C758.094 430.805 756.092 430.805 754.032 430.805C753.204 430.805 752.532 431.477 752.532 432.305C752.532 433.132 753.204 433.805 754.032 433.805H760.032C760.86 433.805 761.532 433.132 761.532 432.305C761.532 431.477 760.86 430.805 760.032 430.805ZM670.032 430.805C668.026 430.805 666.026 430.805 664.032 430.805C663.204 430.805 662.532 431.477 662.532 432.305C662.532 433.132 663.204 433.805 664.032 433.805H670.032C670.86 433.805 671.532 433.132 671.532 432.305C671.532 431.477 670.86 430.805 670.032 430.805ZM655.032 430.805C653.019 430.805 651.018 430.805 649.032 430.805C648.204 430.805 647.532 431.477 647.532 432.305C647.532 433.132 648.204 433.805 649.032 433.805H655.032C655.86 433.805 656.532 433.132 656.532 432.305C656.532 431.477 655.86 430.805 655.032 430.805ZM610.032 430.805C607.975 430.805 605.974 430.805 604.033 430.805C603.205 430.805 602.533 431.477 602.533 432.305C602.533 433.132 603.205 433.805 604.033 433.805H610.032C610.86 433.805 611.532 433.132 611.532 432.305C611.532 431.477 610.86 430.805 610.032 430.805ZM595.033 430.805H589.033C588.205 430.805 587.533 431.477 587.533 432.305C587.533 433.132 588.205 433.805 589.033 433.805H595.033C595.86 433.805 596.533 433.132 596.533 432.305C596.533 431.477 595.86 430.805 595.033 430.805ZM640.032 430.805C638.01 430.805 636.009 430.805 634.032 430.805C633.204 430.805 632.532 431.477 632.532 432.305C632.532 433.132 633.204 433.805 634.032 433.805H640.032C640.86 433.805 641.532 433.132 641.532 432.305C641.532 431.477 640.86 430.805 640.032 430.805ZM625.032 430.805H619.032C618.204 430.805 617.532 431.477 617.532 432.305C617.532 433.132 618.204 433.805 619.032 433.805H625.032C625.86 433.805 626.532 433.132 626.532 432.305C626.532 431.477 625.86 430.805 625.032 430.805ZM580.033 430.805H578.104C577.276 430.805 576.604 431.477 576.604 432.305C576.604 433.132 577.276 433.805 578.104 433.805H580.033C580.86 433.805 581.533 433.132 581.533 432.305C581.533 431.477 580.86 430.805 580.033 430.805ZM791.686 420.459V426.459C791.686 427.287 792.359 427.959 793.186 427.959C794.014 427.959 794.686 427.287 794.686 426.459V420.459C794.686 419.631 794.014 418.959 793.186 418.959C792.359 418.959 791.686 419.631 791.686 420.459ZM791.686 405.459C791.686 407.463 791.686 409.48 791.686 411.459C791.686 412.287 792.359 412.959 793.186 412.959C794.014 412.959 794.686 412.287 794.686 411.459C794.686 409.48 794.686 407.463 794.686 405.459C794.686 404.631 794.014 403.959 793.186 403.959C792.359 403.959 791.686 404.631 791.686 405.459ZM791.686 390.459V396.459C791.686 397.287 792.359 397.959 793.186 397.959C794.014 397.959 794.686 397.287 794.686 396.459V390.459C794.686 389.631 794.014 388.959 793.186 388.959C792.359 388.959 791.686 389.631 791.686 390.459Z" fill="#009AD6"/>
</svg>
