<svg width="940" height="527" fill="none" xmlns="http://www.w3.org/2000/svg"><path d="M939.998 0H0v526.998h939.998V0z" fill="#fff"/><path fill-rule="evenodd" clip-rule="evenodd" d="M939.999 2.966A2.974 2.974 0 00937.018 0H2.981A2.974 2.974 0 000 2.966v521.068A2.974 2.974 0 002.981 527h934.037a2.974 2.974 0 002.981-2.966V2.966zM5.962 5.932v515.135h928.073V5.932H5.962z" fill="#009AD6"/><path fill-rule="evenodd" clip-rule="evenodd" d="M500.501 382.625c-.036 1.063 1.098 2.278 2.159 2.35 5.792.391 26.768.391 32.59 0 .613-.042 1.303-.421 1.777-.939.381-.416.621-.921.57-1.411-.581-5.541-2.013-23.173-5.078-30.141-.408-.928-3.919-10.103-14.846-9.439-7.351.446-11.48 5.63-13.102 9.072-4.086 8.667-3.877 24.906-4.07 30.508z" fill="#00325B"/><path fill-rule="evenodd" clip-rule="evenodd" d="M551.121 413.772H542.4l.057 24.651h8.664v-24.651zm-56.546 0h-8.721l.057 24.651h8.664v-24.651zm23.829-48.132c3.006 0 5.466 5.568 5.466 12.373v7.507l3.72 1.452.503.198c0 6.805-6.683 13.265-9.689 13.265-3.005 0-11.241-5.833-11.241-12.638l5.776-2.277v-7.507c0-6.805 2.46-12.373 5.465-12.373z" fill="#EECAC5"/><path fill-rule="evenodd" clip-rule="evenodd" d="M531.993 364.263c.082.012.162.025.241.043h.003-.001a3.294 3.294 0 11-2.753.643c-.09.972.056 2.176 1.296 2.305l-.023-1.899c-.009-.769.71-1.117 1.237-1.092z" fill="#F1D2CE"/><path fill-rule="evenodd" clip-rule="evenodd" d="M518.427 383.323c-5.572 0-13.504-8.187-13.504-15.358v-10.421c0-7.425 6.078-13.5 13.503-13.5h.001c7.425 0 13.503 6.075 13.503 13.5v10.219c0 7.859-8.133 15.56-13.503 15.56z" fill="#F1D2CE"/><path fill-rule="evenodd" clip-rule="evenodd" d="M531.774 365.718s-4.097-7.472-4.444-10.529a5.71 5.71 0 01.296-2.545c1.543-4.432 1.845-3.993 1.845-3.993s5.786 2.606 3.211 14.354l-.908 2.713z" fill="#00325B"/><path fill-rule="evenodd" clip-rule="evenodd" d="M502.884 366.56s14.439-3.348 26.156-9.358c0 0 1.523-3.857 3.482-4.721 0 0-3.919-10.103-14.846-9.439-7.351.446-12.07 5.41-13.103 9.072-.574 2.037-1.689 14.446-1.689 14.446z" fill="#00325B"/><path fill-rule="evenodd" clip-rule="evenodd" d="M531.486 344.59s-8.847-3.073-13.092-3.073c-4.127 0-12.38 3.073-12.38 3.073v7.375s8.255-1.982 12.382-1.982c4.245 0 13.09 1.982 13.09 1.982v-7.375z" fill="#CEF2FF"/><path d="M519.424 343.355h-1.377v4.697h1.377v-4.697z" fill="#009AD6"/><path fill-rule="evenodd" clip-rule="evenodd" d="M521.109 346.455v-1.377h-4.699v1.377h4.699z" fill="#009AD6"/><path fill-rule="evenodd" clip-rule="evenodd" d="M496.664 438.465v-21.536l-.69 4.052-11.757-.044s.891-6.383 2.595-13.112c.95-3.753 2.295-7.514 3.353-9.707 1.426-2.955 2.616-3.984 3.983-4.766 1.045-.597 3.006-1.415 3.006-1.415l5.747-2.418 6.663-2.619.008.006-.008-.014 8.769 8.027 9.792-7.743-.006.015.006-.007 5.639 2.335 5.747 2.418s1.961.818 3.006 1.415c1.367.782 2.556 1.811 3.983 4.766 1.058 2.193 2.403 5.954 3.353 9.707 1.704 6.729 2.595 13.112 2.595 13.112l-11.758.044-.689-4.052v21.536h-43.337z" fill="#E2F7FF"/><path d="M535.326 409.751h-11.104v2.296h11.104v-2.296z" fill="#009AD6"/><path fill-rule="evenodd" clip-rule="evenodd" d="M537.588 70.824a26.6 26.6 0 01-.008-.633c0-13.76 11.173-24.931 24.936-24.931 10.978 0 20.309 7.108 23.634 16.967a25.017 25.017 0 015.156-.534c12.584 0 23.004 9.34 24.695 21.458l.241-.002c10.185 0 18.455 8.268 18.455 18.451 0 10.184-8.27 18.452-18.455 18.452h-84.258c-13.762 0-24.936-11.171-24.936-24.931 0-13.76 11.174-24.93 24.936-24.93 1.927 0 3.803.218 5.604.633z" fill="#CEF2FF"/><path d="M544.468 96.723h2.083l4.102 6.608h.025v-6.608h1.572v8.827h-1.996l-4.19-6.82h-.025v6.82h-1.571v-8.827zm9.66 2.815h1.497v5.985h-1.497v-5.985zm-.212-2.032c0-.24.09-.45.269-.63a.919.919 0 01.679-.268c.275 0 .505.085.692.256.187.17.281.384.281.642a.832.832 0 01-.281.642.988.988 0 01-.692.255.919.919 0 01-.679-.268.86.86 0 01-.269-.63zm6.43 3.081c-.274 0-.517.05-.729.149a1.57 1.57 0 00-.537.404c-.145.17-.258.371-.336.603-.079.232-.119.48-.119.746a2.078 2.078 0 00.455 1.298c.146.179.324.321.537.429.212.108.451.162.717.162a1.713 1.713 0 001.302-.572c.154-.174.273-.375.356-.603a2.164 2.164 0 000-1.448 1.843 1.843 0 00-.356-.608 1.628 1.628 0 00-.554-.411 1.747 1.747 0 00-.736-.149zm3.193-1.047v5.448a5.01 5.01 0 01-.2 1.465 2.825 2.825 0 01-.618 1.11 2.79 2.79 0 01-1.053.705c-.424.165-.927.249-1.509.249-.241 0-.497-.021-.767-.062a5.5 5.5 0 01-.798-.187 4.942 4.942 0 01-.754-.312 3.652 3.652 0 01-.649-.424l.86-1.16c.291.275.62.485.986.63.366.145.735.218 1.109.218.358 0 .66-.052.904-.156a1.46 1.46 0 00.586-.432c.147-.184.251-.401.312-.651.063-.25.095-.525.095-.826v-.438h-.025a2.11 2.11 0 01-.83.674 2.654 2.654 0 01-1.129.233c-.449 0-.856-.083-1.221-.249a2.767 2.767 0 01-.929-.673 3.053 3.053 0 01-.593-.992 3.392 3.392 0 01-.212-1.203 3.6 3.6 0 01.205-1.222c.138-.382.333-.714.586-.997a2.79 2.79 0 01.924-.674 2.89 2.89 0 011.215-.249c.424 0 .819.087 1.185.262.366.175.656.445.873.81h.025v-.897h1.422zm8.211 1.146V99.49h1.048v-1.733h1.471v1.733h1.497v1.196h-1.497v2.781c0 .266.048.486.143.661.096.174.31.262.643.262.1 0 .207-.011.324-.032.117-.02.22-.051.312-.093l.05 1.172a2.52 2.52 0 01-.474.118 3.357 3.357 0 01-.524.044c-.399 0-.723-.056-.972-.169a1.453 1.453 0 01-.593-.461 1.693 1.693 0 01-.299-.673 3.913 3.913 0 01-.081-.816v-2.794h-1.048zm5.123-1.148h1.497v5.985h-1.497v-5.985zm-.212-2.032c0-.24.09-.45.268-.63a.923.923 0 01.68-.268c.275 0 .505.085.692.256a.83.83 0 01.28.642.831.831 0 01-.28.642.988.988 0 01-.692.255.923.923 0 01-.68-.268.863.863 0 01-.268-.63zm3.532 2.034h1.422v.96h.025c.133-.3.363-.563.693-.792.328-.229.716-.343 1.165-.343.391 0 .726.069 1.004.206.278.137.508.317.686.542.179.224.31.482.393.773.083.291.125.591.125.898v3.74h-1.497v-3.316c0-.175-.013-.358-.038-.549a1.463 1.463 0 00-.161-.517 1.07 1.07 0 00-.343-.38c-.146-.1-.339-.15-.581-.15-.24 0-.448.048-.623.143a1.328 1.328 0 00-.43.368c-.112.15-.198.322-.255.518a2.032 2.032 0 00-.088.592v3.291h-1.497V99.54zm10.163 1.047c-.274 0-.517.05-.729.149a1.566 1.566 0 00-.536.404c-.146.17-.258.371-.337.603-.079.232-.119.48-.119.746a2.078 2.078 0 00.456 1.298c.145.179.324.321.536.429.212.108.451.162.717.162.274 0 .521-.052.742-.156.22-.104.407-.243.561-.416.154-.174.273-.375.355-.603.084-.228.125-.466.125-.714a2.14 2.14 0 00-.125-.734 1.824 1.824 0 00-.355-.608 1.647 1.647 0 00-1.291-.56zm3.193-1.047v5.448c0 .541-.066 1.029-.199 1.465a2.825 2.825 0 01-.618 1.11c-.279.303-.63.538-1.054.705-.423.165-.926.249-1.508.249-.242 0-.497-.021-.767-.062a4.984 4.984 0 01-1.553-.499 3.643 3.643 0 01-.648-.424l.86-1.16c.29.275.619.485.985.63.366.145.736.218 1.11.218.357 0 .659-.052.904-.156.245-.105.441-.249.586-.432.146-.184.25-.401.312-.651s.094-.525.094-.826v-.438h-.025a2.103 2.103 0 01-.83.674 2.65 2.65 0 01-1.128.233 2.92 2.92 0 01-1.222-.249 2.767 2.767 0 01-.929-.673 3.071 3.071 0 01-.593-.992 3.414 3.414 0 01-.211-1.203c0-.432.067-.839.205-1.222.137-.382.333-.714.586-.997.254-.283.561-.507.923-.674a2.897 2.897 0 011.215-.249c.425 0 .82.087 1.186.262.365.175.656.445.872.81h.025v-.897h1.422zm5.492 3.254h-.336c-.241 0-.495.011-.761.031a3.352 3.352 0 00-.736.137 1.596 1.596 0 00-.561.299.663.663 0 00-.224.53.633.633 0 00.336.586c.1.058.212.1.337.125.124.025.249.037.374.037.516 0 .906-.137 1.172-.411.266-.274.399-.648.399-1.122v-.212zm.025 1.97h-.037c-.15.266-.391.484-.723.654-.333.17-.711.256-1.136.256a3.22 3.22 0 01-.754-.094 2.241 2.241 0 01-.723-.311 1.818 1.818 0 01-.549-.574c-.145-.237-.218-.529-.218-.879 0-.448.127-.806.38-1.072a2.47 2.47 0 01.979-.611 5.55 5.55 0 011.328-.281c.487-.045.962-.068 1.428-.068v-.149c0-.375-.135-.651-.405-.83a1.716 1.716 0 00-.966-.268c-.316 0-.62.067-.911.199a2.47 2.47 0 00-.723.487l-.774-.91a3.389 3.389 0 011.179-.71 4.02 4.02 0 011.353-.238c.532 0 .971.075 1.316.225.345.15.617.345.817.585.199.242.338.512.418.811.078.299.118.599.118.898v3.641h-1.397v-.761zm4.651-8.73h-1.497v9.426h1.497v-9.426zm6.025 5.899a1.84 1.84 0 00-.081-.548 1.262 1.262 0 00-.255-.461 1.253 1.253 0 00-.443-.318 1.55 1.55 0 00-.63-.119c-.449 0-.83.136-1.141.405a1.478 1.478 0 00-.517 1.041h3.067zm1.497.674v.199c0 .067-.004.134-.013.2h-4.551a1.466 1.466 0 00.548 1.053c.158.129.337.231.537.306.199.075.407.112.623.112.374 0 .69-.068.948-.206.258-.137.469-.326.636-.567l.998.798c-.591.798-1.447 1.197-2.57 1.197-.465 0-.893-.073-1.284-.218a3.052 3.052 0 01-1.017-.617 2.796 2.796 0 01-.673-.979 3.378 3.378 0 01-.243-1.316c0-.481.081-.92.243-1.315.162-.394.385-.731.668-1.01a2.97 2.97 0 011.003-.648 3.355 3.355 0 011.253-.231c.416 0 .801.069 1.154.206a2.5 2.5 0 01.917.611c.257.27.459.606.604 1.01.146.403.219.875.219 1.415z" fill="#004E8E"/><path d="M617.11 102.408H621l-1.945-4.687-1.945 4.687zm-1.297 3.142h-.985l3.815-8.827h.873l3.792 8.827h-.998l-.973-2.319h-4.564l-.96 2.319zm9.677-8.827h-.898v8.827h.898v-8.827zm3.464 8.14c0 .174-.063.33-.187.467a.625.625 0 01-.486.206.625.625 0 01-.487-.206.674.674 0 010-.935.628.628 0 01.487-.205c.199 0 .361.068.486.205a.68.68 0 01.187.468z" fill="#009AD6"/><path d="M519.222 101.323c-.023 5.232 4.192 9.481 9.35 9.616 5.38.142 9.858-4.173 9.873-9.572.014-5.332-4.259-9.498-9.332-9.64-5.466-.154-9.91 4.262-9.891 9.596zm20.885.01c-.002 6.213-5.063 11.276-11.27 11.273-6.231-.003-11.284-5.059-11.278-11.284.006-6.217 5.062-11.265 11.278-11.262 6.213.004 11.273 5.064 11.27 11.273z" fill="#004E8E"/><path d="M540.215 105.222c.711-.385.725-.478.217-1.021-.987-1.053-1.961-2.119-2.946-3.174-1.126-1.208-2.326-2.326-3.782-3.138a3.18 3.18 0 00-.814-.32.25.25 0 01.024-.025c.522-.464.946-.982 1.086-1.698.053-.275.252-.447.552-.493.225-.036.444-.11.665-.168l-.007-.164c-.251-.033-.505-.054-.752-.104-.382-.078-.794-.107-1.131-.279-.632-.321-1.191-.284-1.727.15-.358.29-.691.611-1.044.908-.518.437-1.013.632-1.488.596l-.02.01a3.069 3.069 0 00-1.379-.842c-1.595-.481-3.235-.565-4.885-.533-1.444.027-2.887.07-4.331.094-.743.013-.8.087-.581.865l4.69-.359.019.112-4.647.626c.043.708.062.738.678.624 1.235-.228 2.466-.479 3.699-.715.143-.028.292-.025.438-.036l.027.124-4.449 1.029c.217.487.476.678.985.507 1.026-.346 2.071-.638 3.11-.949.156-.047.318-.076.477-.114l.044.135-3.555 1.262c.457.533.665.598 1.225.342.646-.297 1.281-.62 1.922-.928.13-.062.265-.113.399-.169l.064.12-2.175 1.298c.585.238 1.048.256 1.491-.186.357-.355.781-.643 1.174-.96l.111.111-1.328 1.24c1.095.285 1.363-.79 2.151-1.018-.298.32-.572.666-.9.95-.345.3-.311.547.009.86l1.486-1.556c.042.035.083.07.124.107-.408.473-.803.96-1.229 1.417-.258.277-.282.485.17.728l1.561-1.937.146.115-1.527 2.07c.185.115.493.3.799.484-.056.2-.102.401-.135.606.384.155.609.448.734.933.147.565.166 1.148-.067 1.671a26.117 26.117 0 01-1.319 2.595c-.521.889-1.084 1.749-1.315 2.771-.117.519.037.784.563.788.176.001 2.365.406 2.504.465.06.025.128.033.192.046.244.049.381-.033.388-.299.007-.264.021-.527.04-.79.065-.917.063-1.846.218-2.748.201-1.164 1.035-2.025 1.649-2.987.071-.11.272-.138.411-.207.351-.172.75-.287 1.042-.53a4.26 4.26 0 011.443-.781c.356.503.693 1.026.877 1.255l.424-2.537.185.025-.305 2.469c.488.154.62-.007.64-.386.032-.623.107-1.245.163-1.868l.163.014-.084 2.151c.447.012.649-.136.624-.592-.024-.433.035-.871.057-1.308.385.724-.201 1.665.764 2.253-.011-.631-.021-1.223-.033-1.815l.157.003c.046.503.134 1.007.127 1.509-.009.627.326.947.904 1.201l-.58-2.465.13-.037c.052.135.111.267.156.404.224.675.435 1.355.671 2.026.205.581.397.684 1.098.641l-1.567-3.431.128-.062c.083.14.174.277.249.421.499.963 1.017 1.917 1.483 2.895.231.484.548.537 1.049.353l-2.357-3.909.109-.068c.094.112.199.218.279.34.687 1.05 1.364 2.108 2.06 3.154.347.521.381.514.92.051l-2.783-3.771.093-.064 3.005 3.618z" fill="#009AD6"/><path d="M568.679 99.3c.391 0 .726.069 1.005.206.278.137.506.318.685.542a2.2 2.2 0 01.393.773c.083.291.125.591.125.898v3.741h-1.497v-3.292c0-.174-.012-.355-.037-.543a1.563 1.563 0 00-.156-.511 1.024 1.024 0 00-.337-.38c-.145-.1-.338-.149-.58-.149-.24 0-.448.045-.623.136-.175.093-.32.215-.437.369a1.635 1.635 0 00-.261.517 1.977 1.977 0 00-.088.586v3.267h-1.496v-9.426h1.496v4.276h.025c.058-.125.144-.247.256-.368.112-.12.243-.228.392-.324a2.127 2.127 0 011.135-.318z" fill="#004E8E"/><path fill-rule="evenodd" clip-rule="evenodd" d="M404.424 49.625l-22.127 13.073v26.147l22.127-13.073V49.625z" fill="#AAEAFF"/><path fill-rule="evenodd" clip-rule="evenodd" d="M382.311 62.698l-22.128-13.073v26.147l22.128 13.073V62.698zm0-26.168l-22.128 13.072 22.128 13.073 22.128-13.073-22.128-13.072z" fill="#CEF2FF"/><path fill-rule="evenodd" clip-rule="evenodd" d="M361.677 53.53l11.204 6.62v1.93l-11.204-6.62v-1.93zm0 3.102l6.88 4.065v1.93l-6.88-4.065v-1.93zm0 3.102l8.648 5.109v1.93l-8.648-5.11v-1.93zm0 2.986l6.091 3.6v1.929l-6.091-3.599v-1.93z" fill="#009AD6"/><path fill-rule="evenodd" clip-rule="evenodd" d="M430.529 91.439l-22.128 13.072v26.148l22.128-13.073V91.439z" fill="#AAEAFF"/><path fill-rule="evenodd" clip-rule="evenodd" d="M408.387 104.511L386.26 91.439v26.147l22.127 13.073v-26.148zm0-26.168L386.26 91.416l22.129 13.074 22.127-13.073-22.129-13.074z" fill="#CEF2FF"/><path fill-rule="evenodd" clip-rule="evenodd" d="M387.753 95.344l11.204 6.62v1.93l-11.204-6.62v-1.93zm0 3.102l6.88 4.065v1.93l-6.88-4.065v-1.93zm0 3.102l8.648 5.109v1.929l-8.648-5.109v-1.929zm0 2.986l6.091 3.599v1.93l-6.091-3.599v-1.93z" fill="#009AD6"/><path fill-rule="evenodd" clip-rule="evenodd" d="M379.64 91.439l-22.127 13.072v26.148l22.127-13.073V91.439z" fill="#AAEAFF"/><path fill-rule="evenodd" clip-rule="evenodd" d="M357.498 104.511l-22.127-13.072v26.147l22.127 13.073v-26.148zm.001-26.168l-22.128 13.073L357.5 104.49l22.128-13.073-22.129-13.074z" fill="#CEF2FF"/><path fill-rule="evenodd" clip-rule="evenodd" d="M336.864 95.344l11.205 6.62v1.93l-11.205-6.62v-1.93zm0 3.102l6.881 4.065v1.93l-6.881-4.065v-1.93zm0 3.102l8.648 5.109v1.929l-8.648-5.109v-1.929zm0 2.986l6.092 3.599v1.93l-6.092-3.599v-1.93z" fill="#009AD6"/><path d="M507.803 148.414h-1.668v-2.109h1.668v2.109zm-1.668 7.23v-2.466h1.668v2.228l-1.668.238zm1.668-3.776h-1.668v-2.144h1.668v2.144zm1.923-5.563v-1.429h-5.632v1.429h.748v9.544l-.953.136.307 1.412c1.038-.187 2.314-.426 3.607-.647v3.046h1.327v-13.491h.596zm2.978 6.26v2.552h-1.174v-2.552h-1.294v3.879h2.298c-.273.868-.902 1.701-2.383 2.365.255.221.698.782.851 1.089 2.501-1.174 3.012-3.08 3.012-4.764v-2.569h-1.31zm.051-2.926c.102.323.221.647.306 1.004l-1.906.187c.987-1.089 2.025-2.535 2.893-3.998l-1.072-.561a15.824 15.824 0 01-.868 1.48l-1.072.051a19.475 19.475 0 001.872-3.011l-1.174-.511c-.46 1.242-1.293 2.45-1.515 2.773-.238.306-.476.528-.68.579.119.408.306 1.123.357 1.446.17-.085.46-.17 1.481-.273a13.075 13.075 0 01-.953 1.242c-.392.46-.715.749-.987.817.119.374.272 1.072.34 1.395.272-.136.698-.238 3.573-.595.086.306.153.612.205.85l.986-.323c-.153-.698-.527-1.888-.833-2.79l-.953.238zm6.925 2.382c-.204-.715-.663-1.922-1.055-2.807l-.902.289c.12.323.256.663.375 1.021l-1.821.238c.868-1.106 1.736-2.518 2.484-3.947l-1.054-.544c-.205.459-.46.935-.698 1.361l-1.14.068c.578-.766 1.191-1.769 1.701-2.79l-1.055-.528c-.459 1.191-1.242 2.399-1.497 2.705-.238.307-.443.511-.664.545.119.374.289 1.054.358 1.361.17-.102.476-.188 1.667-.307-.391.647-.765 1.157-.953 1.361-.323.46-.629.749-.885.8.102.374.29 1.055.341 1.378.272-.153.714-.272 3.573-.715.085.341.187.664.255.902l.97-.391zm-2.161 3.062h-1.174v-2.535h-1.361v7.265h1.361v-3.369h1.174v.596h1.293v-4.356h-1.293v2.399zm7.328-7.936h12.643v-1.412h-5.667a13.994 13.994 0 00-.833-1.684l-1.447.391c.221.374.443.85.63 1.293h-6.858v4.916c0 2.45-.102 5.886-1.276 8.319.341.171 1.021.613 1.311.885 1.293-2.603 1.497-6.55 1.497-9.204v-3.504zm5.224 8.217v1.327h7.317v-1.327h-2.876v-2.382h2.348v-1.344h-2.348v-2.042c.868-.17 1.667-.357 2.331-.578l-.766-1.208c-1.412.545-3.811.919-5.836 1.14.17.306.357.834.408 1.14a32.122 32.122 0 002.4-.255v1.803h-2.298v1.344h2.298v2.382h-2.978zm-1.021-3.573l-.255.034h-1.141c.613-1.123 1.345-2.433 1.94-3.59h-4.22v1.276h2.059c-.646 1.242-1.378 2.586-1.991 3.539h.902v.017h2.008a10.19 10.19 0 01-1.004 2.858c-.34-.527-.629-1.174-.851-1.973l-1.174.374c.341 1.157.749 2.058 1.26 2.773a6.57 6.57 0 01-2.076 1.684c.306.204.799.732 1.004 1.038a7.447 7.447 0 002.007-1.667c1.328 1.123 3.114 1.429 5.411 1.429h4.34c.085-.408.289-1.072.527-1.412-.885.017-4.101.017-4.798.017-1.94 0-3.523-.238-4.68-1.174.732-1.293 1.259-2.909 1.566-4.968l-.834-.255zm17.019 6.963c1.617 0 2.893-.646 3.897-1.803l-1.055-1.242c-.749.817-1.634 1.327-2.774 1.327-2.212 0-3.607-1.82-3.607-4.798 0-2.943 1.497-4.746 3.658-4.746 1.021 0 1.804.459 2.451 1.123l1.072-1.259c-.766-.834-1.991-1.582-3.557-1.582-3.165 0-5.649 2.449-5.649 6.532 0 4.1 2.416 6.448 5.564 6.448zm9.283-.063c1.123 0 2.127-.561 2.978-1.293h.051l.17 1.072h1.6v-5.631c0-2.484-1.072-3.964-3.404-3.964-1.497 0-2.807.613-3.777 1.225l.732 1.327c.799-.51 1.718-.953 2.705-.953 1.378 0 1.77.953 1.787 2.042-3.897.425-5.599 1.463-5.599 3.47 0 1.651 1.141 2.705 2.757 2.705zm.596-1.548c-.834 0-1.464-.374-1.464-1.293 0-1.055.936-1.752 3.71-2.092v2.296c-.766.698-1.43 1.089-2.246 1.089zm8.135 1.327h1.939v-5.835c.596-1.48 1.515-2.008 2.281-2.008.374 0 .612.051.935.153l.358-1.701c-.289-.136-.596-.204-1.055-.204-1.004 0-1.991.715-2.655 1.923h-.051l-.153-1.685h-1.599v9.357zm11.797.221c1.225 0 2.297-.408 3.165-.987l-.681-1.241c-.68.442-1.395.697-2.229.697-1.616 0-2.739-1.072-2.893-2.858h6.075c.051-.221.085-.612.085-.987 0-2.654-1.327-4.44-3.811-4.44-2.195 0-4.271 1.888-4.271 4.934 0 3.079 2.024 4.882 4.56 4.882zm-2.655-5.733c.188-1.65 1.226-2.552 2.4-2.552 1.361 0 2.093.936 2.093 2.552h-4.493zm11.57.446l.511-1.685a93.982 93.982 0 001.157-4.168h.068c.391 1.412.766 2.807 1.191 4.168l.494 1.685h-3.421zm4.952 5.12h2.093l-4.152-12.521h-2.28l-4.152 12.521h2.008l1.072-3.572h4.356l1.055 3.572zm6.865-12.521h-1.973v12.521h1.973v-12.521zm5.943 6.711c.034-.629.034-1.241.034-1.786v-.714h2.178v2.5h-2.212zm2.212-6.396v2.415h-2.178v-2.415h2.178zm1.464-1.463h-5.071v6.073c0 2.484-.085 5.887-1.208 8.234.374.136 1.021.493 1.293.732.749-1.566 1.072-3.675 1.225-5.683h2.297v3.828c0 .239-.085.306-.289.324-.221 0-.902.017-1.6-.018.205.392.392 1.123.426 1.515 1.14.017 1.838-.017 2.314-.29.477-.255.613-.731.613-1.497v-13.218zm2.756 7.264h.307c.51 1.667 1.208 3.198 2.109 4.491-.714.851-1.531 1.549-2.416 2.008v-6.499zm4.697 0a12.774 12.774 0 01-1.43 3.283 12.822 12.822 0 01-1.616-3.283h3.046zm.783-1.497l-.256.051h-5.224v-4.304h4.39v1.769c0 .204-.085.255-.357.255-.238.017-1.191.017-2.127-.017.187.375.425.936.494 1.344 1.259 0 2.161 0 2.756-.221.596-.204.749-.612.749-1.344v-3.266h-7.402v14.971h1.497v-1.208c.324.272.715.782.919 1.14a9.83 9.83 0 002.382-2.008 9.534 9.534 0 002.587 2.093c.238-.392.663-.936 1.021-1.225-1.021-.477-1.923-1.191-2.706-2.042 1.021-1.514 1.787-3.385 2.195-5.665l-.918-.323zm14.996 3.002c.085-.527.153-1.055.204-1.616h-1.565a22.682 22.682 0 01-.205 1.616h-2.722v1.327h2.382c-.527 1.548-1.565 2.824-3.777 3.624.323.272.748.851.936 1.225 2.688-1.055 3.879-2.756 4.458-4.849h2.467c-.221 1.991-.459 2.858-.749 3.114-.153.153-.289.187-.544.187-.29 0-.919-.017-1.583-.085.222.408.392 1.02.426 1.463.765.034 1.463.034 1.888 0 .46-.068.8-.171 1.141-.511.476-.51.782-1.82 1.071-4.865a7.89 7.89 0 00.052-.63h-3.88zm1.276-6.379a6.161 6.161 0 01-1.429 1.871c-.698-.561-1.277-1.174-1.719-1.871h3.148zm2.91 0v-1.327h-5.36c.255-.443.493-.885.698-1.344l-1.481-.409c-.681 1.6-1.889 3.131-3.233 4.1.391.205 1.004.647 1.31.902.341-.289.681-.612 1.021-.987.426.647.936 1.242 1.515 1.786-.766.443-1.634.8-2.604 1.072.051-.238.102-.459.153-.68l-.952-.34-.239.085h-1.055l.732-.8a11.924 11.924 0 00-1.361-.902c1.004-.782 2.025-1.837 2.654-2.841l-1.021-.629-.255.051h-5.598v1.344h4.475a9.74 9.74 0 01-1.463 1.429 19.927 19.927 0 00-1.532-.681l-.987 1.021c1.225.528 2.706 1.327 3.641 2.008h-4.339v1.378h2.366c-.613 1.565-1.583 3.181-2.604 4.083.273.408.647 1.055.8 1.514.868-.851 1.668-2.229 2.297-3.692v4.61c0 .205-.068.239-.272.256-.204.016-.885.017-1.566-.017.205.425.409 1.071.46 1.497 1.055 0 1.753-.034 2.246-.256.51-.272.63-.697.63-1.463v-6.532h1.31c-.221.935-.477 1.888-.749 2.552l1.089.544c.323-.732.647-1.735.936-2.739.187.255.357.51.443.697 1.327-.408 2.552-.918 3.59-1.599 1.089.732 2.331 1.276 3.692 1.633.205-.408.664-1.02.987-1.326-1.259-.273-2.433-.698-3.437-1.277a8.218 8.218 0 001.889-2.721h1.174zm-155.94 21.169c-.72 2.342-2.087 4.324-3.859 5.555.27.18.736.6.931.825 1.757-1.411 3.244-3.543 4.084-6.095l-1.156-.285zm-1.607 5.134v1.081h3.064c-.346 2.552-1.172 4.909-4.715 6.095.27.241.585.676.72.976 3.815-1.396 4.791-4.098 5.181-7.071h3.874c-.18 3.783-.39 5.285-.781 5.66-.15.165-.315.195-.63.195-.361 0-1.277-.015-2.253-.105.21.33.345.781.361 1.126.931.045 1.877.075 2.357.03.541-.06.856-.165 1.171-.54.511-.571.721-2.297.931-6.906.015-.15.03-.541.03-.541h-9.31zm3.95-5.374v1.051h2.657c.856 2.237 2.403 4.338 4.265 5.539.195-.315.556-.765.796-1.006-1.907-1.08-3.514-3.227-4.265-5.584h-3.453zm15.561 7.577a54.413 54.413 0 00-2.072-2.763v-.765h2.193v-1.066h-2.193v-3.213h-1.081v3.213h-2.237v1.066h2.117c-.496 2.056-1.532 4.398-2.523 5.644.18.271.466.706.586 1.006.766-1.006 1.501-2.627 2.057-4.308v7.085h1.081v-7.281c.511.796 1.096 1.742 1.352 2.267l.72-.885zm7.959-2.703h-6.006v-2.672c1.801-.33 3.753-.811 5.15-1.381l-.946-.871c-1.216.556-3.364 1.126-5.256 1.472v4.593c0 2.087-.135 4.879-1.486 6.876.255.09.72.39.916.571 1.411-2.072 1.622-5.21 1.622-7.447v-.075h2.732v7.552h1.096v-7.552h2.178v-1.066zm8.083 4.819c-.166.481-.511 1.021-1.262 1.502a23.305 23.305 0 00-1.877-.691c.15-.21.316-.435.466-.676l2.673-.135zm-4.025-3.483h1.877v.931h-1.877v-.931zm4.685 0v.931h-1.922v-.931h1.922zm-4.264-2.161v-.901h1.456v.901h-1.456zm1.456-2.447v.795h-1.456v-.795h1.456zm2.448 0v.795h-1.562v-.795h1.562zm-1.562 2.447v-.901h1.562v.901h-1.562zm3.048 5.539l.015-.78-.75.045v-.661h-.916v.706c-.781.045-1.547.09-2.283.12.241-.376.451-.751.631-1.126h3.168v-2.447h-2.913v-.616h2.553v-1.621h1.021v-.856h-1.021v-1.531h-2.553v-1.051h-.886v1.051h-2.417v1.531h-1.006v.856h1.006v1.621h2.417v.616h-2.838v2.447h2.448c-.21.39-.451.781-.676 1.186-.916.03-1.757.075-2.432.09l.105.826 1.772-.09c-.256.36-.526.69-.766.99.75.211 1.546.496 2.312.826-.841.376-2.027.721-3.619.991.166.195.376.525.466.751 1.892-.346 3.243-.796 4.204-1.292.721.331 1.367.676 1.847.976l.736-.645c-.451-.285-1.051-.586-1.727-.886.826-.646 1.156-1.321 1.292-1.982l.81-.045zm4.115-5.945c-.18 1.667-.436 3.153-.871 4.444-.451-1.336-.781-2.852-1.006-4.444h1.877zm2.027 0v-1.006h-3.664c.195-.84.36-1.726.481-2.597l-.947-.15c-.345 2.462-.931 4.894-1.921 6.47.225.151.6.526.765.676.301-.48.556-1.036.796-1.651.27 1.456.616 2.792 1.096 3.963-.645 1.411-1.546 2.537-2.823 3.378.21.195.526.63.616.841 1.171-.826 2.042-1.862 2.718-3.093.601 1.186 1.381 2.162 2.357 2.837.151-.27.451-.6.676-.795-1.066-.676-1.877-1.772-2.538-3.123.691-1.606 1.082-3.513 1.367-5.75h1.021zm6.883 3.468l-.135-1.036-1.487.466v-2.732h1.366v-1.036h-1.366v-3.003h-1.021v3.003h-1.832v1.036h1.832v3.062c-.766.24-1.472.436-2.042.601l.285 1.081c.541-.165 1.126-.376 1.757-.586v4.234c0 .21-.075.27-.255.27-.166 0-.766 0-1.412-.015.15.3.285.75.331 1.021.945.015 1.501-.03 1.846-.195.376-.196.511-.481.511-1.081v-4.564l1.622-.526zm1.276-3.918h2.298v.931l-1.953.18.105.856 1.848-.18c.014.81.24 1.17 1.186 1.17h2.297c.406 0 .871-.014 1.081-.075-.03-.21-.06-.48-.075-.72-.24.06-.781.06-1.066.06h-2.087c-.345 0-.406-.105-.406-.465v-.196l2.508-.24-.075-.69-2.433.225v-.856h3.379c-.12.42-.27.871-.405 1.171l.855.195c.256-.51.526-1.351.721-2.072l-.675-.165-.181.03h-3.438v-.825h3.513v-.826h-3.513v-.916h-1.081v2.567h-3.379v4.234c0 1.952-.15 4.489-1.487 6.305.241.105.646.405.826.571 1.427-1.907 1.637-4.774 1.637-6.876v-3.393zm7.057 4.774c-.675.421-1.801.991-2.732 1.396a3.985 3.985 0 00-.856-1.096c.375-.24.736-.48 1.006-.735h3.273v-.781h-7.328v.781h3.004c-.841.57-2.103 1.081-3.184 1.381l.361.6c.705-.195 1.486-.51 2.192-.87.15.135.27.285.39.435-.795.6-2.132 1.201-3.198 1.471.165.15.345.436.435.631 1.037-.361 2.268-.991 3.109-1.592.09.18.18.361.225.526-.886.886-2.613 1.846-3.979 2.267.18.165.375.48.48.675 1.216-.495 2.688-1.366 3.694-2.207.12.751-.03 1.412-.255 1.637-.15.195-.346.21-.586.21-.21 0-.525-.015-.871-.045.151.225.226.585.241.811.3.015.57.03.795.03.466 0 .751-.105 1.067-.391.525-.48.735-1.846.24-3.152.225-.09.465-.181.706-.271.39 1.427 1.126 2.733 2.162 3.393.135-.24.435-.57.645-.735-1.02-.526-1.741-1.682-2.117-2.958.616-.27 1.217-.585 1.727-.87l-.646-.541zm15.267-2.749h-4.385v-1.456h4.385v1.456zm0 2.267h-4.385v-1.471h4.385v1.471zm0 2.312h-4.385V176.5h4.385v1.471zm-5.421-6.906v7.777h6.472v-7.777h-3.109c.135-.435.286-.931.421-1.426h3.213v-.961h-7.568v.961h3.124c-.076.465-.181.976-.286 1.426h-2.267zm-1.532 5.78c.421-.81.871-2.116 1.277-3.273l-.691-.18-.165.045h-1.097l.361-.465c-.285-.3-.706-.646-1.171-.976a14.963 14.963 0 002.327-2.882l-.691-.481-.225.075h-4.73v.991h4.024a13.12 13.12 0 01-1.486 1.757 27.392 27.392 0 00-1.517-.886l-.601.721c1.067.57 2.298 1.426 3.079 2.146h-3.829v.991h2.462v5.93c0 .18-.06.24-.285.24-.195.015-.886.015-1.652 0 .151.286.301.751.346 1.051 1.036 0 1.697-.015 2.117-.195.435-.165.556-.495.556-1.081v-5.945h1.576c-.255.811-.555 1.637-.811 2.192l.826.225zm3.018 2.282c-.645.661-1.997 1.426-3.168 1.847.21.195.571.54.736.75 1.201-.435 2.582-1.246 3.408-2.026l-.976-.571zm2.313.631c.916.57 2.057 1.411 2.628 1.966l.871-.645c-.601-.556-1.757-1.366-2.658-1.892l-.841.571zm10.619-7.4h2.372v1.846h-2.372v-1.846zm0 2.777h2.372v1.877h-2.372v-1.877zm0-5.539h2.372v1.831h-2.372v-1.831zm-.961-.991v9.383h4.339v-9.383h-4.339zm2.643 10.118c.6.736 1.336 1.757 1.666 2.387l.886-.555c-.345-.601-1.096-1.592-1.711-2.297l-.841.465zm-2.027-.42c-.436 1.021-1.202 2.072-1.998 2.762.241.15.691.451.871.616.796-.751 1.652-1.952 2.163-3.108l-1.036-.27zm7.462-10.359v12.311c0 .255-.105.33-.36.33-.225.015-1.021.03-1.907 0 .15.285.285.765.33 1.051 1.232 0 1.937-.03 2.358-.21.42-.181.585-.496.585-1.186v-12.296h-1.006zm-2.612 1.532v8.527h.991v-8.527h-.991zm-8.92-.586c.841.42 1.877 1.111 2.358 1.606l.66-.885c-.51-.496-1.531-1.126-2.372-1.517l-.646.796zm-.645 4.008c.886.391 1.952 1.021 2.462 1.486l.631-.915c-.526-.465-1.592-1.036-2.463-1.381l-.63.81zm.315 7.957l1.006.601a58.71 58.71 0 001.952-4.774l-.886-.586c-.616 1.681-1.471 3.603-2.072 4.759zm19.253-11.045c-.495-.495-1.502-1.186-2.267-1.636l-.706.735c.766.481 1.772 1.231 2.252 1.742l.721-.841zm-.45 3.918c-.526-.465-1.592-1.11-2.418-1.516l-.676.751c.826.45 1.877 1.141 2.388 1.621l.706-.856zm-1.772 7.762c.66-1.366 1.411-3.213 1.967-4.759l-.901-.6c-.601 1.681-1.457 3.618-2.057 4.774l.991.585zm3.438-10.104c.09-.63.196-1.366.256-2.011h1.036v.721c0 .39-.015.825-.105 1.29h-1.187zm1.787 2.208c0 .66-.33 1.02-.525 1.17.15.136.36.451.45.646.18-.195.496-.39 2.267-1.276a4.275 4.275 0 01-.255-.706l-1.156.526v-1.682h1.081v-.886h-1.576c.09-.48.12-.9.12-1.29v-.721h1.276v-.826h-4.445v.826h.391c-.075.961-.196 2.132-.346 2.897h1.862c-.345.871-1.036 1.772-2.387 2.552.195.15.48.436.6.646 1.487-.946 2.253-2.042 2.643-3.063v1.187zm5 2.987v1.291h-5.886v-1.291h5.886zm-5.886 3.528v-1.426h5.886v1.426h-5.886zm-1.036 1.561h1.036v-.66h5.886v.615h1.097v-5.945h-8.019v5.99zm4.985-10.254c.091-.645.196-1.38.271-2.041h1.006v.871c0 .345-.015.735-.075 1.17h-1.202zm2.523 2.988c-.21 0-.24-.015-.24-.255v-1.396h-.571c.06-.135.12-.301.165-.451h2.073v-.886h-1.878a6.4 6.4 0 00.091-1.155v-.886h1.667v-.826h-4.745v.826h.375c-.09.976-.225 2.147-.361 2.927h1.893c-.316.886-.931 1.817-2.208 2.567.21.135.481.421.601.616 1.021-.691 1.682-1.456 2.087-2.222v.886c0 .825.195 1.036.961 1.036h.856c.601 0 .826-.316.901-1.622a2.44 2.44 0 01-.721-.315c-.03 1.081-.075 1.156-.315 1.156h-.631zm13.337 1.632h3.379v-1.051h-3.379v-2.868h-1.111v2.868h-3.364v1.051h3.364v4.218h-3.949v1.051h9.024v-1.051h-3.964v-4.218zm-3.769-5.765c.27-.675.526-1.366.721-2.042l-1.141-.285a20.506 20.506 0 01-.796 2.327h-4.099v1.066h3.603c-.931 1.907-2.252 3.678-3.964 4.894.18.24.466.706.571 1.006.63-.451 1.216-.946 1.741-1.516v5.885h1.097v-7.207c.705-.96 1.291-1.981 1.817-3.062h8.183v-1.066h-7.733zm20.697-.225h1.397v1.141h-1.397v-1.141zm1.397 3.183h-1.397v-1.171h1.397v1.171zm-2.358 0h-1.952v.855h1.952v1.096h-2.207v.916h2.207v1.171h-2.582v.916h2.582v1.801h.961v-1.801h3.064v-.916h-3.064v-1.171h2.583v-.916h-2.583v-1.096h2.283v-2.026h1.051v-.871h-1.051v-1.997h-2.283v-1.246h-.961v1.246h-1.952v.856h1.952v1.141h-2.642v.871h2.642v1.171zm-6.727-5.255c-.586 2.192-1.561 4.339-2.718 5.735.181.285.481.886.556 1.141.39-.496.751-1.036 1.096-1.636v8.407h.991v-10.374c.406-.961.781-1.982 1.066-3.003l-.991-.27zm3.604 5.405l-.105.015h-1.216a89.366 89.366 0 001.757-4.369h-3.034v.976h1.652c-.541 1.486-1.216 3.153-1.757 4.293h2.268c-.166 1.382-.406 2.568-.766 3.528a8.359 8.359 0 01-.916-2.146l-.811.33c.345 1.141.796 2.057 1.321 2.777-.48.946-1.096 1.667-1.847 2.162.196.135.571.481.721.706.691-.496 1.291-1.186 1.787-2.087 1.517 1.516 3.544 1.876 5.826 1.876h2.268c.03-.27.195-.705.345-.945-.556.015-2.147.015-2.553.015-2.102 0-4.054-.33-5.481-1.832.571-1.321.931-3.032 1.127-5.164l-.586-.135zm18.053.845h2.898v1.217h-2.898v-1.217zm0-1.996h2.898v1.156h-2.898v-1.156zm0 4.023h3.964v-1.967h1.472v-.975h-1.472v-1.892h-3.964v-1.141h5.271v-.991h-5.181a13.848 13.848 0 00-.886-1.456l-1.066.315c.225.331.466.766.661 1.141h-5.886v4.414c0 2.177-.12 5.224-1.292 7.386.241.105.706.406.901.601 1.262-2.267 1.457-5.66 1.457-7.987v-3.423h4.91v1.141h-3.829v.811h3.829v1.156h-4.55v.84h4.55v1.217h-3.964v.81h3.964v1.682c-1.832.735-3.724 1.486-4.955 1.921l.45.916c1.277-.54 2.913-1.246 4.505-1.952v1.577c0 .255-.09.33-.36.345-.241.015-1.157.03-2.073-.015.151.285.301.675.361.961 1.246 0 2.042 0 2.538-.165.465-.165.645-.421.645-1.126v-1.592c1.667.676 3.589 1.577 4.625 2.192l.496-.825c-.736-.421-1.907-.961-3.109-1.457a26.788 26.788 0 002.388-1.621l-.841-.646c-.616.571-1.682 1.366-2.493 1.862-.375-.15-.72-.27-1.066-.405v-1.652zm-5.27.721c.765.465 1.726 1.156 2.192 1.606l.646-.69c-.496-.436-1.472-1.096-2.208-1.532l-.63.616zm17.54-.627v-2.297h1.696v2.297h-1.696zm4.399-2.297v2.297h-1.711v-2.297h1.711zm-.57 3.843c.285.375.555.826.81 1.261l-1.951.12v-2.042h2.657v-4.083h-2.657v-1.441h2.912v-.931h-6.712v.931h2.808v1.441h-2.597v4.083h2.597v2.102c-1.336.09-2.567.165-3.498.21l.075 1.006c1.772-.135 4.339-.3 6.832-.48.195.405.36.795.451 1.141l.901-.331c-.256-.915-1.007-2.281-1.772-3.287l-.856.3zm-6.652-9.143v4.819c0 2.297-.165 5.33-1.772 7.461.255.136.706.421.886.631 1.696-2.252 1.952-5.675 1.952-8.092v-3.783H645c.06 6.546.03 11.845 1.847 11.845.766 0 .991-.766 1.096-2.687-.21-.165-.48-.496-.675-.781-.03 1.306-.12 2.297-.301 2.297-.87 0-.901-6.125-.886-11.71h-10.24zm20.876 3.465h4.475v-.901h-4.43a13.176 13.176 0 002.057-1.906c1.231 1.11 3.048 2.221 4.58 2.882.09-.285.315-.736.51-1.006-1.531-.54-3.408-1.561-4.535-2.612.121-.165.226-.33.331-.495l-1.081-.346c-.841 1.396-2.463 2.883-4.265 3.828.24.166.586.526.751.736.555-.315 1.096-.66 1.607-1.051v.871zm3.588 1.907h1.667v1.966h-1.667v-1.966zm-.855 2.777h3.423v-3.603h-3.423v3.603zm-3.439-2.777h1.607v1.966h-1.607v-1.966zm-.856 2.777h3.364v-3.603h-3.364v3.603zm-1.111-8.407l-.165.06h-3.154v13.061h.961v-12.055h1.787a38.26 38.26 0 01-1.096 3.378c.991 1.186 1.246 2.221 1.246 3.032 0 .466-.09.871-.3 1.036-.105.09-.27.135-.435.135a5.427 5.427 0 01-.841-.015c.18.285.27.706.285.991.3.015.661.015.946-.015.285-.045.556-.135.751-.286.39-.3.555-.945.555-1.756 0-.916-.24-1.997-1.261-3.228.481-1.201.991-2.687 1.412-3.903l-.691-.435zm2.387 8.752c-.48 1.621-1.486 2.913-2.868 3.723.241.18.616.541.766.736a7.997 7.997 0 002.253-2.387c.57.435 1.201.931 1.516 1.306l.586-.751c-.346-.375-1.051-.916-1.682-1.306.165-.345.315-.735.435-1.111l-1.006-.21zm4.175-.015c-.331 1.622-1.126 2.898-2.343 3.693.241.18.601.541.751.736a5.984 5.984 0 001.817-2.132c.886.616 1.817 1.381 2.328 1.907l.66-.751c-.555-.586-1.637-1.396-2.583-1.997.166-.405.286-.855.376-1.306l-1.006-.15zm-321.834-29.493h5.037v4.61h1.548v-4.61h5.054v2.501h1.464v-3.556h-6.518v-.765h5.428v-1.174h-12.37v1.174h5.394v.765h-6.449v3.556h1.412v-2.501zm.426 5.036c1.191-.443 2.637-1.021 4.05-1.582l-.205-1.072a114.473 114.473 0 01-4.39 1.395l.545 1.259zm.085-3.93c1.089.323 2.535.902 3.284 1.259l.578-.987c-.765-.34-2.229-.868-3.284-1.157l-.578.885zm10.958 4.236h-11.264v1.174h11.264v-1.174zm-4.305-1.974c1.378.443 3.233 1.14 4.186 1.6l.51-1.072c-.987-.477-2.858-1.106-4.203-1.48l-.493.952zm3.403-3.113c-.885.409-2.433 1.004-3.471 1.259l.596.885c1.055-.255 2.535-.681 3.607-1.157l-.732-.987zm-8.099 10.191a23.554 23.554 0 002.008-1.719h4.066l-.748.341c.459.323.953.731 1.429 1.139l-6.755.239zm10.958-2.944h-15.161v1.225h4.083c-.629.596-1.259 1.089-1.514 1.242-.374.29-.698.477-.987.528.187.408.408 1.173.494 1.497.629-.221 1.548-.238 10.141-.63.323.323.596.613.8.868l1.429-.681c-.748-.799-2.11-1.956-3.284-2.824h3.999v-1.225zm17.727-10.156h-1.514v2.756h-2.144v-3.556h-1.514v3.556h-1.991v-2.756h-1.447v4.134h8.61v-4.134zm-13.187-.255c.425.765.885 1.803 1.072 2.501l1.395-.494c-.204-.663-.68-1.667-1.123-2.416l-1.344.409zm4.05 2.501h-5.666v1.463h5.666v-1.463zm-3.301 8.046c-.051-1.616-.324-3.981-.681-5.852l-1.191.221c.323 1.838.596 4.254.63 5.853l1.242-.222zm1.821.341c.374-1.719.765-4.151 1.037-6.074l-1.361-.238c-.153 1.973-.51 4.797-.867 6.601-1.175.272-2.298.51-3.132.68l.341 1.566c1.582-.392 3.607-.902 5.547-1.396l-.17-1.463-1.395.324zm11.162-4.015v-1.412h-9.852v1.412h3.931c-.052.459-.154.901-.239 1.327h-3.233v6.822h1.43v-5.478h1.225v5.325h1.225v-5.325h1.276v5.29h1.242v-5.29h1.276v4.083c0 .153-.051.204-.187.204s-.51 0-.919-.017c.154.34.341.884.392 1.259.731 0 1.242-.034 1.633-.239.375-.221.46-.561.46-1.173v-5.461h-4.237c.153-.426.306-.868.459-1.327h4.118zm7.335-6.529h-4.169v1.191h4.169v-1.191zm5.939 1.344h2.365c-.238.425-.493.868-.715 1.174l1.243.442c.476-.629 1.055-1.616 1.48-2.518l-1.089-.357-.221.068h-5.309c.119-.289.221-.561.323-.85l-1.412-.307c-.375 1.191-1.072 2.365-1.957 3.131.357.17.936.578 1.191.799a7.971 7.971 0 001.242-1.582h1.412v.221c0 .732-.391 1.684-4.083 2.161v-1.123h-4.935v1.242h4.322c.289.289.647.817.8 1.174 2.927-.409 4.271-1.14 4.883-1.923 1.072.987 2.621 1.6 4.561 1.872.153-.409.544-.97.851-1.293-2.247-.136-4.067-.715-4.986-1.65.034-.153.034-.29.034-.409v-.272zm-6.722 8.591h7.981v.987h-7.981v-.987zm0-1.922h7.981v.953h-7.981v-.953zm0-1.922h7.981v.969h-7.981v-.969zm9.563 5.835v-6.839h-11.094v6.839h2.74c-1.174.663-3.165 1.242-4.901 1.582.34.289.902.868 1.174 1.191 1.702-.477 3.829-1.293 5.207-2.127l-1.412-.646h5.088l-.987.799c1.752.596 3.539 1.361 4.577 1.923l1.429-.868c-1.157-.561-3.046-1.276-4.798-1.854h2.977zm16.145-9.684c-.562-.63-1.736-1.48-2.689-2.059l-.8 1.072c.97.612 2.128 1.531 2.655 2.195l.834-1.208zm-.715 4.049c-.613-.596-1.855-1.396-2.842-1.923l-.748 1.14c1.004.545 2.212 1.429 2.79 2.041l.8-1.258zm-5.105-6.176c-.204 1.14-.663 2.824-1.021 3.845l1.004.306c.443-.97.953-2.552 1.396-3.845l-1.379-.306zm-3.403 3.862c-.102-1.038-.459-2.603-.936-3.811l-1.123.289c.408 1.208.783 2.807.851 3.828l1.208-.306zm-.715 3.062c-.272 1.412-.953 3.148-1.65 4.083.272.511.612 1.31.748 1.837.97-1.224 1.685-3.606 2.025-5.512l-1.123-.408zm2.706.545v-1.362h2.654v-1.48h-2.654v-5.631h-1.48v5.631h-2.638v1.48h2.638v8.49h1.48v-6.652c.442.936 1.157 2.603 1.429 3.471l1.106-1.208c-.255-.528-1.48-2.757-1.837-3.25l-.698.511zm11.486 2.058l-.221-1.446-1.889.323v-9.408h-1.481v9.68l-5.292.953.256 1.463 5.036-.918v4.423h1.481v-4.696l2.11-.374zm17.832-7.856v-1.361h-5.82a7.608 7.608 0 00-.834-1.429l-1.48.426c.187.306.391.646.579 1.003h-6.518v5.359c0 2.399-.119 5.682-1.48 7.962.34.17 1.004.613 1.259.902 1.48-2.433 1.719-6.227 1.719-8.864v-3.998h12.575zm-9.802 7.571v-1.106h2.723v1.106h-2.723zm0-3.13h2.723v1.054h-2.723v-1.054zm7.079 0v1.054h-2.859v-1.054h2.859zm0 3.13h-2.859v-1.106h2.859v1.106zm2.842 2.058h-5.701v-1.037h4.323v-5.189h-4.323v-.919h5.156v-1.225h-5.156v-.952h-1.497v.952h-4.679v1.225h4.679v.919h-4.118v5.189h4.118v1.037h-5.394v1.293h5.394v1.838h1.497v-1.838h5.701v-1.293zm-100.25 14.933h-3.634v-1.006h3.634v1.006zm0 1.787h-3.634v-.991h3.634v.991zm0 1.831h-3.634v-1.036h3.634v1.036zm-4.73 1.351h1.096v-.45h10.031v-.901h-5.316v-1.036h4.265v-.795h-4.265v-.991h4.22v-.796h-4.22v-1.006h4.82v-.901h-4.414c-.181-.48-.541-1.141-.871-1.666l-1.021.315c.24.406.495.916.675 1.351h-3.333c.33-.465.601-.96.856-1.411l-1.141-.21c-.646 1.306-1.847 2.987-3.484 4.234.255.15.615.48.796.72.465-.39.916-.796 1.306-1.216v4.759zm2.403 2.357c-.961.676-2.823 1.261-4.355 1.547.225.21.541.585.691.855 1.531-.36 3.469-1.156 4.519-1.982l-.855-.42zm3.874.616c1.486.495 3.498 1.231 4.504 1.681l.616-.826c-1.051-.45-3.048-1.125-4.505-1.561l-.615.706zm-.886-2.267v-1.021h-1.096v1.021h-6.067v.916h6.067v3.602h1.096v-3.602h6.156v-.916h-6.156zm16.055-1.501v-3.979h4.31v3.979h-4.31zm-5.451 0v-3.979h4.295v3.979h-4.295zm5.451-5.075v-2.672h-1.156v2.672h-5.391v7.101h1.096v-.931h4.295v4.864h1.156v-4.864h4.31v.856h1.141v-7.026h-5.451zm16.099 5.373v-2.492h4.04v2.492h-4.04zm-4.76 0c.045-.556.06-1.111.06-1.607v-.885h3.589v2.492h-3.649zm3.649-5.945v2.402H352.8v-2.402h3.589zm5.151 2.402h-4.04v-2.402h4.04v2.402zm1.096-3.468h-10.932v5.404c0 2.087-.15 4.729-1.802 6.591.241.135.691.51.856.736 1.141-1.276 1.652-2.988 1.877-4.654h3.754v4.428h1.111v-4.428h4.04v3.047c0 .285-.105.375-.406.391-.27 0-1.291.015-2.342-.03.15.3.33.78.375 1.081 1.412.014 2.283 0 2.793-.181.481-.195.676-.525.676-1.246v-11.139zm6.487 6.833c.06-.631.075-1.216.075-1.772v-1.216h7.613v2.988h-7.688zm.075-4.024v-1.471c2.898-.36 6.096-.87 8.274-1.531l-.916-.841c-1.937.631-5.451 1.216-8.469 1.546v4.549c0 2.132-.195 4.924-2.102 6.861.255.135.675.54.855.751 1.307-1.306 1.892-3.078 2.163-4.789h7.808v.795h1.111v-5.87h-8.724zm20.323 8.302v-3.813h4.82v-1.081h-4.82v-3.272h5.375v-1.097h-5.375v-2.882h-1.142v2.882h-3.048c.33-.765.601-1.576.841-2.401l-1.126-.241c-.586 2.132-1.547 4.204-2.778 5.525.3.15.796.48 1.006.661.571-.676 1.096-1.502 1.577-2.447h3.528v3.272h-4.459v1.081h4.459v3.813h-6.081v1.081h13.304v-1.081h-6.081zm13.228-2.598l-1.637.54v-3.708h1.517v-1.051h-1.517v-3.258h1.727v-1.05h-4.655v1.05h1.862v3.258h-1.711v1.051h1.711v4.038c-.766.256-1.456.466-2.012.631l.255 1.126c1.337-.435 3.049-1.021 4.655-1.561l-.195-1.066zm1.847-5.075h2.283v1.922h-2.283v-1.922zm0-2.807h2.283v1.892h-2.283v-1.892zm5.541 1.892h-2.298v-1.892h2.298v1.892zm0 2.837h-2.298v-1.922h2.298v1.922zm-2.207 5.81v-2.057h3.498v-1.021h-3.498v-1.756h3.273v-6.681h-7.628v6.681h3.228v1.756h-3.408v1.021h3.408v2.057h-4.564v1.021h9.67v-1.021h-3.979zm11.884-2.281c-.165.481-.511 1.021-1.262 1.502a23.285 23.285 0 00-1.876-.691c.15-.21.315-.435.465-.676l2.673-.135zm-4.025-3.483h1.877v.931h-1.877v-.931zm4.685 0v.931h-1.922v-.931h1.922zm-4.264-2.161v-.901h1.456v.901h-1.456zm1.456-2.447v.795h-1.456v-.795h1.456zm2.448 0v.795h-1.562v-.795h1.562zm-1.562 2.447v-.901h1.562v.901h-1.562zm3.049 5.539l.015-.78-.751.045v-.661h-.916v.706c-.781.045-1.547.09-2.283.12.241-.376.451-.751.631-1.126h3.168v-2.447h-2.913v-.616h2.553v-1.621h1.021v-.856h-1.021v-1.531h-2.553v-1.051h-.886v1.051h-2.417v1.531h-1.006v.856h1.006v1.621h2.417v.616h-2.837v2.447h2.447c-.21.39-.45.781-.676 1.186-.916.03-1.756.075-2.432.09l.105.826 1.772-.09c-.256.36-.526.69-.766.99.751.211 1.547.496 2.312.826-.84.376-2.027.721-3.618.991.165.195.375.525.465.751 1.892-.346 3.244-.796 4.205-1.292.72.331 1.366.676 1.846.976l.736-.645c-.45-.285-1.051-.586-1.727-.886.826-.646 1.157-1.321 1.292-1.982l.811-.045zm4.114-5.945c-.18 1.667-.435 3.153-.871 4.444-.45-1.336-.781-2.852-1.006-4.444h1.877zm2.027 0v-1.006h-3.664c.195-.84.361-1.726.481-2.597l-.946-.15c-.346 2.462-.931 4.894-1.922 6.47.225.151.6.526.766.676.3-.48.555-1.036.795-1.651.271 1.456.616 2.792 1.097 3.963-.646 1.411-1.547 2.537-2.823 3.378.21.195.525.63.615.841 1.171-.826 2.042-1.862 2.718-3.093.601 1.186 1.381 2.162 2.358 2.837.15-.27.45-.6.675-.795-1.066-.676-1.877-1.772-2.537-3.123.69-1.606 1.081-3.513 1.366-5.75h1.021zm6.883 3.468l-.135-1.036-1.487.466v-2.732h1.367v-1.036h-1.367v-3.003h-1.021v3.003h-1.832v1.036h1.832v3.062c-.766.24-1.471.436-2.042.601l.285 1.081c.541-.165 1.126-.376 1.757-.586v4.234c0 .21-.075.27-.255.27-.165 0-.766 0-1.412-.015.151.3.286.75.331 1.021.946.015 1.501-.03 1.847-.195.375-.196.51-.481.51-1.081v-4.564l1.622-.526zm1.276-3.918h2.298v.931l-1.952.18.105.856 1.847-.18c.015.81.24 1.17 1.186 1.17h2.297c.406 0 .871-.014 1.082-.075-.03-.21-.06-.48-.076-.72-.24.06-.78.06-1.066.06h-2.087c-.345 0-.405-.105-.405-.465v-.196l2.507-.24-.075-.69-2.432.225v-.856h3.378c-.12.42-.27.871-.405 1.171l.856.195c.255-.51.525-1.351.72-2.072l-.675-.165-.18.03h-3.439v-.825h3.514v-.826h-3.514v-.916h-1.081v2.567h-3.379v4.234c0 1.952-.15 4.489-1.486 6.305.24.105.646.405.826.571 1.426-1.907 1.636-4.774 1.636-6.876v-3.393zm7.058 4.774c-.676.421-1.802.991-2.733 1.396a3.966 3.966 0 00-.856-1.096c.375-.24.736-.48 1.006-.735h3.273v-.781h-7.327v.781h3.003c-.841.57-2.102 1.081-3.183 1.381l.36.6c.706-.195 1.487-.51 2.192-.87.15.135.271.285.391.435-.796.6-2.133 1.201-3.199 1.471.166.15.346.436.436.631 1.036-.361 2.267-.991 3.108-1.592.09.18.18.361.225.526-.886.886-2.613 1.846-3.979 2.267.18.165.376.48.481.675 1.216-.495 2.687-1.366 3.693-2.207.12.751-.03 1.412-.255 1.637-.15.195-.345.21-.585.21-.211 0-.526-.015-.871-.045.15.225.225.585.24.811.3.015.571.03.796.03.465 0 .751-.105 1.066-.391.525-.48.736-1.846.24-3.152.225-.09.466-.181.706-.271.39 1.427 1.126 2.733 2.162 3.393.135-.24.436-.57.646-.735-1.021-.526-1.742-1.682-2.117-2.958.615-.27 1.216-.585 1.727-.87l-.646-.541z" fill="#000"/><path fill-rule="evenodd" clip-rule="evenodd" d="M264.241 206.801a1.869 1.869 0 00-1.868-1.868H229.46a1.868 1.868 0 00-1.868 1.868v74.663c0 1.03.836 1.867 1.868 1.867h32.913a1.869 1.869 0 001.868-1.867v-74.663z" fill="#CEF2FF"/><path fill-rule="evenodd" clip-rule="evenodd" d="M262.563 208.353c0-.937-.761-1.697-1.698-1.697h-29.91c-.937 0-1.698.76-1.698 1.697v71.648c0 .937.761 1.697 1.698 1.697h29.91c.937 0 1.698-.76 1.698-1.697v-71.648z" fill="#464646"/><path fill-rule="evenodd" clip-rule="evenodd" d="M242.106 256.307h-9.629a1.498 1.498 0 01-1.497-1.497v-30.805c0-.826.671-1.496 1.497-1.496h26.378c.826 0 1.497.67 1.497 1.496v30.805c0 .826-.671 1.497-1.497 1.497h-9.131a4.277 4.277 0 00-3.809-2.306 4.28 4.28 0 00-3.809 2.306z" fill="#2A85BE"/><path fill-rule="evenodd" clip-rule="evenodd" d="M251.985 246.872a.427.427 0 11-.606.603.427.427 0 01.606-.603z" fill="#fff"/><path d="M253.236 245.024l-.392.391a2.496 2.496 0 010 3.527l.392.392a3.048 3.048 0 000-4.31zm-.785.783l-.391.393c.54.54.54 1.418 0 1.958l.391.392a1.939 1.939 0 000-2.743zm-13.372 3.488v-3.927h.583l2.256 3.083v-3.083h.545v3.927h-.583l-2.256-3.086v3.086h-.545zm4.365 0v-3.927h2.898v.463h-2.33v1.216h2.016v.464h-2.016v1.784h-.568zm6.704-1.425l.568.131c-.119.427-.333.752-.643.976-.31.225-.688.337-1.135.337-.463 0-.84-.087-1.13-.259a1.651 1.651 0 01-.662-.748 2.482 2.482 0 01-.227-1.053c0-.409.085-.766.256-1.07.171-.305.415-.536.73-.694a2.292 2.292 0 011.041-.237c.43 0 .792.1 1.085.3.293.2.497.482.612.844l-.56.12c-.099-.285-.244-.493-.433-.624-.19-.13-.428-.195-.715-.195-.33 0-.606.072-.828.217a1.156 1.156 0 00-.467.582 2.16 2.16 0 00-.135.754c0 .334.053.626.16.875.106.249.272.435.496.558.225.123.468.185.73.185.318 0 .588-.084.809-.252.22-.168.37-.417.448-.747z" fill="#fff"/><path d="M245.926 261.702a3.285 3.285 0 100-6.57 3.285 3.285 0 000 6.57z" stroke="#fff" stroke-width=".001" stroke-miterlimit="1.5" stroke-linecap="round" stroke-linejoin="round"/><path d="M257.06 226.299H234.8v11.888h22.26v-11.888z" fill="#464646"/><path d="M238.63 243.415h-2.021v1.759m16.743-1.759h2.021v1.759m-16.743 5.743h-2.021v-1.758m16.743 1.758h2.021v-1.758" stroke="#fff" stroke-width=".001" stroke-miterlimit="1.5" stroke-linecap="round" stroke-linejoin="round"/><path fill-rule="evenodd" clip-rule="evenodd" d="M259.972 185.749h-28.316l-4.064 16.952h36.649l-4.269-16.952zM231.86 302.64h28.317l4.064-16.951h-36.649l4.268 16.951z" fill="#CEF2FF"/><path d="M159.716 265.471h-9.922v30.748h9.922v-30.748zm-54.564 0H95.23v30.748h9.922v-30.748z" fill="#EECAC5"/><path fill-rule="evenodd" clip-rule="evenodd" d="M127.534 220.785c3.616 0 6.574 5.165 6.574 11.478v9.322c0 6.313-2.958 11.478-6.574 11.478-3.615 0-6.573-5.165-6.573-11.478v-9.322c0-6.313 2.958-11.478 6.573-11.478z" fill="#EECAC5"/><path fill-rule="evenodd" clip-rule="evenodd" d="M140.121 219.523c.075.011.15.024.223.039l.003.001h-.001a3.057 3.057 0 012.406 2.948 3.056 3.056 0 01-6.111.074 3.051 3.051 0 011.151-2.426c-.084.902.052 2.019 1.202 2.139l-.021-1.762c-.009-.713.659-1.036 1.148-1.013zm-24.499-.001c-.076.01-.15.022-.224.037l-.002.001v-.001a3.056 3.056 0 102.545.632c.072.902-.079 2.017-1.231 2.121l.046-1.76c.018-.714-.645-1.046-1.134-1.03z" fill="#F1D2CE"/><path fill-rule="evenodd" clip-rule="evenodd" d="M127.544 237.236c-5.169 0-12.528-7.595-12.528-14.247v-9.668c0-6.888 5.638-12.523 12.527-12.523h.001c6.888 0 12.526 5.635 12.526 12.523v9.48c0 7.291-7.545 14.435-12.526 14.435z" fill="#F1D2CE"/><path fill-rule="evenodd" clip-rule="evenodd" d="M115.064 220.892l1.251-5.062s4.028-2.954 2.597-7.066c-1.431-4.112-1.711-3.705-1.711-3.705s-5.368 2.417-2.979 13.316l.842 2.517zm24.842 0s-3.8-6.932-4.122-9.768a5.288 5.288 0 01.274-2.36c1.431-4.112 1.712-3.705 1.712-3.705s5.368 2.417 2.979 13.316l-.843 2.517z" fill="#00325B"/><path fill-rule="evenodd" clip-rule="evenodd" d="M115.038 215.904s11.167.552 22.036-5.022c0 0 1.737-1.531 3.554-2.332 0 0-3.635-9.373-13.772-8.757-6.819.414-11.197 5.019-12.155 8.416-.533 1.89.337 7.695.337 7.695z" fill="#00325B"/><path fill-rule="evenodd" clip-rule="evenodd" d="M135.342 238.783a7.946 7.946 0 01-7.808 6.462 7.938 7.938 0 01-7.75-6.202l.914-.287s2.12 4.348 6.616 4.437c4.622.092 6.812-4.832 6.812-4.832l1.216.422z" fill="#004E8E"/><path fill-rule="evenodd" clip-rule="evenodd" d="M106.142 296.195v-24.103l-12.32-.037s.141-6.498 1.722-12.74c.882-3.482 2.129-7.975 3.11-10.01 1.324-2.741 3.432-3.695 4.699-4.42.97-.554 2.789-1.313 2.789-1.313l4.434-1.539 10.399-3.672s2.121 4.768 6.592 4.822l.105-.002c4.4-.126 6.488-4.82 6.488-4.82l10.398 3.672 4.435 1.539s1.819.759 2.788 1.313c1.268.725 3.375 1.679 4.698 4.42.983 2.035 2.23 6.528 3.111 10.01 1.581 6.242 1.722 12.74 1.722 12.74l-12.319.037v24.103h-42.851z" fill="#CEF2FF"/><path fill-rule="evenodd" clip-rule="evenodd" d="M136.598 239.218c-1.517 3.094-4.828 6.232-9.003 6.232-3.373 0-6.96-2.395-8.931-6.269l2.323-.82s2.12 4.768 6.592 4.822l.104-.002c4.401-.126 6.489-4.82 6.489-4.82l2.426.857z" fill="#92E4FF"/><path d="M204.057 265.471h-9.922v30.748h9.922v-30.748zm-54.564 0h-9.923v30.748h9.923v-30.748z" fill="#EECAC5"/><path fill-rule="evenodd" clip-rule="evenodd" d="M171.875 220.785c3.615 0 6.574 5.165 6.574 11.478v9.322c0 6.313-2.959 11.478-6.574 11.478-3.615 0-6.573-5.165-6.573-11.478v-9.322c0-6.313 2.958-11.478 6.573-11.478z" fill="#EECAC5"/><path fill-rule="evenodd" clip-rule="evenodd" d="M184.462 219.523c.075.011.15.024.223.039l.003.001h-.001a3.057 3.057 0 012.406 2.948 3.056 3.056 0 01-6.111.074 3.048 3.048 0 011.151-2.426c-.084.902.052 2.019 1.202 2.139l-.021-1.762c-.009-.713.659-1.036 1.148-1.013zm-24.499-.001c-.076.01-.15.022-.224.037l-.003.001v-.001a3.056 3.056 0 00.53 6.048 3.054 3.054 0 002.016-5.416c.072.902-.079 2.017-1.231 2.121l.045-1.76c.019-.714-.644-1.046-1.133-1.03z" fill="#F1D2CE"/><path fill-rule="evenodd" clip-rule="evenodd" d="M171.885 237.236c-5.169 0-12.528-7.595-12.528-14.247v-9.668c0-6.888 5.638-12.523 12.526-12.523h.002c6.888 0 12.526 5.635 12.526 12.523v9.48c0 7.291-7.545 14.435-12.526 14.435z" fill="#F1D2CE"/><path fill-rule="evenodd" clip-rule="evenodd" d="M159.405 220.892l1.251-5.062s4.028-2.954 2.597-7.066c-1.431-4.112-1.712-3.705-1.712-3.705s-5.367 2.417-2.978 13.316l.842 2.517zm24.842 0s-3.801-6.932-4.122-9.768a5.288 5.288 0 01.274-2.36c1.431-4.112 1.712-3.705 1.712-3.705s5.367 2.417 2.979 13.316l-.843 2.517z" fill="#00325B"/><path fill-rule="evenodd" clip-rule="evenodd" d="M159.379 215.904s11.167.552 22.036-5.022c0 0 1.737-1.531 3.554-2.332 0 0-3.636-9.373-13.772-8.757-6.819.414-11.197 5.019-12.155 8.416-.533 1.89.337 7.695.337 7.695z" fill="#00325B"/><path fill-rule="evenodd" clip-rule="evenodd" d="M179.683 238.783a7.947 7.947 0 01-7.809 6.462 7.94 7.94 0 01-7.75-6.202l.915-.287s2.12 4.348 6.616 4.437c4.622.092 6.812-4.832 6.812-4.832l1.216.422z" fill="#004E8E"/><path fill-rule="evenodd" clip-rule="evenodd" d="M150.482 296.195v-24.103l-12.319-.037s.141-6.498 1.722-12.74c.881-3.482 2.128-7.975 3.111-10.01 1.323-2.741 3.43-3.695 4.698-4.42.969-.554 2.788-1.313 2.788-1.313l4.435-1.539 10.399-3.672s2.12 4.768 6.592 4.822l.104-.002c4.401-.126 6.488-4.82 6.488-4.82l10.399 3.672 4.434 1.539s1.819.759 2.789 1.313c1.267.725 3.375 1.679 4.698 4.42.982 2.035 2.229 6.528 3.111 10.01 1.581 6.242 1.722 12.74 1.722 12.74l-12.32.037v24.103h-42.851z" fill="#CEF2FF"/><path fill-rule="evenodd" clip-rule="evenodd" d="M180.939 239.218c-1.517 3.094-4.828 6.232-9.003 6.232-3.373 0-6.961-2.395-8.932-6.269l2.323-.82s2.121 4.768 6.593 4.822l.104-.002c4.4-.126 6.488-4.82 6.488-4.82l2.427.857z" fill="#92E4FF"/><path d="M134.536 326.912v-2.517h4.118v2.517h-4.118zm-5.343 0c.051-.629.068-1.258.068-1.837v-.68h3.693v2.517h-3.761zm3.761-6.396v2.399h-3.693v-2.399h3.693zm5.7 2.399h-4.118v-2.399h4.118v2.399zm1.583-3.913h-12.541v6.056c0 2.399-.171 5.41-2.025 7.469.357.187 1.004.731 1.242 1.037 1.242-1.378 1.855-3.283 2.127-5.154h3.914v4.865h1.582v-4.865h4.118v3.045c0 .323-.119.425-.425.425-.324 0-1.447.017-2.536-.034.204.408.46 1.106.528 1.531 1.565.017 2.552-.017 3.182-.272.612-.238.834-.715.834-1.633v-12.47zm7.538 7.715c.068-.749.085-1.497.085-2.144v-.851h8.099v2.995h-8.184zm.085-4.458v-1.565c3.216-.357 6.738-.884 9.256-1.616l-1.293-1.225c-2.229.715-6.142 1.327-9.563 1.667v5.036c0 2.467-.204 5.682-2.382 7.877.34.204.987.782 1.225 1.105 1.447-1.463 2.144-3.419 2.468-5.358h8.388v.884h1.6v-6.805h-9.699zm16.525 7.324h3.743v-1.241h-3.743v1.241zm2.365-7.74h-.987v-1.974h.987v1.974zm1.991 3.981a.565.565 0 01-.238.034h-.528c-.187 0-.221-.034-.221-.273v-2.415h.987v2.654zm-4.969 5.188v-4.032c.221.12.545.426.698.596 1.089-.868 1.344-2.127 1.344-3.147v-1.259h1.004v2.432c0 1.004.238 1.242 1.038 1.242h.885v4.168h-4.969zm1.089-7.842v1.242c0 .782-.153 1.752-1.089 2.517v-3.759h1.089zm-2.603-3.301h2.263v1.974h-1.991v11.585h1.242v-1.174h4.969v.936h1.293v-11.347h-2.025v-1.974h2.263v-1.327h-8.014v1.327zm11.043 11.943c-.697 0-.817-.119-.817-.766v-5.495h4.697v-6.924h-6.313v1.514h4.781v3.896h-4.73v7.026c0 1.753.51 2.212 2.161 2.212h2.552c1.583 0 1.991-.799 2.178-3.589-.425-.103-1.072-.375-1.429-.647-.085 2.348-.204 2.773-.885 2.773h-2.195zm21.518-11.628c-.425-.63-1.378-1.446-2.178-2.008l-1.055.834c.783.596 1.702 1.463 2.076 2.076l1.157-.902zm-10.567 8.659h1.668v.8h-1.668v-.8zm0-1.701h1.668v.732h-1.668v-.732zm-1.684-1.582h1.888v.782h-1.888v-.782zm0-1.548h1.888v.765h-1.888v-.765zm5.054.765h-1.906v-.765h1.906v.765zm0 1.565h-1.906v-.782h1.906v.782zm-7.13 3.301v1.055h9.035v-1.055h-2.297v-.8h1.991v-.969h-1.991v-.732h1.702v-3.947h-7.64v3.947h1.684v.732h-1.991v.969h1.991v.8h-2.484zm2.62 1.14c-.595.68-1.582 1.378-2.518 1.871.306.187.868.663 1.123.919.919-.579 2.025-1.498 2.739-2.348l-1.344-.442zm2.195.612c.647.561 1.447 1.395 1.821 1.905l1.276-.663c-.408-.545-1.242-1.31-1.889-1.837l-1.208.595zm8.134-7.792c-.289 1.651-.715 3.148-1.31 4.474-.324-1.547-.596-3.47-.749-5.579h4.101v-1.259h-4.169a55.686 55.686 0 01-.068-3.386h-1.548c.016 1.123.033 2.28.102 3.386h-3.897v-.851h3.029v-1.225h-3.029v-1.31h-1.514v1.31h-3.03v1.225h3.03v.851h-4.068v1.259h9.547c.204 2.875.578 5.478 1.174 7.417a8.876 8.876 0 01-2.638 2.314c.375.289.834.799 1.055 1.174a10.667 10.667 0 002.229-1.855c.579 1.191 1.31 1.888 2.229 1.888 1.192 0 1.668-.612 1.923-2.807a4.044 4.044 0 01-1.191-.85c-.085 1.582-.255 2.16-.578 2.16-.494 0-.953-.646-1.362-1.769 1.089-1.701 1.753-3.794 2.212-6.244l-1.48-.323zm20.46 2.926h-6.824v-2.415h5.854v-1.515h-5.854v-2.5c1.94-.238 3.744-.528 5.224-.953l-1.174-1.293c-2.654.766-7.453 1.208-11.469 1.395.153.34.357.987.374 1.378 1.719-.068 3.574-.187 5.395-.34v2.313h-5.684v1.515h5.684v2.415h-6.841v1.548h6.841v3.318c0 .357-.137.476-.511.476-.391.017-1.752.017-3.114-.034.255.426.562 1.14.664 1.565 1.753.017 2.91-.016 3.607-.272.715-.238 1.004-.68 1.004-1.718v-3.335h6.824v-1.548zm16.138-5.533h-1.447v-1.446h1.447v1.446zm-2.519 0h-1.395v-1.446h1.395v1.446zm-2.484 0h-1.361v-1.446h1.361v1.446zm6.364-2.569h-9.019v3.675h9.019v-3.675zm.544 4.407h-10.226v1.258h10.226v-1.258zm-7.759 3.181h5.275v1.31h-5.275v-1.31zm6.602 2.586c-.476.374-1.242.884-1.923 1.276a5.817 5.817 0 01-.884-1.412h2.977v-3.59h-8.184v3.59h2.297c-1.089.714-2.535 1.327-3.846 1.684l-.17-1.225c-.476.136-.97.289-1.446.425v-4.134h1.361v-1.378h-1.361v-3.504h1.548v-1.412h-4.543v1.412h1.616v3.504h-1.48v1.378h1.48v4.509c-.68.187-1.293.357-1.837.476l.306 1.446c1.293-.357 2.859-.817 4.407-1.293.272.272.579.68.749.97a14.55 14.55 0 001.65-.664v.562c0 .68-.374.969-.612 1.089.204.255.425.799.527 1.105v.017c.307-.187.8-.357 3.982-1.122a6.562 6.562 0 010-1.157l-2.621.561v-1.735a11.223 11.223 0 001.872-1.344c.868 2.229 2.417 3.896 4.731 4.661.187-.374.612-.935.919-1.208-1.021-.289-1.923-.748-2.655-1.395a33.062 33.062 0 002.195-1.14l-1.055-.952zm-110.254 19.546l-1.457.451v-2.928h1.562v-1.036h-1.562v-3.002h-1.036v3.002h-1.952v1.036h1.952v3.243c-.826.255-1.576.48-2.162.645l.3 1.066a61.74 61.74 0 001.862-.6v3.903c0 .225-.075.285-.27.285-.165 0-.751 0-1.397-.015.151.316.286.766.316 1.036.961.015 1.531-.03 1.877-.21.375-.18.51-.465.51-1.081v-4.248l1.607-.526-.15-1.021zm1.607 2.973c.585.825 1.306 1.966 1.636 2.642l.916-.556c-.36-.675-1.111-1.756-1.696-2.582l-.856.496zm5.691-3.288h-1.051v1.336h-5.752v1.021h5.752v3.828c0 .21-.061.27-.286.285-.225.015-1.021.015-1.862-.015.15.316.301.751.346 1.081 1.096 0 1.832-.015 2.282-.195.435-.18.571-.48.571-1.141v-3.843h1.847v-1.021h-1.847v-1.336zm-1.967-4.279v-1.861h-1.067v1.861h-3.934v1.036h3.934v1.832h-3.198v1.021h7.493v-1.021h-3.228v-1.832h3.919v-1.036h-3.919zm14.924.396h-3.198v.75h7.358v-.75h-3.064v-.811h3.664v-.78h-3.664v-.811h-1.096v.811h-3.829v.78h3.829v.811zm-2.778 2.117h1.697v1.231h-1.697v-1.231zm6.427 1.231h-1.426v-1.231h1.426v1.231zm-3.859 0v-1.231h1.562v1.231h-1.562zm-3.514.765h8.364v-2.747h-8.364v2.747zm.03 2.357c-.105-.795-.465-2.132-.841-3.167l-.796.195c.166.45.301.976.436 1.486l-2.162.27c1.141-1.396 2.252-3.152 3.138-4.894l-.886-.525c-.315.675-.661 1.381-1.051 2.026l-1.472.121c.781-1.126 1.532-2.598 2.133-4.009l-.961-.405c-.541 1.636-1.517 3.378-1.817 3.813-.286.45-.526.781-.766.841.105.255.27.735.33.931.195-.106.511-.151 1.997-.331-.525.826-.976 1.472-1.201 1.727-.42.57-.736.946-1.036 1.006.12.27.285.75.33.975.256-.15.721-.24 3.634-.69.075.315.12.63.15.871l.841-.241zm-4.355.706c-.135 1.291-.375 2.732-.75 3.708.24.075.676.21.871.3.33-.961.6-2.477.78-3.858l-.901-.15zm1.412.075c.18 1.096.346 2.522.36 3.468l.856-.15c-.045-.946-.225-2.357-.405-3.453l-.811.135zm1.352-.27c.285.885.63 2.042.765 2.807l.781-.255c-.15-.736-.495-1.892-.826-2.777l-.72.225zm3.048.825h5.345v.691h-5.345v-.691zm0-1.186h5.345v.646h-5.345v-.646zm0-1.171h5.345v.631h-5.345v-.631zm6.397 3.724v-4.399h-7.403v4.399h2.327c-.811.435-2.237 1.036-3.213 1.396.165.225.36.555.465.795a78.058 78.058 0 003.589-1.516l-.796-.675h2.568l-.375.66a52.896 52.896 0 013.153 1.426l.465-.795a38.633 38.633 0 00-3.048-1.291h2.268zm16.782-8.368v-.975h-4.294c.225-.616.42-1.261.57-1.922l-1.021-.225c-.39 1.771-1.096 3.498-2.042 4.594.24.15.691.48.856.645.465-.585.886-1.306 1.261-2.117h4.67zm-.285 3.889v-1.006h-5.015v1.006h5.015zm-11.713-1.532h1.787v1.352h-1.787v-1.352zm1.787-4.008v1.126h-1.787v-1.126h1.787zm2.178 3.228h-3.965v-1.306h3.965v1.306zm1.561 2.132h-2.793v-1.352h2.193v-2.882h-2.193v-1.126h2.553v-.886h-6.307v7.116h6.547v-.87zm-4.234 2.687h1.907v2.762h-1.907v-2.762zm4.865 0v2.762h-1.937v-2.762h1.937zm2.943 0v2.762h-1.907v-2.762h1.907zm1.096 2.762v-3.678h-9.955v3.678h-1.787v.991h13.559v-.991h-1.817zm9.952-9.633h1.846c-.12 1.982-.57 2.988-2.702 3.528.195.18.45.556.54.781 2.463-.676 3.033-1.952 3.198-4.309h1.217v2.492c0 1.051.24 1.426 1.306 1.426h1.562c.36 0 .706 0 .901-.075-.03-.24-.06-.63-.09-.9a4.83 4.83 0 01-.826.075h-1.517c-.27 0-.315-.136-.315-.526v-2.492h1.697v1.471h1.021v-2.432h-3.829c-.21-.525-.571-1.231-.886-1.801l-1.006.315c.24.435.495 1.006.705 1.486h-3.814v2.567h.992v-1.606zm-1.006 5.255l-.166-1.006c-.54.15-1.096.315-1.621.48v-3.333h1.501v-1.036h-1.501v-3.047h-1.051v3.047h-1.847v1.036h1.847v3.618c-.751.225-1.442.421-1.998.556l.226 1.111 1.772-.556v3.588c0 .225-.076.271-.256.271-.165.014-.766.014-1.411 0 .15.315.285.765.33 1.035.946.015 1.517-.03 1.862-.21.376-.18.526-.465.526-1.096v-3.888l1.787-.57zm4.835 4.308v-3.167h3.423v-1.021h-7.748v1.021h3.228v3.167h-4.174v1.021h9.415v-1.021h-4.144zm13.894-.065v-3.813h4.82v-1.081h-4.82v-3.273h5.376v-1.096h-5.376v-2.882h-1.141v2.882h-3.049c.331-.765.601-1.576.841-2.402l-1.126-.24c-.585 2.132-1.547 4.204-2.778 5.525.3.15.796.48 1.006.66.571-.675 1.096-1.501 1.577-2.447h3.529v3.273h-4.46v1.081h4.46v3.813h-6.082v1.081h13.304v-1.081h-6.081zm13.229-2.599l-1.637.541v-3.708h1.516v-1.051h-1.516v-3.258h1.727v-1.051h-4.655v1.051h1.862v3.258h-1.712v1.051h1.712v4.038c-.766.255-1.457.465-2.013.631l.256 1.126c1.336-.436 3.048-1.021 4.655-1.562l-.195-1.066zm1.846-5.074h2.283v1.922h-2.283v-1.922zm0-2.807h2.283v1.891h-2.283v-1.891zm5.541 1.891h-2.297v-1.891h2.297v1.891zm0 2.838h-2.297v-1.922h2.297v1.922zm-2.207 5.81v-2.057h3.499v-1.021h-3.499v-1.756h3.273v-6.681h-7.628v6.681h3.229v1.756h-3.409v1.021h3.409v2.057h-4.565v1.021h9.67v-1.021h-3.979zm15.129-7.656h-2.523v1.051h6.427v-1.051h-2.808v-1.891h3.243v-1.036h-3.243v-1.621h-1.096v1.621h-3.154v1.036h3.154v1.891zm-3.724 2.748l-1.502.375v-3.528h1.517v-1.066h-1.517v-3.062h-1.081v3.062h-1.081c.105-.6.18-1.216.255-1.831l-.886-.135c-.18 1.846-.51 3.783-1.096 5.044.241.075.661.24.841.345.271-.645.511-1.456.691-2.357h1.276v3.798c-.961.211-1.847.421-2.553.571l.301 1.111a64.128 64.128 0 002.252-.586v4.669h1.081v-4.939l1.622-.45-.12-1.021zm1.336 2.102c.691.75 1.502 1.786 1.877 2.432l.901-.556c-.39-.66-1.231-1.666-1.922-2.387l-.856.511zm7.043-1.982h-1.727v-1.411h-1.096v1.411h-5.166v1.036h5.166v3.858c0 .21-.06.255-.285.27-.241.015-.992.015-1.832-.015.15.316.315.781.375 1.096 1.066 0 1.787-.015 2.252-.21.451-.165.586-.48.586-1.126v-3.873h1.727v-1.036zm11.213-6.426h-.826v2.447h-1.232v-3.422h-.871v3.422h-1.141v-2.447h-.826v3.333h4.896v-3.333zm-6.412-.99c-.541.99-1.592 2.207-2.538 2.972.165.21.466.616.601.841 1.051-.886 2.222-2.237 2.958-3.438l-1.021-.375zm.315 2.987c-.736 1.577-1.907 3.168-3.033 4.234.21.225.541.75.661.976.42-.436.87-.961 1.291-1.532v7.011h1.021v-8.497c.39-.615.736-1.246 1.036-1.862l-.976-.33zm6.127 8.422l-2.043.241v-1.442h2.343v-.855h-2.343v-1.367a15.41 15.41 0 001.862-.39l-.6-.751c-1.036.301-2.883.586-4.4.736.105.21.24.541.27.751a46.5 46.5 0 001.907-.196v1.217h-2.312v.855h2.312v1.562c-.81.09-1.561.18-2.162.24l.255.9c1.367-.18 3.184-.435 4.941-.69l-.03-.811zm3.393-7.371c-.195 1.817-.525 3.408-1.036 4.774-.435-1.261-.736-2.702-.946-4.188.06-.196.12-.391.165-.586h1.817zm1.517 0v-.946h-3.094c.196-.931.361-1.906.481-2.912l-1.021-.165c-.225 2.102-.616 4.128-1.306 5.644v-.33h-5.181v.916h4.88l-.135.225c.24.195.601.601.751.811.21-.33.39-.706.57-1.096.226 1.381.541 2.672.961 3.813a7.735 7.735 0 01-2.808 3.018c.211.18.586.555.721.75a8.878 8.878 0 002.568-2.672c.541 1.096 1.231 1.997 2.117 2.597.15-.27.496-.69.721-.886-.961-.57-1.697-1.546-2.283-2.747.781-1.636 1.232-3.633 1.517-6.02h.541zm504.694-18.018c-.17-.884-.68-2.296-1.191-3.368l-1.106.391c.204.459.409.953.562 1.48l-2.28.34c1.344-1.565 2.654-3.504 3.709-5.393l-1.327-.816a26.71 26.71 0 01-1.344 2.467l-1.498.119c.936-1.259 1.855-2.858 2.587-4.406l-1.447-.613c-.663 1.803-1.803 3.726-2.144 4.185-.357.511-.646.851-.953.936.17.391.409 1.123.494 1.429.238-.119.595-.204 2.127-.391-.528.782-.97 1.377-1.225 1.65-.511.629-.885 1.038-1.276 1.14.187.391.425 1.139.493 1.446.34-.188.868-.324 4.441-.953.085.306.153.596.187.817l1.191-.46zm-5.7 1.225c-.119 1.378-.357 2.875-.732 3.896.307.102.919.289 1.191.442.358-1.021.63-2.637.8-4.117l-1.259-.221zm1.855.17c.187 1.123.357 2.603.391 3.556l1.225-.306c-.051-.936-.255-2.399-.476-3.505l-1.14.255zm1.871-.357c.307.936.698 2.161.851 2.96l1.123-.391c-.17-.783-.544-2.008-.901-2.926l-1.073.357zm8.577 3.181c-.358 0-.392-.085-.392-.561v-5.716l1.021-.119c.238.493.426.935.562 1.31l1.395-.664c-.425-1.123-1.463-2.841-2.348-4.151l-1.276.562c.306.51.663 1.071.986 1.667l-4.338.408a35.584 35.584 0 001.905-3.13h4.935v-1.48h-4.169c.238-.528.493-1.089.732-1.616l-1.736-.477a22.08 22.08 0 01-.834 2.093h-2.995v1.48h2.281c-.528 1.02-1.004 1.837-1.243 2.16-.459.698-.799 1.14-1.191 1.242.204.443.477 1.225.562 1.548.221-.119.527-.204 1.429-.306-.102 3.198-.459 5.138-2.944 6.261.341.289.8.85.953 1.259 2.893-1.447 3.353-3.896 3.506-7.724l1.31-.153v5.563c0 1.48.323 1.939 1.651 1.939h1.344c1.14 0 1.497-.663 1.633-3.062-.391-.102-1.021-.357-1.344-.612-.034 1.956-.102 2.279-.442 2.279h-.953zm20.829-7.24h-15.484v1.735h15.484v-1.735zm7.278-5.774h-4.169v1.191h4.169v-1.191zm5.939 1.344h2.365c-.238.425-.493.867-.715 1.174l1.243.442c.476-.629 1.055-1.616 1.48-2.518l-1.089-.357-.221.068h-5.309c.119-.289.221-.562.323-.851l-1.412-.306c-.375 1.191-1.072 2.365-1.957 3.13.357.17.936.579 1.191.8a8 8 0 001.242-1.582h1.412v.221c0 .731-.391 1.684-4.083 2.16v-1.122h-4.935v1.242h4.322c.289.289.647.816.8 1.174 2.927-.409 4.271-1.14 4.884-1.923 1.071.987 2.62 1.599 4.56 1.871.153-.408.544-.969.851-1.292-2.247-.137-4.067-.715-4.986-1.651.034-.153.034-.289.034-.408v-.272zm-6.722 8.591h7.981v.987h-7.981v-.987zm0-1.922h7.981v.952h-7.981v-.952zm0-1.923h7.981v.97h-7.981v-.97zm9.564 5.836v-6.84h-11.095v6.84h2.74c-1.174.663-3.165 1.241-4.901 1.582.34.289.902.867 1.174 1.19 1.702-.476 3.829-1.292 5.207-2.126l-1.412-.646h5.088l-.987.799c1.752.595 3.539 1.361 4.577 1.923l1.429-.868c-1.157-.562-3.045-1.276-4.798-1.854h2.978zm10.923-10.004h-3.182l1.123-.697c-.238-.613-.749-1.514-1.174-2.229l-1.14.63c.425.697.902 1.667 1.157 2.296h-2.893v1.259h6.109v-1.259zm-.613 3.505v-1.242h-4.815v1.242h4.815zm-1.242 4.576v2.433h-2.331v-2.433h2.331zm1.259-1.276h-4.832v5.75h1.242v-.765h3.59v-4.985zm-4.832-1.072h4.832v-1.224h-4.832v1.224zm5.632-7.655v1.497h1.906v4.797h-2.11v1.463h2.11v6.941h1.48v-6.941h1.991v-1.463h-1.991v-4.797h2.519c-.017 6.669-.051 12.368 1.599 12.946.885.375 1.583-.17 1.787-2.586-.238-.238-.63-.816-.868-1.207-.051 1.139-.17 2.245-.272 2.211-.8-.238-.783-6.567-.664-12.861h-7.487zm15.051-1.004c-.681 1.157-2.025 2.586-3.233 3.47.255.29.663.834.834 1.157 1.378-1.038 2.876-2.637 3.828-4.1l-1.429-.527zm.374 3.522c-.885 1.718-2.348 3.436-3.76 4.542.272.323.732 1.106.868 1.429.459-.391.936-.834 1.378-1.327v7.485h1.497v-9.339a18.41 18.41 0 001.413-2.314l-1.396-.476zm8.355 6.447c-.578.868-1.378 1.616-2.331 2.229-.732-.46-1.412-.987-1.991-1.599.187-.204.374-.409.528-.63h3.794zm1.14-1.344l-.272.068h-3.744c.273-.391.511-.816.715-1.225l3.488-.238c.358.51.647 1.004.834 1.378l1.31-.748c-.561-.987-1.735-2.552-2.671-3.675l-1.242.646c.306.358.629.783.936 1.208l-4.51.256a35.601 35.601 0 005.786-3.947l-1.447-.8a25.132 25.132 0 01-2.076 1.718l-2.688.068c1.055-.714 2.11-1.616 3.046-2.535l-1.565-.697c-.988 1.191-2.451 2.314-2.876 2.62-.443.289-.8.51-1.14.578.187.426.442 1.191.527 1.514.255-.102.715-.187 2.91-.289-.834.545-1.515.953-1.872 1.14-.8.442-1.378.732-1.889.8.171.408.409 1.173.46 1.463.357-.136.816-.204 2.978-.341a12.554 12.554 0 01-1.396 1.889 7.144 7.144 0 01-.527-.851l-1.293.426c.255.493.544.935.85 1.36a8.154 8.154 0 01-1.344 1.021c.323.273.851.868 1.072 1.174.409-.306.817-.629 1.208-1.021.494.511 1.004.987 1.566 1.412-1.277.63-2.723 1.055-4.203 1.327.272.324.612.97.765 1.344 1.702-.357 3.37-.935 4.816-1.769 1.378.8 2.944 1.395 4.713 1.752.205-.408.63-1.054.953-1.378-1.565-.272-2.978-.697-4.254-1.31 1.311-.986 2.383-2.279 3.046-3.878l-.97-.46zm16.575 1.297v3.301h-7.742v-3.301h7.742zm-9.342 5.734h1.6v-.902h7.742v.868h1.685v-7.214h-11.027v7.248zm7.062-13.032a36.594 36.594 0 012.246 2.314l-7.912.323a33.5 33.5 0 004.066-4.695l-1.582-.681c-1.242 2.059-3.165 4.151-3.761 4.713-.561.544-.987.901-1.395.969.17.442.442 1.225.511 1.548.765-.272 1.854-.306 11.213-.799.391.493.732.97.987 1.395l1.327-.987c-.884-1.395-2.876-3.487-4.475-4.933l-1.225.833zm-75.964 33.319v-10.629h11.427v-.961h-12.524v12.551h12.809v-.961h-11.712zm7.598-6.366h-2.193v-1.261h2.193v1.261zm0 2.072h-2.193v-1.246h2.193v1.246zm0 2.192h-2.193v-1.351h2.193v1.351zm3.634-5.525v-.9h-2.133c-.18-.496-.51-1.141-.841-1.667l-.976.3c.225.406.481.931.661 1.367h-2.327c.24-.511.48-1.051.66-1.592l-.916-.255c-.57 1.636-1.546 3.243-2.658 4.294.211.18.571.6.691.81.346-.36.676-.765 1.006-1.231v5.93h1.006v-.63h5.811v-.901h-2.597v-1.351h2.132v-.841h-2.132v-1.246h2.132v-.826h-2.132v-1.261h2.613zm-11.067.751c.751.33 1.636.916 2.072 1.336l.616-.735c-.451-.421-1.367-.961-2.103-1.262l-.585.661zm3.348-2.087c-.42-.435-1.291-.976-1.997-1.306l-.6.661c.72.345 1.561.916 1.967 1.351l.63-.706zm-.901 4.234a35.012 35.012 0 01-1.982 3.318l.781.705c.616-.991 1.321-2.282 1.877-3.348l-.676-.675zm18.258-3.977h-3.634v-1.006h3.634v1.006zm0 1.786h-3.634v-.99h3.634v.99zm0 1.832h-3.634v-1.036h3.634v1.036zm-4.73 1.351h1.096v-.45h10.031v-.901h-5.316v-1.036h4.265v-.796h-4.265v-.99h4.22v-.796h-4.22v-1.006h4.82v-.901h-4.414c-.181-.48-.541-1.141-.871-1.666l-1.021.315c.24.405.495.916.675 1.351h-3.333c.33-.465.6-.961.856-1.411l-1.141-.21c-.646 1.306-1.847 2.987-3.484 4.233.255.151.616.481.796.721.465-.39.916-.796 1.306-1.216v4.759zm2.403 2.357c-.961.676-2.823 1.261-4.355 1.546.225.21.541.586.691.856 1.531-.36 3.468-1.156 4.52-1.982l-.856-.42zm3.874.616c1.486.495 3.498 1.231 4.504 1.681l.616-.826c-1.051-.45-3.048-1.126-4.505-1.561l-.615.706zm-.886-2.267v-1.021h-1.096v1.021h-6.067v.915h6.067v3.603h1.096v-3.603h6.156v-.915h-6.156zm16.989-7.212v.15c0 .781-.36 1.802-4.25 2.327.196.18.481.586.601.826 2.643-.405 3.829-1.096 4.325-1.831.931.915 2.372 1.516 4.084 1.756.135-.27.42-.675.631-.886-1.967-.165-3.604-.75-4.4-1.651.03-.18.045-.345.045-.495v-.196h2.388a8.58 8.58 0 01-.706 1.186l.886.316c.405-.526.886-1.397 1.261-2.162l-.751-.255-.18.045h-5.03c.105-.271.225-.541.315-.826l-1.006-.225c-.33 1.096-.946 2.147-1.727 2.852.24.12.661.405.841.571a7.373 7.373 0 001.126-1.502h1.547zm-5.151 7.642h7.523v1.051h-7.523v-1.051zm0-1.742h7.523v1.021h-7.523v-1.021zm0-1.741h7.523v1.021h-7.523v-1.021zm-1.081 5.269h9.716v-6.02H796.8v6.02zm1.952-10.419h-3.588v.871h3.588v-.871zm.376 2.327h-4.295v.901h4.295v-.901zm.18 8.197c-1.066.586-2.868 1.126-4.4 1.442.256.195.631.615.826.84 1.487-.405 3.379-1.111 4.58-1.831l-1.006-.451zm3.664.586c1.621.54 3.243 1.186 4.204 1.666l.976-.645c-1.051-.481-2.808-1.126-4.414-1.622l-.766.601zm17.777-9.158c-.48-.555-1.517-1.321-2.358-1.832l-.57.751c.856.556 1.877 1.366 2.357 1.937l.571-.856zm-.661 3.588c-.525-.526-1.621-1.216-2.507-1.681l-.526.78c.886.496 1.967 1.261 2.478 1.802l.555-.901zm-4.324-5.57c-.226 1.006-.646 2.477-1.006 3.363l.735.24c.406-.84.871-2.236 1.232-3.362l-.961-.241zm-3.124 3.348c-.105-.901-.45-2.252-.886-3.288l-.81.196c.39 1.051.735 2.432.825 3.317l.871-.225zm-.51 2.672c-.255 1.336-.871 3.003-1.502 3.874.21.33.466.855.586 1.231.781-1.081 1.411-3.183 1.727-4.849l-.811-.256zm4.595-.87v-1.051h-2.448v-4.999h-1.036v4.999h-2.403v1.051h2.403v7.656h1.036v-7.656h2.448zm-2.373 1.321c.315.645 1.141 2.567 1.412 3.378l.796-.826c-.226-.51-1.307-2.552-1.592-2.988l-.616.436zm10.166 1.756l-.165-1.021-1.772.316v-8.422h-1.051v8.617l-4.835.855.18 1.051 4.655-.855v4.023h1.051v-4.219l1.937-.345z" fill="#000"/><path fill-rule="evenodd" clip-rule="evenodd" d="M844.696 217.323a2.512 2.512 0 00-2.511-2.511h-93.979a2.512 2.512 0 00-2.51 2.511v62.752a2.512 2.512 0 002.51 2.511h93.979a2.512 2.512 0 002.511-2.511v-62.752z" fill="#CEF2FF"/><path d="M841.372 218.258h-91.827v59.836h91.827v-59.836z" fill="#464646"/><path d="M805.226 282.587h-19.784v8.991h19.784v-8.991z" fill="#AAEAFF"/><path d="M810.563 291.547h-30.548v2.046h30.548v-2.046z" fill="#CEF2FF"/><path d="M781.401 248.689c-.032 7.254 5.811 13.144 12.961 13.332 7.46.197 13.666-5.785 13.687-13.27.02-7.391-5.904-13.166-12.936-13.363-7.579-.213-13.739 5.908-13.712 13.301zm28.953.015c-.003 8.613-7.02 15.632-15.624 15.627-8.638-.003-15.642-7.013-15.634-15.643.008-8.617 7.017-15.615 15.634-15.611 8.613.005 15.627 7.021 15.624 15.627z" fill="#939598"/><path d="M810.511 254.131c.986-.532 1.006-.661.301-1.414-1.367-1.461-2.718-2.938-4.083-4.401-1.561-1.673-3.225-3.224-5.244-4.349a4.415 4.415 0 00-1.129-.445c.011-.011.022-.024.034-.034.723-.643 1.313-1.362 1.505-2.354.074-.381.35-.619.766-.684.312-.048.615-.153.923-.232a16.44 16.44 0 01-.011-.227c-.348-.047-.7-.076-1.043-.145-.529-.107-1.1-.149-1.568-.386-.876-.445-1.65-.394-2.393.208-.497.402-.959.847-1.448 1.258-.718.606-1.404.877-2.063.826l-.027.016a4.245 4.245 0 00-1.911-1.169c-2.213-.667-4.484-.782-6.773-.739-2.001.038-4.001.096-6.002.13-1.031.018-1.11.122-.807 1.201l6.501-.5.026.156-6.44.867c.059.983.084 1.025.939.866 1.712-.315 3.418-.664 5.128-.991.198-.038.405-.034.607-.05l.037.173-6.167 1.425c.3.676.659.941 1.364.703 1.424-.479 2.873-.884 4.313-1.315.216-.065.441-.106.661-.159l.061.187-4.928 1.75c.634.739.921.83 1.697.474.897-.411 1.776-.858 2.665-1.286.18-.086.368-.156.553-.234l.088.165-3.015 1.801c.812.33 1.454.355 2.069-.259.493-.491 1.081-.89 1.626-1.33l.154.153-1.841 1.719c1.518.394 1.889-1.097 2.981-1.412-.412.442-.792.923-1.247 1.318-.478.414-.43.758.012 1.191l2.062-2.158.17.149c-.565.656-1.112 1.33-1.702 1.964-.359.386-.392.672.234 1.009l2.164-2.684.203.16-2.117 2.869c.257.16.684.415 1.108.671a7.308 7.308 0 00-.187.839c.533.215.843.621 1.018 1.295.203.782.229 1.591-.094 2.317a36.341 36.341 0 01-1.828 3.596c-.722 1.232-1.502 2.424-1.823 3.842-.163.719.051 1.087.782 1.092.242.002 3.277.562 3.47.645.083.035.177.045.266.062.338.069.529-.045.538-.414.009-.365.029-.73.055-1.094.091-1.272.088-2.56.304-3.81.277-1.613 1.433-2.808 2.284-4.14.099-.154.377-.192.57-.287.487-.239 1.04-.398 1.444-.736.611-.51 1.282-.847 2.001-1.082.494.698.961 1.422 1.215 1.74l.588-3.518.257.036-.423 3.421c.677.215.86-.008.887-.534.045-.864.148-1.726.227-2.59.075.008.15.014.225.02l-.115 2.981c.619.017.899-.189.864-.82-.034-.601.048-1.209.079-1.813.534 1.005-.279 2.308 1.06 3.123l-.047-2.517.218.004c.063.698.185 1.397.175 2.093-.012.869.453 1.313 1.254 1.665l-.805-3.417.181-.051c.072.187.153.37.216.559.312.936.603 1.879.931 2.809.285.805.55.948 1.522.889l-2.173-4.757c.059-.029.118-.058.177-.085.116.194.243.383.346.584.693 1.334 1.409 2.656 2.056 4.012.32.672.76.745 1.455.49l-3.268-5.42.15-.093c.13.155.277.301.387.47.954 1.456 1.892 2.923 2.856 4.373.481.724.528.713 1.276.072l-3.859-5.229.13-.089 4.165 5.015z" fill="#fff"/><path fill-rule="evenodd" clip-rule="evenodd" d="M840.209 254.578a2.893 2.893 0 00-2.891-2.892h-16.59a2.894 2.894 0 00-2.892 2.892v39.507a2.893 2.893 0 002.892 2.891h16.59a2.892 2.892 0 002.891-2.891v-39.507z" fill="#CEF2FF"/><path d="M839.053 256.626h-19.982v34.986h19.982v-34.986z" fill="#464646"/><path d="M829.037 295.151a1.23 1.23 0 001.235-1.227c0-.678-.553-1.228-1.235-1.228s-1.235.55-1.235 1.228a1.23 1.23 0 001.235 1.227zm-3.97-40.382a.451.451 0 100-.9.451.451 0 00-.453.45c0 .248.203.45.453.45zm6.036-.555h-4.192v.368h4.192v-.368zm-2.209-.862a.26.26 0 10.002-.516.26.26 0 00-.002.516z" fill="#009AD6"/><path d="M824.883 274.349c-.009 2.204 1.766 3.992 3.937 4.05a4.05 4.05 0 004.158-4.031 4.052 4.052 0 00-3.929-4.06c-2.302-.064-4.174 1.795-4.166 4.041zm8.795.004a4.754 4.754 0 01-4.746 4.748 4.753 4.753 0 01-4.749-4.752 4.752 4.752 0 014.75-4.743 4.755 4.755 0 014.745 4.747z" fill="#939598"/><path d="M833.725 275.991c.3-.162.305-.201.092-.43-.416-.444-.826-.892-1.241-1.337-.474-.508-.979-.979-1.593-1.321a1.33 1.33 0 00-.343-.135l.01-.01c.22-.196.399-.414.458-.715.022-.116.106-.188.232-.208.095-.015.187-.047.281-.071l-.004-.069c-.105-.014-.212-.023-.316-.044-.161-.032-.334-.045-.476-.117-.267-.135-.502-.12-.728.063-.15.122-.291.258-.439.383-.219.183-.427.266-.627.25l-.008.005a1.292 1.292 0 00-.581-.355c-.672-.203-1.362-.238-2.057-.224-.608.011-1.216.029-1.823.039-.314.006-.338.037-.246.365l1.975-.152.008.047-1.956.264c.018.298.026.311.285.263.52-.096 1.038-.202 1.558-.301.06-.012.123-.011.184-.015l.012.052-1.874.433c.091.205.2.286.415.214.432-.146.872-.269 1.31-.4.065-.02.133-.032.2-.048l.019.056-1.497.532c.192.225.28.252.516.144.272-.125.539-.261.809-.39.055-.027.112-.048.168-.071l.027.049-.916.548c.246.1.442.107.628-.079.15-.149.329-.271.494-.404l.047.046-.559.523c.461.119.574-.334.906-.429-.126.134-.241.28-.379.4-.146.126-.131.23.003.362l.627-.655.051.045c-.171.199-.338.404-.517.596-.109.117-.119.204.071.307l.658-.816.062.049-.644.871c.078.049.208.127.337.204a2.234 2.234 0 00-.057.255c.162.066.256.189.309.394.062.237.07.483-.028.703a10.89 10.89 0 01-.556 1.093c-.219.374-.456.736-.553 1.167-.05.218.015.33.237.331.074.001.996.171 1.054.196.025.011.054.014.081.019.103.021.161-.013.163-.126.003-.111.009-.221.017-.332.028-.386.027-.777.092-1.157.085-.49.436-.853.694-1.258.03-.047.115-.058.173-.087.148-.073.316-.121.439-.224a1.82 1.82 0 01.608-.328c.15.212.292.432.369.528l.179-1.068.078.011-.129 1.039c.206.065.262-.003.27-.162.013-.263.045-.525.069-.787l.068.006-.035.906c.188.005.273-.058.262-.25-.01-.182.015-.367.025-.55.162.305-.085.701.321.948l-.014-.764.066.001c.02.212.057.424.054.636-.004.264.137.399.381.506l-.245-1.039.055-.015c.022.057.047.112.066.17.094.284.183.571.282.853.087.245.167.288.462.27l-.659-1.445.053-.026c.035.059.074.117.106.178.21.405.427.807.624 1.218.097.204.231.227.442.149l-.993-1.646.046-.028c.039.047.084.091.117.142.29.443.575.888.868 1.329.146.22.16.216.387.022l-1.172-1.589.04-.027 1.265 1.524z" fill="#fff"/><path d="M427.924 465.427c-1.055.697-3.199 1.497-4.918 1.922.323.306.766.851 1.004 1.174 1.787-.442 3.931-1.276 5.292-2.127l-1.378-.969zm.544-3.046h3.982v1.668h-3.982v-1.668zm0-2.773h3.982v1.395h-3.982v-1.395zm-2.416-2.483h3.573v1.275h-3.573v-1.275zm0-2.399h3.573v1.242h-3.573v-1.242zm8.78 1.242h-3.658v-1.242h3.658v1.242zm0 2.432h-3.658v-1.275h3.658v1.275zm3.216 5.649h-3.998v-1.668h3.011v-1.378h-3.011v-1.395h2.382v-6.09h-11.894v6.09h2.331v1.395h-2.893v1.378h2.893v1.668h-3.965v1.361h9.818l-1.021 1.037c1.889.647 3.846 1.48 5.003 2.093l1.344-1.123c-1.276-.612-3.369-1.412-5.258-2.007h5.258v-1.361zm7.646-5.066h5.82v1.395h-5.82v-1.395zm9.104 3.793h-5.173v-1.241h3.505v-3.709h-8.95v3.709h3.811v1.241h-5.36v5.019h1.6v-3.589h3.76v4.355h1.634v-4.355h3.539v2.041c0 .204-.068.255-.34.272-.238 0-1.14 0-2.042-.034.204.408.442 1.021.527 1.446 1.277 0 2.144-.017 2.74-.238.579-.238.749-.663.749-1.429v-3.488zm-1.855-7.332c.476-.476 1.038-1.157 1.565-1.82l-1.684-.544c-.289.578-.885 1.429-1.327 1.973l1.021.391h-3.046v-2.501h-1.634v2.501h-3.165l1.004-.442c-.272-.545-.817-1.344-1.344-1.905l-1.43.561c.426.527.885 1.259 1.157 1.786h-2.518v3.794h1.515v-2.433h11.145v2.433h1.566v-3.794h-2.825zm14.69 10.99v-3.759h5.105v-1.531h-5.105v-3.386h5.853v-1.548h-5.411l.834-.596c-.697-.799-2.093-1.939-3.182-2.671l-1.293.902c.936.664 2.042 1.616 2.74 2.365h-7.147v1.548h5.87v3.386h-5.053v1.531h5.053v3.759h-6.636v1.549h15.076v-1.549h-6.704zm14.494-1.416h3.199v-1.157h-3.199v-.867h3.165v-5.121h-3.165v-.885h3.369v1.276h1.804c-.137 3.096-.562 5.665-1.957 7.588-1.072.119-2.161.221-3.216.323v-1.157zm-3.199-3.062v-1.038h1.752v1.038h-1.752zm5.019-1.038v1.038h-1.82v-1.038h1.82zm-1.82-.97v-1.038h1.82v1.038h-1.82zm-3.199-1.038h1.752v1.038h-1.752v-1.038zm9.92-2.109c.017-1.157.034-2.382.034-3.641h-1.514c0 1.276 0 2.484-.017 3.641h-1.787v-.987h-3.437v-1.089a32.4 32.4 0 003.199-.476l-.749-1.191c-1.77.392-4.782.698-7.3.834.153.306.323.817.374 1.14a66.445 66.445 0 003.029-.17v.952h-3.505v1.174h3.505v.885h-3.046v5.121h3.046v.867h-3.097v1.157h3.097v1.293c-1.344.119-2.569.221-3.556.289l.204 1.344a292.63 292.63 0 006.722-.714c-.103.085-.205.17-.307.238.375.255.902.816 1.14 1.174 2.927-2.246 3.693-5.853 3.914-10.378h2.008c-.136 5.852-.306 8.013-.681 8.489-.17.221-.323.272-.612.272-.307 0-1.004 0-1.787-.068.238.426.408 1.072.442 1.498.8.05 1.583.05 2.093-.017.528-.086.885-.222 1.208-.732.545-.732.698-3.147.885-10.174 0-.187.017-.731.017-.731h-3.522zm15.862 1.501v1.225h-2.45v-1.225h2.45zm3.965 1.225h-2.536v-1.225h2.536v1.225zm-2.536 2.433v-1.276h2.536v1.276h-2.536zm-3.879 0v-1.276h2.45v1.276h-2.45zm0 1.191h2.45v2.62h1.429v-2.62h2.536v1.208c0 .204-.068.272-.272.272-.188 0-.851.017-1.549-.017.187.357.375.885.426 1.276 1.072 0 1.786-.017 2.28-.238.476-.204.612-.562.612-1.276v-7.264h-2.093a12.045 12.045 0 00-1.174-.596c1.208-.646 2.383-1.48 3.25-2.313l-.952-.766-.307.085h-8.048v1.242h6.568c-.545.408-1.208.816-1.855 1.157a23.098 23.098 0 00-2.195-.868l-1.021.851c.868.323 1.906.782 2.791 1.208h-4.356v8.727h1.48v-2.688zm-3.642-7.451c-.221-.732-.629-1.872-.935-2.757l-1.396.409c.272.901.698 2.109.885 2.858l1.446-.51zm.375 4.933l-.238.068h-.936c.408-1.191.885-2.569 1.259-3.777h-3.676v1.43h1.719c-.425 1.327-.919 2.704-1.344 3.708h2.178c-.255 1.157-.664 2.382-1.106 3.3-.545.341-1.14 1.004-1.719 1.77l1.072 1.463c.46-1.038 1.038-2.144 1.429-2.144.358 0 .987.596 1.668.987 1.225.715 2.689.902 4.935.902 1.974 0 5.105-.102 6.415-.187.034-.426.289-1.208.459-1.633-1.872.238-4.747.391-6.806.391-2.008 0-3.557-.102-4.748-.817-.544-.34-.902-.629-1.225-.799.596-1.276 1.072-2.876 1.379-4.39l-.715-.272zm19.815-1.956a17.766 17.766 0 01-1.004 2.211h-2.008l.817-.272c-.119-.51-.442-1.327-.799-1.939h2.994zm-.731 3.555h2.552v-1.344h-1.446c.323-.578.68-1.293 1.004-1.922l-1.106-.289h1.871v-1.344h-2.875v-1.463h2.467v-1.327h-2.467v-1.6h-1.464v1.6h-2.552v1.327h2.552v1.463h-3.046v1.344h2.11l-1.055.323c.307.578.613 1.344.732 1.888h-1.429v1.344h2.688v1.634h-3.046v1.343h3.046v3.233h1.464v-3.233h2.892v-1.343h-2.892v-1.634zm4.883-1.463c.477 1.617 1.14 3.113 1.974 4.389a9.26 9.26 0 01-1.974 2.025v-6.414zm3.982-.085a12.26 12.26 0 01-1.191 3.165 13.901 13.901 0 01-1.498-3.165h2.689zm.732-1.344l-.273.068h-4.441v-4.355h3.812v1.803c0 .188-.068.239-.34.256-.239.017-1.141.017-2.111-.017.205.374.409.952.477 1.361 1.276 0 2.144 0 2.705-.239.579-.204.732-.612.732-1.344v-3.215h-6.721v14.818h1.446v-.681c.256.238.494.494.647.732a9.45 9.45 0 002.229-2.127c.698.817 1.48 1.497 2.348 1.991.238-.391.698-.987 1.055-1.259-.953-.476-1.786-1.174-2.535-2.008.953-1.599 1.582-3.453 1.94-5.426l-.97-.358zm-107.313 29.452v-3.678h4.715v-1.081h-4.715v-3.287h5.331v-1.096h-4.85l.705-.511c-.585-.705-1.786-1.726-2.747-2.417l-.901.631c.901.66 1.967 1.606 2.552 2.297h-6.592v1.096h5.316v3.287h-4.625v1.081h4.625v3.678h-6.006v1.096h13.274v-1.096h-6.082zm12.265-10.113l-.571.435c.481.466 1.096 1.096 1.397 1.487l.736-.616a13.374 13.374 0 00-1.307-1.306h2.838v-.901h-3.874c.165-.3.3-.6.436-.901l-.991-.27c-.511 1.246-1.367 2.447-2.298 3.273.24.18.616.555.781.736.54-.511 1.081-1.187 1.562-1.937h1.291zm7.223 8.917v1.442h-7.223v-1.442h7.223zm-.781-4.038v1.276h-6.442v-1.276h6.442zm-6.442 2.132h7.538v-2.988h-8.649v7.717h1.111v-.511h7.223v.481h1.096v-3.663h-8.319v-1.036zm2.297-5.735c.165.285.316.631.451.946h-5.511v2.447h1.081v-1.562h9.926v1.562h1.111v-2.447h-5.466c-.135-.375-.39-.811-.6-1.156l-.992.21zm3.094-2.162c.165-.3.3-.615.42-.931l-1.021-.255c-.375 1.021-1.051 1.997-1.862 2.642.255.15.661.496.841.661.39-.33.751-.766 1.096-1.231h1.712l-.646.525c.556.466 1.246 1.111 1.592 1.532l.751-.661c-.346-.39-1.006-.961-1.547-1.396h3.229v-.886h-4.565zm20.45 5.294c-.151-.555-.511-1.516-.841-2.221l-.676.195c.12.285.24.6.36.901l-1.501.21a20.928 20.928 0 002.192-3.363l-.856-.315c-.15.345-.33.705-.525 1.035l-1.096.121c.465-.691.931-1.577 1.306-2.462l-.841-.256c-.3 1.006-.916 2.102-1.081 2.357-.18.286-.346.481-.526.496.106.24.241.645.286.841.15-.076.405-.151 1.516-.301-.39.646-.736 1.141-.901 1.336-.285.361-.51.616-.751.661.106.225.241.69.301.871.18-.106.54-.181 2.718-.526.09.255.15.496.195.676l.721-.256zm-5.406.256c-.12-.556-.451-1.502-.766-2.222l-.706.195c.121.3.241.616.346.946l-1.457.195c.796-.931 1.592-2.117 2.252-3.318l-.81-.315c-.15.345-.331.675-.511 1.006l-1.186.12c.54-.751 1.081-1.741 1.501-2.717l-.84-.271c-.376 1.126-1.052 2.282-1.262 2.583-.195.315-.375.51-.555.555.09.21.225.646.255.826.15-.075.435-.15 1.607-.316a17.804 17.804 0 01-.961 1.352c-.301.375-.556.63-.766.675.105.225.225.661.255.841.21-.12.556-.18 2.703-.511.06.241.12.451.165.631l.736-.255zm-4.069.57a73.293 73.293 0 00-1.337-2.282v-.975h1.187v-1.051h-1.187v-2.883h-.976v2.883h-1.592v1.051h1.502c-.36 1.966-1.081 4.263-1.802 5.479.135.27.391.766.481 1.081.525-.916 1.036-2.387 1.411-3.933v7.146h.976v-7.432c.316.631.646 1.337.796 1.742l.541-.826zm7.688 1.591a7.003 7.003 0 01-1.337 1.892c-.255-.57-.45-1.261-.645-2.057h3.618v-.9h-1.246l.391-.406c-.346-.315-1.036-.78-1.562-1.081l-.571.526c.436.27.976.645 1.337.961h-2.147c-.376-2.057-.586-4.669-.661-7.597h-.961c.09 2.868.285 5.465.645 7.597h-4.384v.9h1.141v.211c0 1.261-.376 2.942-2.132 4.233.21.12.585.466.736.676 1.321-1.006 1.952-2.297 2.207-3.498a21.905 21.905 0 011.516 1.411l.691-.676c-.45-.465-1.351-1.231-2.072-1.786.015-.12.015-.24.015-.346v-.225h2.448c.24 1.051.525 1.982.871 2.748-.796.63-1.757 1.156-2.793 1.561.21.18.48.511.6.706a12.342 12.342 0 002.628-1.457c.616.931 1.396 1.472 2.372 1.532.601.045 1.067-.511 1.352-2.147-.195-.105-.571-.36-.751-.571-.12 1.081-.315 1.652-.631 1.622-.6-.06-1.126-.421-1.561-1.081a8.646 8.646 0 001.847-2.402l-.961-.346zm6.06-5.52h3.348v1.066h-3.348v-1.066zm3.348-1.877v1.126h-3.348v-1.126h3.348zm.195 6.365c.106.18.211.391.316.601l-1.517.12c.766-.571 1.547-1.306 2.268-2.072l-.661-.435c-.195.27-.421.525-.661.781l-1.111.045a8.116 8.116 0 001.171-1.367l-.51-.27h1.561v-4.578h-5.465v13.075h1.066v-8.497h2.582c-.345.616-.916 1.216-1.066 1.366-.18.166-.33.241-.495.271.105.21.195.585.255.765.135-.06.39-.105 1.396-.18-.39.39-.735.661-.9.781-.316.24-.586.405-.811.42.09.195.21.586.225.736.225-.075.586-.15 2.958-.376.06.181.135.346.18.466h-.57v1.321c0 .105 0 .195-.015.3h-1.412v-1.396h-.766v2.102h1.997c-.225.45-.705.856-1.666 1.156.18.15.435.465.54.66 1.862-.66 2.132-1.681 2.132-2.807v-1.336h-.15l.541-.21c-.15-.421-.511-1.111-.811-1.637l-.601.195zm5.061 4.444v-2.552h-.796v1.381h-1.442v-1.621h-.841v4.023h.841v-1.696h1.442v.465h.796zm-1.802-7.866v-1.066h3.453v1.066h-3.453zm3.453-2.943v1.126h-3.453v-1.126h3.453zm1.082-.81h-5.601v4.578h.931c-.361.631-.916 1.216-1.081 1.381a.864.864 0 01-.496.271c.105.21.225.585.27.765.135-.075.376-.12 1.412-.195-.421.375-.751.676-.916.796-.316.24-.571.375-.796.405.075.21.195.586.225.751.195-.105.571-.15 2.928-.391.105.196.181.361.241.511l.6-.27a13.51 13.51 0 00-.871-1.622l-.57.195c.105.18.21.391.315.601l-1.502.12c.781-.571 1.562-1.306 2.268-2.087l-.646-.42c-.21.27-.42.525-.661.781l-1.111.06c.391-.391.811-.856 1.171-1.366l-.555-.286h3.363v7.086c0 .195-.06.27-.255.27a16.45 16.45 0 01-1.486-.015c.15.286.285.811.345 1.111.931 0 1.562-.03 1.952-.225.405-.18.526-.525.526-1.141v-11.664zm4.572 2.368H489.1v2.026h1.096v-2.972h-2.748c.421-.406.946-.961 1.412-1.516l-1.111-.391c-.301.481-.856 1.186-1.262 1.636l.661.271H484.4v-1.997h-1.126v1.997h-2.778l.706-.331c-.241-.435-.736-1.095-1.172-1.576l-.976.391c.406.45.811 1.065 1.066 1.516h-2.522v2.972h1.051v-2.026zm2.132 1.681h6.202v1.186h-6.202v-1.186zm7.298 1.952v-2.718h-8.334v2.718h8.334zm2.402 4.248h-6.096v-1.006h5.301v-.795h-5.301v-.976c1.637-.105 3.183-.255 4.37-.465l-.706-.706c-2.118.36-6.142.57-9.43.6.105.196.21.526.21.751 1.412 0 2.958-.045 4.46-.12v.916h-5.166v.795h5.166v1.006h-6.021v.811h6.021v.931c0 .225-.09.285-.361.3-.255.015-1.231.015-2.282-.015.15.255.33.6.39.886 1.352 0 2.178 0 2.688-.15.496-.15.661-.391.661-1.006v-.946h6.096v-.811zm6.96-3.257l-.15-.976-1.516.48v-3.032h1.621v-1.036h-1.621v-3.003h-1.051v3.003h-1.667v1.036h1.667v3.363c-.706.195-1.352.39-1.862.54l.27 1.036 1.592-.511v3.844c0 .21-.075.27-.256.27-.165 0-.75 0-1.381-.015.15.315.285.765.33 1.051.931.015 1.502-.03 1.847-.21.376-.181.511-.481.511-1.096v-4.174l1.666-.57zm7.523-6.065v1.441h-6.006v-1.441h6.006zm-1.787 10.959v-1.652h2.943v-.885h-2.943v-1.487l1.907-.135c.121.195.226.39.301.556l.856-.406c-.346-.69-1.141-1.681-1.892-2.387l-.796.346c.33.315.646.705.961 1.081l-3.664.24a16.325 16.325 0 001.607-1.967h3.663v-.886h-7.162v-1.035h7.118v-3.258h-8.199v4.654c0 2.342-.15 5.614-1.652 7.896.27.105.721.406.916.586 1.487-2.252 1.772-5.525 1.817-7.957h2.252a13.046 13.046 0 01-1.261 1.621c-.27.271-.495.451-.706.496.105.24.271.736.331.931 0-.015 0-.03.015-.06v.06c.255-.075.585-.135 2.492-.286v1.397h-2.928v.885h2.928v1.652h-3.829v.916h8.499v-.916h-3.574zm19.217-9.338c-.375-.736-1.246-1.847-2.012-2.642l-.886.435c.751.826 1.607 1.967 1.952 2.702l.946-.495zm.315 2.402v-1.096h-3.994v-4.414h-1.066v4.414h-3.259v1.096h3.214c-.15 2.522-.841 5.224-3.709 7.326v-12.851h-1.066v4.309h-2.087v-3.678h-1.021v4.684h3.108v2.132h-3.694v1.02h1.156v.436c0 1.066-.18 2.747-1.261 3.948.24.105.646.36.856.526 1.186-1.292 1.426-3.213 1.426-4.459v-.451h1.517v5.225h1.066v-.781c.255.21.571.571.706.826 2.312-1.697 3.348-3.738 3.784-5.84.51 2.087 1.501 4.429 3.679 5.735.18-.301.525-.661.826-.886-2.914-1.636-3.649-5.074-3.875-7.221h3.694zm6.7-4.084c-.6-.495-1.817-1.096-2.793-1.441l-.6.826c.976.39 2.177 1.036 2.763 1.561l.63-.946zm-.751 4.054c-.66-.466-1.982-1.036-3.018-1.366l-.585.855c1.066.376 2.357.991 3.003 1.471l.6-.96zm.03 2.252c-.915 1.756-2.192 3.798-3.048 4.969l.931.72c.946-1.426 2.057-3.362 2.913-4.999l-.796-.69zm2.583-6.126h5.541v4.009h-5.541v-4.009zm4.895 10.87c-.375 0-.435-.091-.435-.541v-5.269h2.222v-6.095h-7.763v6.095h1.592c-.15 3.077-.556 4.999-3.319 6.035.225.21.556.63.676.901 3.018-1.231 3.574-3.468 3.739-6.936h1.742v5.284c0 1.156.27 1.502 1.381 1.502h1.472c.991 0 1.276-.586 1.381-2.808-.3-.075-.751-.24-.976-.435-.045 1.921-.12 2.267-.495 2.267h-1.217z" fill="#000"/><path fill-rule="evenodd" clip-rule="evenodd" d="M456.113 400.332l8.323 2.229-6.328 23.615-8.324-2.23 6.329-23.614z" fill="#AAEAFF"/><path fill-rule="evenodd" clip-rule="evenodd" d="M403.355 382.871l9.933 2.661-.784 2.924-9.932-2.661.783-2.924zm6.01-12.521l7.271 7.27-2.141 2.14-7.271-7.27 2.141-2.14zm-7.934 29.593l9.932-2.661-.783-2.924-9.933 2.661.784 2.924z" fill="#009AD6"/><path fill-rule="evenodd" clip-rule="evenodd" d="M426.349 368.282l-11.228 41.892 52.997 2.972 5.613-20.946-47.382-23.918z" fill="#CEF2FF"/><path fill-rule="evenodd" clip-rule="evenodd" d="M171.448 168.864c0 2.98 2.419 5.4 5.4 5.4 2.98 0 5.4-2.42 5.4-5.4 0-2.981-2.42-5.4-5.4-5.4a5.402 5.402 0 00-5.4 5.4zm95.861-67.891l10.8 8.1-10.8 8.1v-16.2z" fill="#009AD6"/><path fill-rule="evenodd" clip-rule="evenodd" d="M178.353 165.662v-6a1.5 1.5 0 00-3 0v6a1.5 1.5 0 003 0zm0-15v-5.999a1.5 1.5 0 00-3 0v5.999a1.5 1.5 0 003 0zm0-14.999v-6a1.5 1.5 0 00-3 0v6a1.501 1.501 0 003 0zm0-15v-6a1.5 1.5 0 00-3 0v6a1.501 1.501 0 003 0zm16.973-10.027h6a1.5 1.5 0 000-3h-6a1.5 1.5 0 000 3zm15 0h6a1.5 1.5 0 000-3h-6a1.5 1.5 0 000 3zm-29.999 0h6a1.5 1.5 0 000-3h-6a1.5 1.5 0 000 3zm44.999 0h6a1.5 1.5 0 000-3h-6a1.501 1.501 0 000 3zm15 0h6a1.5 1.5 0 000-3h-6a1.501 1.501 0 000 3zm15 0h6a1.5 1.5 0 000-3h-6a1.501 1.501 0 000 3zm529.772 52.828l8.1 10.8 8.1-10.8h-16.2zm-87.762-48.934c-2.981 0-5.4-2.42-5.4-5.4 0-2.98 2.419-5.4 5.4-5.4 2.98 0 5.4 2.42 5.4 5.4 0 2.98-2.42 5.4-5.4 5.4z" fill="#009AD6"/><path fill-rule="evenodd" clip-rule="evenodd" d="M794.687 165.662v-6a1.5 1.5 0 00-3 0v6a1.5 1.5 0 003 0zm0-15v-5.999a1.5 1.5 0 00-3 0v5.999a1.5 1.5 0 003 0zm0-14.999v-6a1.5 1.5 0 00-3 0v6a1.501 1.501 0 003 0zm0-15v-6a1.5 1.5 0 00-3 0v6a1.501 1.501 0 003 0zm-19.973-13.027h-6a1.5 1.5 0 000 3h6a1.5 1.5 0 000-3zm-45 0h-6a1.5 1.5 0 000 3h6a1.5 1.5 0 000-3zm60 0h-6a1.5 1.5 0 000 3h6a1.5 1.5 0 000-3zm-30 0h-6a1.5 1.5 0 000 3h6a1.5 1.5 0 000-3zm-15 0h-6a1.5 1.5 0 000 3h6a1.5 1.5 0 000-3zm-30 0h-6a1.5 1.5 0 000 3h6a1.5 1.5 0 000-3zM184.948 392.637l-8.1-10.8-8.1 10.8h16.2zm196.746 34.23c2.981 0 5.4 2.42 5.4 5.4 0 2.981-2.419 5.4-5.4 5.4-2.98 0-5.4-2.419-5.4-5.4 0-2.98 2.42-5.4 5.4-5.4z" fill="#009AD6"/><path fill-rule="evenodd" clip-rule="evenodd" d="M195.008 433.805h6a1.501 1.501 0 000-3h-6a1.5 1.5 0 000 3zm-15 0h6a1.501 1.501 0 000-3h-6a1.5 1.5 0 000 3zm30 0h6a1.501 1.501 0 000-3h-6a1.5 1.5 0 000 3zm150 0h6a1.501 1.501 0 000-3h-6a1.5 1.5 0 000 3zm15 0h3.45a1.501 1.501 0 000-3h-3.45a1.5 1.5 0 000 3zm-150 0h6a1.501 1.501 0 000-3h-6a1.5 1.5 0 000 3zm30 0h6a1.501 1.501 0 000-3h-6a1.5 1.5 0 000 3zm15 0h6a1.501 1.501 0 000-3h-6a1.5 1.5 0 000 3zm15 0h6a1.501 1.501 0 000-3h-6a1.5 1.5 0 000 3zm15 0h6a1.501 1.501 0 000-3h-6a1.5 1.5 0 000 3zm45 0h6a1.501 1.501 0 000-3h-6a1.5 1.5 0 000 3zm-105 0h6a1.501 1.501 0 000-3h-6a1.5 1.5 0 000 3zm75 0h6a1.501 1.501 0 000-3h-6a1.5 1.5 0 000 3zm15 0h6a1.501 1.501 0 000-3h-6a1.5 1.5 0 000 3zm-154.655-13.346v6a1.5 1.5 0 003 0v-6a1.5 1.5 0 00-3 0zm0-15v6a1.5 1.5 0 003 0v-6a1.5 1.5 0 00-3 0zm0-15v6a1.5 1.5 0 003 0v-6a1.5 1.5 0 00-3 0zm623.244-3.222c0-2.98-2.419-5.4-5.4-5.4-2.98 0-5.4 2.42-5.4 5.4 0 2.98 2.42 5.4 5.4 5.4 2.981 0 5.4-2.42 5.4-5.4zm-218.315 53.188l-10.8-8.1 10.8-8.1v16.2z" fill="#009AD6"/><path fill-rule="evenodd" clip-rule="evenodd" d="M730.032 430.805h-6a1.5 1.5 0 000 3h6a1.501 1.501 0 000-3zm-15 0h-6a1.5 1.5 0 000 3h6a1.501 1.501 0 000-3zm30 0h-6a1.5 1.5 0 000 3h6a1.501 1.501 0 000-3zm-45 0h-6a1.5 1.5 0 000 3h6a1.501 1.501 0 000-3zm-15 0h-6a1.5 1.5 0 000 3h6a1.501 1.501 0 000-3zm105 0h-6a1.5 1.5 0 000 3h6a1.501 1.501 0 000-3zm-15 0h-6a1.5 1.5 0 000 3h6a1.501 1.501 0 000-3zm-15 0h-6a1.5 1.5 0 000 3h6a1.501 1.501 0 000-3zm-90 0h-6a1.5 1.5 0 000 3h6a1.501 1.501 0 000-3zm-15 0h-6a1.5 1.5 0 000 3h6a1.501 1.501 0 000-3zm-45 0h-5.999a1.5 1.5 0 000 3h5.999a1.501 1.501 0 000-3zm-14.999 0h-6a1.5 1.5 0 000 3h6a1.501 1.501 0 000-3zm44.999 0h-6a1.5 1.5 0 000 3h6a1.501 1.501 0 000-3zm-15 0h-6a1.5 1.5 0 000 3h6a1.501 1.501 0 000-3zm-44.999 0h-1.929a1.5 1.5 0 000 3h1.929a1.501 1.501 0 000-3zm211.653-10.346v6a1.501 1.501 0 003 0v-6a1.5 1.5 0 00-3 0zm0-15v6a1.501 1.501 0 003 0v-6a1.5 1.5 0 00-3 0zm0-15v6a1.501 1.501 0 003 0v-6a1.5 1.5 0 00-3 0z" fill="#009AD6"/></svg>