<svg width="140" height="140" fill="none" xmlns="http://www.w3.org/2000/svg"><path fill-rule="evenodd" clip-rule="evenodd" d="M7.778 93.544l12.589-21.332 8.54 5.528a1.984 1.984 0 002.753-.602l15.39-24.25 7.96 12.303a1.984 1.984 0 003.319.02l22.125-33.296 13.39 28.07a1.984 1.984 0 003.493.165l15.165-25.365 20.844 53.16c-7.985 27.657-33.514 47.9-63.732 47.9-28.139 0-52.21-17.552-61.836-42.301zm-1.705-4.92a65.825 65.825 0 01-2.818-19.137c0-36.625 29.734-66.36 66.359-66.36 36.624 0 66.358 29.735 66.358 66.36 0 3.97-.349 7.859-1.039 11.634l-20.212-51.548a1.985 1.985 0 00-3.551-.294L95.832 54.936 82.529 27.047a1.985 1.985 0 00-3.444-.243l-22.387 33.69-8-12.361a1.984 1.984 0 00-3.34.015L29.381 73.32l-8.595-5.564a1.985 1.985 0 00-2.787.657L6.073 88.624z" fill="#009AD6"/><path fill-rule="evenodd" clip-rule="evenodd" d="M71.993 52.743c14.888-8.596 33.954-3.487 42.55 11.401 8.596 14.889 3.487 33.955-11.402 42.551-14.888 8.595-33.954 3.486-42.55-11.402-8.596-14.888-3.487-33.954 11.402-42.55z" fill="#fff"/><path fill-rule="evenodd" clip-rule="evenodd" d="M71.497 51.885c-15.363 8.87-20.634 28.542-11.765 43.905 8.87 15.363 28.543 20.634 43.906 11.764 15.362-8.87 20.633-28.542 11.764-43.905-8.87-15.362-28.543-20.634-43.905-11.764zm.992 1.718c14.414-8.322 32.873-3.376 41.195 11.038 8.322 14.414 3.376 32.873-11.039 41.195-14.414 8.322-32.873 3.376-41.195-11.038-8.322-14.414-3.376-32.873 11.038-41.195z" fill="#009AD6"/><path fill-rule="evenodd" clip-rule="evenodd" d="M73.733 55.763c-13.225 7.635-17.763 24.57-10.127 37.795 7.635 13.225 24.57 17.763 37.795 10.128 13.225-7.636 17.763-24.571 10.127-37.796-7.635-13.224-24.57-17.762-37.795-10.127zm1.488 2.577c11.802-6.814 26.916-2.764 33.73 9.038 6.814 11.802 2.764 26.916-9.038 33.73-11.802 6.814-26.916 2.764-33.73-9.038-6.814-11.802-2.764-26.916 9.038-33.73z" fill="#009AD6"/><path d="M86.51 87.668h-9.416l-1.79 5.37h-5.71l9.702-26.063h4.976l9.756 26.063h-5.71l-1.808-5.37zm-7.966-4.35h6.516l-3.276-9.756-3.24 9.756zm24.361-16.343h-5.37v26.063h5.37V66.975z" fill="#009AD6"/><path fill-rule="evenodd" clip-rule="evenodd" d="M105.337 105.427l-5.858 3.382 6.54 11.327 5.857-3.382-6.539-11.327z" fill="#fff"/><path fill-rule="evenodd" clip-rule="evenodd" d="M106.196 104.932a.992.992 0 00-1.355-.363l-5.858 3.382a.992.992 0 00-.363 1.355l6.54 11.327a.991.991 0 001.355.363l5.858-3.382a.992.992 0 00.363-1.355l-6.54-11.327zm-5.361 4.241l5.547 9.609 4.139-2.39-5.547-9.609-4.139 2.39z" fill="#009AD6"/><path fill-rule="evenodd" clip-rule="evenodd" d="M111.876 116.758l-5.857 3.382 9.649 16.712 5.857-3.382-9.649-16.712z" fill="#fff"/><path fill-rule="evenodd" clip-rule="evenodd" d="M112.736 116.263a.992.992 0 00-1.356-.363l-5.857 3.382a.991.991 0 00-.363 1.355l9.649 16.712a.991.991 0 001.355.363l5.857-3.382a.991.991 0 00.364-1.355l-9.649-16.712zm-5.362 4.241l8.657 14.994 4.139-2.39-8.657-14.994-4.139 2.39z" fill="#009AD6"/></svg>