<svg width="140" height="140" fill="none" xmlns="http://www.w3.org/2000/svg"><path d="M69.733 135.313c36.101 0 65.367-29.265 65.367-65.366S105.834 4.58 69.733 4.58c-36.1 0-65.367 29.266-65.367 65.367 0 36.101 29.266 65.366 65.367 65.366z" fill="#009AD6" stroke="#009AD6" stroke-width=".014" stroke-miterlimit="1.5" stroke-linejoin="round"/><path fill-rule="evenodd" clip-rule="evenodd" d="M65.473 20.172a34.166 34.166 0 00-8.174 0l-1.485 6.81a27.656 27.656 0 00-4.391 1.29l-4.931-4.927a34.156 34.156 0 00-6.877 4.42l2.434 6.531a27.665 27.665 0 00-2.998 3.46l-6.811-1.48a34.153 34.153 0 00-3.396 7.436l5.579 4.18a27.673 27.673 0 00-.652 4.53l-6.53 2.438a34.13 34.13 0 001.164 8.09l6.952.5a27.66 27.66 0 001.901 4.165l-4.175 5.581a34.133 34.133 0 005.353 6.178l6.12-3.338c1.212.93 2.5 1.757 3.85 2.474l-.495 6.953a34.156 34.156 0 007.843 2.303l3.343-6.117a27.54 27.54 0 004.577 0l3.343 6.117a34.153 34.153 0 007.843-2.303l-.495-6.953a27.679 27.679 0 003.851-2.475l6.12 3.339a34.144 34.144 0 005.352-6.178l-4.175-5.581a27.64 27.64 0 001.901-4.164l6.953-.5a34.147 34.147 0 001.163-8.09L89 52.42a27.64 27.64 0 00-.651-4.53l5.578-4.18a34.171 34.171 0 00-3.395-7.434l-6.812 1.478a27.659 27.659 0 00-2.998-3.459l2.434-6.531a34.155 34.155 0 00-6.876-4.42l-4.931 4.927a27.656 27.656 0 00-4.392-1.29l-1.484-6.81zm-4.087 13.426c11.304 0 20.481 9.178 20.481 20.482 0 11.304-9.177 20.482-20.481 20.482-11.305 0-20.482-9.178-20.482-20.482 0-11.304 9.177-20.482 20.482-20.482z" fill="#fff"/><path fill-rule="evenodd" clip-rule="evenodd" d="M93.544 78.673a20.792 20.792 0 00-4.98.084l-.834 4.164c-.909.203-1.8.48-2.663.83l-3.054-2.95a20.807 20.807 0 00-4.145 2.762l1.55 3.955a16.837 16.837 0 00-1.79 2.138l-4.166-.83a20.805 20.805 0 00-1.993 4.564l3.442 2.49a16.82 16.82 0 00-.35 2.767l-3.954 1.552c.066 1.665.332 3.316.791 4.917l4.242.234c.33.871.731 1.713 1.2 2.517l-2.486 3.444a20.82 20.82 0 003.325 3.709l3.694-2.097a16.864 16.864 0 002.371 1.468l-.23 4.242a20.831 20.831 0 004.802 1.322l1.974-3.76c.93.061 1.862.045 2.79-.047l2.098 3.692c1.639-.303 3.235-.8 4.755-1.484l-.372-4.231c.815-.45 1.591-.968 2.32-1.547l3.763 1.971a20.839 20.839 0 003.198-3.818l-2.601-3.358c.442-.82.815-1.675 1.116-2.557l4.23-.375c.406-1.617.616-3.275.626-4.942l-4.003-1.418c-.072-.929-.22-1.85-.444-2.754l3.356-2.604a20.764 20.764 0 00-2.145-4.495l-4.135.97a16.813 16.813 0 00-1.861-2.076l1.415-4.005a20.786 20.786 0 00-4.235-2.622l-2.953 3.053a16.826 16.826 0 00-2.69-.741l-.974-4.134zm-2.352 8.222c6.888-.116 12.573 5.382 12.689 12.269.116 6.887-5.382 12.573-12.27 12.689-6.886.115-12.572-5.382-12.688-12.27-.116-6.887 5.382-12.572 12.27-12.688z" fill="#fff"/><path d="M85.646 24.37a47.997 47.997 0 016.046 2.592c15.608 7.999 26.299 24.25 26.299 42.978 0 2.28-.158 4.522-.464 6.717" stroke="#fff" stroke-width=".021" stroke-miterlimit="1.5" stroke-linejoin="round"/><path fill-rule="evenodd" clip-rule="evenodd" d="M115.203 82.777l-4.016-12.213 13.6 3.644-9.584 8.569z" fill="#fff"/><path d="M85.646 24.37a47.997 47.997 0 016.046 2.592c15.608 7.999 26.299 24.25 26.299 42.978 0 2.28-.158 4.522-.464 6.717" stroke="#fff" stroke-width=".021" stroke-miterlimit="1.5" stroke-linejoin="round"/><path fill-rule="evenodd" clip-rule="evenodd" d="M115.203 82.777l-4.016-12.213 13.6 3.644-9.584 8.569z" fill="#fff"/><path d="M85.646 24.37a47.997 47.997 0 016.046 2.592c15.608 7.999 26.299 24.25 26.299 42.978 0 2.28-.158 4.522-.464 6.717" stroke="#fff" stroke-width=".021" stroke-miterlimit="1.5" stroke-linejoin="round"/><path fill-rule="evenodd" clip-rule="evenodd" d="M115.203 82.777l-4.016-12.213 13.6 3.644-9.584 8.569zm-48.926 33.564a46.058 46.058 0 01-6.276-.905c-16.53-3.553-30.54-16.018-35.214-33.459a46.885 46.885 0 01-1.244-6.371l-3.445.426a50.327 50.327 0 001.335 6.844c5.022 18.741 20.077 32.136 37.838 35.955 2.212.475 4.466.802 6.748.973l.258-3.463z" fill="#fff"/><path fill-rule="evenodd" clip-rule="evenodd" d="M22.48 69.334l7.04 10.757H15.44l7.04-10.757z" fill="#fff"/><path d="M85.646 24.37a47.997 47.997 0 016.046 2.592c15.608 7.999 26.299 24.25 26.299 42.978 0 2.28-.158 4.522-.464 6.717" stroke="#fff" stroke-width=".021" stroke-miterlimit="1.5" stroke-linejoin="round"/><path fill-rule="evenodd" clip-rule="evenodd" d="M115.203 82.777l-4.016-12.213 13.6 3.644-9.584 8.569z" fill="#fff"/><path d="M85.646 24.37a47.997 47.997 0 016.046 2.592c15.608 7.999 26.299 24.25 26.299 42.978 0 2.28-.158 4.522-.464 6.717" stroke="#fff" stroke-width=".021" stroke-miterlimit="1.5" stroke-linejoin="round"/><path fill-rule="evenodd" clip-rule="evenodd" d="M115.203 82.777l-4.016-12.213 13.6 3.644-9.584 8.569z" fill="#fff"/><path d="M85.646 24.37a47.997 47.997 0 016.046 2.592c15.608 7.999 26.299 24.25 26.299 42.978 0 2.28-.158 4.522-.464 6.717" stroke="#fff" stroke-width=".021" stroke-miterlimit="1.5" stroke-linejoin="round"/><path fill-rule="evenodd" clip-rule="evenodd" d="M115.203 82.777l-4.016-12.213 13.6 3.644-9.584 8.569z" fill="#fff"/><path d="M85.646 24.37a47.997 47.997 0 016.046 2.592c15.608 7.999 26.299 24.25 26.299 42.978 0 2.28-.158 4.522-.464 6.717" stroke="#fff" stroke-width=".021" stroke-miterlimit="1.5" stroke-linejoin="round"/><path fill-rule="evenodd" clip-rule="evenodd" d="M115.203 82.777l-4.016-12.213 13.6 3.644-9.584 8.569z" fill="#fff"/><path d="M85.646 24.37a47.997 47.997 0 016.046 2.592c15.608 7.999 26.299 24.25 26.299 42.978 0 2.28-.158 4.522-.464 6.717" stroke="#fff" stroke-width=".021" stroke-miterlimit="1.5" stroke-linejoin="round"/><path fill-rule="evenodd" clip-rule="evenodd" d="M115.203 82.777l-4.016-12.213 13.6 3.644-9.584 8.569z" fill="#fff"/><path fill-rule="evenodd" clip-rule="evenodd" d="M85.073 26.024a46.227 46.227 0 015.828 2.499c15.047 7.71 25.355 23.377 25.355 41.433 0 2.197-.153 4.36-.448 6.476l3.439.48c.317-2.274.481-4.596.481-6.956 0-19.402-11.075-36.238-27.243-44.523a49.7 49.7 0 00-6.266-2.686l-1.146 3.277z" fill="#fff"/><path fill-rule="evenodd" clip-rule="evenodd" d="M115.203 82.777l-4.016-12.213 13.6 3.644-9.584 8.569z" fill="#fff"/></svg>