<svg width="140" height="140" fill="none" xmlns="http://www.w3.org/2000/svg"><path d="M70.425 135.672c36.101 0 65.367-29.265 65.367-65.366S106.526 4.939 70.425 4.939c-36.1 0-65.366 29.266-65.366 65.367 0 36.101 29.265 65.366 65.366 65.366z" fill="#009AD6" stroke="#009AD6" stroke-width=".014" stroke-miterlimit="1.5" stroke-linejoin="round"/><path fill-rule="evenodd" clip-rule="evenodd" d="M111.432 58.417c0-6.331-5.14-11.471-11.47-11.471H57.75c-6.33 0-11.47 5.14-11.47 11.47V92.83c0 6.331 5.14 11.471 11.47 11.471h53.682V58.417z" fill="#fff"/><path fill-rule="evenodd" clip-rule="evenodd" d="M41.328 95.932c-6.648-.424-11.916-6-11.916-12.808V44.62c0-7.083 5.704-12.834 12.73-12.834h47.436c6.263 0 11.476 4.57 12.534 10.581a12.275 12.275 0 00-3.046-.381H53.004c-6.822 0-12.361 5.584-12.361 12.462v37.386c0 1.435.241 2.814.685 4.097zm70.091 16.853l-9.119-9.631h9.119v9.631z" fill="#fff"/><path fill-rule="evenodd" clip-rule="evenodd" d="M60.108 79.285h37.767a2.978 2.978 0 002.976-2.976 2.978 2.978 0 00-2.976-2.977H60.108a2.978 2.978 0 00-2.977 2.977 2.978 2.978 0 002.977 2.976zm1.23-11.553h35.295a2.978 2.978 0 002.976-2.976 2.978 2.978 0 00-2.976-2.976H61.338a2.978 2.978 0 00-2.976 2.976 2.978 2.978 0 002.976 2.976zm0 22.354h35.295a2.978 2.978 0 002.976-2.977 2.978 2.978 0 00-2.976-2.976H61.338a2.978 2.978 0 00-2.976 2.977 2.978 2.978 0 002.976 2.976z" fill="#009AD6"/></svg>