<svg width="117" height="114" fill="none" xmlns="http://www.w3.org/2000/svg"><g clip-path="url(#clip0)"><path d="M113.583 56.843c0 31.27-25.47 56.844-56.74 56.844C25.471 113.583 0 88.112 0 56.74 0 25.47 25.47 0 56.843 0c31.27 0 56.74 25.47 56.74 56.843zM8.387 56.74c-.104 26.402 21.122 47.732 47.11 48.456 27.128.725 49.699-21.018 49.699-48.25.104-26.816-21.432-47.834-47.007-48.56C30.648 7.663 8.283 29.924 8.387 56.74z" fill="#004E8F"/><path d="M114.101 76.412c3.624-1.967 3.624-2.381 1.139-5.177-4.97-5.28-9.836-10.664-14.806-15.945-5.695-6.108-11.7-11.803-19.052-15.841-1.346-.725-2.692-1.243-4.141-1.657l.103-.104c2.589-2.38 4.763-4.97 5.488-8.593.31-1.346 1.242-2.278 2.795-2.485 1.14-.207 2.278-.518 3.314-.828v-.829c-1.243-.207-2.589-.31-3.831-.518-1.968-.414-4.038-.517-5.695-1.45-3.21-1.656-6.005-1.449-8.697.726-1.76 1.45-3.52 3.106-5.28 4.555-2.59 2.175-5.074 3.21-7.456 3.003 0 0-.103 0-.103.104-1.968-2.071-4.245-3.417-6.937-4.245-8.077-2.382-16.256-2.796-24.643-2.693-7.248.104-14.495.311-21.847.518-3.727.104-4.038.414-2.899 4.349l23.607-1.864c0 .207.104.414.104.518-7.766 1.035-15.635 2.07-23.4 3.106.207 3.52.31 3.727 3.417 3.106 6.212-1.139 12.424-2.381 18.637-3.624.724-.103 1.45-.103 2.174-.207l.104.621c-7.455 1.76-14.91 3.417-22.365 5.177 1.139 2.485 2.381 3.417 4.97 2.589 5.177-1.76 10.457-3.21 15.634-4.763.829-.207 1.553-.414 2.382-.621.103.207.103.414.207.725-5.902 2.07-11.907 4.245-17.912 6.316 2.277 2.692 3.313 3.002 6.212 1.76 3.21-1.45 6.42-3.106 9.733-4.66.62-.31 1.346-.517 1.967-.828l.31.621c-3.623 2.175-7.144 4.245-10.975 6.523 2.9 1.243 5.28 1.243 7.559-.931 1.76-1.76 3.934-3.21 5.902-4.867l.517.518c-2.174 2.07-4.349 4.038-6.73 6.212 5.488 1.45 6.834-4.038 10.872-5.177-1.45 1.657-2.9 3.313-4.556 4.763-1.76 1.553-1.553 2.796 0 4.349 2.485-2.589 4.97-5.28 7.455-7.87.207.208.414.311.621.518-2.07 2.382-4.038 4.867-6.212 7.145-1.346 1.45-1.45 2.485.828 3.624 2.588-3.21 5.177-6.42 7.87-9.733.206.207.517.414.724.621-2.485 3.313-4.97 6.73-7.662 10.458.932.62 2.485 1.553 4.038 2.484-.31 1.036-.518 2.071-.725 3.003 1.967.828 3.106 2.278 3.728 4.66.724 2.795.828 5.798-.311 8.386-1.967 4.452-4.142 8.905-6.627 13.046-2.588 4.453-5.487 8.801-6.626 13.978-.621 2.589.207 3.935 2.796 3.935.931 0 11.907 2.07 12.631 2.381.311.104.622.207.932.207 1.243.207 1.967-.207 1.967-1.553 0-1.346.104-2.692.207-3.934.311-4.66.311-9.32 1.14-13.875 1.035-5.902 5.176-10.25 8.283-15.013.31-.518 1.346-.725 2.07-1.035 1.76-.829 3.728-1.45 5.281-2.692 2.174-1.864 4.66-3.107 7.248-3.935 1.76 2.588 3.52 5.177 4.452 6.316.725-4.556 1.45-8.697 2.174-12.736.31 0 .622.104.932.104-.517 4.245-1.035 8.387-1.553 12.425 2.485.828 3.106 0 3.21-1.967.207-3.107.517-6.316.828-9.423.31 0 .518 0 .828.104-.103 3.624-.31 7.248-.414 10.872 2.278.103 3.314-.725 3.106-3.003-.103-2.174.208-4.349.311-6.627 1.967 3.624-1.035 8.387 3.831 11.39-.104-3.21-.104-6.213-.207-9.112h.828c.207 2.485.725 5.074.622 7.559 0 3.106 1.656 4.763 4.555 6.005-1.035-4.349-1.967-8.387-2.899-12.425l.621-.207c.311.725.518 1.346.829 2.071 1.139 3.417 2.174 6.834 3.417 10.25 1.035 2.9 1.967 3.417 5.487 3.21-2.692-5.798-5.28-11.596-7.869-17.291l.621-.31c.415.724.932 1.345 1.243 2.174 2.485 4.866 5.073 9.629 7.455 14.599 1.139 2.485 2.795 2.692 5.28 1.76-4.038-6.626-7.972-13.15-11.907-19.673.207-.103.414-.207.518-.31a11.917 11.917 0 011.45 1.76c3.416 5.28 6.833 10.665 10.353 15.945 1.761 2.589 1.968 2.589 4.66.31-4.66-6.315-9.319-12.631-13.978-19.05.207-.104.31-.208.517-.311 5.178 6.316 10.251 12.425 15.221 18.533z" fill="#009BD6"/></g><defs><clipPath id="clip0"><path fill="#fff" d="M0 0h117v113.583H0z"/></clipPath></defs></svg>