<svg width="240" height="240" fill="none" xmlns="http://www.w3.org/2000/svg"><g clip-path="url(#clip0)"><path fill-rule="evenodd" clip-rule="evenodd" d="M207.665 227.93H129.99v91.452l35.95-1.767 3.87-57.598 3.734 57.684 34.121 1.681V227.93z" fill="#67DCFF"/><path fill-rule="evenodd" clip-rule="evenodd" d="M142.055 92.005c-.059 1.705 1.76 3.653 3.461 3.768 9.286.628 42.916.628 52.252 0 1.771-.12 3.947-2.003 3.762-3.768-.932-8.885-3.228-37.161-8.141-48.336-.655-1.488-6.283-16.202-23.802-15.137-11.786.716-18.407 9.03-21.008 14.549-6.551 13.9-6.216 39.94-6.524 48.924z" fill="#00325B"/><path fill-rule="evenodd" clip-rule="evenodd" d="M224.812 142.09h-17.148l.11 53.153h17.038V142.09z" fill="#EECAC5"/><path d="M132.113 142.09h-17.148v77.775h17.148V142.09z" fill="#EEC8C3"/><path fill-rule="evenodd" clip-rule="evenodd" d="M170.785 64.863c4.819 0 8.762 8.929 8.762 19.842v16.115c0 10.913-3.943 19.841-8.762 19.841-4.819 0-8.762-8.928-8.762-19.841V84.705c0-10.913 3.943-19.842 8.762-19.842z" fill="#EECAC5"/><path fill-rule="evenodd" clip-rule="evenodd" d="M192.54 62.58c.131.019.259.04.386.068l.005.002h-.001a5.281 5.281 0 11-4.415 1.032c-.145 1.557.089 3.487 2.077 3.694l-.036-3.044c-.015-1.233 1.139-1.792 1.984-1.752z" fill="#F1D2CE"/><path fill-rule="evenodd" clip-rule="evenodd" d="M170.816 93.224c-8.933 0-21.651-13.13-21.651-24.629V51.883c0-11.907 9.744-21.649 21.649-21.649h.002c11.905 0 21.649 9.742 21.649 21.65v16.388c0 12.603-13.039 24.952-21.649 24.952z" fill="#F1D2CE"/><path fill-rule="evenodd" clip-rule="evenodd" d="M192.183 64.948s-6.568-11.984-7.123-16.886a9.133 9.133 0 01.474-4.08c2.473-7.108 2.959-6.404 2.959-6.404s9.276 4.178 5.147 23.019l-1.457 4.35z" fill="#00325B"/><path fill-rule="evenodd" clip-rule="evenodd" d="M145.873 66.243s23.151-5.37 41.936-15.007c0 0 2.442-6.187 5.582-7.572 0 0-6.283-16.202-23.802-15.137-11.786.716-19.351 8.676-21.008 14.549-.921 3.266-2.708 23.167-2.708 23.167z" fill="#00325B"/><path fill-rule="evenodd" clip-rule="evenodd" d="M133.806 228.407v-74.818l-21.291-.064s.623-8.997 3.355-19.788c1.524-6.018 3.679-13.786 5.377-17.302 2.286-4.739 5.929-6.389 8.12-7.642 1.675-.958 4.819-2.27 4.819-2.27l7.869-3.311 19.968-6.943s1.084 7.252 8.813 7.345l.18-.004c7.605-.218 8.532-7.34 8.532-7.34l15.864 5.136 9.214 3.878s3.144 1.312 4.819 2.27c2.191 1.253 5.834 2.903 8.121 7.642 1.697 3.517 3.852 11.284 5.376 17.303 2.732 10.79 4.16 21.026 4.16 21.026l-20.585.071-1.107-6.499v81.31h-71.604z" fill="#E2F7FF"/><path fill-rule="evenodd" clip-rule="evenodd" d="M183.743 97.75c-2.622 5.35-5.639 9.784-12.854 9.784-5.829 0-9.474-3.151-12.88-9.846l4.015-1.419s1.109 7.252 8.838 7.345l.18-.004c7.605-.218 8.507-7.34 8.507-7.34l4.194 1.48z" fill="#BCEEFF"/><path fill-rule="evenodd" clip-rule="evenodd" d="M224.812 195.22l-16.564-4.439-5.774 53.481 8.581 2.3 13.757-51.342z" fill="#EECAC5"/><path d="M20.859 154.336h-8.683v113.798h8.683V154.336zm129.481 0h-8.682v113.798h8.682V154.336z" fill="#BFBFBF"/><path fill-rule="evenodd" clip-rule="evenodd" d="M149.965 292.124V174.023H12.177v118.101h137.788z" fill="#BFBFBF"/><path d="M146.718 209.59H126.46v62.789h20.258V209.59zm-111.391 0H15.07v62.789h20.257V209.59z" fill="#EECAC5"/><path fill-rule="evenodd" clip-rule="evenodd" d="M81.011 118.359c7.382 0 13.421 10.547 13.421 23.439v19.036c0 12.892-6.04 23.439-13.42 23.439-7.381 0-13.42-10.547-13.42-23.439v-19.036c0-12.892 6.039-23.439 13.42-23.439z" fill="#EECAC5"/><path fill-rule="evenodd" clip-rule="evenodd" d="M106.71 115.725c.154.022.306.048.457.081l.005.001h-.002a6.24 6.24 0 01-1.251 12.333 6.238 6.238 0 01-3.963-11.115c-.172 1.841.105 4.121 2.454 4.366l-.044-3.597c-.017-1.456 1.346-2.116 2.344-2.069zm-50.049-.06c-.154.02-.306.044-.457.074l-.005.002v-.001a6.24 6.24 0 001.08 12.35 6.238 6.238 0 004.118-11.059c.147 1.842-.163 4.119-2.514 4.331l.093-3.596c.038-1.455-1.316-2.134-2.315-2.101z" fill="#F1D2CE"/><path fill-rule="evenodd" clip-rule="evenodd" d="M81.047 151.87c-10.554 0-25.577-15.509-25.577-29.093v-19.742c0-14.066 11.51-25.574 25.574-25.574h.003c14.063 0 25.573 11.508 25.573 25.574v19.359c0 14.888-15.403 29.476-25.573 29.476z" fill="#F1D2CE"/><path fill-rule="evenodd" clip-rule="evenodd" d="M55.566 118.487s10.778-16.37 7.856-24.766c-2.921-8.397-3.494-7.565-3.494-7.565s-10.96 4.935-6.082 27.192l1.72 5.139zm50.721 0s-7.76-14.156-8.415-19.946c-.169-1.487-.037-3.105.56-4.82 2.921-8.397 3.495-7.565 3.495-7.565s10.958 4.935 6.081 27.192l-1.721 5.139z" fill="#CCC"/><path fill-rule="evenodd" clip-rule="evenodd" d="M59.226 100.872s2.785 1.079 13.342-.264c6.232-.794 14.783-2.228 25.237-4.065 5.05-.887 8.986-2.79 9.909-3.197 0 0-2.25-5.361-7.28-10.391s-8.726-3.544-8.726-3.544-2.347-4.54-12.111-3.947c-13.923.846-22.86 10.249-24.816 17.186-1.089 3.859 4.445 8.222 4.445 8.222z" fill="#CCC"/><path fill-rule="evenodd" clip-rule="evenodd" d="M96.928 155.139c-1.412 7.514-8.018 13.197-15.942 13.197-7.735 0-14.215-5.417-15.822-12.666l1.867-.585s4.328 8.877 13.508 9.06c9.435.188 13.906-9.868 13.906-9.868l2.483.862z" fill="#004E8E"/><path fill-rule="evenodd" clip-rule="evenodd" d="M37.328 272.378v-49.219l-25.152-.075s.288-13.271 3.515-26.017c1.8-7.11 4.347-16.286 6.351-20.44 2.702-5.598 7.005-7.546 9.593-9.027 1.979-1.132 5.693-2.681 5.693-2.681l9.053-3.143 21.23-7.499s4.33 9.737 13.46 9.847l.213-.004c8.984-.257 13.246-9.843 13.246-9.843l21.231 7.499 9.053 3.143s3.714 1.549 5.693 2.681c2.587 1.481 6.891 3.429 9.592 9.027 2.005 4.154 4.551 13.33 6.351 20.44 3.228 12.746 3.515 26.017 3.515 26.017l-25.151.075v49.219H37.328z" fill="#CAF1FF"/><path fill-rule="evenodd" clip-rule="evenodd" d="M99.516 156.027c-3.097 6.319-9.858 12.727-18.381 12.727-6.887 0-14.21-4.892-18.235-12.802l4.743-1.675s4.33 9.737 13.46 9.847l.212-.004c8.984-.257 13.246-9.843 13.246-9.843l4.955 1.75z" fill="#CAF1FF"/><path fill-rule="evenodd" clip-rule="evenodd" d="M96.795 137.032c0-4.905-3.982-8.887-8.887-8.887H74.179c-4.905 0-8.887 3.982-8.887 8.887h31.503z" fill="#CCC"/><path fill-rule="evenodd" clip-rule="evenodd" d="M67.359 151.992l-8.253 5.147 15.757 13.852 6.15-6.996-13.654-12.003zm27.503 0l8.252 5.147-15.757 13.852-6.15-6.996 13.655-12.003z" fill="#92E4FF"/></g><defs><clipPath id="clip0"><path fill="#fff" d="M0 0h240v240H0z"/></clipPath></defs></svg>