<svg width="240" height="240" fill="none" xmlns="http://www.w3.org/2000/svg"><g clip-path="url(#clip0)"><path fill-rule="evenodd" clip-rule="evenodd" d="M141.487 95.799c-23.338 13.474-53.224 5.466-66.698-17.872C61.315 54.59 69.323 24.704 92.661 11.23c23.337-13.474 53.223-5.466 66.697 17.871 13.474 23.338 5.466 53.224-17.871 66.698l3.441-1.987 16.771 29.048-9.182 5.301-16.771-29.048 5.741-3.314z" fill="#009AD6"/><path d="M141.487 95.799c-23.338 13.474-53.224 5.466-66.698-17.872C61.315 54.59 69.323 24.704 92.661 11.23c23.337-13.474 53.223-5.466 66.697 17.871 13.474 23.338 5.466 53.224-17.871 66.698zm0 0l3.441-1.987 16.771 29.048-9.182 5.301-16.771-29.048 5.741-3.314v0z" stroke="#009AD6" stroke-width=".008" stroke-miterlimit="1.5" stroke-linejoin="round"/><path d="M225.696 201.68h-13.147v40.75h13.147v-40.75z" fill="#EECAC5"/><path d="M153.406 201.68h-13.147v40.75h13.147v-40.75z" fill="#EEC8C3"/><path fill-rule="evenodd" clip-rule="evenodd" d="M183.055 142.5c4.791 0 8.71 6.845 8.71 15.212v12.355c0 8.366-3.919 15.212-8.71 15.212-4.79 0-8.709-6.846-8.709-15.212v-12.355c0-8.367 3.919-15.212 8.709-15.212z" fill="#EECAC5"/><path fill-rule="evenodd" clip-rule="evenodd" d="M199.742 140.744c.101.014.199.031.297.052l.003.001h-.001a4.05 4.05 0 11-4.909 4.005 4.036 4.036 0 011.525-3.214c-.111 1.194.068 2.674 1.593 2.833l-.028-2.334c-.012-.945.873-1.374 1.52-1.343zm-32.489-.001c-.1.013-.199.029-.297.048l-.003.001a4.048 4.048 0 103.374.837c.095 1.196-.106 2.674-1.632 2.811l.06-2.333c.025-.945-.854-1.386-1.502-1.364z" fill="#F1D2CE"/><path fill-rule="evenodd" clip-rule="evenodd" d="M183.079 164.249c-6.849 0-16.6-10.066-16.6-18.882v-12.813c0-9.129 7.471-16.597 16.598-16.597h.002c9.127 0 16.597 7.468 16.597 16.597v12.565c0 9.662-9.997 19.13-16.597 19.13z" fill="#F1D2CE"/><path fill-rule="evenodd" clip-rule="evenodd" d="M166.548 142.58l1.656-6.708s5.338-3.916 3.442-9.365c-1.896-5.45-2.268-4.91-2.268-4.91s-7.113 3.203-3.947 17.648l1.117 3.335zm32.917 0s-5.035-9.187-5.461-12.945a7.023 7.023 0 01.363-3.128c1.897-5.45 2.269-4.91 2.269-4.91s7.112 3.203 3.946 17.648l-1.117 3.335z" fill="#00325B"/><path fill-rule="evenodd" clip-rule="evenodd" d="M166.482 136.001s14.796.731 29.198-6.656c0 0 2.302-2.03 4.709-3.092 0 0-4.817-12.421-18.248-11.605-9.037.549-14.836 6.652-16.106 11.154-.707 2.504.447 10.199.447 10.199z" fill="#00325B"/><path fill-rule="evenodd" clip-rule="evenodd" d="M193.393 166.38a10.53 10.53 0 01-10.346 8.564c-5.02 0-9.226-3.515-10.269-8.22l1.212-.38s2.809 5.762 8.767 5.881c6.123.121 9.025-6.405 9.025-6.405l1.611.56z" fill="#004E8E"/><path fill-rule="evenodd" clip-rule="evenodd" d="M154.707 242.468v-31.943l-16.323-.049s.186-8.613 2.281-16.885c1.168-4.615 2.821-10.569 4.122-13.266 1.753-3.633 4.546-4.897 6.225-5.858 1.285-.735 3.695-1.74 3.695-1.74l5.875-2.04 13.779-4.867s2.81 6.319 8.735 6.391l.139-.003c5.83-.167 8.597-6.388 8.597-6.388l13.778 4.867 5.876 2.04s2.41 1.005 3.694 1.74c1.68.961 4.473 2.225 6.226 5.858 1.301 2.697 2.954 8.651 4.122 13.266 2.095 8.272 2.281 16.885 2.281 16.885l-16.323.049v31.943h-56.779z" fill="#E2F7FF"/><path fill-rule="evenodd" clip-rule="evenodd" d="M195.063 166.956c-2.01 4.101-6.398 8.26-11.93 8.26-4.469 0-9.223-3.175-11.834-8.309l3.078-1.087s2.81 6.319 8.735 6.391l.138-.003c5.831-.167 8.597-6.388 8.597-6.388l3.216 1.136z" fill="#BCEEFF"/><path d="M100.203 201.68H87.056v40.75h13.147v-40.75z" fill="#EEC8C3"/><path d="M27.913 201.68H14.766v40.75h13.147v-40.75z" fill="#EECAC5"/><path fill-rule="evenodd" clip-rule="evenodd" d="M57.562 142.5c4.79 0 8.71 6.845 8.71 15.212v12.355c0 8.366-3.92 15.212-8.71 15.212-4.79 0-8.71-6.846-8.71-15.212v-12.355c0-8.367 3.92-15.212 8.71-15.212z" fill="#EECAC5"/><path fill-rule="evenodd" clip-rule="evenodd" d="M74.25 140.744c.1.014.198.031.296.052l.003.001a4.05 4.05 0 11-3.384.791c-.112 1.194.067 2.674 1.592 2.833l-.029-2.334c-.011-.945.874-1.374 1.521-1.343zm-32.49-.001c-.1.013-.199.029-.297.048l-.003.001a4.048 4.048 0 103.373.837c.095 1.196-.105 2.674-1.631 2.811l.06-2.333c.025-.945-.854-1.386-1.502-1.364z" fill="#F1D2CE"/><path fill-rule="evenodd" clip-rule="evenodd" d="M57.586 164.249c-6.85 0-16.6-10.066-16.6-18.882v-12.813c0-9.129 7.47-16.597 16.598-16.597h.002c9.127 0 16.597 7.468 16.597 16.597v12.565c0 9.662-9.997 19.13-16.597 19.13z" fill="#F1D2CE"/><path fill-rule="evenodd" clip-rule="evenodd" d="M41.054 142.58l1.657-6.708s5.338-3.916 3.442-9.365c-1.896-5.45-2.268-4.91-2.268-4.91s-7.113 3.203-3.947 17.648l1.116 3.335zm32.918 0s-5.035-9.187-5.461-12.945a7.011 7.011 0 01.363-3.128c1.896-5.45 2.269-4.91 2.269-4.91s7.111 3.203 3.946 17.648l-1.117 3.335z" fill="#00325B"/><path fill-rule="evenodd" clip-rule="evenodd" d="M40.989 136.001s14.796.731 29.198-6.656c0 0 2.301-2.03 4.709-3.092 0 0-4.818-12.421-18.248-11.605-9.037.549-14.837 6.652-16.107 11.154-.706 2.504.448 10.199.448 10.199z" fill="#00325B"/><path fill-rule="evenodd" clip-rule="evenodd" d="M67.9 166.38a10.53 10.53 0 01-10.346 8.564c-5.02 0-9.226-3.515-10.269-8.22l1.212-.38s2.809 5.762 8.767 5.881c6.123.121 9.025-6.405 9.025-6.405l1.611.56z" fill="#004E8E"/><path fill-rule="evenodd" clip-rule="evenodd" d="M29.214 242.468v-31.943l-16.323-.049s.186-8.613 2.28-16.885c1.169-4.615 2.822-10.569 4.123-13.266 1.753-3.633 4.546-4.897 6.225-5.858 1.285-.735 3.695-1.74 3.695-1.74l5.876-2.04 13.778-4.867s2.81 6.319 8.735 6.391l.139-.003c5.83-.167 8.596-6.388 8.596-6.388l13.78 4.867 5.875 2.04s2.41 1.005 3.694 1.74c1.68.961 4.473 2.225 6.226 5.858 1.301 2.697 2.954 8.651 4.122 13.266 2.095 8.272 2.281 16.885 2.281 16.885l-16.323.049v31.943H29.214z" fill="#E2F7FF"/><path fill-rule="evenodd" clip-rule="evenodd" d="M69.57 166.956c-2.01 4.101-6.399 8.26-11.93 8.26-4.47 0-9.223-3.175-11.834-8.309l3.078-1.087s2.81 6.319 8.735 6.391l.138-.003c5.83-.167 8.597-6.388 8.597-6.388l3.216 1.136z" fill="#BCEEFF"/><path d="M161.009 201.68h-13.148v40.75h13.148v-40.75zm-72.29 0H75.57v40.75h13.15v-40.75z" fill="#EECAC5"/><path fill-rule="evenodd" clip-rule="evenodd" d="M118.368 142.5c4.79 0 8.71 6.845 8.71 15.212v12.355c0 8.366-3.92 15.212-8.71 15.212-4.79 0-8.71-6.846-8.71-15.212v-12.355c0-8.367 3.92-15.212 8.71-15.212z" fill="#EECAC5"/><path fill-rule="evenodd" clip-rule="evenodd" d="M135.055 140.744c.1.014.199.031.296.052l.004.001h-.001a4.05 4.05 0 11-3.385.791c-.111 1.194.069 2.674 1.593 2.833l-.028-2.334c-.012-.945.873-1.374 1.521-1.343zm-32.489-.001a4.714 4.714 0 00-.297.048l-.003.001a4.048 4.048 0 103.373.837c.095 1.196-.106 2.674-1.632 2.811l.061-2.333c.024-.945-.854-1.386-1.502-1.364z" fill="#F1D2CE"/><path fill-rule="evenodd" clip-rule="evenodd" d="M118.391 164.249c-6.849 0-16.599-10.066-16.599-18.882v-12.813c0-9.129 7.471-16.597 16.597-16.597h.002c9.127 0 16.598 7.468 16.598 16.597v12.565c0 9.662-9.997 19.13-16.598 19.13z" fill="#F1D2CE"/><path fill-rule="evenodd" clip-rule="evenodd" d="M101.86 142.58l1.657-6.708s5.338-3.916 3.441-9.365c-1.896-5.45-2.268-4.91-2.268-4.91s-7.112 3.203-3.946 17.648l1.116 3.335zm32.918 0s-5.036-9.187-5.462-12.945a7.01 7.01 0 01.364-3.128c1.896-5.45 2.268-4.91 2.268-4.91s7.112 3.203 3.947 17.648l-1.117 3.335z" fill="#00325B"/><path fill-rule="evenodd" clip-rule="evenodd" d="M101.794 136.001s14.797.731 29.199-6.656c0 0 2.301-2.03 4.708-3.092 0 0-4.817-12.421-18.248-11.605-9.036.549-14.836 6.652-16.106 11.154-.706 2.504.447 10.199.447 10.199z" fill="#00325B"/><path fill-rule="evenodd" clip-rule="evenodd" d="M128.706 166.38a10.53 10.53 0 01-10.346 8.564c-5.02 0-9.226-3.515-10.269-8.22l1.212-.38s2.809 5.762 8.766 5.881c6.124.121 9.026-6.405 9.026-6.405l1.611.56z" fill="#004E8E"/><path fill-rule="evenodd" clip-rule="evenodd" d="M90.02 242.468v-31.943l-16.324-.049s.187-8.613 2.281-16.885c1.169-4.615 2.821-10.569 4.122-13.266 1.754-3.633 4.546-4.897 6.226-5.858 1.284-.735 3.695-1.74 3.695-1.74l5.875-2.04 13.779-4.867s2.81 6.319 8.735 6.391l.138-.003c5.831-.167 8.597-6.388 8.597-6.388l13.779 4.867 5.876 2.04s2.41 1.005 3.694 1.74c1.68.961 4.473 2.225 6.226 5.858 1.301 2.697 2.953 8.651 4.122 13.266 2.094 8.272 2.281 16.885 2.281 16.885l-16.323.049v31.943h-56.78z" fill="#CAF1FF"/><path fill-rule="evenodd" clip-rule="evenodd" d="M130.375 166.956c-2.01 4.101-6.398 8.26-11.93 8.26-4.469 0-9.222-3.175-11.834-8.309l3.079-1.087s2.809 6.319 8.735 6.391l.138-.003c5.83-.167 8.597-6.388 8.597-6.388l3.215 1.136z" fill="#92E4FF"/><path fill-rule="evenodd" clip-rule="evenodd" d="M93.745 7.831c23.337-13.474 53.223-5.466 66.697 17.872 13.474 23.337 5.466 53.223-17.871 66.697-23.338 13.474-53.224 5.466-66.698-17.871C62.4 51.19 70.407 21.305 93.745 7.83z" fill="#fff" stroke="#009AD6" stroke-width=".008" stroke-miterlimit="1.5" stroke-linejoin="round"/><path clip-rule="evenodd" d="M97.643 14.58c19.615-11.324 44.734-4.593 56.058 15.021 11.325 19.615 4.594 44.734-15.02 56.058-19.615 11.325-44.734 4.594-56.058-15.02-11.325-19.615-4.594-44.734 15.02-56.058v0z" stroke="#009AD6" stroke-width=".012" stroke-miterlimit="1.5" stroke-linejoin="round"/><path fill-rule="evenodd" clip-rule="evenodd" d="M146.013 90.41l-9.182 5.301 10.251 17.755 9.182-5.301-10.251-17.755z" fill="#fff" stroke="#009AD6" stroke-width=".008" stroke-miterlimit="1.5" stroke-linejoin="round"/><path fill-rule="evenodd" clip-rule="evenodd" d="M151.14 99.316l-9.182 5.301 11.646 20.171 9.182-5.301-11.646-20.17z" fill="#fff" stroke="#009AD6" stroke-width=".008" stroke-miterlimit="1.5" stroke-linejoin="round"/><path fill-rule="evenodd" clip-rule="evenodd" d="M117.779 70.185v-9.53a.714.714 0 00-1.426 0v9.53a.713.713 0 101.426 0z" fill="#CCC"/><path d="M117.069 73.445a2.123 2.123 0 100-4.245 2.123 2.123 0 000 4.245z" fill="#CCC"/><path fill-rule="evenodd" clip-rule="evenodd" d="M97.761 36.12l8.905 8.905a.943.943 0 001.333-1.332l-8.905-8.905a.943.943 0 00-1.333 1.332zM99.9 67.232l8.905-8.905a.943.943 0 00-1.333-1.333L98.567 65.9a.943.943 0 001.333 1.332z" fill="#CCC"/><path fill-rule="evenodd" clip-rule="evenodd" d="M95.333 32.345a2.807 2.807 0 000 3.967 2.807 2.807 0 003.968 0 2.808 2.808 0 000-3.967 2.807 2.807 0 00-3.968 0z" fill="#CCC"/><path d="M117.072 68.235c9.943 0 18.004-8.06 18.004-18.004s-8.061-18.004-18.004-18.004c-9.944 0-18.005 8.06-18.005 18.004 0 9.943 8.061 18.004 18.005 18.004z" fill="#CCC"/><path d="M109.331 46.366a2.94 2.94 0 100-5.878 2.94 2.94 0 000 5.878zm-2.537 9.019a1.735 1.735 0 100-3.47 1.735 1.735 0 000 3.47zm11.383 7.122a4.066 4.066 0 100-8.131 4.066 4.066 0 000 8.13zm4.315-22.045a1.803 1.803 0 100-3.606 1.803 1.803 0 000 3.606zm-2.444 8.91a2.977 2.977 0 100-5.954 2.977 2.977 0 000 5.954zm8.077 5.022a2.94 2.94 0 100-5.879 2.94 2.94 0 000 5.879z" fill="#A6A6A6"/><path fill-rule="evenodd" clip-rule="evenodd" d="M96.139 69.652a2.806 2.806 0 113.967 0 2.807 2.807 0 01-3.967 0zm-.548-20.316h9.531a.714.714 0 010 1.426h-9.53a.714.714 0 010-1.426z" fill="#CCC"/><path fill-rule="evenodd" clip-rule="evenodd" d="M92.285 50.053a2.124 2.124 0 004.246 0 2.124 2.124 0 00-4.246 0zm43.341-19.25l-8.905 8.905a.943.943 0 001.333 1.333l8.905-8.905a.943.943 0 00-1.333-1.333zm6.629 18.533h-9.53a.713.713 0 000 1.426h9.53a.713.713 0 000-1.426zm-5.369 18.79l-8.905-8.905a.943.943 0 00-1.333 1.333l8.905 8.905a.943.943 0 001.333-1.333z" fill="#CCC"/><path fill-rule="evenodd" clip-rule="evenodd" d="M139.393 28.36a2.806 2.806 0 11-3.967 3.965 2.806 2.806 0 013.967-3.965zm6.181 21.693a2.124 2.124 0 11-4.248-.002 2.124 2.124 0 014.248.002zm-29.221-24.027v9.53a.713.713 0 001.426 0v-9.53a.714.714 0 00-1.426 0z" fill="#CCC"/><path d="M117.069 26.98a2.123 2.123 0 100-4.245 2.123 2.123 0 000 4.245z" fill="#CCC"/><path fill-rule="evenodd" clip-rule="evenodd" d="M139.32 71.879a2.807 2.807 0 00-3.968-3.968 2.809 2.809 0 000 3.968 2.808 2.808 0 003.968 0z" fill="#CCC"/><path fill-rule="evenodd" clip-rule="evenodd" d="M141.487 95.799c-23.338 13.474-53.224 5.466-66.698-17.872C61.315 54.59 69.323 24.704 92.661 11.23c23.337-13.474 53.223-5.466 66.697 17.871 13.474 23.338 5.466 53.224-17.871 66.698l3.441-1.987 16.771 29.048-9.182 5.301-16.771-29.048 5.741-3.314z" fill="#009AD6"/><path d="M141.487 95.799c-23.338 13.474-53.224 5.466-66.698-17.872C61.315 54.59 69.323 24.704 92.661 11.23c23.337-13.474 53.223-5.466 66.697 17.871 13.474 23.338 5.466 53.224-17.871 66.698zm0 0l3.441-1.987 16.771 29.048-9.182 5.301-16.771-29.048 5.741-3.314v0z" stroke="#009AD6" stroke-width=".008" stroke-miterlimit="1.5" stroke-linejoin="round"/><path fill-rule="evenodd" clip-rule="evenodd" d="M93.745 7.831c23.337-13.474 53.223-5.466 66.697 17.872 13.474 23.337 5.466 53.223-17.871 66.697-23.338 13.474-53.224 5.466-66.698-17.871C62.4 51.19 70.407 21.305 93.745 7.83z" fill="#fff" stroke="#009AD6" stroke-width=".008" stroke-miterlimit="1.5" stroke-linejoin="round"/><path clip-rule="evenodd" d="M97.643 14.58c19.615-11.324 44.734-4.593 56.058 15.021 11.325 19.615 4.594 44.734-15.02 56.058-19.615 11.325-44.734 4.594-56.058-15.02-11.325-19.615-4.594-44.734 15.02-56.058v0z" stroke="#009AD6" stroke-width=".012" stroke-miterlimit="1.5" stroke-linejoin="round"/><path fill-rule="evenodd" clip-rule="evenodd" d="M146.013 90.41l-9.182 5.301 10.251 17.755 9.182-5.301-10.251-17.755z" fill="#fff" stroke="#009AD6" stroke-width=".008" stroke-miterlimit="1.5" stroke-linejoin="round"/><path fill-rule="evenodd" clip-rule="evenodd" d="M151.14 99.316l-9.182 5.301 11.646 20.171 9.182-5.301-11.646-20.17z" fill="#fff" stroke="#009AD6" stroke-width=".008" stroke-miterlimit="1.5" stroke-linejoin="round"/><path fill-rule="evenodd" clip-rule="evenodd" d="M117.779 70.185v-9.53a.714.714 0 00-1.426 0v9.53a.713.713 0 101.426 0z" fill="#CCC"/><path d="M117.069 73.445a2.123 2.123 0 100-4.245 2.123 2.123 0 000 4.245z" fill="#CCC"/><path fill-rule="evenodd" clip-rule="evenodd" d="M97.761 36.12l8.905 8.905a.943.943 0 001.333-1.332l-8.905-8.905a.943.943 0 00-1.333 1.332zM99.9 67.232l8.905-8.905a.943.943 0 00-1.333-1.333L98.567 65.9a.943.943 0 001.333 1.332z" fill="#CCC"/><path fill-rule="evenodd" clip-rule="evenodd" d="M95.333 32.345a2.807 2.807 0 000 3.967 2.807 2.807 0 003.968 0 2.808 2.808 0 000-3.967 2.807 2.807 0 00-3.968 0z" fill="#CCC"/><path d="M117.072 68.235c9.943 0 18.004-8.06 18.004-18.004s-8.061-18.004-18.004-18.004c-9.944 0-18.005 8.06-18.005 18.004 0 9.943 8.061 18.004 18.005 18.004z" fill="#CCC"/><path d="M109.331 46.366a2.94 2.94 0 100-5.878 2.94 2.94 0 000 5.878zm-2.537 9.019a1.735 1.735 0 100-3.47 1.735 1.735 0 000 3.47zm11.383 7.122a4.066 4.066 0 100-8.131 4.066 4.066 0 000 8.13zm4.315-22.045a1.803 1.803 0 100-3.606 1.803 1.803 0 000 3.606zm-2.444 8.91a2.977 2.977 0 100-5.954 2.977 2.977 0 000 5.954zm8.077 5.022a2.94 2.94 0 100-5.879 2.94 2.94 0 000 5.879z" fill="#A6A6A6"/><path fill-rule="evenodd" clip-rule="evenodd" d="M96.139 69.652a2.806 2.806 0 113.967 0 2.807 2.807 0 01-3.967 0zm-.548-20.316h9.531a.714.714 0 010 1.426h-9.53a.714.714 0 010-1.426z" fill="#CCC"/><path fill-rule="evenodd" clip-rule="evenodd" d="M92.285 50.053a2.124 2.124 0 004.246 0 2.124 2.124 0 00-4.246 0zm43.341-19.25l-8.905 8.905a.943.943 0 001.333 1.333l8.905-8.905a.943.943 0 00-1.333-1.333zm6.629 18.533h-9.53a.713.713 0 000 1.426h9.53a.713.713 0 000-1.426zm-5.369 18.79l-8.905-8.905a.943.943 0 00-1.333 1.333l8.905 8.905a.943.943 0 001.333-1.333z" fill="#CCC"/><path fill-rule="evenodd" clip-rule="evenodd" d="M139.393 28.36a2.806 2.806 0 11-3.967 3.965 2.806 2.806 0 013.967-3.965zm6.181 21.693a2.124 2.124 0 11-4.248-.002 2.124 2.124 0 014.248.002zm-29.221-24.027v9.53a.713.713 0 001.426 0v-9.53a.714.714 0 00-1.426 0z" fill="#CCC"/><path d="M117.069 26.98a2.123 2.123 0 100-4.245 2.123 2.123 0 000 4.245z" fill="#CCC"/><path fill-rule="evenodd" clip-rule="evenodd" d="M139.32 71.879a2.807 2.807 0 00-3.968-3.968 2.809 2.809 0 000 3.968 2.808 2.808 0 003.968 0z" fill="#CCC"/><path fill-rule="evenodd" clip-rule="evenodd" d="M141.487 95.799c-23.338 13.474-53.224 5.466-66.698-17.872C61.315 54.59 69.323 24.704 92.661 11.23c23.337-13.474 53.223-5.466 66.697 17.871 13.474 23.338 5.466 53.224-17.871 66.698l3.441-1.987 16.771 29.048-9.182 5.301-16.771-29.048 5.741-3.314z" fill="#009AD6"/><path d="M141.487 95.799c-23.338 13.474-53.224 5.466-66.698-17.872C61.315 54.59 69.323 24.704 92.661 11.23c23.337-13.474 53.223-5.466 66.697 17.871 13.474 23.338 5.466 53.224-17.871 66.698zm0 0l3.441-1.987 16.771 29.048-9.182 5.301-16.771-29.048 5.741-3.314v0z" stroke="#009AD6" stroke-width=".008" stroke-miterlimit="1.5" stroke-linejoin="round"/><path fill-rule="evenodd" clip-rule="evenodd" d="M93.745 7.831c23.337-13.474 53.223-5.466 66.697 17.872 13.474 23.337 5.466 53.223-17.871 66.697-23.338 13.474-53.224 5.466-66.698-17.871C62.4 51.19 70.407 21.305 93.745 7.83z" fill="#fff"/><path fill-rule="evenodd" clip-rule="evenodd" d="M93.246 6.968C69.433 20.717 61.262 51.212 75.01 75.025c13.749 23.813 44.244 31.984 68.057 18.236 23.813-13.749 31.984-44.244 18.236-68.057C147.554 1.391 117.059-6.78 93.246 6.968zm.995 1.724c22.862-13.2 52.139-5.355 65.338 17.507 13.2 22.862 5.355 52.14-17.507 65.338-22.862 13.2-52.139 5.355-65.338-17.507-13.2-22.862-5.355-52.139 17.507-65.338z" fill="#009AD6"/><path fill-rule="evenodd" clip-rule="evenodd" d="M96.895 13.257C76.567 24.994 69.592 51.026 81.328 71.354c11.737 20.328 37.769 27.303 58.097 15.567 20.328-11.736 27.304-37.769 15.567-58.097-11.736-20.328-37.768-27.303-58.097-15.567zm1.493 2.585c18.901-10.912 43.107-4.427 54.019 14.475 10.913 18.901 4.427 43.106-14.474 54.019-18.901 10.913-43.107 4.427-54.02-14.474-10.912-18.902-4.426-43.107 14.475-54.02z" fill="#009AD6"/><path fill-rule="evenodd" clip-rule="evenodd" d="M146.013 90.41l-9.182 5.301 10.251 17.755 9.182-5.301-10.251-17.755z" fill="#fff"/><path fill-rule="evenodd" clip-rule="evenodd" d="M146.874 89.912a.995.995 0 00-1.359-.365l-9.182 5.302a.996.996 0 00-.365 1.359l10.251 17.755a.995.995 0 001.359.364l9.182-5.301a.996.996 0 00.364-1.36l-10.25-17.754zm-8.685 6.162l9.256 16.032 7.458-4.306-9.255-16.032-7.459 4.306z" fill="#009AD6"/><path fill-rule="evenodd" clip-rule="evenodd" d="M151.14 99.316l-9.182 5.301 11.646 20.171 9.182-5.301-11.646-20.17z" fill="#fff"/><path fill-rule="evenodd" clip-rule="evenodd" d="M152.001 98.818a.996.996 0 00-1.36-.364l-9.181 5.301a.996.996 0 00-.365 1.359l11.646 20.171a.994.994 0 001.359.364l9.182-5.301a.994.994 0 00.364-1.359l-11.645-20.171zm-8.685 6.163l10.651 18.447 7.458-4.306-10.65-18.447-7.459 4.306z" fill="#009AD6"/><path fill-rule="evenodd" clip-rule="evenodd" d="M117.779 70.185v-9.53a.714.714 0 00-1.426 0v9.53a.713.713 0 101.426 0z" fill="#CCC"/><path d="M117.069 73.445a2.123 2.123 0 100-4.245 2.123 2.123 0 000 4.245z" fill="#CCC"/><path fill-rule="evenodd" clip-rule="evenodd" d="M97.761 36.12l8.905 8.905a.943.943 0 001.333-1.332l-8.905-8.905a.943.943 0 00-1.333 1.332zM99.9 67.232l8.905-8.905a.943.943 0 00-1.333-1.333L98.567 65.9a.943.943 0 001.333 1.332z" fill="#CCC"/><path fill-rule="evenodd" clip-rule="evenodd" d="M95.333 32.345a2.807 2.807 0 000 3.967 2.807 2.807 0 003.968 0 2.808 2.808 0 000-3.967 2.807 2.807 0 00-3.968 0z" fill="#CCC"/><path d="M117.072 68.235c9.943 0 18.004-8.06 18.004-18.004s-8.061-18.004-18.004-18.004c-9.944 0-18.005 8.06-18.005 18.004 0 9.943 8.061 18.004 18.005 18.004z" fill="#CCC"/><path d="M109.331 46.366a2.94 2.94 0 100-5.878 2.94 2.94 0 000 5.878zm-2.537 9.019a1.735 1.735 0 100-3.47 1.735 1.735 0 000 3.47zm11.383 7.122a4.066 4.066 0 100-8.131 4.066 4.066 0 000 8.13zm4.315-22.045a1.803 1.803 0 100-3.606 1.803 1.803 0 000 3.606zm-2.444 8.91a2.977 2.977 0 100-5.954 2.977 2.977 0 000 5.954zm8.077 5.022a2.94 2.94 0 100-5.879 2.94 2.94 0 000 5.879z" fill="#A6A6A6"/><path fill-rule="evenodd" clip-rule="evenodd" d="M96.139 69.652a2.806 2.806 0 113.967 0 2.807 2.807 0 01-3.967 0zm-.548-20.316h9.531a.714.714 0 010 1.426h-9.53a.714.714 0 010-1.426z" fill="#CCC"/><path fill-rule="evenodd" clip-rule="evenodd" d="M92.285 50.053a2.124 2.124 0 004.246 0 2.124 2.124 0 00-4.246 0zm43.341-19.25l-8.905 8.905a.943.943 0 001.333 1.333l8.905-8.905a.943.943 0 00-1.333-1.333zm6.629 18.533h-9.53a.713.713 0 000 1.426h9.53a.713.713 0 000-1.426zm-5.369 18.79l-8.905-8.905a.943.943 0 00-1.333 1.333l8.905 8.905a.943.943 0 001.333-1.333z" fill="#CCC"/><path fill-rule="evenodd" clip-rule="evenodd" d="M139.393 28.36a2.806 2.806 0 11-3.967 3.965 2.806 2.806 0 013.967-3.965zm6.181 21.693a2.124 2.124 0 11-4.248-.002 2.124 2.124 0 014.248.002zm-29.221-24.027v9.53a.713.713 0 001.426 0v-9.53a.714.714 0 00-1.426 0z" fill="#CCC"/><path d="M117.069 26.98a2.123 2.123 0 100-4.245 2.123 2.123 0 000 4.245z" fill="#CCC"/><path fill-rule="evenodd" clip-rule="evenodd" d="M139.32 71.879a2.807 2.807 0 00-3.968-3.968 2.809 2.809 0 000 3.968 2.808 2.808 0 003.968 0z" fill="#CCC"/></g><defs><clipPath id="clip0"><path fill="#fff" d="M0 0h240v240H0z"/></clipPath></defs></svg>