<svg width="240" height="240" viewBox="0 0 240 240" fill="none" xmlns="http://www.w3.org/2000/svg">
<g clip-path="url(#clip0)">
<path fill-rule="evenodd" clip-rule="evenodd" d="M141.487 95.7988C118.149 109.273 88.2632 101.265 74.7893 77.9273C61.3154 54.5897 69.3232 24.7036 92.6608 11.2297C115.998 -2.24421 145.884 5.76368 159.358 29.1012C172.832 52.4388 164.824 82.3249 141.487 95.7988L144.928 93.8119L161.699 122.86L152.517 128.161L135.746 99.1129L141.487 95.7988Z" fill="#009AD6"/>
<path d="M141.487 95.7988C118.149 109.273 88.2632 101.265 74.7893 77.9273C61.3154 54.5897 69.3232 24.7036 92.6608 11.2297C115.998 -2.24421 145.884 5.76368 159.358 29.1012C172.832 52.4388 164.824 82.3249 141.487 95.7988ZM141.487 95.7988L144.928 93.8119L161.699 122.86L152.517 128.161L135.746 99.1129L141.487 95.7988V95.7988Z" stroke="#009AD6" stroke-width="0.00828856" stroke-miterlimit="1.5" stroke-linejoin="round"/>
<path d="M225.696 201.68H212.549V242.43H225.696V201.68Z" fill="#EECAC5"/>
<path d="M153.406 201.68H140.259V242.43H153.406V201.68Z" fill="#EEC8C3"/>
<path fill-rule="evenodd" clip-rule="evenodd" d="M183.055 142.5C187.846 142.5 191.765 149.345 191.765 157.712V170.067C191.765 178.433 187.846 185.279 183.055 185.279C178.265 185.279 174.346 178.433 174.346 170.067V157.712C174.346 149.345 178.265 142.5 183.055 142.5Z" fill="#EECAC5"/>
<path fill-rule="evenodd" clip-rule="evenodd" d="M199.742 140.744C199.843 140.758 199.941 140.775 200.039 140.796L200.042 140.797L200.041 140.797C201.845 141.188 203.205 142.781 203.229 144.705C203.255 146.94 201.464 148.774 199.229 148.801C196.993 148.828 195.159 147.037 195.132 144.802C195.116 143.503 195.714 142.339 196.657 141.588C196.546 142.782 196.725 144.262 198.25 144.421L198.222 142.087C198.21 141.142 199.095 140.713 199.742 140.744Z" fill="#F1D2CE"/>
<path fill-rule="evenodd" clip-rule="evenodd" d="M167.253 140.743C167.153 140.756 167.054 140.772 166.956 140.791L166.953 140.792V140.792C165.145 141.158 163.763 142.732 163.712 144.655C163.655 146.89 165.42 148.749 167.655 148.806C169.889 148.865 171.749 147.099 171.807 144.865C171.841 143.566 171.259 142.394 170.327 141.629C170.422 142.825 170.221 144.303 168.695 144.44L168.755 142.107C168.78 141.162 167.901 140.721 167.253 140.743Z" fill="#F1D2CE"/>
<path fill-rule="evenodd" clip-rule="evenodd" d="M183.079 164.249C176.23 164.249 166.479 154.183 166.479 145.367V132.554C166.479 123.425 173.95 115.957 183.077 115.957H183.079C192.206 115.957 199.676 123.425 199.676 132.554V145.119C199.676 154.781 189.679 164.249 183.079 164.249Z" fill="#F1D2CE"/>
<path fill-rule="evenodd" clip-rule="evenodd" d="M166.548 142.58L168.204 135.872C168.204 135.872 173.542 131.956 171.646 126.507C169.75 121.057 169.378 121.597 169.378 121.597C169.378 121.597 162.265 124.8 165.431 139.245L166.548 142.58Z" fill="#00325B"/>
<path fill-rule="evenodd" clip-rule="evenodd" d="M199.465 142.58C199.465 142.58 194.43 133.393 194.004 129.635C193.895 128.67 193.98 127.62 194.367 126.507C196.264 121.057 196.636 121.597 196.636 121.597C196.636 121.597 203.748 124.8 200.582 139.245L199.465 142.58Z" fill="#00325B"/>
<path fill-rule="evenodd" clip-rule="evenodd" d="M166.482 136.001C166.482 136.001 181.278 136.732 195.68 129.345C195.68 129.345 197.982 127.315 200.389 126.253C200.389 126.253 195.572 113.832 182.141 114.648C173.104 115.197 167.305 121.3 166.035 125.802C165.328 128.306 166.482 136.001 166.482 136.001Z" fill="#00325B"/>
<path fill-rule="evenodd" clip-rule="evenodd" d="M193.393 166.38C192.477 171.256 188.19 174.944 183.047 174.944C178.027 174.944 173.821 171.429 172.778 166.724L173.99 166.344C173.99 166.344 176.799 172.106 182.757 172.225C188.88 172.346 191.782 165.82 191.782 165.82L193.393 166.38Z" fill="#004E8E"/>
<path fill-rule="evenodd" clip-rule="evenodd" d="M154.707 242.468V210.525L138.384 210.476C138.384 210.476 138.57 201.863 140.665 193.591C141.833 188.976 143.486 183.022 144.787 180.325C146.54 176.692 149.333 175.428 151.012 174.467C152.297 173.732 154.707 172.727 154.707 172.727L160.582 170.687L174.361 165.82C174.361 165.82 177.171 172.139 183.096 172.211L183.235 172.208C189.065 172.041 191.832 165.82 191.832 165.82L205.61 170.687L211.486 172.727C211.486 172.727 213.896 173.732 215.18 174.467C216.86 175.428 219.653 176.692 221.406 180.325C222.707 183.022 224.36 188.976 225.528 193.591C227.623 201.863 227.809 210.476 227.809 210.476L211.486 210.525V242.468H154.707Z" fill="#E2F7FF"/>
<path fill-rule="evenodd" clip-rule="evenodd" d="M195.063 166.956C193.053 171.057 188.665 175.216 183.133 175.216C178.664 175.216 173.91 172.041 171.299 166.907L174.377 165.82C174.377 165.82 177.187 172.139 183.112 172.211L183.25 172.208C189.081 172.041 191.847 165.82 191.847 165.82L195.063 166.956Z" fill="#BCEEFF"/>
<path d="M100.203 201.68H87.0557V242.43H100.203V201.68Z" fill="#EEC8C3"/>
<path d="M27.9131 201.68H14.7656V242.43H27.9131V201.68Z" fill="#EECAC5"/>
<path fill-rule="evenodd" clip-rule="evenodd" d="M57.562 142.5C62.3525 142.5 66.2722 149.345 66.2722 157.712V170.067C66.2722 178.433 62.3525 185.279 57.562 185.279C52.7721 185.279 48.8525 178.433 48.8525 170.067V157.712C48.8525 149.345 52.7721 142.5 57.562 142.5Z" fill="#EECAC5"/>
<path fill-rule="evenodd" clip-rule="evenodd" d="M74.2494 140.744C74.3497 140.758 74.4481 140.775 74.5458 140.796L74.5491 140.797L74.5481 140.797C76.3518 141.188 77.7118 142.781 77.7355 144.705C77.7617 146.94 75.9712 148.774 73.736 148.801C71.5003 148.828 69.666 147.037 69.639 144.802C69.6225 143.503 70.221 142.339 71.164 141.588C71.0527 142.782 71.2323 144.262 72.7566 144.421L72.7284 142.087C72.717 141.142 73.6015 140.713 74.2494 140.744Z" fill="#F1D2CE"/>
<path fill-rule="evenodd" clip-rule="evenodd" d="M41.7599 140.743C41.6594 140.756 41.561 140.772 41.4631 140.791L41.46 140.792V140.792C39.6517 141.158 38.27 142.732 38.2192 144.655C38.1614 146.89 39.9271 148.749 42.1614 148.806C44.3963 148.865 46.2557 147.099 46.3132 144.865C46.3476 143.566 45.7657 142.394 44.8334 141.629C44.9284 142.825 44.7276 144.303 43.2016 144.44L43.262 142.107C43.2866 141.162 42.4083 140.721 41.7599 140.743Z" fill="#F1D2CE"/>
<path fill-rule="evenodd" clip-rule="evenodd" d="M57.5857 164.249C50.7365 164.249 40.9863 154.183 40.9863 145.367V132.554C40.9863 123.425 48.4567 115.957 57.5838 115.957H57.5857C66.7127 115.957 74.183 123.425 74.183 132.554V145.119C74.183 154.781 64.1861 164.249 57.5857 164.249Z" fill="#F1D2CE"/>
<path fill-rule="evenodd" clip-rule="evenodd" d="M41.0545 142.58L42.7113 135.872C42.7113 135.872 48.0491 131.956 46.1525 126.507C44.2566 121.057 43.8848 121.597 43.8848 121.597C43.8848 121.597 36.772 124.8 39.9381 139.245L41.0545 142.58Z" fill="#00325B"/>
<path fill-rule="evenodd" clip-rule="evenodd" d="M73.972 142.58C73.972 142.58 68.9365 133.393 68.5108 129.635C68.4014 128.67 68.4866 127.62 68.874 126.507C70.7703 121.057 71.1426 121.597 71.1426 121.597C71.1426 121.597 78.2545 124.8 75.0889 139.245L73.972 142.58Z" fill="#00325B"/>
<path fill-rule="evenodd" clip-rule="evenodd" d="M40.9887 136.001C40.9887 136.001 55.7851 136.732 70.1871 129.345C70.1871 129.345 72.4884 127.315 74.8956 126.253C74.8956 126.253 70.0784 113.832 56.6475 114.648C47.6115 115.197 41.8114 121.3 40.5415 125.802C39.8351 128.306 40.9887 136.001 40.9887 136.001Z" fill="#00325B"/>
<path fill-rule="evenodd" clip-rule="evenodd" d="M67.9003 166.38C66.9843 171.256 62.6965 174.944 57.5541 174.944C52.5339 174.944 48.3283 171.429 47.2852 166.724L48.4969 166.344C48.4969 166.344 51.3059 172.106 57.2637 172.225C63.3871 172.346 66.2893 165.82 66.2893 165.82L67.9003 166.38Z" fill="#004E8E"/>
<path fill-rule="evenodd" clip-rule="evenodd" d="M29.214 242.468V210.525L12.8906 210.476C12.8906 210.476 13.0771 201.863 15.1717 193.591C16.3399 188.976 17.9925 183.022 19.2937 180.325C21.0468 176.692 23.8396 175.428 25.5194 174.467C26.8035 173.732 29.214 172.727 29.214 172.727L35.0896 170.687L48.8682 165.82C48.8682 165.82 51.6782 172.139 57.6035 172.211L57.7417 172.208C63.5722 172.041 66.3385 165.82 66.3385 165.82L80.1174 170.687L85.9927 172.727C85.9927 172.727 88.4032 173.732 89.6873 174.467C91.3671 175.428 94.1599 176.692 95.9132 180.325C97.2142 183.022 98.8668 188.976 100.035 193.591C102.13 201.863 102.316 210.476 102.316 210.476L85.9927 210.525V242.468H29.214Z" fill="#E2F7FF"/>
<path fill-rule="evenodd" clip-rule="evenodd" d="M69.5695 166.956C67.5595 171.057 63.1714 175.216 57.6397 175.216C53.1704 175.216 48.4172 172.041 45.8057 166.907L48.8836 165.82C48.8836 165.82 51.6937 172.139 57.6187 172.211L57.7572 172.208C63.5876 172.041 66.354 165.82 66.354 165.82L69.5695 166.956Z" fill="#BCEEFF"/>
<path d="M161.009 201.68H147.861V242.43H161.009V201.68Z" fill="#EECAC5"/>
<path d="M88.7188 201.68H75.5713V242.43H88.7188V201.68Z" fill="#EECAC5"/>
<path fill-rule="evenodd" clip-rule="evenodd" d="M118.368 142.5C123.158 142.5 127.078 149.345 127.078 157.712V170.067C127.078 178.433 123.158 185.279 118.368 185.279C113.578 185.279 109.658 178.433 109.658 170.067V157.712C109.658 149.345 113.578 142.5 118.368 142.5Z" fill="#EECAC5"/>
<path fill-rule="evenodd" clip-rule="evenodd" d="M135.055 140.744C135.155 140.758 135.254 140.775 135.351 140.796L135.355 140.797L135.354 140.797C137.157 141.188 138.517 142.781 138.541 144.705C138.567 146.94 136.777 148.774 134.541 148.801C132.306 148.828 130.471 147.037 130.445 144.802C130.428 143.503 131.027 142.339 131.969 141.588C131.858 142.782 132.038 144.262 133.562 144.421L133.534 142.087C133.522 141.142 134.407 140.713 135.055 140.744Z" fill="#F1D2CE"/>
<path fill-rule="evenodd" clip-rule="evenodd" d="M102.566 140.743C102.465 140.756 102.367 140.772 102.269 140.791L102.266 140.792V140.792C100.457 141.158 99.0757 142.732 99.0248 144.655C98.9673 146.89 100.733 148.749 102.967 148.806C105.202 148.865 107.061 147.099 107.119 144.865C107.153 143.566 106.571 142.394 105.639 141.629C105.734 142.825 105.533 144.303 104.007 144.44L104.068 142.107C104.092 141.162 103.214 140.721 102.566 140.743Z" fill="#F1D2CE"/>
<path fill-rule="evenodd" clip-rule="evenodd" d="M118.391 164.249C111.542 164.249 101.792 154.183 101.792 145.367V132.554C101.792 123.425 109.263 115.957 118.389 115.957H118.391C127.518 115.957 134.989 123.425 134.989 132.554V145.119C134.989 154.781 124.992 164.249 118.391 164.249Z" fill="#F1D2CE"/>
<path fill-rule="evenodd" clip-rule="evenodd" d="M101.86 142.58L103.517 135.872C103.517 135.872 108.855 131.956 106.958 126.507C105.062 121.057 104.69 121.597 104.69 121.597C104.69 121.597 97.5778 124.8 100.744 139.245L101.86 142.58Z" fill="#00325B"/>
<path fill-rule="evenodd" clip-rule="evenodd" d="M134.778 142.58C134.778 142.58 129.742 133.393 129.316 129.635C129.207 128.67 129.292 127.62 129.68 126.507C131.576 121.057 131.948 121.597 131.948 121.597C131.948 121.597 139.06 124.8 135.895 139.245L134.778 142.58Z" fill="#00325B"/>
<path fill-rule="evenodd" clip-rule="evenodd" d="M101.794 136.001C101.794 136.001 116.591 136.732 130.993 129.345C130.993 129.345 133.294 127.315 135.701 126.253C135.701 126.253 130.884 113.832 117.453 114.648C108.417 115.197 102.617 121.3 101.347 125.802C100.641 128.306 101.794 136.001 101.794 136.001Z" fill="#00325B"/>
<path fill-rule="evenodd" clip-rule="evenodd" d="M128.706 166.38C127.79 171.256 123.502 174.944 118.36 174.944C113.34 174.944 109.134 171.429 108.091 166.724L109.303 166.344C109.303 166.344 112.112 172.106 118.069 172.225C124.193 172.346 127.095 165.82 127.095 165.82L128.706 166.38Z" fill="#004E8E"/>
<path fill-rule="evenodd" clip-rule="evenodd" d="M90.0196 242.468V210.525L73.6963 210.476C73.6963 210.476 73.8828 201.863 75.9774 193.591C77.1458 188.976 78.7984 183.022 80.0994 180.325C81.8525 176.692 84.6455 175.428 86.3251 174.467C87.6094 173.732 90.0196 172.727 90.0196 172.727L95.8952 170.687L109.674 165.82C109.674 165.82 112.484 172.139 118.409 172.211L118.547 172.208C124.378 172.041 127.144 165.82 127.144 165.82L140.923 170.687L146.799 172.727C146.799 172.727 149.209 173.732 150.493 174.467C152.173 175.428 154.966 176.692 156.719 180.325C158.02 183.022 159.672 188.976 160.841 193.591C162.935 201.863 163.122 210.476 163.122 210.476L146.799 210.525V242.468H90.0196Z" fill="#CAF1FF"/>
<path fill-rule="evenodd" clip-rule="evenodd" d="M130.375 166.956C128.365 171.057 123.977 175.216 118.445 175.216C113.976 175.216 109.223 172.041 106.611 166.907L109.69 165.82C109.69 165.82 112.499 172.139 118.425 172.211L118.563 172.208C124.393 172.041 127.16 165.82 127.16 165.82L130.375 166.956Z" fill="#92E4FF"/>
<path fill-rule="evenodd" clip-rule="evenodd" d="M93.7448 7.83127C117.082 -5.64264 146.968 2.36524 160.442 25.7028C173.916 49.0403 165.908 78.9264 142.571 92.4003C119.233 105.874 89.3472 97.8661 75.8733 74.5288C62.3993 51.1913 70.4072 21.3052 93.7448 7.83127Z" fill="white" stroke="#009AD6" stroke-width="0.00828856" stroke-miterlimit="1.5" stroke-linejoin="round"/>
<path fill-rule="evenodd" clip-rule="evenodd" d="M97.6433 14.5806C117.258 3.25597 142.377 9.98672 153.701 29.6013C165.026 49.2161 158.295 74.3349 138.681 85.6593C119.066 96.984 93.9473 90.2535 82.6226 70.6387C71.298 51.0241 78.0287 25.9053 97.6433 14.5806V14.5806Z" stroke="#009AD6" stroke-width="0.0124378" stroke-miterlimit="1.5" stroke-linejoin="round"/>
<path fill-rule="evenodd" clip-rule="evenodd" d="M146.013 90.4102L136.831 95.7112L147.082 113.466L156.264 108.165L146.013 90.4102Z" fill="white" stroke="#009AD6" stroke-width="0.00828856" stroke-miterlimit="1.5" stroke-linejoin="round"/>
<path fill-rule="evenodd" clip-rule="evenodd" d="M151.14 99.3164L141.958 104.617L153.604 124.788L162.786 119.487L151.14 99.3164Z" fill="white" stroke="#009AD6" stroke-width="0.00828856" stroke-miterlimit="1.5" stroke-linejoin="round"/>
<path fill-rule="evenodd" clip-rule="evenodd" d="M117.779 70.1848V60.6547C117.779 60.2609 117.459 59.9414 117.066 59.9414C116.672 59.9414 116.353 60.2609 116.353 60.6547V70.1848C116.353 70.5785 116.672 70.8981 117.066 70.8981C117.459 70.8981 117.779 70.5785 117.779 70.1848Z" fill="#CCCCCC"/>
<path d="M117.069 73.4452C118.242 73.4452 119.192 72.4947 119.192 71.3222C119.192 70.1497 118.242 69.1992 117.069 69.1992C115.897 69.1992 114.946 70.1497 114.946 71.3222C114.946 72.4947 115.897 73.4452 117.069 73.4452Z" fill="#CCCCCC"/>
<path fill-rule="evenodd" clip-rule="evenodd" d="M97.7612 36.1203L106.666 45.0254C107.034 45.3932 107.631 45.3932 107.999 45.0254C108.367 44.6576 108.367 44.0604 107.999 43.6926L99.0939 34.7875C98.7262 34.4198 98.1289 34.4198 97.7612 34.7875C97.3934 35.1553 97.3934 35.7526 97.7612 36.1203Z" fill="#CCCCCC"/>
<path fill-rule="evenodd" clip-rule="evenodd" d="M99.8996 67.2324L108.805 58.3273C109.172 57.9596 109.172 57.3623 108.805 56.9946C108.437 56.6268 107.84 56.6268 107.472 56.9946L98.5668 65.8996C98.1991 66.2674 98.1991 66.8647 98.5668 67.2324C98.9346 67.6002 99.5319 67.6002 99.8996 67.2324Z" fill="#CCCCCC"/>
<path fill-rule="evenodd" clip-rule="evenodd" d="M95.3327 32.3446C94.238 33.4396 94.238 35.2175 95.3327 36.3124C96.4277 37.4073 98.2056 37.4073 99.3005 36.3124C100.395 35.2175 100.395 33.4396 99.3005 32.3446C98.2056 31.2497 96.4277 31.2497 95.3327 32.3446Z" fill="#CCCCCC"/>
<path d="M117.072 68.2352C127.015 68.2352 135.076 60.1744 135.076 50.2309C135.076 40.2874 127.015 32.2266 117.072 32.2266C107.128 32.2266 99.0674 40.2874 99.0674 50.2309C99.0674 60.1744 107.128 68.2352 117.072 68.2352Z" fill="#CCCCCC"/>
<path d="M109.331 46.3663C110.954 46.3663 112.27 45.0504 112.27 43.4273C112.27 41.8041 110.954 40.4883 109.331 40.4883C107.707 40.4883 106.392 41.8041 106.392 43.4273C106.392 45.0504 107.707 46.3663 109.331 46.3663Z" fill="#A6A6A6"/>
<path d="M106.794 55.3849C107.752 55.3849 108.529 54.6079 108.529 53.6495C108.529 52.691 107.752 51.9141 106.794 51.9141C105.836 51.9141 105.059 52.691 105.059 53.6495C105.059 54.6079 105.836 55.3849 106.794 55.3849Z" fill="#A6A6A6"/>
<path d="M118.177 62.5068C120.423 62.5068 122.243 60.6865 122.243 58.4409C122.243 56.1954 120.423 54.375 118.177 54.375C115.932 54.375 114.111 56.1954 114.111 58.4409C114.111 60.6865 115.932 62.5068 118.177 62.5068Z" fill="#A6A6A6"/>
<path d="M122.492 40.4619C123.488 40.4619 124.295 39.6546 124.295 38.6587C124.295 37.6628 123.488 36.8555 122.492 36.8555C121.496 36.8555 120.688 37.6628 120.688 38.6587C120.688 39.6546 121.496 40.4619 122.492 40.4619Z" fill="#A6A6A6"/>
<path d="M120.048 49.3724C121.692 49.3724 123.025 48.0394 123.025 46.3952C123.025 44.7509 121.692 43.418 120.048 43.418C118.403 43.418 117.07 44.7509 117.07 46.3952C117.07 48.0394 118.403 49.3724 120.048 49.3724Z" fill="#A6A6A6"/>
<path d="M128.125 54.3936C129.748 54.3936 131.064 53.0778 131.064 51.4546C131.064 49.8315 129.748 48.5156 128.125 48.5156C126.501 48.5156 125.186 49.8315 125.186 51.4546C125.186 53.0778 126.501 54.3936 128.125 54.3936Z" fill="#A6A6A6"/>
<path fill-rule="evenodd" clip-rule="evenodd" d="M96.1386 69.652C95.0437 68.5571 95.0437 66.7794 96.1386 65.6845C97.2333 64.5895 99.0112 64.5895 100.106 65.6845C101.201 66.7794 101.201 68.5571 100.106 69.652C99.0112 70.7469 97.2333 70.7469 96.1386 69.652Z" fill="#CCCCCC"/>
<path fill-rule="evenodd" clip-rule="evenodd" d="M95.5912 49.3359H105.122C105.515 49.3359 105.835 49.6555 105.835 50.0492C105.835 50.4428 105.515 50.7623 105.122 50.7623H95.5912C95.1975 50.7623 94.8779 50.4428 94.8779 50.0492C94.8779 49.6555 95.1975 49.3359 95.5912 49.3359Z" fill="#CCCCCC"/>
<path fill-rule="evenodd" clip-rule="evenodd" d="M92.2852 50.0529C92.2852 51.2245 93.2366 52.1759 94.4084 52.1759C95.5802 52.1759 96.5314 51.2245 96.5314 50.0529C96.5314 48.8811 95.5802 47.9297 94.4084 47.9297C93.2366 47.9297 92.2852 48.8811 92.2852 50.0529Z" fill="#CCCCCC"/>
<path fill-rule="evenodd" clip-rule="evenodd" d="M135.626 30.8032L126.721 39.7082C126.353 40.0762 126.353 40.6733 126.721 41.0413C127.089 41.409 127.686 41.409 128.054 41.0413L136.959 32.1362C137.327 31.7682 137.327 31.1712 136.959 30.8032C136.591 30.4354 135.994 30.4354 135.626 30.8032Z" fill="#CCCCCC"/>
<path fill-rule="evenodd" clip-rule="evenodd" d="M142.255 49.3359H132.725C132.331 49.3359 132.012 49.6555 132.012 50.0492C132.012 50.4428 132.331 50.7623 132.725 50.7623H142.255C142.649 50.7623 142.968 50.4428 142.968 50.0492C142.968 49.6555 142.649 49.3359 142.255 49.3359Z" fill="#CCCCCC"/>
<path fill-rule="evenodd" clip-rule="evenodd" d="M136.886 68.1262L127.981 59.2211C127.613 58.8534 127.016 58.8534 126.648 59.2211C126.28 59.5889 126.28 60.1862 126.648 60.5539L135.553 69.459C135.921 69.8267 136.518 69.8267 136.886 69.459C137.254 69.0912 137.254 68.494 136.886 68.1262Z" fill="#CCCCCC"/>
<path fill-rule="evenodd" clip-rule="evenodd" d="M139.393 28.3603C140.488 29.4552 140.488 31.2331 139.393 32.3278C138.299 33.4227 136.521 33.4227 135.426 32.3278C134.331 31.2331 134.331 29.4552 135.426 28.3603C136.521 27.2653 138.299 27.2653 139.393 28.3603Z" fill="#CCCCCC"/>
<path fill-rule="evenodd" clip-rule="evenodd" d="M145.574 50.0529C145.574 51.2245 144.623 52.1759 143.451 52.1759C142.279 52.1759 141.328 51.2245 141.328 50.0529C141.328 48.8811 142.279 47.9297 143.451 47.9297C144.623 47.9297 145.574 48.8811 145.574 50.0529Z" fill="#CCCCCC"/>
<path fill-rule="evenodd" clip-rule="evenodd" d="M116.353 26.0258V35.5561C116.353 35.9496 116.672 36.2692 117.066 36.2692C117.459 36.2692 117.779 35.9496 117.779 35.5561V26.0258C117.779 25.632 117.459 25.3125 117.066 25.3125C116.672 25.3125 116.353 25.632 116.353 26.0258Z" fill="#CCCCCC"/>
<path d="M117.069 26.9803C118.242 26.9803 119.192 26.0299 119.192 24.8574C119.192 23.6849 118.242 22.7344 117.069 22.7344C115.897 22.7344 114.946 23.6849 114.946 24.8574C114.946 26.0299 115.897 26.9803 117.069 26.9803Z" fill="#CCCCCC"/>
<path fill-rule="evenodd" clip-rule="evenodd" d="M139.32 71.8788C140.415 70.7839 140.415 69.006 139.32 67.911C138.225 66.8161 136.447 66.8161 135.352 67.911C134.258 69.006 134.258 70.7839 135.352 71.8788C136.447 72.9735 138.225 72.9735 139.32 71.8788Z" fill="#CCCCCC"/>
<path fill-rule="evenodd" clip-rule="evenodd" d="M141.487 95.7988C118.149 109.273 88.2632 101.265 74.7893 77.9273C61.3154 54.5897 69.3232 24.7036 92.6608 11.2297C115.998 -2.24421 145.884 5.76368 159.358 29.1012C172.832 52.4388 164.824 82.3249 141.487 95.7988L144.928 93.8119L161.699 122.86L152.517 128.161L135.746 99.1129L141.487 95.7988Z" fill="#009AD6"/>
<path d="M141.487 95.7988C118.149 109.273 88.2632 101.265 74.7893 77.9273C61.3154 54.5897 69.3232 24.7036 92.6608 11.2297C115.998 -2.24421 145.884 5.76368 159.358 29.1012C172.832 52.4388 164.824 82.3249 141.487 95.7988ZM141.487 95.7988L144.928 93.8119L161.699 122.86L152.517 128.161L135.746 99.1129L141.487 95.7988V95.7988Z" stroke="#009AD6" stroke-width="0.00828856" stroke-miterlimit="1.5" stroke-linejoin="round"/>
<path fill-rule="evenodd" clip-rule="evenodd" d="M93.7448 7.83127C117.082 -5.64264 146.968 2.36524 160.442 25.7028C173.916 49.0403 165.908 78.9264 142.571 92.4003C119.233 105.874 89.3472 97.8661 75.8733 74.5288C62.3993 51.1913 70.4072 21.3052 93.7448 7.83127Z" fill="white" stroke="#009AD6" stroke-width="0.00828856" stroke-miterlimit="1.5" stroke-linejoin="round"/>
<path fill-rule="evenodd" clip-rule="evenodd" d="M97.6433 14.5806C117.258 3.25597 142.377 9.98672 153.701 29.6013C165.026 49.2161 158.295 74.3349 138.681 85.6593C119.066 96.984 93.9473 90.2535 82.6226 70.6387C71.298 51.0241 78.0287 25.9053 97.6433 14.5806V14.5806Z" stroke="#009AD6" stroke-width="0.0124378" stroke-miterlimit="1.5" stroke-linejoin="round"/>
<path fill-rule="evenodd" clip-rule="evenodd" d="M146.013 90.4102L136.831 95.7112L147.082 113.466L156.264 108.165L146.013 90.4102Z" fill="white" stroke="#009AD6" stroke-width="0.00828856" stroke-miterlimit="1.5" stroke-linejoin="round"/>
<path fill-rule="evenodd" clip-rule="evenodd" d="M151.14 99.3164L141.958 104.617L153.604 124.788L162.786 119.487L151.14 99.3164Z" fill="white" stroke="#009AD6" stroke-width="0.00828856" stroke-miterlimit="1.5" stroke-linejoin="round"/>
<path fill-rule="evenodd" clip-rule="evenodd" d="M117.779 70.1848V60.6547C117.779 60.2609 117.459 59.9414 117.066 59.9414C116.672 59.9414 116.353 60.2609 116.353 60.6547V70.1848C116.353 70.5785 116.672 70.8981 117.066 70.8981C117.459 70.8981 117.779 70.5785 117.779 70.1848Z" fill="#CCCCCC"/>
<path d="M117.069 73.4452C118.242 73.4452 119.192 72.4947 119.192 71.3222C119.192 70.1497 118.242 69.1992 117.069 69.1992C115.897 69.1992 114.946 70.1497 114.946 71.3222C114.946 72.4947 115.897 73.4452 117.069 73.4452Z" fill="#CCCCCC"/>
<path fill-rule="evenodd" clip-rule="evenodd" d="M97.7612 36.1203L106.666 45.0254C107.034 45.3932 107.631 45.3932 107.999 45.0254C108.367 44.6576 108.367 44.0604 107.999 43.6926L99.0939 34.7875C98.7262 34.4198 98.1289 34.4198 97.7612 34.7875C97.3934 35.1553 97.3934 35.7526 97.7612 36.1203Z" fill="#CCCCCC"/>
<path fill-rule="evenodd" clip-rule="evenodd" d="M99.8996 67.2324L108.805 58.3273C109.172 57.9596 109.172 57.3623 108.805 56.9946C108.437 56.6268 107.84 56.6268 107.472 56.9946L98.5668 65.8996C98.1991 66.2674 98.1991 66.8647 98.5668 67.2324C98.9346 67.6002 99.5319 67.6002 99.8996 67.2324Z" fill="#CCCCCC"/>
<path fill-rule="evenodd" clip-rule="evenodd" d="M95.3327 32.3446C94.238 33.4396 94.238 35.2175 95.3327 36.3124C96.4277 37.4073 98.2056 37.4073 99.3005 36.3124C100.395 35.2175 100.395 33.4396 99.3005 32.3446C98.2056 31.2497 96.4277 31.2497 95.3327 32.3446Z" fill="#CCCCCC"/>
<path d="M117.072 68.2352C127.015 68.2352 135.076 60.1744 135.076 50.2309C135.076 40.2874 127.015 32.2266 117.072 32.2266C107.128 32.2266 99.0674 40.2874 99.0674 50.2309C99.0674 60.1744 107.128 68.2352 117.072 68.2352Z" fill="#CCCCCC"/>
<path d="M109.331 46.3663C110.954 46.3663 112.27 45.0504 112.27 43.4273C112.27 41.8041 110.954 40.4883 109.331 40.4883C107.707 40.4883 106.392 41.8041 106.392 43.4273C106.392 45.0504 107.707 46.3663 109.331 46.3663Z" fill="#A6A6A6"/>
<path d="M106.794 55.3849C107.752 55.3849 108.529 54.6079 108.529 53.6495C108.529 52.691 107.752 51.9141 106.794 51.9141C105.836 51.9141 105.059 52.691 105.059 53.6495C105.059 54.6079 105.836 55.3849 106.794 55.3849Z" fill="#A6A6A6"/>
<path d="M118.177 62.5068C120.423 62.5068 122.243 60.6865 122.243 58.4409C122.243 56.1954 120.423 54.375 118.177 54.375C115.932 54.375 114.111 56.1954 114.111 58.4409C114.111 60.6865 115.932 62.5068 118.177 62.5068Z" fill="#A6A6A6"/>
<path d="M122.492 40.4619C123.488 40.4619 124.295 39.6546 124.295 38.6587C124.295 37.6628 123.488 36.8555 122.492 36.8555C121.496 36.8555 120.688 37.6628 120.688 38.6587C120.688 39.6546 121.496 40.4619 122.492 40.4619Z" fill="#A6A6A6"/>
<path d="M120.048 49.3724C121.692 49.3724 123.025 48.0394 123.025 46.3952C123.025 44.7509 121.692 43.418 120.048 43.418C118.403 43.418 117.07 44.7509 117.07 46.3952C117.07 48.0394 118.403 49.3724 120.048 49.3724Z" fill="#A6A6A6"/>
<path d="M128.125 54.3936C129.748 54.3936 131.064 53.0778 131.064 51.4546C131.064 49.8315 129.748 48.5156 128.125 48.5156C126.501 48.5156 125.186 49.8315 125.186 51.4546C125.186 53.0778 126.501 54.3936 128.125 54.3936Z" fill="#A6A6A6"/>
<path fill-rule="evenodd" clip-rule="evenodd" d="M96.1386 69.652C95.0437 68.5571 95.0437 66.7794 96.1386 65.6845C97.2333 64.5895 99.0112 64.5895 100.106 65.6845C101.201 66.7794 101.201 68.5571 100.106 69.652C99.0112 70.7469 97.2333 70.7469 96.1386 69.652Z" fill="#CCCCCC"/>
<path fill-rule="evenodd" clip-rule="evenodd" d="M95.5912 49.3359H105.122C105.515 49.3359 105.835 49.6555 105.835 50.0492C105.835 50.4428 105.515 50.7623 105.122 50.7623H95.5912C95.1975 50.7623 94.8779 50.4428 94.8779 50.0492C94.8779 49.6555 95.1975 49.3359 95.5912 49.3359Z" fill="#CCCCCC"/>
<path fill-rule="evenodd" clip-rule="evenodd" d="M92.2852 50.0529C92.2852 51.2245 93.2366 52.1759 94.4084 52.1759C95.5802 52.1759 96.5314 51.2245 96.5314 50.0529C96.5314 48.8811 95.5802 47.9297 94.4084 47.9297C93.2366 47.9297 92.2852 48.8811 92.2852 50.0529Z" fill="#CCCCCC"/>
<path fill-rule="evenodd" clip-rule="evenodd" d="M135.626 30.8032L126.721 39.7082C126.353 40.0762 126.353 40.6733 126.721 41.0413C127.089 41.409 127.686 41.409 128.054 41.0413L136.959 32.1362C137.327 31.7682 137.327 31.1712 136.959 30.8032C136.591 30.4354 135.994 30.4354 135.626 30.8032Z" fill="#CCCCCC"/>
<path fill-rule="evenodd" clip-rule="evenodd" d="M142.255 49.3359H132.725C132.331 49.3359 132.012 49.6555 132.012 50.0492C132.012 50.4428 132.331 50.7623 132.725 50.7623H142.255C142.649 50.7623 142.968 50.4428 142.968 50.0492C142.968 49.6555 142.649 49.3359 142.255 49.3359Z" fill="#CCCCCC"/>
<path fill-rule="evenodd" clip-rule="evenodd" d="M136.886 68.1262L127.981 59.2211C127.613 58.8534 127.016 58.8534 126.648 59.2211C126.28 59.5889 126.28 60.1862 126.648 60.5539L135.553 69.459C135.921 69.8267 136.518 69.8267 136.886 69.459C137.254 69.0912 137.254 68.494 136.886 68.1262Z" fill="#CCCCCC"/>
<path fill-rule="evenodd" clip-rule="evenodd" d="M139.393 28.3603C140.488 29.4552 140.488 31.2331 139.393 32.3278C138.299 33.4227 136.521 33.4227 135.426 32.3278C134.331 31.2331 134.331 29.4552 135.426 28.3603C136.521 27.2653 138.299 27.2653 139.393 28.3603Z" fill="#CCCCCC"/>
<path fill-rule="evenodd" clip-rule="evenodd" d="M145.574 50.0529C145.574 51.2245 144.623 52.1759 143.451 52.1759C142.279 52.1759 141.328 51.2245 141.328 50.0529C141.328 48.8811 142.279 47.9297 143.451 47.9297C144.623 47.9297 145.574 48.8811 145.574 50.0529Z" fill="#CCCCCC"/>
<path fill-rule="evenodd" clip-rule="evenodd" d="M116.353 26.0258V35.5561C116.353 35.9496 116.672 36.2692 117.066 36.2692C117.459 36.2692 117.779 35.9496 117.779 35.5561V26.0258C117.779 25.632 117.459 25.3125 117.066 25.3125C116.672 25.3125 116.353 25.632 116.353 26.0258Z" fill="#CCCCCC"/>
<path d="M117.069 26.9803C118.242 26.9803 119.192 26.0299 119.192 24.8574C119.192 23.6849 118.242 22.7344 117.069 22.7344C115.897 22.7344 114.946 23.6849 114.946 24.8574C114.946 26.0299 115.897 26.9803 117.069 26.9803Z" fill="#CCCCCC"/>
<path fill-rule="evenodd" clip-rule="evenodd" d="M139.32 71.8788C140.415 70.7839 140.415 69.006 139.32 67.911C138.225 66.8161 136.447 66.8161 135.352 67.911C134.258 69.006 134.258 70.7839 135.352 71.8788C136.447 72.9735 138.225 72.9735 139.32 71.8788Z" fill="#CCCCCC"/>
<path fill-rule="evenodd" clip-rule="evenodd" d="M141.487 95.7988C118.149 109.273 88.2632 101.265 74.7893 77.9273C61.3154 54.5897 69.3232 24.7036 92.6608 11.2297C115.998 -2.24421 145.884 5.76368 159.358 29.1012C172.832 52.4388 164.824 82.3249 141.487 95.7988L144.928 93.8119L161.699 122.86L152.517 128.161L135.746 99.1129L141.487 95.7988Z" fill="#009AD6"/>
<path d="M141.487 95.7988C118.149 109.273 88.2632 101.265 74.7893 77.9273C61.3154 54.5897 69.3232 24.7036 92.6608 11.2297C115.998 -2.24421 145.884 5.76368 159.358 29.1012C172.832 52.4388 164.824 82.3249 141.487 95.7988ZM141.487 95.7988L144.928 93.8119L161.699 122.86L152.517 128.161L135.746 99.1129L141.487 95.7988V95.7988Z" stroke="#009AD6" stroke-width="0.00828856" stroke-miterlimit="1.5" stroke-linejoin="round"/>
<path fill-rule="evenodd" clip-rule="evenodd" d="M93.7448 7.83127C117.082 -5.64264 146.968 2.36524 160.442 25.7028C173.916 49.0403 165.908 78.9264 142.571 92.4003C119.233 105.874 89.3472 97.8661 75.8733 74.5288C62.3993 51.1913 70.4072 21.3052 93.7448 7.83127Z" fill="white"/>
<path fill-rule="evenodd" clip-rule="evenodd" d="M93.2463 6.96838C69.4331 20.7169 61.2621 51.2122 75.0104 75.0252C88.7589 98.8382 119.254 107.009 143.067 93.2609C166.88 79.5124 175.051 49.0173 161.303 25.2043C147.554 1.39106 117.059 -6.77992 93.2463 6.96838ZM94.2412 8.69184C117.103 -4.50744 146.38 3.33733 159.579 26.1992C172.779 49.061 164.934 78.3382 142.072 91.5375C119.21 104.737 89.9331 96.892 76.7338 74.0301C63.5346 51.1683 71.3793 21.8911 94.2412 8.69184Z" fill="#009AD6"/>
<path fill-rule="evenodd" clip-rule="evenodd" d="M96.8954 13.2571C76.5673 24.9937 69.592 51.0259 81.3284 71.3541C93.065 91.6822 119.097 98.6575 139.425 86.9211C159.753 75.1848 166.729 49.1523 154.992 28.8242C143.256 8.49604 117.224 1.52076 96.8954 13.2571ZM98.388 15.8424C117.289 4.92971 141.495 11.4154 152.407 30.3167C163.32 49.2182 156.834 73.4233 137.933 84.336C119.032 95.2488 94.8264 88.763 83.9137 69.8615C73.001 50.9603 79.4867 26.7551 98.388 15.8424Z" fill="#009AD6"/>
<path fill-rule="evenodd" clip-rule="evenodd" d="M146.013 90.4102L136.831 95.7112L147.082 113.466L156.264 108.165L146.013 90.4102Z" fill="white"/>
<path fill-rule="evenodd" clip-rule="evenodd" d="M146.874 89.9117C146.599 89.4357 145.99 89.2729 145.515 89.5475L136.333 94.8487C135.857 95.1234 135.694 95.7321 135.968 96.208L146.219 113.963C146.494 114.438 147.102 114.602 147.578 114.327L156.76 109.026C157.236 108.751 157.399 108.142 157.124 107.666L146.874 89.9117ZM138.189 96.0745L147.445 112.106L154.903 107.8L145.648 91.7684L138.189 96.0745Z" fill="#009AD6"/>
<path fill-rule="evenodd" clip-rule="evenodd" d="M151.14 99.3164L141.958 104.617L153.604 124.788L162.786 119.487L151.14 99.3164Z" fill="white"/>
<path fill-rule="evenodd" clip-rule="evenodd" d="M152.001 98.8179C151.726 98.342 151.117 98.1791 150.641 98.4537L141.46 103.755C140.984 104.03 140.821 104.638 141.095 105.114L152.741 125.285C153.016 125.761 153.624 125.924 154.1 125.649L163.282 120.348C163.758 120.073 163.921 119.465 163.646 118.989L152.001 98.8179ZM143.316 104.981L153.967 123.428L161.425 119.122L150.775 100.675L143.316 104.981Z" fill="#009AD6"/>
<path fill-rule="evenodd" clip-rule="evenodd" d="M117.779 70.1848V60.6547C117.779 60.2609 117.459 59.9414 117.066 59.9414C116.672 59.9414 116.353 60.2609 116.353 60.6547V70.1848C116.353 70.5785 116.672 70.8981 117.066 70.8981C117.459 70.8981 117.779 70.5785 117.779 70.1848Z" fill="#CCCCCC"/>
<path d="M117.069 73.4452C118.242 73.4452 119.192 72.4947 119.192 71.3222C119.192 70.1497 118.242 69.1992 117.069 69.1992C115.897 69.1992 114.946 70.1497 114.946 71.3222C114.946 72.4947 115.897 73.4452 117.069 73.4452Z" fill="#CCCCCC"/>
<path fill-rule="evenodd" clip-rule="evenodd" d="M97.7612 36.1203L106.666 45.0254C107.034 45.3932 107.631 45.3932 107.999 45.0254C108.367 44.6576 108.367 44.0604 107.999 43.6926L99.0939 34.7875C98.7262 34.4198 98.1289 34.4198 97.7612 34.7875C97.3934 35.1553 97.3934 35.7526 97.7612 36.1203Z" fill="#CCCCCC"/>
<path fill-rule="evenodd" clip-rule="evenodd" d="M99.8996 67.2324L108.805 58.3273C109.172 57.9596 109.172 57.3623 108.805 56.9946C108.437 56.6268 107.84 56.6268 107.472 56.9946L98.5668 65.8996C98.1991 66.2674 98.1991 66.8647 98.5668 67.2324C98.9346 67.6002 99.5319 67.6002 99.8996 67.2324Z" fill="#CCCCCC"/>
<path fill-rule="evenodd" clip-rule="evenodd" d="M95.3327 32.3446C94.238 33.4396 94.238 35.2175 95.3327 36.3124C96.4277 37.4073 98.2056 37.4073 99.3005 36.3124C100.395 35.2175 100.395 33.4396 99.3005 32.3446C98.2056 31.2497 96.4277 31.2497 95.3327 32.3446Z" fill="#CCCCCC"/>
<path d="M117.072 68.2352C127.015 68.2352 135.076 60.1744 135.076 50.2309C135.076 40.2874 127.015 32.2266 117.072 32.2266C107.128 32.2266 99.0674 40.2874 99.0674 50.2309C99.0674 60.1744 107.128 68.2352 117.072 68.2352Z" fill="#CCCCCC"/>
<path d="M109.331 46.3663C110.954 46.3663 112.27 45.0504 112.27 43.4273C112.27 41.8041 110.954 40.4883 109.331 40.4883C107.707 40.4883 106.392 41.8041 106.392 43.4273C106.392 45.0504 107.707 46.3663 109.331 46.3663Z" fill="#A6A6A6"/>
<path d="M106.794 55.3849C107.752 55.3849 108.529 54.6079 108.529 53.6495C108.529 52.691 107.752 51.9141 106.794 51.9141C105.836 51.9141 105.059 52.691 105.059 53.6495C105.059 54.6079 105.836 55.3849 106.794 55.3849Z" fill="#A6A6A6"/>
<path d="M118.177 62.5068C120.423 62.5068 122.243 60.6865 122.243 58.4409C122.243 56.1954 120.423 54.375 118.177 54.375C115.932 54.375 114.111 56.1954 114.111 58.4409C114.111 60.6865 115.932 62.5068 118.177 62.5068Z" fill="#A6A6A6"/>
<path d="M122.492 40.4619C123.488 40.4619 124.295 39.6546 124.295 38.6587C124.295 37.6628 123.488 36.8555 122.492 36.8555C121.496 36.8555 120.688 37.6628 120.688 38.6587C120.688 39.6546 121.496 40.4619 122.492 40.4619Z" fill="#A6A6A6"/>
<path d="M120.048 49.3724C121.692 49.3724 123.025 48.0394 123.025 46.3952C123.025 44.7509 121.692 43.418 120.048 43.418C118.403 43.418 117.07 44.7509 117.07 46.3952C117.07 48.0394 118.403 49.3724 120.048 49.3724Z" fill="#A6A6A6"/>
<path d="M128.125 54.3936C129.748 54.3936 131.064 53.0778 131.064 51.4546C131.064 49.8315 129.748 48.5156 128.125 48.5156C126.501 48.5156 125.186 49.8315 125.186 51.4546C125.186 53.0778 126.501 54.3936 128.125 54.3936Z" fill="#A6A6A6"/>
<path fill-rule="evenodd" clip-rule="evenodd" d="M96.1386 69.652C95.0437 68.5571 95.0437 66.7794 96.1386 65.6845C97.2333 64.5895 99.0112 64.5895 100.106 65.6845C101.201 66.7794 101.201 68.5571 100.106 69.652C99.0112 70.7469 97.2333 70.7469 96.1386 69.652Z" fill="#CCCCCC"/>
<path fill-rule="evenodd" clip-rule="evenodd" d="M95.5912 49.3359H105.122C105.515 49.3359 105.835 49.6555 105.835 50.0492C105.835 50.4428 105.515 50.7623 105.122 50.7623H95.5912C95.1975 50.7623 94.8779 50.4428 94.8779 50.0492C94.8779 49.6555 95.1975 49.3359 95.5912 49.3359Z" fill="#CCCCCC"/>
<path fill-rule="evenodd" clip-rule="evenodd" d="M92.2852 50.0529C92.2852 51.2245 93.2366 52.1759 94.4084 52.1759C95.5802 52.1759 96.5314 51.2245 96.5314 50.0529C96.5314 48.8811 95.5802 47.9297 94.4084 47.9297C93.2366 47.9297 92.2852 48.8811 92.2852 50.0529Z" fill="#CCCCCC"/>
<path fill-rule="evenodd" clip-rule="evenodd" d="M135.626 30.8032L126.721 39.7082C126.353 40.0762 126.353 40.6733 126.721 41.0413C127.089 41.409 127.686 41.409 128.054 41.0413L136.959 32.1362C137.327 31.7682 137.327 31.1712 136.959 30.8032C136.591 30.4354 135.994 30.4354 135.626 30.8032Z" fill="#CCCCCC"/>
<path fill-rule="evenodd" clip-rule="evenodd" d="M142.255 49.3359H132.725C132.331 49.3359 132.012 49.6555 132.012 50.0492C132.012 50.4428 132.331 50.7623 132.725 50.7623H142.255C142.649 50.7623 142.968 50.4428 142.968 50.0492C142.968 49.6555 142.649 49.3359 142.255 49.3359Z" fill="#CCCCCC"/>
<path fill-rule="evenodd" clip-rule="evenodd" d="M136.886 68.1262L127.981 59.2211C127.613 58.8534 127.016 58.8534 126.648 59.2211C126.28 59.5889 126.28 60.1862 126.648 60.5539L135.553 69.459C135.921 69.8267 136.518 69.8267 136.886 69.459C137.254 69.0912 137.254 68.494 136.886 68.1262Z" fill="#CCCCCC"/>
<path fill-rule="evenodd" clip-rule="evenodd" d="M139.393 28.3603C140.488 29.4552 140.488 31.2331 139.393 32.3278C138.299 33.4227 136.521 33.4227 135.426 32.3278C134.331 31.2331 134.331 29.4552 135.426 28.3603C136.521 27.2653 138.299 27.2653 139.393 28.3603Z" fill="#CCCCCC"/>
<path fill-rule="evenodd" clip-rule="evenodd" d="M145.574 50.0529C145.574 51.2245 144.623 52.1759 143.451 52.1759C142.279 52.1759 141.328 51.2245 141.328 50.0529C141.328 48.8811 142.279 47.9297 143.451 47.9297C144.623 47.9297 145.574 48.8811 145.574 50.0529Z" fill="#CCCCCC"/>
<path fill-rule="evenodd" clip-rule="evenodd" d="M116.353 26.0258V35.5561C116.353 35.9496 116.672 36.2692 117.066 36.2692C117.459 36.2692 117.779 35.9496 117.779 35.5561V26.0258C117.779 25.632 117.459 25.3125 117.066 25.3125C116.672 25.3125 116.353 25.632 116.353 26.0258Z" fill="#CCCCCC"/>
<path d="M117.069 26.9803C118.242 26.9803 119.192 26.0299 119.192 24.8574C119.192 23.6849 118.242 22.7344 117.069 22.7344C115.897 22.7344 114.946 23.6849 114.946 24.8574C114.946 26.0299 115.897 26.9803 117.069 26.9803Z" fill="#CCCCCC"/>
<path fill-rule="evenodd" clip-rule="evenodd" d="M139.32 71.8788C140.415 70.7839 140.415 69.006 139.32 67.911C138.225 66.8161 136.447 66.8161 135.352 67.911C134.258 69.006 134.258 70.7839 135.352 71.8788C136.447 72.9735 138.225 72.9735 139.32 71.8788Z" fill="#CCCCCC"/>
</g>
<defs>
<clipPath id="clip0">
<rect width="240" height="240" fill="white"/>
</clipPath>
</defs>
</svg>
