<svg width="240" height="240" fill="none" xmlns="http://www.w3.org/2000/svg"><path d="M227.069 20.86H100.565v197.142h126.504V20.859z" fill="#CCC"/><path d="M210.823 34.805h-92.445v14.367h92.445V34.805zm0 25.898h-92.445V75.07h92.445V60.703zm0 25.899h-92.445v14.367h92.445V86.602zm0 25.898h-92.445v14.367h92.445V112.5zm0 25.898h-92.445v14.367h92.445v-14.367zm0 25.899h-92.445v14.367h92.445v-14.367zm0 25.898h-92.445v14.367h92.445v-14.367z" fill="#fff"/><path fill-rule="evenodd" clip-rule="evenodd" d="M65.801 98.73c5.717 0 10.394 8.169 10.394 18.153v14.743c0 9.984-4.677 18.153-10.394 18.153-5.716 0-10.393-8.169-10.393-18.153v-14.743c0-9.984 4.677-18.152 10.393-18.152z" fill="#EECAC5"/><path fill-rule="evenodd" clip-rule="evenodd" d="M31.97 218.021l-19.48-.058s-.78-20.946 0-38.103c.405-8.883 1.87-16.798 2.723-20.165 1.394-5.506 3.366-12.612 4.918-15.83 2.093-4.335 5.425-5.844 7.43-6.991 1.532-.877 4.408-2.076 4.408-2.076l7.012-2.435s-4.564 10.436-5.546 15.991c-1.176 6.654-1.511 23.934-1.511 23.934l.045 45.733zm67.616 0l19.479-.058s.78-20.946 0-38.103c-.405-8.883-1.87-16.798-2.722-20.165-1.395-5.506-3.367-12.612-4.919-15.83-2.092-4.335-5.425-5.844-7.429-6.991-1.533-.877-4.41-2.076-4.41-2.076l-7.01-2.435s4.563 10.436 5.545 15.991c1.176 6.654 1.511 23.934 1.511 23.934l-.045 45.733z" fill="#B6EDFF"/><path fill-rule="evenodd" clip-rule="evenodd" d="M25.561 218.027s.185-28.958 1.232-42.828c1.025-13.588 5.513-40.395 5.513-40.395l7.012-2.434 16.442-5.808s3.225 7.253 10.018 7.613c6.792-.36 10.017-7.613 10.017-7.613l16.443 5.808 7.01 2.434s4.489 26.807 5.514 40.395c1.047 13.87 1.232 42.828 1.232 42.828H25.561z" fill="#CAF1FF"/><path fill-rule="evenodd" clip-rule="evenodd" d="M85.702 96.681c.12.017.237.038.354.063l.004.001h-.001a4.831 4.831 0 11-4.038.944c-.133 1.425.08 3.191 1.9 3.381l-.034-2.786c-.014-1.128 1.042-1.639 1.815-1.603zm-38.76-.059c-.12.015-.238.034-.355.057l-.003.002a4.83 4.83 0 104.025.999c.114 1.426-.126 3.19-1.947 3.354l.072-2.785c.03-1.127-1.019-1.653-1.792-1.627z" fill="#F1D2CE"/><path fill-rule="evenodd" clip-rule="evenodd" d="M65.826 124.659c-8.173 0-19.808-12.012-19.808-22.532v-15.29c0-10.894 8.915-19.806 19.806-19.806h.002c10.892 0 19.806 8.912 19.806 19.806v14.993c0 11.531-11.93 22.829-19.806 22.829z" fill="#F1D2CE"/><path fill-rule="evenodd" clip-rule="evenodd" d="M46.093 98.827l1.977-8.005s6.37-4.673 4.106-11.176c-2.262-6.503-2.706-5.859-2.706-5.859s-8.487 3.823-4.71 21.06l1.333 3.98zm39.281 0s-6.008-10.963-6.517-15.448a8.367 8.367 0 01.434-3.733c2.263-6.503 2.707-5.859 2.707-5.859s8.487 3.823 4.71 21.06l-1.334 3.98z" fill="#00325B"/><path fill-rule="evenodd" clip-rule="evenodd" d="M46.02 90.975s17.656.874 34.842-7.942c0 0 2.746-2.422 5.619-3.689 0 0-5.748-14.823-21.776-13.849-10.783.655-17.704 7.938-19.22 13.31-.842 2.989.534 12.17.534 12.17z" fill="#00325B"/><path fill-rule="evenodd" clip-rule="evenodd" d="M78.126 127.23c-1.093 5.819-6.21 10.221-12.347 10.221a12.553 12.553 0 01-12.254-9.81l1.447-.453s3.352 6.875 10.461 7.017c7.307.145 10.77-7.643 10.77-7.643l1.923.668z" fill="#004E8E"/><path fill-rule="evenodd" clip-rule="evenodd" d="M80.132 127.918c-2.398 4.893-7.634 9.857-14.236 9.857-5.333 0-11.005-3.789-14.121-9.915l3.673-1.298s3.353 7.541 10.424 7.627l.165-.004c6.957-.199 10.258-7.623 10.258-7.623l3.837 1.356z" fill="#92E4FF"/><path fill-rule="evenodd" clip-rule="evenodd" d="M69.041 139.16h-6.478l-3.457 78.812h12.828l-2.893-78.812z" fill="#67DCFF"/><path fill-rule="evenodd" clip-rule="evenodd" d="M70.572 132.891h-9.54l1.531 7.179h6.478l1.53-7.179z" fill="#67DCFF"/><path fill-rule="evenodd" clip-rule="evenodd" d="M76.126 124.219l6.296 4.257-11.915 9.947-4.68-5.606 10.299-8.598zm-20.626 0l-6.296 4.257 11.916 9.947 4.68-5.606-10.3-8.598z" fill="#92E4FF"/></svg>