<svg width="96" height="97" fill="none" xmlns="http://www.w3.org/2000/svg"><path d="M46.345 6.988h-3.31v3.318h3.31V6.988zm3.31 0h-3.31v3.318h3.31V6.988zm13.242 0h-3.31v3.318h3.31V6.988z" fill="#000"/><path d="M46.345 10.306h-3.31v3.318h3.31v-3.318zm6.62 0h-3.31v3.318h3.31v-3.318zm3.311 0h-3.31v3.318h3.31v-3.318zm3.31 0h-3.31v3.318h3.31v-3.318zm3.311 0h-3.31v3.318h3.31v-3.318zm-26.483 3.317h-3.31v3.318h3.31v-3.317z" fill="#000"/><path d="M56.276 13.623h-3.31v3.318h3.31v-3.317z" fill="#000"/><path d="M59.586 13.623h-3.31v3.318h3.31v-3.317zm-23.172 3.318h-3.31v3.318h3.31V16.94zm6.621 0h-3.31v3.318h3.31V16.94zm6.62 0h-3.31v3.318h3.31V16.94zm3.31 0h-3.31v3.318h3.31V16.94z" fill="#000"/><path d="M56.276 16.941h-3.31v3.318h3.31V16.94zm6.621 0h-3.31v3.318h3.31V16.94zm-26.483 3.318h-3.31v3.317h3.31V20.26z" fill="#000"/><path d="M39.724 20.259h-3.31v3.317h3.31V20.26zm3.311 0h-3.31v3.317h3.31V20.26zm-6.621 3.317h-3.31v3.318h3.31v-3.318zm6.621 0h-3.31v3.318h3.31v-3.318zm3.31 0h-3.31v3.318h3.31v-3.318zm13.241 0h-3.31v3.318h3.31v-3.318zm3.311 0h-3.31v3.318h3.31v-3.318z" fill="#000"/><path d="M36.414 26.894h-3.31v3.318h3.31v-3.318zm6.621 0h-3.31v3.318h3.31v-3.318zm6.62 0h-3.31v3.318h3.31v-3.318zm6.621 0h-3.31v3.318h3.31v-3.318zm6.621 0h-3.31v3.318h3.31v-3.318zm-26.483 3.318h-3.31v3.318h3.31v-3.318z" fill="#000"/><path d="M39.724 30.212h-3.31v3.318h3.31v-3.318zm9.931 0h-3.31v3.318h3.31v-3.318zm6.621 0h-3.31v3.318h3.31v-3.318zm3.31 0h-3.31v3.318h3.31v-3.318zM9.931 33.53h-3.31v3.317h3.31V33.53zm6.621 0h-3.31v3.317h3.31V33.53zm3.31 0h-3.31v3.317h3.31V33.53zm3.31 0h-3.31v3.317h3.31V33.53zm3.311 0h-3.31v3.317h3.31V33.53zm3.31 0h-3.31v3.317h3.31V33.53zm16.552 0h-3.31v3.317h3.31V33.53zm6.62 0h-3.31v3.317h3.31V33.53zm3.311 0h-3.31v3.317h3.31V33.53zm3.31 0h-3.31v3.317h3.31V33.53zm3.311 0h-3.31v3.317h3.31V33.53zm6.62 0h-3.31v3.317h3.31V33.53zm3.311 0h-3.31v3.317h3.31V33.53zm3.31 0h-3.31v3.317h3.31V33.53z" fill="#000"/><path d="M79.448 33.53h-3.31v3.317h3.31V33.53zm3.311 0h-3.31v3.317h3.31V33.53zm-69.518 3.317h-3.31v3.318h3.31v-3.318zm9.931 0h-3.31v3.318h3.31v-3.318zm3.311 0h-3.31v3.318h3.31v-3.318zm13.241 0h-3.31v3.318h3.31v-3.318zm3.311 0h-3.31v3.318h3.31v-3.318zm3.31 0h-3.31v3.318h3.31v-3.318zm6.62 0h-3.31v3.318h3.31v-3.318zm13.242 0h-3.31v3.318h3.31v-3.318zm6.621 0h-3.31v3.318h3.31v-3.318zm6.62 0h-3.31v3.318h3.31v-3.318zm3.311 0h-3.31v3.318h3.31v-3.318zM9.931 40.165h-3.31v3.318h3.31v-3.318zm3.31 0h-3.31v3.318h3.31v-3.318zm6.621 0h-3.31v3.318h3.31v-3.318zm9.931 0h-3.31v3.318h3.31v-3.318zm3.31 0h-3.31v3.318h3.31v-3.318zm9.932 0h-3.31v3.318h3.31v-3.318zm3.31 0h-3.31v3.318h3.31v-3.318zm9.931 0h-3.31v3.318h3.31v-3.318z" fill="#000"/><path d="M59.586 40.165h-3.31v3.318h3.31v-3.318zm9.931 0h-3.31v3.318h3.31v-3.318zm3.311 0h-3.31v3.318h3.31v-3.318zm13.241 0h-3.31v3.318h3.31v-3.318z" fill="#000"/><path d="M89.38 40.165h-3.311v3.318h3.31v-3.318zm-69.518 3.318h-3.31V46.8h3.31v-3.318zm3.31 0h-3.31V46.8h3.31v-3.318zm3.311 0h-3.31V46.8h3.31v-3.318zm13.241 0h-3.31V46.8h3.31v-3.318zm3.311 0h-3.31V46.8h3.31v-3.318zm16.551 0h-3.31V46.8h3.31v-3.318zm13.242 0h-3.31V46.8h3.31v-3.318z" fill="#000"/><path d="M86.069 43.483h-3.31V46.8h3.31v-3.318z" fill="#000"/><path d="M89.38 43.483h-3.311V46.8h3.31v-3.318zM29.793 46.8h-3.31v3.318h3.31V46.8zm3.31 0h-3.31v3.318h3.31V46.8zm13.242 0h-3.31v3.318h3.31V46.8zm6.62 0h-3.31v3.318h3.31V46.8zm3.311 0h-3.31v3.318h3.31V46.8zm3.31 0h-3.31v3.318h3.31V46.8zm6.621 0h-3.31v3.318h3.31V46.8zm3.31 0h-3.31v3.318h3.31V46.8zm6.621 0h-3.31v3.318h3.31V46.8zm3.31 0h-3.31v3.318h3.31V46.8zm3.311 0h-3.31v3.318h3.31V46.8zm6.621 0h-3.311v3.318h3.31V46.8zM9.931 50.118h-3.31v3.318h3.31v-3.318zm9.931 0h-3.31v3.318h3.31v-3.318zm3.31 0h-3.31v3.318h3.31v-3.318zm3.311 0h-3.31v3.318h3.31v-3.318zm6.62 0h-3.31v3.318h3.31v-3.318zm3.311 0h-3.31v3.318h3.31v-3.318zm6.621 0h-3.31v3.318h3.31v-3.318zm6.62 0h-3.31v3.318h3.31v-3.318zm9.931 0h-3.31v3.318h3.31v-3.318zm3.311 0h-3.31v3.318h3.31v-3.318zm3.31 0h-3.31v3.318h3.31v-3.318zm6.621 0h-3.31v3.318h3.31v-3.318zm9.931 0h-3.31v3.318h3.31v-3.318zM9.931 53.436h-3.31v3.318h3.31v-3.318zm6.621 0h-3.31v3.318h3.31v-3.318zm6.62 0h-3.31v3.318h3.31v-3.318zm3.311 0h-3.31v3.318h3.31v-3.318zm3.31 0h-3.31v3.318h3.31v-3.318zm3.31 0h-3.31v3.318h3.31v-3.318zm3.311 0h-3.31v3.318h3.31v-3.318z" fill="#000"/><path d="M39.724 53.436h-3.31v3.318h3.31v-3.318zm3.311 0h-3.31v3.318h3.31v-3.318zm13.241 0h-3.31v3.318h3.31v-3.318zm3.31 0h-3.31v3.318h3.31v-3.318zm3.311 0h-3.31v3.318h3.31v-3.318zm26.483 0h-3.311v3.318h3.31v-3.318zM9.931 56.754h-3.31v3.317h3.31v-3.317zm6.621 0h-3.31v3.317h3.31v-3.317zm3.31 0h-3.31v3.317h3.31v-3.317zm6.621 0h-3.31v3.317h3.31v-3.317zm6.62 0h-3.31v3.317h3.31v-3.317zm6.621 0h-3.31v3.317h3.31v-3.317zm3.311 0h-3.31v3.317h3.31v-3.317zm6.62 0h-3.31v3.317h3.31v-3.317zm6.621 0h-3.31v3.317h3.31v-3.317z" fill="#000"/><path d="M59.586 56.754h-3.31v3.317h3.31v-3.317zm3.311 0h-3.31v3.317h3.31v-3.317zm26.483 0h-3.311v3.317h3.31v-3.317zM9.931 60.071h-3.31v3.318h3.31V60.07zm19.862 0h-3.31v3.318h3.31V60.07zm3.31 0h-3.31v3.318h3.31V60.07zm3.311 0h-3.31v3.318h3.31V60.07zm6.621 0h-3.31v3.318h3.31V60.07zm6.62 0h-3.31v3.318h3.31V60.07zm3.31 0h-3.31v3.318h3.31V60.07z" fill="#000"/><path d="M59.586 60.071h-3.31v3.318h3.31V60.07zm3.311 0h-3.31v3.318h3.31V60.07zm-26.483 3.318h-3.31v3.318h3.31v-3.318z" fill="#000"/><path d="M39.724 63.389h-3.31v3.318h3.31v-3.318zm3.311 0h-3.31v3.318h3.31v-3.318zm9.93 0h-3.31v3.318h3.31v-3.318zm6.621 0h-3.31v3.318h3.31v-3.318zm3.311 0h-3.31v3.318h3.31v-3.318z" fill="#000"/><path d="M43.035 66.707h-3.31v3.318h3.31v-3.319zm3.31 0h-3.31v3.318h3.31v-3.319zm3.31 0h-3.31v3.318h3.31v-3.319zm3.31 0h-3.31v3.318h3.31v-3.319zm3.311 0h-3.31v3.318h3.31v-3.319zm6.621 0h-3.31v3.318h3.31v-3.319zm26.483 0h-3.311v3.318h3.31v-3.319zm-52.966 3.318h-3.31v3.317h3.31v-3.317z" fill="#000"/><path d="M39.724 70.025h-3.31v3.317h3.31v-3.317zm3.311 0h-3.31v3.317h3.31v-3.317zm3.31 0h-3.31v3.317h3.31v-3.317zm16.552 0h-3.31v3.317h3.31v-3.317zm26.483 0h-3.311v3.317h3.31v-3.317z" fill="#000"/><path d="M36.414 73.342h-3.31v3.318h3.31v-3.318zm6.621 0h-3.31v3.318h3.31v-3.318zm3.31 0h-3.31v3.318h3.31v-3.318zm3.31 0h-3.31v3.318h3.31v-3.318zm3.31 0h-3.31v3.318h3.31v-3.318zm3.311 0h-3.31v3.318h3.31v-3.318z" fill="#000"/><path d="M59.586 73.342h-3.31v3.318h3.31v-3.318zm3.311 0h-3.31v3.318h3.31v-3.318zM36.414 76.66h-3.31v3.318h3.31V76.66zm13.241 0h-3.31v3.318h3.31V76.66zm13.242 0h-3.31v3.318h3.31V76.66zm26.483 0h-3.311v3.318h3.31V76.66z" fill="#000"/><path d="M36.414 79.978h-3.31v3.317h3.31v-3.317z" fill="#000"/><path d="M39.724 79.978h-3.31v3.317h3.31v-3.317zm3.311 0h-3.31v3.317h3.31v-3.317zm16.551 0h-3.31v3.317h3.31v-3.317zm29.794 0h-3.311v3.317h3.31v-3.317zm-49.656 3.317h-3.31v3.318h3.31v-3.318zm3.311 0h-3.31v3.318h3.31v-3.318zm6.62 0h-3.31v3.318h3.31v-3.318zm6.621 0h-3.31v3.318h3.31v-3.318zm3.31 0h-3.31v3.318h3.31v-3.318zm3.311 0h-3.31v3.318h3.31v-3.318zm26.483 0h-3.311v3.318h3.31v-3.318zm-52.966 3.318h-3.31v3.318h3.31v-3.318zm3.31 0h-3.31v3.318h3.31v-3.318zm6.621 0h-3.31v3.318h3.31v-3.318zm3.31 0h-3.31v3.318h3.31v-3.318zm3.31 0h-3.31v3.318h3.31v-3.318zm3.311 0h-3.31v3.318h3.31v-3.318zm9.931-33.177h-3.31v3.318h3.31v-3.318zm3.31 0h-3.31v3.318h3.31v-3.318zm3.311 0h-3.31v3.318h3.31v-3.318zm3.31 0h-3.31v3.318h3.31v-3.318z" fill="#000"/><path d="M79.448 53.436h-3.31v3.318h3.31v-3.318zm6.621 0h-3.31v3.318h3.31v-3.318zm0 3.318h-3.31v3.317h3.31v-3.317zm-19.862 3.317h-3.31v3.318h3.31V60.07zm3.31 0h-3.31v3.318h3.31V60.07zm3.311 0h-3.31v3.318h3.31V60.07zm3.31 0h-3.31v3.318h3.31V60.07zm6.621 0h-3.31v3.318h3.31V60.07z" fill="#000"/><path d="M86.069 60.071h-3.31v3.318h3.31V60.07zm-9.931 3.318h-3.31v3.318h3.31v-3.318zm-6.621 3.318h-3.31v3.318h3.31v-3.319z" fill="#000"/><path d="M76.138 66.707h-3.31v3.318h3.31v-3.319z" fill="#000"/><path d="M79.448 66.707h-3.31v3.318h3.31v-3.319zm6.621 0h-3.31v3.318h3.31v-3.319zm-9.931 3.318h-3.31v3.317h3.31v-3.317zm-9.931 3.317h-3.31v3.318h3.31v-3.318zm3.31 0h-3.31v3.318h3.31v-3.318zm3.311 0h-3.31v3.318h3.31v-3.318zm3.31 0h-3.31v3.318h3.31v-3.318z" fill="#000"/><path d="M79.448 73.342h-3.31v3.318h3.31v-3.318zm3.311 0h-3.31v3.318h3.31v-3.318zM66.207 76.66h-3.31v3.318h3.31V76.66zm3.31 0h-3.31v3.318h3.31V76.66zm3.311 0h-3.31v3.318h3.31V76.66zm3.31 0h-3.31v3.318h3.31V76.66zm6.621 0h-3.31v3.318h3.31V76.66zm3.31 0h-3.31v3.318h3.31V76.66z" fill="#000"/><path d="M72.828 79.978h-3.31v3.317h3.31v-3.317zm9.931 0h-3.31v3.317h3.31v-3.317zm-6.621 3.317h-3.31v3.318h3.31v-3.318z" fill="#000"/><path d="M79.448 83.295h-3.31v3.318h3.31v-3.318zm-13.241 3.318h-3.31v3.318h3.31v-3.318zm3.31 0h-3.31v3.318h3.31v-3.318zm6.621 0h-3.31v3.318h3.31v-3.318zm6.621 0h-3.31v3.318h3.31v-3.318zm3.31 0h-3.31v3.318h3.31v-3.318zm3.311 0h-3.311v3.318h3.31v-3.318zM26.317 6.988H6.621v23.224h23.172V6.988h-3.476zm0 19.74h-16.22V10.472h16.22v16.257zm59.586-19.74H66.207v23.224h23.172V6.988h-3.476zm0 19.74h-16.22V10.472h16.22v16.257zM26.317 66.707H6.621V89.93h23.172V66.707h-3.476zm0 19.74h-16.22V70.19h16.22v16.257z" fill="#000"/><path d="M23.172 13.623h-9.93v9.953h9.93v-9.953zm59.587 0h-9.931v9.953h9.93v-9.953zM23.172 73.342h-9.93v9.953h9.93v-9.953z" fill="#000"/></svg>