<svg width="96" height="97" viewBox="0 0 96 97" fill="none" xmlns="http://www.w3.org/2000/svg">
<path d="M46.3448 6.98804H43.0345V10.3059H46.3448V6.98804Z" fill="black"/>
<path d="M49.6552 6.98804H46.3448V10.3059H49.6552V6.98804Z" fill="black"/>
<path d="M62.8965 6.98804H59.5862V10.3059H62.8965V6.98804Z" fill="black"/>
<path d="M46.3448 10.3059H43.0345V13.6235H46.3448V10.3059Z" fill="black"/>
<path d="M52.9655 10.3059H49.6552V13.6235H52.9655V10.3059Z" fill="black"/>
<path d="M56.2759 10.3059H52.9655V13.6235H56.2759V10.3059Z" fill="black"/>
<path d="M59.5862 10.3059H56.2759V13.6235H59.5862V10.3059Z" fill="black"/>
<path d="M62.8965 10.3059H59.5862V13.6235H62.8965V10.3059Z" fill="black"/>
<path d="M36.4138 13.6235H33.1035V16.9412H36.4138V13.6235Z" fill="black"/>
<path d="M56.2759 13.6235H52.9655V16.9412H56.2759V13.6235Z" fill="black"/>
<path d="M59.5862 13.6235H56.2759V16.9412H59.5862V13.6235Z" fill="black"/>
<path d="M36.4138 16.9412H33.1035V20.2588H36.4138V16.9412Z" fill="black"/>
<path d="M43.0345 16.9412H39.7241V20.2588H43.0345V16.9412Z" fill="black"/>
<path d="M49.6552 16.9412H46.3448V20.2588H49.6552V16.9412Z" fill="black"/>
<path d="M52.9655 16.9412H49.6552V20.2588H52.9655V16.9412Z" fill="black"/>
<path d="M56.2759 16.9412H52.9655V20.2588H56.2759V16.9412Z" fill="black"/>
<path d="M62.8965 16.9412H59.5862V20.2588H62.8965V16.9412Z" fill="black"/>
<path d="M36.4138 20.2588H33.1035V23.5764H36.4138V20.2588Z" fill="black"/>
<path d="M39.7242 20.2588H36.4138V23.5764H39.7242V20.2588Z" fill="black"/>
<path d="M43.0345 20.2588H39.7241V23.5764H43.0345V20.2588Z" fill="black"/>
<path d="M36.4138 23.5764H33.1035V26.8943H36.4138V23.5764Z" fill="black"/>
<path d="M43.0345 23.5764H39.7241V26.8943H43.0345V23.5764Z" fill="black"/>
<path d="M46.3448 23.5764H43.0345V26.8943H46.3448V23.5764Z" fill="black"/>
<path d="M59.5862 23.5764H56.2759V26.8943H59.5862V23.5764Z" fill="black"/>
<path d="M62.8965 23.5764H59.5862V26.8943H62.8965V23.5764Z" fill="black"/>
<path d="M36.4138 26.8943H33.1035V30.2122H36.4138V26.8943Z" fill="black"/>
<path d="M43.0345 26.8943H39.7241V30.2122H43.0345V26.8943Z" fill="black"/>
<path d="M49.6552 26.8943H46.3448V30.2122H49.6552V26.8943Z" fill="black"/>
<path d="M56.2759 26.8943H52.9655V30.2122H56.2759V26.8943Z" fill="black"/>
<path d="M62.8965 26.8943H59.5862V30.2122H62.8965V26.8943Z" fill="black"/>
<path d="M36.4138 30.2122H33.1035V33.5298H36.4138V30.2122Z" fill="black"/>
<path d="M39.7242 30.2122H36.4138V33.5298H39.7242V30.2122Z" fill="black"/>
<path d="M49.6552 30.2122H46.3448V33.5298H49.6552V30.2122Z" fill="black"/>
<path d="M56.2759 30.2122H52.9655V33.5298H56.2759V30.2122Z" fill="black"/>
<path d="M59.5862 30.2122H56.2759V33.5298H59.5862V30.2122Z" fill="black"/>
<path d="M9.93103 33.5298H6.6207V36.8474H9.93103V33.5298Z" fill="black"/>
<path d="M16.5517 33.5298H13.2414V36.8474H16.5517V33.5298Z" fill="black"/>
<path d="M19.8621 33.5298H16.5517V36.8474H19.8621V33.5298Z" fill="black"/>
<path d="M23.1724 33.5298H19.8621V36.8474H23.1724V33.5298Z" fill="black"/>
<path d="M26.4828 33.5298H23.1724V36.8474H26.4828V33.5298Z" fill="black"/>
<path d="M29.7931 33.5298H26.4828V36.8474H29.7931V33.5298Z" fill="black"/>
<path d="M46.3448 33.5298H43.0345V36.8474H46.3448V33.5298Z" fill="black"/>
<path d="M52.9655 33.5298H49.6552V36.8474H52.9655V33.5298Z" fill="black"/>
<path d="M56.2759 33.5298H52.9655V36.8474H56.2759V33.5298Z" fill="black"/>
<path d="M59.5862 33.5298H56.2759V36.8474H59.5862V33.5298Z" fill="black"/>
<path d="M62.8965 33.5298H59.5862V36.8474H62.8965V33.5298Z" fill="black"/>
<path d="M69.5172 33.5298H66.2069V36.8474H69.5172V33.5298Z" fill="black"/>
<path d="M72.8276 33.5298H69.5172V36.8474H72.8276V33.5298Z" fill="black"/>
<path d="M76.1379 33.5298H72.8276V36.8474H76.1379V33.5298Z" fill="black"/>
<path d="M79.4483 33.5298H76.1379V36.8474H79.4483V33.5298Z" fill="black"/>
<path d="M82.7586 33.5298H79.4483V36.8474H82.7586V33.5298Z" fill="black"/>
<path d="M13.2414 36.8474H9.93103V40.165H13.2414V36.8474Z" fill="black"/>
<path d="M23.1724 36.8474H19.8621V40.165H23.1724V36.8474Z" fill="black"/>
<path d="M26.4828 36.8474H23.1724V40.165H26.4828V36.8474Z" fill="black"/>
<path d="M39.7242 36.8474H36.4138V40.165H39.7242V36.8474Z" fill="black"/>
<path d="M43.0345 36.8474H39.7241V40.165H43.0345V36.8474Z" fill="black"/>
<path d="M46.3448 36.8474H43.0345V40.165H46.3448V36.8474Z" fill="black"/>
<path d="M52.9655 36.8474H49.6552V40.165H52.9655V36.8474Z" fill="black"/>
<path d="M66.2069 36.8474H62.8965V40.165H66.2069V36.8474Z" fill="black"/>
<path d="M72.8276 36.8474H69.5172V40.165H72.8276V36.8474Z" fill="black"/>
<path d="M79.4483 36.8474H76.1379V40.165H79.4483V36.8474Z" fill="black"/>
<path d="M82.7586 36.8474H79.4483V40.165H82.7586V36.8474Z" fill="black"/>
<path d="M9.93103 40.165H6.6207V43.4827H9.93103V40.165Z" fill="black"/>
<path d="M13.2414 40.165H9.93103V43.4827H13.2414V40.165Z" fill="black"/>
<path d="M19.8621 40.165H16.5517V43.4827H19.8621V40.165Z" fill="black"/>
<path d="M29.7931 40.165H26.4828V43.4827H29.7931V40.165Z" fill="black"/>
<path d="M33.1035 40.165H29.7931V43.4827H33.1035V40.165Z" fill="black"/>
<path d="M43.0345 40.165H39.7241V43.4827H43.0345V40.165Z" fill="black"/>
<path d="M46.3448 40.165H43.0345V43.4827H46.3448V40.165Z" fill="black"/>
<path d="M56.2759 40.165H52.9655V43.4827H56.2759V40.165Z" fill="black"/>
<path d="M59.5862 40.165H56.2759V43.4827H59.5862V40.165Z" fill="black"/>
<path d="M69.5172 40.165H66.2069V43.4827H69.5172V40.165Z" fill="black"/>
<path d="M72.8276 40.165H69.5172V43.4827H72.8276V40.165Z" fill="black"/>
<path d="M86.069 40.165H82.7586V43.4827H86.069V40.165Z" fill="black"/>
<path d="M89.3793 40.165H86.069V43.4827H89.3793V40.165Z" fill="black"/>
<path d="M19.8621 43.4827H16.5517V46.8005H19.8621V43.4827Z" fill="black"/>
<path d="M23.1724 43.4827H19.8621V46.8005H23.1724V43.4827Z" fill="black"/>
<path d="M26.4828 43.4827H23.1724V46.8005H26.4828V43.4827Z" fill="black"/>
<path d="M39.7242 43.4827H36.4138V46.8005H39.7242V43.4827Z" fill="black"/>
<path d="M43.0345 43.4827H39.7241V46.8005H43.0345V43.4827Z" fill="black"/>
<path d="M59.5862 43.4827H56.2759V46.8005H59.5862V43.4827Z" fill="black"/>
<path d="M72.8276 43.4827H69.5172V46.8005H72.8276V43.4827Z" fill="black"/>
<path d="M86.069 43.4827H82.7586V46.8005H86.069V43.4827Z" fill="black"/>
<path d="M89.3793 43.4827H86.069V46.8005H89.3793V43.4827Z" fill="black"/>
<path d="M29.7931 46.8005H26.4828V50.1184H29.7931V46.8005Z" fill="black"/>
<path d="M33.1035 46.8005H29.7931V50.1184H33.1035V46.8005Z" fill="black"/>
<path d="M46.3448 46.8005H43.0345V50.1184H46.3448V46.8005Z" fill="black"/>
<path d="M52.9655 46.8005H49.6552V50.1184H52.9655V46.8005Z" fill="black"/>
<path d="M56.2759 46.8005H52.9655V50.1184H56.2759V46.8005Z" fill="black"/>
<path d="M59.5862 46.8005H56.2759V50.1184H59.5862V46.8005Z" fill="black"/>
<path d="M66.2069 46.8005H62.8965V50.1184H66.2069V46.8005Z" fill="black"/>
<path d="M69.5172 46.8005H66.2069V50.1184H69.5172V46.8005Z" fill="black"/>
<path d="M76.1379 46.8005H72.8276V50.1184H76.1379V46.8005Z" fill="black"/>
<path d="M79.4483 46.8005H76.1379V50.1184H79.4483V46.8005Z" fill="black"/>
<path d="M82.7586 46.8005H79.4483V50.1184H82.7586V46.8005Z" fill="black"/>
<path d="M89.3793 46.8005H86.069V50.1184H89.3793V46.8005Z" fill="black"/>
<path d="M9.93103 50.1184H6.6207V53.436H9.93103V50.1184Z" fill="black"/>
<path d="M19.8621 50.1184H16.5517V53.436H19.8621V50.1184Z" fill="black"/>
<path d="M23.1724 50.1184H19.8621V53.436H23.1724V50.1184Z" fill="black"/>
<path d="M26.4828 50.1184H23.1724V53.436H26.4828V50.1184Z" fill="black"/>
<path d="M33.1035 50.1184H29.7931V53.436H33.1035V50.1184Z" fill="black"/>
<path d="M36.4138 50.1184H33.1035V53.436H36.4138V50.1184Z" fill="black"/>
<path d="M43.0345 50.1184H39.7241V53.436H43.0345V50.1184Z" fill="black"/>
<path d="M49.6552 50.1184H46.3448V53.436H49.6552V50.1184Z" fill="black"/>
<path d="M59.5862 50.1184H56.2759V53.436H59.5862V50.1184Z" fill="black"/>
<path d="M62.8965 50.1184H59.5862V53.436H62.8965V50.1184Z" fill="black"/>
<path d="M66.2069 50.1184H62.8965V53.436H66.2069V50.1184Z" fill="black"/>
<path d="M72.8276 50.1184H69.5172V53.436H72.8276V50.1184Z" fill="black"/>
<path d="M82.7586 50.1184H79.4483V53.436H82.7586V50.1184Z" fill="black"/>
<path d="M9.93103 53.436H6.6207V56.7539H9.93103V53.436Z" fill="black"/>
<path d="M16.5517 53.436H13.2414V56.7539H16.5517V53.436Z" fill="black"/>
<path d="M23.1724 53.436H19.8621V56.7539H23.1724V53.436Z" fill="black"/>
<path d="M26.4828 53.436H23.1724V56.7539H26.4828V53.436Z" fill="black"/>
<path d="M29.7931 53.436H26.4828V56.7539H29.7931V53.436Z" fill="black"/>
<path d="M33.1035 53.436H29.7931V56.7539H33.1035V53.436Z" fill="black"/>
<path d="M36.4138 53.436H33.1035V56.7539H36.4138V53.436Z" fill="black"/>
<path d="M39.7242 53.436H36.4138V56.7539H39.7242V53.436Z" fill="black"/>
<path d="M43.0345 53.436H39.7241V56.7539H43.0345V53.436Z" fill="black"/>
<path d="M56.2759 53.436H52.9655V56.7539H56.2759V53.436Z" fill="black"/>
<path d="M59.5862 53.436H56.2759V56.7539H59.5862V53.436Z" fill="black"/>
<path d="M62.8965 53.436H59.5862V56.7539H62.8965V53.436Z" fill="black"/>
<path d="M89.3793 53.436H86.069V56.7539H89.3793V53.436Z" fill="black"/>
<path d="M9.93103 56.7539H6.6207V60.0713H9.93103V56.7539Z" fill="black"/>
<path d="M16.5517 56.7539H13.2414V60.0713H16.5517V56.7539Z" fill="black"/>
<path d="M19.8621 56.7539H16.5517V60.0713H19.8621V56.7539Z" fill="black"/>
<path d="M26.4828 56.7539H23.1724V60.0713H26.4828V56.7539Z" fill="black"/>
<path d="M33.1035 56.7539H29.7931V60.0713H33.1035V56.7539Z" fill="black"/>
<path d="M39.7242 56.7539H36.4138V60.0713H39.7242V56.7539Z" fill="black"/>
<path d="M43.0345 56.7539H39.7241V60.0713H43.0345V56.7539Z" fill="black"/>
<path d="M49.6552 56.7539H46.3448V60.0713H49.6552V56.7539Z" fill="black"/>
<path d="M56.2759 56.7539H52.9655V60.0713H56.2759V56.7539Z" fill="black"/>
<path d="M59.5862 56.7539H56.2759V60.0713H59.5862V56.7539Z" fill="black"/>
<path d="M62.8965 56.7539H59.5862V60.0713H62.8965V56.7539Z" fill="black"/>
<path d="M89.3793 56.7539H86.069V60.0713H89.3793V56.7539Z" fill="black"/>
<path d="M9.93103 60.0713H6.6207V63.3889H9.93103V60.0713Z" fill="black"/>
<path d="M29.7931 60.0713H26.4828V63.3889H29.7931V60.0713Z" fill="black"/>
<path d="M33.1035 60.0713H29.7931V63.3889H33.1035V60.0713Z" fill="black"/>
<path d="M36.4138 60.0713H33.1035V63.3889H36.4138V60.0713Z" fill="black"/>
<path d="M43.0345 60.0713H39.7241V63.3889H43.0345V60.0713Z" fill="black"/>
<path d="M49.6552 60.0713H46.3448V63.3889H49.6552V60.0713Z" fill="black"/>
<path d="M52.9655 60.0713H49.6552V63.3889H52.9655V60.0713Z" fill="black"/>
<path d="M59.5862 60.0713H56.2759V63.3889H59.5862V60.0713Z" fill="black"/>
<path d="M62.8965 60.0713H59.5862V63.3889H62.8965V60.0713Z" fill="black"/>
<path d="M36.4138 63.3889H33.1035V66.7065H36.4138V63.3889Z" fill="black"/>
<path d="M39.7242 63.3889H36.4138V66.7065H39.7242V63.3889Z" fill="black"/>
<path d="M43.0345 63.3889H39.7241V66.7065H43.0345V63.3889Z" fill="black"/>
<path d="M52.9655 63.3889H49.6552V66.7065H52.9655V63.3889Z" fill="black"/>
<path d="M59.5862 63.3889H56.2759V66.7065H59.5862V63.3889Z" fill="black"/>
<path d="M62.8965 63.3889H59.5862V66.7065H62.8965V63.3889Z" fill="black"/>
<path d="M43.0345 66.7065H39.7241V70.0247H43.0345V66.7065Z" fill="black"/>
<path d="M46.3448 66.7065H43.0345V70.0247H46.3448V66.7065Z" fill="black"/>
<path d="M49.6552 66.7065H46.3448V70.0247H49.6552V66.7065Z" fill="black"/>
<path d="M52.9655 66.7065H49.6552V70.0247H52.9655V66.7065Z" fill="black"/>
<path d="M56.2759 66.7065H52.9655V70.0247H56.2759V66.7065Z" fill="black"/>
<path d="M62.8965 66.7065H59.5862V70.0247H62.8965V66.7065Z" fill="black"/>
<path d="M89.3793 66.7065H86.069V70.0247H89.3793V66.7065Z" fill="black"/>
<path d="M36.4138 70.0247H33.1035V73.3423H36.4138V70.0247Z" fill="black"/>
<path d="M39.7242 70.0247H36.4138V73.3423H39.7242V70.0247Z" fill="black"/>
<path d="M43.0345 70.0247H39.7241V73.3423H43.0345V70.0247Z" fill="black"/>
<path d="M46.3448 70.0247H43.0345V73.3423H46.3448V70.0247Z" fill="black"/>
<path d="M62.8965 70.0247H59.5862V73.3423H62.8965V70.0247Z" fill="black"/>
<path d="M89.3793 70.0247H86.069V73.3423H89.3793V70.0247Z" fill="black"/>
<path d="M36.4138 73.3423H33.1035V76.6599H36.4138V73.3423Z" fill="black"/>
<path d="M43.0345 73.3423H39.7241V76.6599H43.0345V73.3423Z" fill="black"/>
<path d="M46.3448 73.3423H43.0345V76.6599H46.3448V73.3423Z" fill="black"/>
<path d="M49.6552 73.3423H46.3448V76.6599H49.6552V73.3423Z" fill="black"/>
<path d="M52.9655 73.3423H49.6552V76.6599H52.9655V73.3423Z" fill="black"/>
<path d="M56.2759 73.3423H52.9655V76.6599H56.2759V73.3423Z" fill="black"/>
<path d="M59.5862 73.3423H56.2759V76.6599H59.5862V73.3423Z" fill="black"/>
<path d="M62.8965 73.3423H59.5862V76.6599H62.8965V73.3423Z" fill="black"/>
<path d="M36.4138 76.6599H33.1035V79.9778H36.4138V76.6599Z" fill="black"/>
<path d="M49.6552 76.6599H46.3448V79.9778H49.6552V76.6599Z" fill="black"/>
<path d="M62.8965 76.6599H59.5862V79.9778H62.8965V76.6599Z" fill="black"/>
<path d="M89.3793 76.6599H86.069V79.9778H89.3793V76.6599Z" fill="black"/>
<path d="M36.4138 79.9778H33.1035V83.2952H36.4138V79.9778Z" fill="black"/>
<path d="M39.7242 79.9778H36.4138V83.2952H39.7242V79.9778Z" fill="black"/>
<path d="M43.0345 79.9778H39.7241V83.2952H43.0345V79.9778Z" fill="black"/>
<path d="M59.5862 79.9778H56.2759V83.2952H59.5862V79.9778Z" fill="black"/>
<path d="M89.3793 79.9778H86.069V83.2952H89.3793V79.9778Z" fill="black"/>
<path d="M39.7242 83.2952H36.4138V86.6128H39.7242V83.2952Z" fill="black"/>
<path d="M43.0345 83.2952H39.7241V86.6128H43.0345V83.2952Z" fill="black"/>
<path d="M49.6552 83.2952H46.3448V86.6128H49.6552V83.2952Z" fill="black"/>
<path d="M56.2759 83.2952H52.9655V86.6128H56.2759V83.2952Z" fill="black"/>
<path d="M59.5862 83.2952H56.2759V86.6128H59.5862V83.2952Z" fill="black"/>
<path d="M62.8965 83.2952H59.5862V86.6128H62.8965V83.2952Z" fill="black"/>
<path d="M89.3793 83.2952H86.069V86.6128H89.3793V83.2952Z" fill="black"/>
<path d="M36.4138 86.6128H33.1035V89.9309H36.4138V86.6128Z" fill="black"/>
<path d="M39.7242 86.6128H36.4138V89.9309H39.7242V86.6128Z" fill="black"/>
<path d="M46.3448 86.6128H43.0345V89.9309H46.3448V86.6128Z" fill="black"/>
<path d="M49.6552 86.6128H46.3448V89.9309H49.6552V86.6128Z" fill="black"/>
<path d="M52.9655 86.6128H49.6552V89.9309H52.9655V86.6128Z" fill="black"/>
<path d="M56.2759 86.6128H52.9655V89.9309H56.2759V86.6128Z" fill="black"/>
<path d="M66.2069 53.436H62.8965V56.7539H66.2069V53.436Z" fill="black"/>
<path d="M69.5172 53.436H66.2069V56.7539H69.5172V53.436Z" fill="black"/>
<path d="M72.8276 53.436H69.5172V56.7539H72.8276V53.436Z" fill="black"/>
<path d="M76.1379 53.436H72.8276V56.7539H76.1379V53.436Z" fill="black"/>
<path d="M79.4483 53.436H76.1379V56.7539H79.4483V53.436Z" fill="black"/>
<path d="M86.069 53.436H82.7586V56.7539H86.069V53.436Z" fill="black"/>
<path d="M86.069 56.7539H82.7586V60.0713H86.069V56.7539Z" fill="black"/>
<path d="M66.2069 60.0713H62.8965V63.3889H66.2069V60.0713Z" fill="black"/>
<path d="M69.5172 60.0713H66.2069V63.3889H69.5172V60.0713Z" fill="black"/>
<path d="M72.8276 60.0713H69.5172V63.3889H72.8276V60.0713Z" fill="black"/>
<path d="M76.1379 60.0713H72.8276V63.3889H76.1379V60.0713Z" fill="black"/>
<path d="M82.7586 60.0713H79.4483V63.3889H82.7586V60.0713Z" fill="black"/>
<path d="M86.069 60.0713H82.7586V63.3889H86.069V60.0713Z" fill="black"/>
<path d="M76.1379 63.3889H72.8276V66.7065H76.1379V63.3889Z" fill="black"/>
<path d="M69.5172 66.7065H66.2069V70.0247H69.5172V66.7065Z" fill="black"/>
<path d="M76.1379 66.7065H72.8276V70.0247H76.1379V66.7065Z" fill="black"/>
<path d="M79.4483 66.7065H76.1379V70.0247H79.4483V66.7065Z" fill="black"/>
<path d="M86.069 66.7065H82.7586V70.0247H86.069V66.7065Z" fill="black"/>
<path d="M76.1379 70.0247H72.8276V73.3423H76.1379V70.0247Z" fill="black"/>
<path d="M66.2069 73.3423H62.8965V76.6599H66.2069V73.3423Z" fill="black"/>
<path d="M69.5172 73.3423H66.2069V76.6599H69.5172V73.3423Z" fill="black"/>
<path d="M72.8276 73.3423H69.5172V76.6599H72.8276V73.3423Z" fill="black"/>
<path d="M76.1379 73.3423H72.8276V76.6599H76.1379V73.3423Z" fill="black"/>
<path d="M79.4483 73.3423H76.1379V76.6599H79.4483V73.3423Z" fill="black"/>
<path d="M82.7586 73.3423H79.4483V76.6599H82.7586V73.3423Z" fill="black"/>
<path d="M66.2069 76.6599H62.8965V79.9778H66.2069V76.6599Z" fill="black"/>
<path d="M69.5172 76.6599H66.2069V79.9778H69.5172V76.6599Z" fill="black"/>
<path d="M72.8276 76.6599H69.5172V79.9778H72.8276V76.6599Z" fill="black"/>
<path d="M76.1379 76.6599H72.8276V79.9778H76.1379V76.6599Z" fill="black"/>
<path d="M82.7586 76.6599H79.4483V79.9778H82.7586V76.6599Z" fill="black"/>
<path d="M86.069 76.6599H82.7586V79.9778H86.069V76.6599Z" fill="black"/>
<path d="M72.8276 79.9778H69.5172V83.2952H72.8276V79.9778Z" fill="black"/>
<path d="M82.7586 79.9778H79.4483V83.2952H82.7586V79.9778Z" fill="black"/>
<path d="M76.1379 83.2952H72.8276V86.6128H76.1379V83.2952Z" fill="black"/>
<path d="M79.4483 83.2952H76.1379V86.6128H79.4483V83.2952Z" fill="black"/>
<path d="M66.2069 86.6128H62.8965V89.9309H66.2069V86.6128Z" fill="black"/>
<path d="M69.5172 86.6128H66.2069V89.9309H69.5172V86.6128Z" fill="black"/>
<path d="M76.1379 86.6128H72.8276V89.9309H76.1379V86.6128Z" fill="black"/>
<path d="M82.7586 86.6128H79.4483V89.9309H82.7586V86.6128Z" fill="black"/>
<path d="M86.069 86.6128H82.7586V89.9309H86.069V86.6128Z" fill="black"/>
<path d="M89.3793 86.6128H86.069V89.9309H89.3793V86.6128Z" fill="black"/>
<path d="M26.3172 6.98804H10.0966H6.6207V10.4717V26.7285V30.2122H10.0966H26.3172H29.7931V26.7285V10.4717V6.98804H26.3172ZM26.3172 26.7285H10.0966V10.4717H26.3172V26.7285Z" fill="black"/>
<path d="M85.9034 6.98804H69.6828H66.2069V10.4717V26.7285V30.2122H69.6828H85.9034H89.3793V26.7285V10.4717V6.98804H85.9034ZM85.9034 26.7285H69.6828V10.4717H85.9034V26.7285Z" fill="black"/>
<path d="M26.3172 66.7065H10.0966H6.6207V70.1902V86.4473V89.9309H10.0966H26.3172H29.7931V86.4473V70.1902V66.7065H26.3172ZM26.3172 86.4473H10.0966V70.1902H26.3172V86.4473Z" fill="black"/>
<path d="M23.1724 13.6235H13.2414V23.5764H23.1724V13.6235Z" fill="black"/>
<path d="M82.7586 13.6235H72.8276V23.5764H82.7586V13.6235Z" fill="black"/>
<path d="M23.1724 73.3423H13.2414V83.2952H23.1724V73.3423Z" fill="black"/>
</svg>
