<svg width="96" height="97" fill="none" xmlns="http://www.w3.org/2000/svg"><path d="M34.91 6.186H32V9.1h2.91V6.186zm2.908 0H34.91V9.1h2.91V6.186z" fill="#000"/><path d="M40.727 6.186h-2.909V9.1h2.91V6.186z" fill="#000"/><path d="M43.636 6.186h-2.909V9.1h2.91V6.186z" fill="#000"/><path d="M46.545 6.186h-2.909V9.1h2.91V6.186z" fill="#000"/><path d="M49.455 6.186h-2.91V9.1h2.91V6.186z" fill="#000"/><path d="M52.364 6.186h-2.91V9.1h2.91V6.186zm5.818 0h-2.91V9.1h2.91V6.186zm2.908 0h-2.908V9.1h2.909V6.186zM32 9.102h-2.91v2.915H32V9.102zm8.727 0h-2.909v2.915h2.91V9.102zm11.637 0h-2.91v2.915h2.91V9.102zm5.818 0h-2.91v2.915h2.91V9.102zm8.728 0H64v2.915h2.91V9.102zM32 12.017h-2.91v2.916H32v-2.916zm2.91 0H32v2.916h2.91v-2.916zm14.545 0h-2.91v2.916h2.91v-2.916zm5.818 0h-2.91v2.916h2.91v-2.916zM32 14.933h-2.91v2.915H32v-2.915zm5.818 0H34.91v2.915h2.91v-2.915z" fill="#000"/><path d="M40.727 14.933h-2.909v2.915h2.91v-2.915z" fill="#000"/><path d="M43.636 14.933h-2.909v2.915h2.91v-2.915zm5.819 0h-2.91v2.915h2.91v-2.915z" fill="#000"/><path d="M52.364 14.933h-2.91v2.915h2.91v-2.915zm5.818 0h-2.91v2.915h2.91v-2.915zm5.818 0h-2.91v2.915H64v-2.915zm-26.182 2.915H34.91v2.916h2.91v-2.916zm8.727 0h-2.909v2.916h2.91v-2.916z" fill="#000"/><path d="M49.455 17.848h-2.91v2.916h2.91v-2.916z" fill="#000"/><path d="M52.364 17.848h-2.91v2.916h2.91v-2.916zm8.726 0h-2.908v2.916h2.909v-2.916z" fill="#000"/><path d="M64 17.848h-2.91v2.916H64v-2.916zm-20.364 2.916h-2.909v2.915h2.91v-2.915z" fill="#000"/><path d="M46.545 20.764h-2.909v2.915h2.91v-2.915z" fill="#000"/><path d="M49.455 20.764h-2.91v2.915h2.91v-2.915zm5.818 0h-2.91v2.915h2.91v-2.915zm5.817 0h-2.908v2.915h2.909v-2.915zm5.82 0H64v2.915h2.91v-2.915zM32 23.68h-2.91v2.915H32v-2.916zm5.818 0H34.91v2.915h2.91v-2.916zm5.818 0h-2.909v2.915h2.91v-2.916zm5.819 0h-2.91v2.915h2.91v-2.916zm5.818 0h-2.91v2.915h2.91v-2.916zm5.817 0h-2.908v2.915h2.909v-2.916zm5.82 0H64v2.915h2.91v-2.916zM32 26.595h-2.91v2.916H32v-2.916zm2.91 0H32v2.916h2.91v-2.916zm5.817 0h-2.909v2.916h2.91v-2.916zm5.818 0h-2.909v2.916h2.91v-2.916zM8.727 29.51H5.818v2.916h2.91v-2.915zm17.455 0h-2.91v2.916h2.91v-2.915z" fill="#000"/><path d="M32 29.51h-2.91v2.916H32v-2.915zm2.91 0H32v2.916h2.91v-2.915zm5.817 0h-2.909v2.916h2.91v-2.915z" fill="#000"/><path d="M43.636 29.51h-2.909v2.916h2.91v-2.915zm5.819 0h-2.91v2.916h2.91v-2.915z" fill="#000"/><path d="M52.364 29.51h-2.91v2.916h2.91v-2.915zm5.818 0h-2.91v2.916h2.91v-2.915zm8.728 0H64v2.916h2.91v-2.915zm2.908 0H66.91v2.916h2.91v-2.915z" fill="#000"/><path d="M72.727 29.51h-2.909v2.916h2.91v-2.915zm8.727 0h-2.908v2.916h2.908v-2.915zm2.91 0h-2.91v2.916h2.91v-2.915z" fill="#000"/><path d="M87.273 29.51h-2.91v2.916h2.91v-2.915zM8.727 32.426H5.818v2.916h2.91v-2.916z" fill="#000"/><path d="M11.636 32.426H8.727v2.916h2.91v-2.916zm5.818 0h-2.909v2.916h2.91v-2.916zm11.636 0h-2.908v2.916h2.909v-2.916z" fill="#000"/><path d="M32 32.426h-2.91v2.916H32v-2.916zm17.455 0h-2.91v2.916h2.91v-2.916zm8.727 0h-2.91v2.916h2.91v-2.916zm2.908 0h-2.908v2.916h2.909v-2.916z" fill="#000"/><path d="M64 32.426h-2.91v2.916H64v-2.916zm2.91 0H64v2.916h2.91v-2.916zm2.908 0H66.91v2.916h2.91v-2.916zm5.818 0h-2.909v2.916h2.91v-2.916z" fill="#000"/><path d="M78.546 32.426h-2.91v2.916h2.91v-2.916zm5.818 0h-2.91v2.916h2.91v-2.916z" fill="#000"/><path d="M87.273 32.426h-2.91v2.916h2.91v-2.916zm-75.637 2.916H8.727v2.915h2.91v-2.915zm5.818 0h-2.909v2.915h2.91v-2.915z" fill="#000"/><path d="M20.364 35.342h-2.91v2.915h2.91v-2.915z" fill="#000"/><path d="M23.273 35.342h-2.91v2.915h2.91v-2.915z" fill="#000"/><path d="M26.182 35.342h-2.91v2.915h2.91v-2.915zm2.908 0h-2.908v2.915h2.909v-2.915z" fill="#000"/><path d="M32 35.342h-2.91v2.915H32v-2.915zm5.818 0H34.91v2.915h2.91v-2.915z" fill="#000"/><path d="M40.727 35.342h-2.909v2.915h2.91v-2.915z" fill="#000"/><path d="M43.636 35.342h-2.909v2.915h2.91v-2.915zm23.274 0H64v2.915h2.91v-2.915zm11.636 0h-2.91v2.915h2.91v-2.915zm-64 2.915h-2.91v2.916h2.91v-2.916zm14.544 0h-2.908v2.916h2.909v-2.916zm20.365 0h-2.91v2.916h2.91v-2.916z" fill="#000"/><path d="M52.364 38.257h-2.91v2.916h2.91v-2.916z" fill="#000"/><path d="M55.273 38.257h-2.91v2.916h2.91v-2.916zm5.817 0h-2.908v2.916h2.909v-2.916z" fill="#000"/><path d="M64 38.257h-2.91v2.916H64v-2.916zm2.91 0H64v2.916h2.91v-2.916zm8.726 0h-2.909v2.916h2.91v-2.916z" fill="#000"/><path d="M78.546 38.257h-2.91v2.916h2.91v-2.916z" fill="#000"/><path d="M81.454 38.257h-2.908v2.916h2.908v-2.916zM8.727 41.173H5.818v2.915h2.91v-2.915zm5.819 0h-2.91v2.915h2.91v-2.915zm8.727 0h-2.91v2.915h2.91v-2.915z" fill="#000"/><path d="M26.182 41.173h-2.91v2.915h2.91v-2.915zm5.818 0h-2.91v2.915H32v-2.915zm2.91 0H32v2.915h2.91v-2.915zm2.908 0H34.91v2.915h2.91v-2.915z" fill="#000"/><path d="M40.727 41.173h-2.909v2.915h2.91v-2.915z" fill="#000"/><path d="M43.636 41.173h-2.909v2.915h2.91v-2.915z" fill="#000"/><path d="M46.545 41.173h-2.909v2.915h2.91v-2.915z" fill="#000"/><path d="M49.455 41.173h-2.91v2.915h2.91v-2.915zm17.455 0H64v2.915h2.91v-2.915zm5.817 0h-2.909v2.915h2.91v-2.915zm17.455 0h-2.91v2.915h2.91v-2.915zM8.727 44.088H5.818v2.916h2.91v-2.916z" fill="#000"/><path d="M11.636 44.088H8.727v2.916h2.91v-2.916z" fill="#000"/><path d="M14.546 44.088h-2.91v2.916h2.91v-2.916z" fill="#000"/><path d="M17.454 44.088h-2.909v2.916h2.91v-2.916z" fill="#000"/><path d="M20.364 44.088h-2.91v2.916h2.91v-2.916zm8.726 0h-2.908v2.916h2.909v-2.916z" fill="#000"/><path d="M32 44.088h-2.91v2.916H32v-2.916zm8.727 0h-2.909v2.916h2.91v-2.916z" fill="#000"/><path d="M43.636 44.088h-2.909v2.916h2.91v-2.916z" fill="#000"/><path d="M46.545 44.088h-2.909v2.916h2.91v-2.916z" fill="#000"/><path d="M49.455 44.088h-2.91v2.916h2.91v-2.916zm11.635 0h-2.908v2.916h2.909v-2.916z" fill="#000"/><path d="M64 44.088h-2.91v2.916H64v-2.916zm8.727 0h-2.909v2.916h2.91v-2.916z" fill="#000"/><path d="M75.636 44.088h-2.909v2.916h2.91v-2.916z" fill="#000"/><path d="M78.546 44.088h-2.91v2.916h2.91v-2.916zm8.727 0h-2.91v2.916h2.91v-2.916z" fill="#000"/><path d="M90.182 44.088h-2.91v2.916h2.91v-2.916zM8.727 47.004H5.818v2.915h2.91v-2.915zm5.819 0h-2.91v2.915h2.91v-2.915zm8.727 0h-2.91v2.915h2.91v-2.915z" fill="#000"/><path d="M26.182 47.004h-2.91v2.915h2.91v-2.915zm2.908 0h-2.908v2.915h2.909v-2.915z" fill="#000"/><path d="M32 47.004h-2.91v2.915H32v-2.915zm2.91 0H32v2.915h2.91v-2.915zm11.635 0h-2.909v2.915h2.91v-2.915z" fill="#000"/><path d="M49.455 47.004h-2.91v2.915h2.91v-2.915z" fill="#000"/><path d="M52.364 47.004h-2.91v2.915h2.91v-2.915z" fill="#000"/><path d="M55.273 47.004h-2.91v2.915h2.91v-2.915zm11.637 0H64v2.915h2.91v-2.915zm8.726 0h-2.909v2.915h2.91v-2.915z" fill="#000"/><path d="M78.546 47.004h-2.91v2.915h2.91v-2.915z" fill="#000"/><path d="M81.454 47.004h-2.908v2.915h2.908v-2.915zm2.91 0h-2.91v2.915h2.91v-2.915zM8.727 49.92H5.818v2.915h2.91V49.92z" fill="#000"/><path d="M11.636 49.92H8.727v2.915h2.91V49.92z" fill="#000"/><path d="M14.546 49.92h-2.91v2.915h2.91V49.92z" fill="#000"/><path d="M17.454 49.92h-2.909v2.915h2.91V49.92z" fill="#000"/><path d="M20.364 49.92h-2.91v2.915h2.91V49.92zm11.636 0h-2.91v2.915H32V49.92zm2.91 0H32v2.915h2.91V49.92zm2.908 0H34.91v2.915h2.91V49.92zm8.727 0h-2.909v2.915h2.91V49.92z" fill="#000"/><path d="M49.455 49.92h-2.91v2.915h2.91V49.92zm5.818 0h-2.91v2.915h2.91V49.92zm14.545 0H66.91v2.915h2.91V49.92z" fill="#000"/><path d="M72.727 49.92h-2.909v2.915h2.91V49.92zm11.637 0h-2.91v2.915h2.91V49.92zm5.818 0h-2.91v2.915h2.91V49.92zM8.727 52.835H5.818v2.916h2.91v-2.916zm11.637 0h-2.91v2.916h2.91v-2.916z" fill="#000"/><path d="M23.273 52.835h-2.91v2.916h2.91v-2.916z" fill="#000"/><path d="M26.182 52.835h-2.91v2.916h2.91v-2.916zm2.908 0h-2.908v2.916h2.909v-2.916zm5.82 0H32v2.916h2.91v-2.916zm2.908 0H34.91v2.916h2.91v-2.916zm5.818 0h-2.909v2.916h2.91v-2.916zm5.819 0h-2.91v2.916h2.91v-2.916z" fill="#000"/><path d="M52.364 52.835h-2.91v2.916h2.91v-2.916zm11.636 0h-2.91v2.916H64v-2.916zm17.454 0h-2.908v2.916h2.908v-2.916zm2.91 0h-2.91v2.916h2.91v-2.916zM8.727 55.75H5.818v2.916h2.91v-2.915z" fill="#000"/><path d="M11.636 55.75H8.727v2.916h2.91v-2.915zm5.818 0h-2.909v2.916h2.91v-2.915z" fill="#000"/><path d="M20.364 55.75h-2.91v2.916h2.91v-2.915zm8.726 0h-2.908v2.916h2.909v-2.915zm5.82 0H32v2.916h2.91v-2.915zm2.908 0H34.91v2.916h2.91v-2.915zm5.818 0h-2.909v2.916h2.91v-2.915zm11.637 0h-2.91v2.916h2.91v-2.915zm5.817 0h-2.908v2.916h2.909v-2.915z" fill="#000"/><path d="M64 55.75h-2.91v2.916H64v-2.915zm2.91 0H64v2.916h2.91v-2.915zm2.908 0H66.91v2.916h2.91v-2.915z" fill="#000"/><path d="M72.727 55.75h-2.909v2.916h2.91v-2.915z" fill="#000"/><path d="M75.636 55.75h-2.909v2.916h2.91v-2.915z" fill="#000"/><path d="M78.546 55.75h-2.91v2.916h2.91v-2.915zm5.818 0h-2.91v2.916h2.91v-2.915z" fill="#000"/><path d="M87.273 55.75h-2.91v2.916h2.91v-2.915z" fill="#000"/><path d="M90.182 55.75h-2.91v2.916h2.91v-2.915zM8.727 58.666H5.818v2.916h2.91v-2.916z" fill="#000"/><path d="M11.636 58.666H8.727v2.916h2.91v-2.916z" fill="#000"/><path d="M14.546 58.666h-2.91v2.916h2.91v-2.916zm11.636 0h-2.91v2.916h2.91v-2.916zm11.636 0H34.91v2.916h2.91v-2.916zm8.727 0h-2.909v2.916h2.91v-2.916z" fill="#000"/><path d="M49.455 58.666h-2.91v2.916h2.91v-2.916zm5.818 0h-2.91v2.916h2.91v-2.916z" fill="#000"/><path d="M58.182 58.666h-2.91v2.916h2.91v-2.916zm2.908 0h-2.908v2.916h2.909v-2.916z" fill="#000"/><path d="M64 58.666h-2.91v2.916H64v-2.916zm5.818 0H66.91v2.916h2.91v-2.916z" fill="#000"/><path d="M72.727 58.666h-2.909v2.916h2.91v-2.916zm8.727 0h-2.908v2.916h2.908v-2.916zm8.728 0h-2.91v2.916h2.91v-2.916zM8.727 61.582H5.818v2.915h2.91v-2.915zm5.819 0h-2.91v2.915h2.91v-2.915z" fill="#000"/><path d="M17.454 61.582h-2.909v2.915h2.91v-2.915z" fill="#000"/><path d="M20.364 61.582h-2.91v2.915h2.91v-2.915zm11.636 0h-2.91v2.915H32v-2.915zm5.818 0H34.91v2.915h2.91v-2.915z" fill="#000"/><path d="M40.727 61.582h-2.909v2.915h2.91v-2.915z" fill="#000"/><path d="M43.636 61.582h-2.909v2.915h2.91v-2.915zm5.819 0h-2.91v2.915h2.91v-2.915z" fill="#000"/><path d="M52.364 61.582h-2.91v2.915h2.91v-2.915z" fill="#000"/><path d="M55.273 61.582h-2.91v2.915h2.91v-2.915zm8.727 0h-2.91v2.915H64v-2.915zm2.91 0H64v2.915h2.91v-2.915zm5.817 0h-2.909v2.915h2.91v-2.915z" fill="#000"/><path d="M75.636 61.582h-2.909v2.915h2.91v-2.915z" fill="#000"/><path d="M78.546 61.582h-2.91v2.915h2.91v-2.915zM8.727 64.497H5.818v2.916h2.91v-2.916zm14.546 0h-2.91v2.916h2.91v-2.916z" fill="#000"/><path d="M26.182 64.497h-2.91v2.916h2.91v-2.916zm8.728 0H32v2.916h2.91v-2.916zm2.908 0H34.91v2.916h2.91v-2.916zm17.455 0h-2.91v2.916h2.91v-2.916z" fill="#000"/><path d="M58.182 64.497h-2.91v2.916h2.91v-2.916zm5.818 0h-2.91v2.916H64v-2.916zm2.91 0H64v2.916h2.91v-2.916zm2.908 0H66.91v2.916h2.91v-2.916z" fill="#000"/><path d="M72.727 64.497h-2.909v2.916h2.91v-2.916z" fill="#000"/><path d="M75.636 64.497h-2.909v2.916h2.91v-2.916z" fill="#000"/><path d="M78.546 64.497h-2.91v2.916h2.91v-2.916zm5.818 0h-2.91v2.916h2.91v-2.916z" fill="#000"/><path d="M87.273 64.497h-2.91v2.916h2.91v-2.916z" fill="#000"/><path d="M90.182 64.497h-2.91v2.916h2.91v-2.916zM32 67.413h-2.91v2.916H32v-2.916zm8.727 0h-2.909v2.916h2.91v-2.916z" fill="#000"/><path d="M43.636 67.413h-2.909v2.916h2.91v-2.916z" fill="#000"/><path d="M46.545 67.413h-2.909v2.916h2.91v-2.916zm8.728 0h-2.91v2.916h2.91v-2.916z" fill="#000"/><path d="M58.182 67.413h-2.91v2.916h2.91v-2.916zm2.908 0h-2.908v2.916h2.909v-2.916zm5.82 0H64v2.916h2.91v-2.916zm11.636 0h-2.91v2.916h2.91v-2.916zm2.908 0h-2.908v2.916h2.908v-2.916zM34.91 70.329H32v2.915h2.91v-2.915zm2.908 0H34.91v2.915h2.91v-2.915zm5.818 0h-2.909v2.915h2.91v-2.915z" fill="#000"/><path d="M46.545 70.329h-2.909v2.915h2.91v-2.915z" fill="#000"/><path d="M49.455 70.329h-2.91v2.915h2.91v-2.915z" fill="#000"/><path d="M52.364 70.329h-2.91v2.915h2.91v-2.915z" fill="#000"/><path d="M55.273 70.329h-2.91v2.915h2.91v-2.915zm5.817 0h-2.908v2.915h2.909v-2.915z" fill="#000"/><path d="M64 70.329h-2.91v2.915H64v-2.915zm2.91 0H64v2.915h2.91v-2.915zm5.817 0h-2.909v2.915h2.91v-2.915zm5.819 0h-2.91v2.915h2.91v-2.915z" fill="#000"/><path d="M81.454 70.329h-2.908v2.915h2.908v-2.915zm2.91 0h-2.91v2.915h2.91v-2.915zm-46.546 2.915H34.91v2.915h2.91v-2.915zm8.727 0h-2.909v2.915h2.91v-2.915zm17.455 0h-2.91v2.915H64v-2.915zm2.91 0H64v2.915h2.91v-2.915zm11.636 0h-2.91v2.915h2.91v-2.915zm8.727 0h-2.91v2.915h2.91v-2.915zM37.818 76.16H34.91v2.915h2.91v-2.916zm5.818 0h-2.909v2.915h2.91v-2.916z" fill="#000"/><path d="M46.545 76.16h-2.909v2.915h2.91v-2.916zm5.819 0h-2.91v2.915h2.91v-2.916z" fill="#000"/><path d="M55.273 76.16h-2.91v2.915h2.91v-2.916zm5.817 0h-2.908v2.915h2.909v-2.916z" fill="#000"/><path d="M64 76.16h-2.91v2.915H64v-2.916zm2.91 0H64v2.915h2.91v-2.916zm2.908 0H66.91v2.915h2.91v-2.916z" fill="#000"/><path d="M72.727 76.16h-2.909v2.915h2.91v-2.916z" fill="#000"/><path d="M75.636 76.16h-2.909v2.915h2.91v-2.916z" fill="#000"/><path d="M78.546 76.16h-2.91v2.915h2.91v-2.916z" fill="#000"/><path d="M81.454 76.16h-2.908v2.915h2.908v-2.916zM34.91 79.075H32v2.916h2.91v-2.916zm2.908 0H34.91v2.916h2.91v-2.916zm5.818 0h-2.909v2.916h2.91v-2.916zm11.637 0h-2.91v2.916h2.91v-2.916z" fill="#000"/><path d="M58.182 79.075h-2.91v2.916h2.91v-2.916zm2.908 0h-2.908v2.916h2.909v-2.916z" fill="#000"/><path d="M64 79.075h-2.91v2.916H64v-2.916zm2.91 0H64v2.916h2.91v-2.916zm8.726 0h-2.909v2.916h2.91v-2.916zm5.818 0h-2.908v2.916h2.908v-2.916zm2.91 0h-2.91v2.916h2.91v-2.916z" fill="#000"/><path d="M87.273 79.075h-2.91v2.916h2.91v-2.916zM40.727 81.99h-2.909v2.916h2.91v-2.915zm8.728 0h-2.91v2.916h2.91v-2.915zm8.727 0h-2.91v2.916h2.91v-2.915zm11.636 0H66.91v2.916h2.91v-2.915z" fill="#000"/><path d="M72.727 81.99h-2.909v2.916h2.91v-2.915z" fill="#000"/><path d="M75.636 81.99h-2.909v2.916h2.91v-2.915z" fill="#000"/><path d="M78.546 81.99h-2.91v2.916h2.91v-2.915z" fill="#000"/><path d="M81.454 81.99h-2.908v2.916h2.908v-2.915zm2.91 0h-2.91v2.916h2.91v-2.915z" fill="#000"/><path d="M87.273 81.99h-2.91v2.916h2.91v-2.915zm-40.728 2.916h-2.909v2.915h2.91v-2.915z" fill="#000"/><path d="M49.455 84.906h-2.91v2.915h2.91v-2.915z" fill="#000"/><path d="M52.364 84.906h-2.91v2.915h2.91v-2.915zm17.454 0H66.91v2.915h2.91v-2.915zm8.728 0h-2.91v2.915h2.91v-2.915zm2.908 0h-2.908v2.915h2.908v-2.915zm2.91 0h-2.91v2.915h2.91v-2.915zm5.818 0h-2.91v2.915h2.91v-2.915zM32 87.822h-2.91v2.915H32v-2.915zm5.818 0H34.91v2.915h2.91v-2.915zm8.727 0h-2.909v2.915h2.91v-2.915zm14.545 0h-2.908v2.915h2.909v-2.915z" fill="#000"/><path d="M64 87.822h-2.91v2.915H64v-2.915zm5.818 0H66.91v2.915h2.91v-2.915z" fill="#000"/><path d="M72.727 87.822h-2.909v2.915h2.91v-2.915z" fill="#000"/><path d="M75.636 87.822h-2.909v2.915h2.91v-2.915z" fill="#000"/><path d="M78.546 87.822h-2.91v2.915h2.91v-2.915z" fill="#000"/><path d="M81.454 87.822h-2.908v2.915h2.908v-2.915zm2.91 0h-2.91v2.915h2.91v-2.915zM23.127 6.186H5.818v20.409h20.364V6.186h-3.055zm0 17.348H8.873V9.247h14.254v14.287zm64-17.348H69.818v20.409h20.364V6.186h-3.055zm0 17.347H72.873V9.247h14.254v14.286zm-64 46.796H5.818v20.408h20.364V70.33h-3.055zm0 17.347H8.873V73.39h14.254v14.286z" fill="#000"/><path d="M20.364 12.017h-8.728v8.747h8.728v-8.747zm64 0h-8.728v8.747h8.728v-8.747zm-64 64.143h-8.728v8.746h8.728V76.16z" fill="#000"/></svg>