<svg width="96" height="97" viewBox="0 0 96 97" fill="none" xmlns="http://www.w3.org/2000/svg">
<path d="M34.9091 6.18579H32V9.10132H34.9091V6.18579Z" fill="black"/>
<path d="M37.8182 6.18579H34.9091V9.10132H37.8182V6.18579Z" fill="black"/>
<path d="M40.7273 6.18579H37.8182V9.10132H40.7273V6.18579Z" fill="black"/>
<path d="M43.6364 6.18579H40.7273V9.10132H43.6364V6.18579Z" fill="black"/>
<path d="M46.5455 6.18579H43.6364V9.10132H46.5455V6.18579Z" fill="black"/>
<path d="M49.4545 6.18579H46.5455V9.10132H49.4545V6.18579Z" fill="black"/>
<path d="M52.3636 6.18579H49.4545V9.10132H52.3636V6.18579Z" fill="black"/>
<path d="M58.1818 6.18579H55.2727V9.10132H58.1818V6.18579Z" fill="black"/>
<path d="M61.0909 6.18579H58.1818V9.10132H61.0909V6.18579Z" fill="black"/>
<path d="M32 9.10156H29.0909V12.0173H32V9.10156Z" fill="black"/>
<path d="M40.7273 9.10156H37.8182V12.0173H40.7273V9.10156Z" fill="black"/>
<path d="M52.3636 9.10156H49.4545V12.0173H52.3636V9.10156Z" fill="black"/>
<path d="M58.1818 9.10156H55.2727V12.0173H58.1818V9.10156Z" fill="black"/>
<path d="M66.9091 9.10156H64V12.0173H66.9091V9.10156Z" fill="black"/>
<path d="M32 12.0173H29.0909V14.9326H32V12.0173Z" fill="black"/>
<path d="M34.9091 12.0173H32V14.9326H34.9091V12.0173Z" fill="black"/>
<path d="M49.4545 12.0173H46.5455V14.9326H49.4545V12.0173Z" fill="black"/>
<path d="M55.2727 12.0173H52.3636V14.9326H55.2727V12.0173Z" fill="black"/>
<path d="M32 14.9326H29.0909V17.8481H32V14.9326Z" fill="black"/>
<path d="M37.8182 14.9326H34.9091V17.8481H37.8182V14.9326Z" fill="black"/>
<path d="M40.7273 14.9326H37.8182V17.8481H40.7273V14.9326Z" fill="black"/>
<path d="M43.6364 14.9326H40.7273V17.8481H43.6364V14.9326Z" fill="black"/>
<path d="M49.4545 14.9326H46.5455V17.8481H49.4545V14.9326Z" fill="black"/>
<path d="M52.3636 14.9326H49.4545V17.8481H52.3636V14.9326Z" fill="black"/>
<path d="M58.1818 14.9326H55.2727V17.8481H58.1818V14.9326Z" fill="black"/>
<path d="M64 14.9326H61.0909V17.8481H64V14.9326Z" fill="black"/>
<path d="M37.8182 17.8481H34.9091V20.7639H37.8182V17.8481Z" fill="black"/>
<path d="M46.5455 17.8481H43.6364V20.7639H46.5455V17.8481Z" fill="black"/>
<path d="M49.4545 17.8481H46.5455V20.7639H49.4545V17.8481Z" fill="black"/>
<path d="M52.3636 17.8481H49.4545V20.7639H52.3636V17.8481Z" fill="black"/>
<path d="M61.0909 17.8481H58.1818V20.7639H61.0909V17.8481Z" fill="black"/>
<path d="M64 17.8481H61.0909V20.7639H64V17.8481Z" fill="black"/>
<path d="M43.6364 20.7639H40.7273V23.6792H43.6364V20.7639Z" fill="black"/>
<path d="M46.5455 20.7639H43.6364V23.6792H46.5455V20.7639Z" fill="black"/>
<path d="M49.4545 20.7639H46.5455V23.6792H49.4545V20.7639Z" fill="black"/>
<path d="M55.2727 20.7639H52.3636V23.6792H55.2727V20.7639Z" fill="black"/>
<path d="M61.0909 20.7639H58.1818V23.6792H61.0909V20.7639Z" fill="black"/>
<path d="M66.9091 20.7639H64V23.6792H66.9091V20.7639Z" fill="black"/>
<path d="M32 23.6792H29.0909V26.595H32V23.6792Z" fill="black"/>
<path d="M37.8182 23.6792H34.9091V26.595H37.8182V23.6792Z" fill="black"/>
<path d="M43.6364 23.6792H40.7273V26.595H43.6364V23.6792Z" fill="black"/>
<path d="M49.4545 23.6792H46.5455V26.595H49.4545V23.6792Z" fill="black"/>
<path d="M55.2727 23.6792H52.3636V26.595H55.2727V23.6792Z" fill="black"/>
<path d="M61.0909 23.6792H58.1818V26.595H61.0909V23.6792Z" fill="black"/>
<path d="M66.9091 23.6792H64V26.595H66.9091V23.6792Z" fill="black"/>
<path d="M32 26.595H29.0909V29.5107H32V26.595Z" fill="black"/>
<path d="M34.9091 26.595H32V29.5107H34.9091V26.595Z" fill="black"/>
<path d="M40.7273 26.595H37.8182V29.5107H40.7273V26.595Z" fill="black"/>
<path d="M46.5455 26.595H43.6364V29.5107H46.5455V26.595Z" fill="black"/>
<path d="M8.72729 29.5107H5.81818V32.426H8.72729V29.5107Z" fill="black"/>
<path d="M26.1818 29.5107H23.2727V32.426H26.1818V29.5107Z" fill="black"/>
<path d="M32 29.5107H29.0909V32.426H32V29.5107Z" fill="black"/>
<path d="M34.9091 29.5107H32V32.426H34.9091V29.5107Z" fill="black"/>
<path d="M40.7273 29.5107H37.8182V32.426H40.7273V29.5107Z" fill="black"/>
<path d="M43.6364 29.5107H40.7273V32.426H43.6364V29.5107Z" fill="black"/>
<path d="M49.4545 29.5107H46.5455V32.426H49.4545V29.5107Z" fill="black"/>
<path d="M52.3636 29.5107H49.4545V32.426H52.3636V29.5107Z" fill="black"/>
<path d="M58.1818 29.5107H55.2727V32.426H58.1818V29.5107Z" fill="black"/>
<path d="M66.9091 29.5107H64V32.426H66.9091V29.5107Z" fill="black"/>
<path d="M69.8182 29.5107H66.9091V32.426H69.8182V29.5107Z" fill="black"/>
<path d="M72.7273 29.5107H69.8182V32.426H72.7273V29.5107Z" fill="black"/>
<path d="M81.4545 29.5107H78.5455V32.426H81.4545V29.5107Z" fill="black"/>
<path d="M84.3636 29.5107H81.4545V32.426H84.3636V29.5107Z" fill="black"/>
<path d="M87.2728 29.5107H84.3636V32.426H87.2728V29.5107Z" fill="black"/>
<path d="M8.72729 32.426H5.81818V35.3416H8.72729V32.426Z" fill="black"/>
<path d="M11.6364 32.426H8.72729V35.3416H11.6364V32.426Z" fill="black"/>
<path d="M17.4545 32.426H14.5455V35.3416H17.4545V32.426Z" fill="black"/>
<path d="M29.0909 32.426H26.1818V35.3416H29.0909V32.426Z" fill="black"/>
<path d="M32 32.426H29.0909V35.3416H32V32.426Z" fill="black"/>
<path d="M49.4545 32.426H46.5455V35.3416H49.4545V32.426Z" fill="black"/>
<path d="M58.1818 32.426H55.2727V35.3416H58.1818V32.426Z" fill="black"/>
<path d="M61.0909 32.426H58.1818V35.3416H61.0909V32.426Z" fill="black"/>
<path d="M64 32.426H61.0909V35.3416H64V32.426Z" fill="black"/>
<path d="M66.9091 32.426H64V35.3416H66.9091V32.426Z" fill="black"/>
<path d="M69.8182 32.426H66.9091V35.3416H69.8182V32.426Z" fill="black"/>
<path d="M75.6364 32.426H72.7273V35.3416H75.6364V32.426Z" fill="black"/>
<path d="M78.5455 32.426H75.6364V35.3416H78.5455V32.426Z" fill="black"/>
<path d="M84.3636 32.426H81.4545V35.3416H84.3636V32.426Z" fill="black"/>
<path d="M87.2728 32.426H84.3636V35.3416H87.2728V32.426Z" fill="black"/>
<path d="M11.6364 35.3416H8.72729V38.2573H11.6364V35.3416Z" fill="black"/>
<path d="M17.4545 35.3416H14.5455V38.2573H17.4545V35.3416Z" fill="black"/>
<path d="M20.3636 35.3416H17.4545V38.2573H20.3636V35.3416Z" fill="black"/>
<path d="M23.2727 35.3416H20.3636V38.2573H23.2727V35.3416Z" fill="black"/>
<path d="M26.1818 35.3416H23.2727V38.2573H26.1818V35.3416Z" fill="black"/>
<path d="M29.0909 35.3416H26.1818V38.2573H29.0909V35.3416Z" fill="black"/>
<path d="M32 35.3416H29.0909V38.2573H32V35.3416Z" fill="black"/>
<path d="M37.8182 35.3416H34.9091V38.2573H37.8182V35.3416Z" fill="black"/>
<path d="M40.7273 35.3416H37.8182V38.2573H40.7273V35.3416Z" fill="black"/>
<path d="M43.6364 35.3416H40.7273V38.2573H43.6364V35.3416Z" fill="black"/>
<path d="M66.9091 35.3416H64V38.2573H66.9091V35.3416Z" fill="black"/>
<path d="M78.5455 35.3416H75.6364V38.2573H78.5455V35.3416Z" fill="black"/>
<path d="M14.5455 38.2573H11.6364V41.1729H14.5455V38.2573Z" fill="black"/>
<path d="M29.0909 38.2573H26.1818V41.1729H29.0909V38.2573Z" fill="black"/>
<path d="M49.4545 38.2573H46.5455V41.1729H49.4545V38.2573Z" fill="black"/>
<path d="M52.3636 38.2573H49.4545V41.1729H52.3636V38.2573Z" fill="black"/>
<path d="M55.2727 38.2573H52.3636V41.1729H55.2727V38.2573Z" fill="black"/>
<path d="M61.0909 38.2573H58.1818V41.1729H61.0909V38.2573Z" fill="black"/>
<path d="M64 38.2573H61.0909V41.1729H64V38.2573Z" fill="black"/>
<path d="M66.9091 38.2573H64V41.1729H66.9091V38.2573Z" fill="black"/>
<path d="M75.6364 38.2573H72.7273V41.1729H75.6364V38.2573Z" fill="black"/>
<path d="M78.5455 38.2573H75.6364V41.1729H78.5455V38.2573Z" fill="black"/>
<path d="M81.4545 38.2573H78.5455V41.1729H81.4545V38.2573Z" fill="black"/>
<path d="M8.72729 41.1729H5.81818V44.0884H8.72729V41.1729Z" fill="black"/>
<path d="M14.5455 41.1729H11.6364V44.0884H14.5455V41.1729Z" fill="black"/>
<path d="M23.2727 41.1729H20.3636V44.0884H23.2727V41.1729Z" fill="black"/>
<path d="M26.1818 41.1729H23.2727V44.0884H26.1818V41.1729Z" fill="black"/>
<path d="M32 41.1729H29.0909V44.0884H32V41.1729Z" fill="black"/>
<path d="M34.9091 41.1729H32V44.0884H34.9091V41.1729Z" fill="black"/>
<path d="M37.8182 41.1729H34.9091V44.0884H37.8182V41.1729Z" fill="black"/>
<path d="M40.7273 41.1729H37.8182V44.0884H40.7273V41.1729Z" fill="black"/>
<path d="M43.6364 41.1729H40.7273V44.0884H43.6364V41.1729Z" fill="black"/>
<path d="M46.5455 41.1729H43.6364V44.0884H46.5455V41.1729Z" fill="black"/>
<path d="M49.4545 41.1729H46.5455V44.0884H49.4545V41.1729Z" fill="black"/>
<path d="M66.9091 41.1729H64V44.0884H66.9091V41.1729Z" fill="black"/>
<path d="M72.7273 41.1729H69.8182V44.0884H72.7273V41.1729Z" fill="black"/>
<path d="M90.1818 41.1729H87.2727V44.0884H90.1818V41.1729Z" fill="black"/>
<path d="M8.72729 44.0884H5.81818V47.0037H8.72729V44.0884Z" fill="black"/>
<path d="M11.6364 44.0884H8.72729V47.0037H11.6364V44.0884Z" fill="black"/>
<path d="M14.5455 44.0884H11.6364V47.0037H14.5455V44.0884Z" fill="black"/>
<path d="M17.4545 44.0884H14.5455V47.0037H17.4545V44.0884Z" fill="black"/>
<path d="M20.3636 44.0884H17.4545V47.0037H20.3636V44.0884Z" fill="black"/>
<path d="M29.0909 44.0884H26.1818V47.0037H29.0909V44.0884Z" fill="black"/>
<path d="M32 44.0884H29.0909V47.0037H32V44.0884Z" fill="black"/>
<path d="M40.7273 44.0884H37.8182V47.0037H40.7273V44.0884Z" fill="black"/>
<path d="M43.6364 44.0884H40.7273V47.0037H43.6364V44.0884Z" fill="black"/>
<path d="M46.5455 44.0884H43.6364V47.0037H46.5455V44.0884Z" fill="black"/>
<path d="M49.4545 44.0884H46.5455V47.0037H49.4545V44.0884Z" fill="black"/>
<path d="M61.0909 44.0884H58.1818V47.0037H61.0909V44.0884Z" fill="black"/>
<path d="M64 44.0884H61.0909V47.0037H64V44.0884Z" fill="black"/>
<path d="M72.7273 44.0884H69.8182V47.0037H72.7273V44.0884Z" fill="black"/>
<path d="M75.6364 44.0884H72.7273V47.0037H75.6364V44.0884Z" fill="black"/>
<path d="M78.5455 44.0884H75.6364V47.0037H78.5455V44.0884Z" fill="black"/>
<path d="M87.2728 44.0884H84.3636V47.0037H87.2728V44.0884Z" fill="black"/>
<path d="M90.1818 44.0884H87.2727V47.0037H90.1818V44.0884Z" fill="black"/>
<path d="M8.72729 47.0037H5.81818V49.9194H8.72729V47.0037Z" fill="black"/>
<path d="M14.5455 47.0037H11.6364V49.9194H14.5455V47.0037Z" fill="black"/>
<path d="M23.2727 47.0037H20.3636V49.9194H23.2727V47.0037Z" fill="black"/>
<path d="M26.1818 47.0037H23.2727V49.9194H26.1818V47.0037Z" fill="black"/>
<path d="M29.0909 47.0037H26.1818V49.9194H29.0909V47.0037Z" fill="black"/>
<path d="M32 47.0037H29.0909V49.9194H32V47.0037Z" fill="black"/>
<path d="M34.9091 47.0037H32V49.9194H34.9091V47.0037Z" fill="black"/>
<path d="M46.5455 47.0037H43.6364V49.9194H46.5455V47.0037Z" fill="black"/>
<path d="M49.4545 47.0037H46.5455V49.9194H49.4545V47.0037Z" fill="black"/>
<path d="M52.3636 47.0037H49.4545V49.9194H52.3636V47.0037Z" fill="black"/>
<path d="M55.2727 47.0037H52.3636V49.9194H55.2727V47.0037Z" fill="black"/>
<path d="M66.9091 47.0037H64V49.9194H66.9091V47.0037Z" fill="black"/>
<path d="M75.6364 47.0037H72.7273V49.9194H75.6364V47.0037Z" fill="black"/>
<path d="M78.5455 47.0037H75.6364V49.9194H78.5455V47.0037Z" fill="black"/>
<path d="M81.4545 47.0037H78.5455V49.9194H81.4545V47.0037Z" fill="black"/>
<path d="M84.3636 47.0037H81.4545V49.9194H84.3636V47.0037Z" fill="black"/>
<path d="M8.72729 49.9194H5.81818V52.8352H8.72729V49.9194Z" fill="black"/>
<path d="M11.6364 49.9194H8.72729V52.8352H11.6364V49.9194Z" fill="black"/>
<path d="M14.5455 49.9194H11.6364V52.8352H14.5455V49.9194Z" fill="black"/>
<path d="M17.4545 49.9194H14.5455V52.8352H17.4545V49.9194Z" fill="black"/>
<path d="M20.3636 49.9194H17.4545V52.8352H20.3636V49.9194Z" fill="black"/>
<path d="M32 49.9194H29.0909V52.8352H32V49.9194Z" fill="black"/>
<path d="M34.9091 49.9194H32V52.8352H34.9091V49.9194Z" fill="black"/>
<path d="M37.8182 49.9194H34.9091V52.8352H37.8182V49.9194Z" fill="black"/>
<path d="M46.5455 49.9194H43.6364V52.8352H46.5455V49.9194Z" fill="black"/>
<path d="M49.4545 49.9194H46.5455V52.8352H49.4545V49.9194Z" fill="black"/>
<path d="M55.2727 49.9194H52.3636V52.8352H55.2727V49.9194Z" fill="black"/>
<path d="M69.8182 49.9194H66.9091V52.8352H69.8182V49.9194Z" fill="black"/>
<path d="M72.7273 49.9194H69.8182V52.8352H72.7273V49.9194Z" fill="black"/>
<path d="M84.3636 49.9194H81.4545V52.8352H84.3636V49.9194Z" fill="black"/>
<path d="M90.1818 49.9194H87.2727V52.8352H90.1818V49.9194Z" fill="black"/>
<path d="M8.72729 52.8352H5.81818V55.7505H8.72729V52.8352Z" fill="black"/>
<path d="M20.3636 52.8352H17.4545V55.7505H20.3636V52.8352Z" fill="black"/>
<path d="M23.2727 52.8352H20.3636V55.7505H23.2727V52.8352Z" fill="black"/>
<path d="M26.1818 52.8352H23.2727V55.7505H26.1818V52.8352Z" fill="black"/>
<path d="M29.0909 52.8352H26.1818V55.7505H29.0909V52.8352Z" fill="black"/>
<path d="M34.9091 52.8352H32V55.7505H34.9091V52.8352Z" fill="black"/>
<path d="M37.8182 52.8352H34.9091V55.7505H37.8182V52.8352Z" fill="black"/>
<path d="M43.6364 52.8352H40.7273V55.7505H43.6364V52.8352Z" fill="black"/>
<path d="M49.4545 52.8352H46.5455V55.7505H49.4545V52.8352Z" fill="black"/>
<path d="M52.3636 52.8352H49.4545V55.7505H52.3636V52.8352Z" fill="black"/>
<path d="M64 52.8352H61.0909V55.7505H64V52.8352Z" fill="black"/>
<path d="M81.4545 52.8352H78.5455V55.7505H81.4545V52.8352Z" fill="black"/>
<path d="M84.3636 52.8352H81.4545V55.7505H84.3636V52.8352Z" fill="black"/>
<path d="M8.72729 55.7505H5.81818V58.666H8.72729V55.7505Z" fill="black"/>
<path d="M11.6364 55.7505H8.72729V58.666H11.6364V55.7505Z" fill="black"/>
<path d="M17.4545 55.7505H14.5455V58.666H17.4545V55.7505Z" fill="black"/>
<path d="M20.3636 55.7505H17.4545V58.666H20.3636V55.7505Z" fill="black"/>
<path d="M29.0909 55.7505H26.1818V58.666H29.0909V55.7505Z" fill="black"/>
<path d="M34.9091 55.7505H32V58.666H34.9091V55.7505Z" fill="black"/>
<path d="M37.8182 55.7505H34.9091V58.666H37.8182V55.7505Z" fill="black"/>
<path d="M43.6364 55.7505H40.7273V58.666H43.6364V55.7505Z" fill="black"/>
<path d="M55.2727 55.7505H52.3636V58.666H55.2727V55.7505Z" fill="black"/>
<path d="M61.0909 55.7505H58.1818V58.666H61.0909V55.7505Z" fill="black"/>
<path d="M64 55.7505H61.0909V58.666H64V55.7505Z" fill="black"/>
<path d="M66.9091 55.7505H64V58.666H66.9091V55.7505Z" fill="black"/>
<path d="M69.8182 55.7505H66.9091V58.666H69.8182V55.7505Z" fill="black"/>
<path d="M72.7273 55.7505H69.8182V58.666H72.7273V55.7505Z" fill="black"/>
<path d="M75.6364 55.7505H72.7273V58.666H75.6364V55.7505Z" fill="black"/>
<path d="M78.5455 55.7505H75.6364V58.666H78.5455V55.7505Z" fill="black"/>
<path d="M84.3636 55.7505H81.4545V58.666H84.3636V55.7505Z" fill="black"/>
<path d="M87.2728 55.7505H84.3636V58.666H87.2728V55.7505Z" fill="black"/>
<path d="M90.1818 55.7505H87.2727V58.666H90.1818V55.7505Z" fill="black"/>
<path d="M8.72729 58.6663H5.81818V61.5818H8.72729V58.6663Z" fill="black"/>
<path d="M11.6364 58.6663H8.72729V61.5818H11.6364V58.6663Z" fill="black"/>
<path d="M14.5455 58.6663H11.6364V61.5818H14.5455V58.6663Z" fill="black"/>
<path d="M26.1818 58.6663H23.2727V61.5818H26.1818V58.6663Z" fill="black"/>
<path d="M37.8182 58.6663H34.9091V61.5818H37.8182V58.6663Z" fill="black"/>
<path d="M46.5455 58.6663H43.6364V61.5818H46.5455V58.6663Z" fill="black"/>
<path d="M49.4545 58.6663H46.5455V61.5818H49.4545V58.6663Z" fill="black"/>
<path d="M55.2727 58.6663H52.3636V61.5818H55.2727V58.6663Z" fill="black"/>
<path d="M58.1818 58.6663H55.2727V61.5818H58.1818V58.6663Z" fill="black"/>
<path d="M61.0909 58.6663H58.1818V61.5818H61.0909V58.6663Z" fill="black"/>
<path d="M64 58.6663H61.0909V61.5818H64V58.6663Z" fill="black"/>
<path d="M69.8182 58.6663H66.9091V61.5818H69.8182V58.6663Z" fill="black"/>
<path d="M72.7273 58.6663H69.8182V61.5818H72.7273V58.6663Z" fill="black"/>
<path d="M81.4545 58.6663H78.5455V61.5818H81.4545V58.6663Z" fill="black"/>
<path d="M90.1818 58.6663H87.2727V61.5818H90.1818V58.6663Z" fill="black"/>
<path d="M8.72729 61.5818H5.81818V64.4973H8.72729V61.5818Z" fill="black"/>
<path d="M14.5455 61.5818H11.6364V64.4973H14.5455V61.5818Z" fill="black"/>
<path d="M17.4545 61.5818H14.5455V64.4973H17.4545V61.5818Z" fill="black"/>
<path d="M20.3636 61.5818H17.4545V64.4973H20.3636V61.5818Z" fill="black"/>
<path d="M32 61.5818H29.0909V64.4973H32V61.5818Z" fill="black"/>
<path d="M37.8182 61.5818H34.9091V64.4973H37.8182V61.5818Z" fill="black"/>
<path d="M40.7273 61.5818H37.8182V64.4973H40.7273V61.5818Z" fill="black"/>
<path d="M43.6364 61.5818H40.7273V64.4973H43.6364V61.5818Z" fill="black"/>
<path d="M49.4545 61.5818H46.5455V64.4973H49.4545V61.5818Z" fill="black"/>
<path d="M52.3636 61.5818H49.4545V64.4973H52.3636V61.5818Z" fill="black"/>
<path d="M55.2727 61.5818H52.3636V64.4973H55.2727V61.5818Z" fill="black"/>
<path d="M64 61.5818H61.0909V64.4973H64V61.5818Z" fill="black"/>
<path d="M66.9091 61.5818H64V64.4973H66.9091V61.5818Z" fill="black"/>
<path d="M72.7273 61.5818H69.8182V64.4973H72.7273V61.5818Z" fill="black"/>
<path d="M75.6364 61.5818H72.7273V64.4973H75.6364V61.5818Z" fill="black"/>
<path d="M78.5455 61.5818H75.6364V64.4973H78.5455V61.5818Z" fill="black"/>
<path d="M8.72729 64.4973H5.81818V67.4128H8.72729V64.4973Z" fill="black"/>
<path d="M23.2727 64.4973H20.3636V67.4128H23.2727V64.4973Z" fill="black"/>
<path d="M26.1818 64.4973H23.2727V67.4128H26.1818V64.4973Z" fill="black"/>
<path d="M34.9091 64.4973H32V67.4128H34.9091V64.4973Z" fill="black"/>
<path d="M37.8182 64.4973H34.9091V67.4128H37.8182V64.4973Z" fill="black"/>
<path d="M55.2727 64.4973H52.3636V67.4128H55.2727V64.4973Z" fill="black"/>
<path d="M58.1818 64.4973H55.2727V67.4128H58.1818V64.4973Z" fill="black"/>
<path d="M64 64.4973H61.0909V67.4128H64V64.4973Z" fill="black"/>
<path d="M66.9091 64.4973H64V67.4128H66.9091V64.4973Z" fill="black"/>
<path d="M69.8182 64.4973H66.9091V67.4128H69.8182V64.4973Z" fill="black"/>
<path d="M72.7273 64.4973H69.8182V67.4128H72.7273V64.4973Z" fill="black"/>
<path d="M75.6364 64.4973H72.7273V67.4128H75.6364V64.4973Z" fill="black"/>
<path d="M78.5455 64.4973H75.6364V67.4128H78.5455V64.4973Z" fill="black"/>
<path d="M84.3636 64.4973H81.4545V67.4128H84.3636V64.4973Z" fill="black"/>
<path d="M87.2728 64.4973H84.3636V67.4128H87.2728V64.4973Z" fill="black"/>
<path d="M90.1818 64.4973H87.2727V67.4128H90.1818V64.4973Z" fill="black"/>
<path d="M32 67.4128H29.0909V70.3286H32V67.4128Z" fill="black"/>
<path d="M40.7273 67.4128H37.8182V70.3286H40.7273V67.4128Z" fill="black"/>
<path d="M43.6364 67.4128H40.7273V70.3286H43.6364V67.4128Z" fill="black"/>
<path d="M46.5455 67.4128H43.6364V70.3286H46.5455V67.4128Z" fill="black"/>
<path d="M55.2727 67.4128H52.3636V70.3286H55.2727V67.4128Z" fill="black"/>
<path d="M58.1818 67.4128H55.2727V70.3286H58.1818V67.4128Z" fill="black"/>
<path d="M61.0909 67.4128H58.1818V70.3286H61.0909V67.4128Z" fill="black"/>
<path d="M66.9091 67.4128H64V70.3286H66.9091V67.4128Z" fill="black"/>
<path d="M78.5455 67.4128H75.6364V70.3286H78.5455V67.4128Z" fill="black"/>
<path d="M81.4545 67.4128H78.5455V70.3286H81.4545V67.4128Z" fill="black"/>
<path d="M34.9091 70.3286H32V73.2439H34.9091V70.3286Z" fill="black"/>
<path d="M37.8182 70.3286H34.9091V73.2439H37.8182V70.3286Z" fill="black"/>
<path d="M43.6364 70.3286H40.7273V73.2439H43.6364V70.3286Z" fill="black"/>
<path d="M46.5455 70.3286H43.6364V73.2439H46.5455V70.3286Z" fill="black"/>
<path d="M49.4545 70.3286H46.5455V73.2439H49.4545V70.3286Z" fill="black"/>
<path d="M52.3636 70.3286H49.4545V73.2439H52.3636V70.3286Z" fill="black"/>
<path d="M55.2727 70.3286H52.3636V73.2439H55.2727V70.3286Z" fill="black"/>
<path d="M61.0909 70.3286H58.1818V73.2439H61.0909V70.3286Z" fill="black"/>
<path d="M64 70.3286H61.0909V73.2439H64V70.3286Z" fill="black"/>
<path d="M66.9091 70.3286H64V73.2439H66.9091V70.3286Z" fill="black"/>
<path d="M72.7273 70.3286H69.8182V73.2439H72.7273V70.3286Z" fill="black"/>
<path d="M78.5455 70.3286H75.6364V73.2439H78.5455V70.3286Z" fill="black"/>
<path d="M81.4545 70.3286H78.5455V73.2439H81.4545V70.3286Z" fill="black"/>
<path d="M84.3636 70.3286H81.4545V73.2439H84.3636V70.3286Z" fill="black"/>
<path d="M37.8182 73.2439H34.9091V76.1594H37.8182V73.2439Z" fill="black"/>
<path d="M46.5455 73.2439H43.6364V76.1594H46.5455V73.2439Z" fill="black"/>
<path d="M64 73.2439H61.0909V76.1594H64V73.2439Z" fill="black"/>
<path d="M66.9091 73.2439H64V76.1594H66.9091V73.2439Z" fill="black"/>
<path d="M78.5455 73.2439H75.6364V76.1594H78.5455V73.2439Z" fill="black"/>
<path d="M87.2728 73.2439H84.3636V76.1594H87.2728V73.2439Z" fill="black"/>
<path d="M37.8182 76.1594H34.9091V79.075H37.8182V76.1594Z" fill="black"/>
<path d="M43.6364 76.1594H40.7273V79.075H43.6364V76.1594Z" fill="black"/>
<path d="M46.5455 76.1594H43.6364V79.075H46.5455V76.1594Z" fill="black"/>
<path d="M52.3636 76.1594H49.4545V79.075H52.3636V76.1594Z" fill="black"/>
<path d="M55.2727 76.1594H52.3636V79.075H55.2727V76.1594Z" fill="black"/>
<path d="M61.0909 76.1594H58.1818V79.075H61.0909V76.1594Z" fill="black"/>
<path d="M64 76.1594H61.0909V79.075H64V76.1594Z" fill="black"/>
<path d="M66.9091 76.1594H64V79.075H66.9091V76.1594Z" fill="black"/>
<path d="M69.8182 76.1594H66.9091V79.075H69.8182V76.1594Z" fill="black"/>
<path d="M72.7273 76.1594H69.8182V79.075H72.7273V76.1594Z" fill="black"/>
<path d="M75.6364 76.1594H72.7273V79.075H75.6364V76.1594Z" fill="black"/>
<path d="M78.5455 76.1594H75.6364V79.075H78.5455V76.1594Z" fill="black"/>
<path d="M81.4545 76.1594H78.5455V79.075H81.4545V76.1594Z" fill="black"/>
<path d="M34.9091 79.075H32V81.9907H34.9091V79.075Z" fill="black"/>
<path d="M37.8182 79.075H34.9091V81.9907H37.8182V79.075Z" fill="black"/>
<path d="M43.6364 79.075H40.7273V81.9907H43.6364V79.075Z" fill="black"/>
<path d="M55.2727 79.075H52.3636V81.9907H55.2727V79.075Z" fill="black"/>
<path d="M58.1818 79.075H55.2727V81.9907H58.1818V79.075Z" fill="black"/>
<path d="M61.0909 79.075H58.1818V81.9907H61.0909V79.075Z" fill="black"/>
<path d="M64 79.075H61.0909V81.9907H64V79.075Z" fill="black"/>
<path d="M66.9091 79.075H64V81.9907H66.9091V79.075Z" fill="black"/>
<path d="M75.6364 79.075H72.7273V81.9907H75.6364V79.075Z" fill="black"/>
<path d="M81.4545 79.075H78.5455V81.9907H81.4545V79.075Z" fill="black"/>
<path d="M84.3636 79.075H81.4545V81.9907H84.3636V79.075Z" fill="black"/>
<path d="M87.2728 79.075H84.3636V81.9907H87.2728V79.075Z" fill="black"/>
<path d="M40.7273 81.9907H37.8182V84.9065H40.7273V81.9907Z" fill="black"/>
<path d="M49.4545 81.9907H46.5455V84.9065H49.4545V81.9907Z" fill="black"/>
<path d="M58.1818 81.9907H55.2727V84.9065H58.1818V81.9907Z" fill="black"/>
<path d="M69.8182 81.9907H66.9091V84.9065H69.8182V81.9907Z" fill="black"/>
<path d="M72.7273 81.9907H69.8182V84.9065H72.7273V81.9907Z" fill="black"/>
<path d="M75.6364 81.9907H72.7273V84.9065H75.6364V81.9907Z" fill="black"/>
<path d="M78.5455 81.9907H75.6364V84.9065H78.5455V81.9907Z" fill="black"/>
<path d="M81.4545 81.9907H78.5455V84.9065H81.4545V81.9907Z" fill="black"/>
<path d="M84.3636 81.9907H81.4545V84.9065H84.3636V81.9907Z" fill="black"/>
<path d="M87.2728 81.9907H84.3636V84.9065H87.2728V81.9907Z" fill="black"/>
<path d="M46.5455 84.9065H43.6364V87.8215H46.5455V84.9065Z" fill="black"/>
<path d="M49.4545 84.9065H46.5455V87.8215H49.4545V84.9065Z" fill="black"/>
<path d="M52.3636 84.9065H49.4545V87.8215H52.3636V84.9065Z" fill="black"/>
<path d="M69.8182 84.9065H66.9091V87.8215H69.8182V84.9065Z" fill="black"/>
<path d="M78.5455 84.9065H75.6364V87.8215H78.5455V84.9065Z" fill="black"/>
<path d="M81.4545 84.9065H78.5455V87.8215H81.4545V84.9065Z" fill="black"/>
<path d="M84.3636 84.9065H81.4545V87.8215H84.3636V84.9065Z" fill="black"/>
<path d="M90.1818 84.9065H87.2727V87.8215H90.1818V84.9065Z" fill="black"/>
<path d="M32 87.8215H29.0909V90.7373H32V87.8215Z" fill="black"/>
<path d="M37.8182 87.8215H34.9091V90.7373H37.8182V87.8215Z" fill="black"/>
<path d="M46.5455 87.8215H43.6364V90.7373H46.5455V87.8215Z" fill="black"/>
<path d="M61.0909 87.8215H58.1818V90.7373H61.0909V87.8215Z" fill="black"/>
<path d="M64 87.8215H61.0909V90.7373H64V87.8215Z" fill="black"/>
<path d="M69.8182 87.8215H66.9091V90.7373H69.8182V87.8215Z" fill="black"/>
<path d="M72.7273 87.8215H69.8182V90.7373H72.7273V87.8215Z" fill="black"/>
<path d="M75.6364 87.8215H72.7273V90.7373H75.6364V87.8215Z" fill="black"/>
<path d="M78.5455 87.8215H75.6364V90.7373H78.5455V87.8215Z" fill="black"/>
<path d="M81.4545 87.8215H78.5455V90.7373H81.4545V87.8215Z" fill="black"/>
<path d="M84.3636 87.8215H81.4545V90.7373H84.3636V87.8215Z" fill="black"/>
<path d="M23.1273 6.18579H8.87272H5.81818V9.24717V23.5336V26.595H8.87272H23.1273H26.1818V23.5336V9.24717V6.18579H23.1273ZM23.1273 23.5336H8.87272V9.24717H23.1273V23.5336Z" fill="black"/>
<path d="M87.1273 6.18579H72.8727H69.8182V9.24713V23.5334V26.5947H72.8727H87.1273H90.1818V23.5334V9.24713V6.18579H87.1273ZM87.1273 23.5334H72.8727V9.24713H87.1273V23.5334Z" fill="black"/>
<path d="M23.1273 70.3286H8.87272H5.81818V73.3899V87.676V90.7373H8.87272H23.1273H26.1818V87.676V73.3899V70.3286H23.1273ZM23.1273 87.676H8.87272V73.3899H23.1273V87.676Z" fill="black"/>
<path d="M20.3636 12.0173H11.6364V20.7639H20.3636V12.0173Z" fill="black"/>
<path d="M84.3636 12.0173H75.6364V20.7639H84.3636V12.0173Z" fill="black"/>
<path d="M20.3636 76.1594H11.6364V84.9062H20.3636V76.1594Z" fill="black"/>
</svg>
